#N canvas 372 108 1194 740 10;
#X obj 119 332 lazarchik/phaser-effect;
#X obj 349 167 simple-fuzz-effect;
#N canvas 51 34 795 726 persist-presets 0;
#X msg 169 184 save;
#X obj 79 267 prepend load;
#X obj 169 214 t a b;
#X msg 169 296 mixer-master refreshrate 200 \, mixer-master volume
-3.94847 \, mixer-master mute 0 \, mixer-master leftpan 100 \, mixer-master
rightpan 100 \, mixer-channel8 leftpan 100 \, mixer-channel8 rightpan
100 \, mixer-channel8 solo 0 \, mixer-channel8 mute 0 \, mixer-channel8
volume -3.52542 \, mixer-channel7 leftpan 100 \, mixer-channel7 rightpan
100 \, mixer-channel7 solo 0 \, mixer-channel7 mute 0 \, mixer-channel7
volume -21.9068 \, mixer-channel6 leftpan 100 \, mixer-channel6 rightpan
100 \, mixer-channel6 solo 0 \, mixer-channel6 mute 0 \, mixer-channel6
volume -22.733 \, mixer-channel5 leftpan 100 \, mixer-channel5 rightpan
100 \, mixer-channel5 solo 0 \, mixer-channel5 mute 0 \, mixer-channel5
volume -24.3856 \, mixer-channel4 leftpan 100 \, mixer-channel4 rightpan
100 \, mixer-channel4 solo 0 \, mixer-channel4 mute 0 \, mixer-channel4
volume -12.2712 \, mixer-channel3 leftpan 100 \, mixer-channel3 rightpan
100 \, mixer-channel3 solo 0 \, mixer-channel3 mute 0 \, mixer-channel3
volume -24.3856 \, mixer-channel2 leftpan 100 \, mixer-channel2 rightpan
100 \, mixer-channel2 solo 0 \, mixer-channel2 mute 0 \, mixer-channel2
volume -26.8644 \, mixer-channel1 leftpan 100 \, mixer-channel1 rightpan
100 \, mixer-channel1 solo 0 \, mixer-channel1 mute 0 \, mixer-channel1
volume -20.2542 \,;
#X obj 169 266 mmb/my.hero.mmb \$0-persist;
#X obj 196 239 s \$0-persist;
#X obj 79 200 loadbang;
#X obj 104 105 bng 15 250 50 0 empty empty empty 17 7 0 10 -262144
-1 -1;
#X text 122 103 Load;
#X obj 104 125 bng 15 250 50 0 empty empty empty 17 7 0 10 -262144
-1 -1;
#X text 122 124 Save;
#X connect 0 0 2 0;
#X connect 1 0 4 0;
#X connect 2 0 4 0;
#X connect 2 1 5 0;
#X connect 3 0 1 0;
#X connect 4 0 3 0;
#X connect 6 0 3 0;
#X connect 7 0 6 0;
#X connect 9 0 0 0;
#X coords 0 -1 1 1 65 50 2 100 100;
#X restore 740 9 pd persist-presets;
#X obj 625 311 poly-synth1;
#X obj 629 283 notein 1;
#X obj 747 675 pddp/dsp;
#N canvas 378 82 616 592 \$0-cool-stuff 0;
#X obj 45 51 bassemu~;
#X text 46 99 bassemu/examples/simple-sequencer;
#X obj -9 183 ti_snare;
#X obj -9 158 bng 15 250 50 0 empty empty empty 17 7 0 10 -262144 -1
-1;
#X obj 2 350 dac~;
#X obj 61 288 ti_hihat;
#X obj 57 258 bng 15 250 50 0 empty empty empty 17 7 0 10 -262144 -1
-1;
#X obj 453 369 jmmmp/lbang;
#X obj 285 297 jmmmp/metrum;
#X text 390 119 sfruit/saveclear;
#X text 151 418 tof/imagebang;
#X text 389 134 sfruit/gop-edit;
#X text 384 158 iemlib/samplerate~;
#X text 393 188 iemguts/canvasargs;
#X text 380 217 pddp/print;
#X text 379 241 mmb/waveform.mmb;
#X text 395 93 mapping/keygate;
#X text 394 73 iemlib/soundfile_info;
#X text 394 51 iemguts/receivecanvas;
#X text 353 31 hcs/get-audio-dialog;
#X text 354 18 hcs/window-name;
#X text 369 265 hcs/screensize;
#X text 372 348 cyclone/active;
#X obj 322 502 qlist;
#X obj 385 447 pdmtl/synth.wind~;
#X obj 27 470 pdmtl/init.dollar.zero.top;
#X text 34 508 ggee/gcanvas;
#X connect 2 0 4 0;
#X connect 2 0 4 1;
#X connect 3 0 2 0;
#X connect 5 0 4 0;
#X connect 5 0 4 1;
#X connect 6 0 5 0;
#X restore 629 9 pd \$0-cool-stuff;
#N canvas 483 227 352 287 \$0-debugger 0;
#X obj 105 57 r \$0-global-events;
#X obj 105 86 print \$0-global-event;
#X connect 0 0 1 0;
#X restore 629 76 pd \$0-debugger;
#N canvas 1 364 1571 508 \$0-session-view 0;
#X obj 104 94 session-track \$0 1;
#X obj 278 94 session-track \$0 2;
#X obj 452 94 session-track \$0 3;
#X obj 626 94 session-track \$0 4;
#X obj 800 94 session-track \$0 5;
#X obj 974 94 session-track \$0 6;
#X obj 1148 94 session-track \$0 7;
#X obj 1322 94 session-track \$0 8;
#X restore 629 98 pd \$0-session-view;
#N canvas 264 107 959 577 \$0-drums 0;
#X obj 648 344 ti_snare;
#X obj 60 381 ti_hihat;
#X obj 337 208 mpx16;
#X obj 245 390 kick-drum;
#X obj 370 372 acreil-snare1-drum;
#X obj 508 358 acreil-snare2-drum;
#X obj 226 244 select 2 3 1 4 5;
#X floatatom 337 249 5 0 0 0 - - -;
#X obj 647 317 bng 15 250 50 0 empty empty empty 17 7 0 10 -262144
-1 -1;
#X obj 508 330 bng 15 250 50 0 empty empty empty 17 7 0 10 -262144
-1 -1;
#X obj 243 370 bng 15 250 50 0 empty empty empty 17 7 0 10 -262144
-1 -1;
#X obj 371 348 bng 15 250 50 0 empty empty empty 17 7 0 10 -262144
-1 -1;
#X obj 59 356 bng 15 250 50 0 empty empty empty 17 7 0 10 -262144 -1
-1;
#X obj 337 181 notein;
#X obj 457 137 midiparse;
#X obj 458 39 midiin;
#X obj 457 163 unpack f f;
#X obj 568 545 outlet~;
#X obj 651 548 outlet~;
#X connect 0 0 17 0;
#X connect 0 0 18 0;
#X connect 1 0 17 0;
#X connect 1 0 18 0;
#X connect 2 0 6 0;
#X connect 2 0 7 0;
#X connect 3 0 17 0;
#X connect 3 1 18 0;
#X connect 4 0 17 0;
#X connect 4 1 18 0;
#X connect 5 0 17 0;
#X connect 5 1 18 0;
#X connect 6 0 12 0;
#X connect 6 1 8 0;
#X connect 6 2 10 0;
#X connect 6 3 11 0;
#X connect 6 4 9 0;
#X connect 8 0 0 0;
#X connect 9 0 5 0;
#X connect 10 0 3 0;
#X connect 11 0 4 0;
#X connect 12 0 1 0;
#X connect 13 0 2 0;
#X connect 13 1 2 1;
#X connect 14 0 16 0;
#X connect 15 0 14 0;
#X connect 16 0 2 0;
#X connect 16 1 2 1;
#X restore 779 335 pd \$0-drums;
#X msg 772 590 \; pd dsp 1;
#X obj 767 557 loadbang;
#X obj 135 23 adc~ 1;
#X obj 402 52 adc~ 5;
#X obj 136 686 dac~ 7 8;
#X obj 376 645 dac~ 5 6;
#X obj 129 460 mmb/mixstrip2.mmb~ \$0;
#X obj 369 415 mmb/mixstrip2.mmb~ \$0;
#X connect 0 0 16 0;
#X connect 0 1 16 1;
#X connect 1 0 17 0;
#X connect 1 1 17 1;
#X connect 3 0 17 0;
#X connect 3 0 17 1;
#X connect 4 0 3 0;
#X connect 4 1 3 1;
#X connect 9 0 17 0;
#X connect 9 1 17 1;
#X connect 11 0 10 0;
#X connect 12 0 0 1;
#X connect 12 0 0 0;
#X connect 13 0 1 1;
#X connect 13 0 1 0;
#X connect 16 0 14 0;
#X connect 16 1 14 1;
#X connect 17 0 15 0;
#X connect 17 1 15 1;
