#N canvas 0 22 741 481 10;
#X obj 219 121 noise~;
#X obj 168 199 *~;
#X obj 285 145 samphold~;
#X obj 168 52 t b b;
#X msg 358 69 0;
#X obj 301 107 -~ 1;
#X obj 285 164 *~;
#X obj 301 88 phasor~ 40;
#X obj 336 126 phasor~ 16000;
#X obj 301 126 *~;
#X obj 285 183 hip~ 2000;
#X obj 168 90 qenv~;
#X msg 168 71 1.5 0 \, 0 400;
#X text 94 41 snare 2;
#X obj 154 261 outlet~;
#X obj 275 258 outlet~;
#X obj 165 22 inlet;
#X connect 0 0 2 0;
#X connect 1 0 14 0;
#X connect 1 0 15 0;
#X connect 2 0 6 0;
#X connect 3 0 12 0;
#X connect 3 1 4 0;
#X connect 4 0 7 1;
#X connect 5 0 9 0;
#X connect 5 0 9 1;
#X connect 6 0 10 0;
#X connect 7 0 5 0;
#X connect 8 0 2 1;
#X connect 9 0 6 1;
#X connect 10 0 1 1;
#X connect 11 0 1 0;
#X connect 12 0 11 0;
#X connect 16 0 3 0;
