#N canvas 0 22 595 449 10;
#X obj 289 113 mtof;
#X obj 314 176 wrap~;
#X obj 288 211 -~;
#X obj 289 94 line;
#X obj 246 307 *~;
#X obj 368 233 noise~;
#X obj 261 250 qenv~;
#X obj 368 252 samphold~;
#X obj 314 157 *~ 8;
#X obj 314 195 /~ 8;
#X obj 289 132 dphasor1~ xx 8;
#X obj 200 73 t b b;
#X obj 289 56 t b;
#X obj 227 111 f 0;
#X obj 227 130 sig~;
#X obj 227 92 delay 130;
#X msg 261 231 0.65 0 \, 0.65 150;
#X msg 289 75 120 0 \, 50 120;
#X obj 200 111 f 0.7;
#X obj 261 288 cos~;
#X obj 261 269 *~;
#X obj 288 26 inlet;
#X obj 234 356 outlet~;
#X obj 290 357 outlet~;
#X connect 0 0 10 0;
#X connect 1 0 7 1;
#X connect 1 0 9 0;
#X connect 2 0 19 0;
#X connect 3 0 0 0;
#X connect 4 0 23 0;
#X connect 4 0 22 0;
#X connect 5 0 7 0;
#X connect 6 0 20 0;
#X connect 7 0 20 1;
#X connect 8 0 1 0;
#X connect 9 0 2 1;
#X connect 10 0 2 0;
#X connect 10 0 8 0;
#X connect 11 0 18 0;
#X connect 11 1 15 0;
#X connect 12 0 17 0;
#X connect 12 0 16 0;
#X connect 12 0 11 0;
#X connect 13 0 14 0;
#X connect 14 0 4 0;
#X connect 15 0 13 0;
#X connect 16 0 6 0;
#X connect 17 0 3 0;
#X connect 18 0 14 0;
#X connect 19 0 4 1;
#X connect 20 0 19 0;
#X connect 21 0 12 0;
