#N canvas 623 22 901 918 10;
#X obj 532 363 pointer;
#X msg 532 338 traverse pd-\$1-visuals \, bang;
#X obj 532 313 f \$0;
#X obj 532 157 t b;
#X msg 270 34 bang;
#X obj 317 33 loadbang;
#X obj 78 627 iemguts/sendcanvas;
#X obj 18 709 s \$0-child-canvas;
#X msg 18 668 donecanvasdialog 0 0 2 0 0 \$1 \$2 \$1 \$2 0 0 \, dirty
0;
#X obj 276 69 t b b b;
#X obj 668 68 f \$0;
#X msg 668 95 \; pd-\$1-visuals clear;
#X msg 668 40 bang;
#X msg 78 585 donecanvasdialog 0 0 2 0 0 1 1 \$1 \$2 500 500 \, dirty
0;
#X obj 40 312 pack f f;
#X obj 18 395 list;
#X obj 27 264 t b;
#X obj 122 544 set -symbol \$0-template label;
#X obj 122 518 symbol;
#X obj 122 485 t b p;
#X obj 503 500 hsl 95 20 0 127 0 0 \$0-fsdjksfljkfdljkfds \$0-sfd89j42ruihosidfh89
empty -2 -8 0 10 -262144 -262144 -1 0 1;
#N canvas 19 219 596 466 \$0-visuals 0;
#X coords 0 0 100 20 100 20 2 0 0;
#X restore 500 500 pd \$0-visuals;
#X obj 18 552 t a a a;
#X msg 332 522 size \$1 \$2;
#X obj 332 449 unpack f f;
#X obj 332 472 - 5;
#X obj 332 495 pack f f;
#X obj 38 422 t a;
#X obj 490 696 int;
#X obj 639 618 t b;
#X msg 630 675 0;
#X obj 800 811 outlet;
#X obj 590 760 +;
#X obj 631 759 +;
#X obj 490 718 t f f f f;
#N canvas 705 163 670 564 \$0-mouse-filter 0;
#X obj 29 37 inlet;
#X obj 41 514 outlet;
#X obj 236 161 cyclone/MouseState;
#X msg 236 126 poll;
#X obj 243 282 moses 1;
#X msg 448 103 nopoll;
#X obj 61 442 lzr/once;
#X obj 242 317 lzr/once;
#X obj 262 492 outlet;
#X obj 241 252 spigot;
#X msg 204 198 1;
#X obj 269 354 t b b b b b;
#X msg 301 194 0;
#X obj 25 74 t b b b;
#X connect 0 0 13 0;
#X connect 2 0 9 0;
#X connect 3 0 2 0;
#X connect 4 0 7 0;
#X connect 5 0 2 0;
#X connect 6 0 1 0;
#X connect 7 0 11 0;
#X connect 9 0 4 0;
#X connect 10 0 9 1;
#X connect 11 0 7 1;
#X connect 11 1 6 1;
#X connect 11 2 8 0;
#X connect 11 3 5 0;
#X connect 11 4 12 0;
#X connect 12 0 9 1;
#X connect 13 0 10 0;
#X connect 13 1 3 0;
#X connect 13 2 6 0;
#X restore 635 580 pd \$0-mouse-filter;
#X obj 39 742 struct \$0-template float w float h float w2 float h2
float border-color float background-color float behind-color float
shadow-color float levitation float text-color symbol label float boxpos
float symbolpos;
#X obj 122 396 append \$0-template w w2 h h2 levitation background-color
border-color shadow-color behind-color text-color boxpos symbolpos
, f 59;
#X obj 492 799 set \$0-template boxpos symbolpos w h;
#X obj 510 763 + 5;
#X obj 108 317 - 2;
#X obj 157 320 - 2;
#X msg 612 648 2;
#X msg 707 708 mousedown;
#X obj 760 611 t b b;
#X msg 789 726 mouseup;
#X obj 160 246 t f f f;
#X obj 74 262 t f f f;
#X obj 39 801 filledpolygon behind-color behind-color 1 0 0 w2 0 w2
h2 0 h2, f 62;
#X obj 39 826 filledpolygon shadow-color shadow-color 1 levitation
levitation w2 levitation w2 h2 levitation h2, f 101;
#X obj 39 850 filledpolygon background-color border-color 1 boxpos
boxpos w boxpos w h boxpos h, f 101;
#X obj 40 874 drawsymbol label symbolpos symbolpos text-color;
#X obj 122 355 pack f f f f 2 999 0 555 999 0 0 5;
#N canvas 431 22 905 905 \$0-arg-defaults 0;
#X obj 464 152 list split 1;
#X obj 464 190 route symbol float;
#X text 273 842 message to send on click;
#X obj 467 246 list;
#X obj 423 330 list split 1;
#X obj 405 221 t s b;
#X obj 423 358 route symbol float;
#X obj 445 455 zexy/list2symbol;
#X obj 433 420 list;
#X obj 417 392 t b;
#X text 530 842 Button label;
#X obj 608 411 list;
#X obj 605 464 list split 2;
#X obj 514 392 t b;
#X obj 569 524 unpack f f;
#X obj 661 524 zexy/list2symbol;
#X text 84 824 width;
#X text 162 825 height;
#X obj 91 697 f 100;
#X obj 159 697 f 20;
#X obj 571 92 iemlib/dollarg;
#X obj 605 253 t b;
#X obj 613 117 t a a;
#X obj 224 36 inlet;
#X obj 224 61 t b b;
#X obj 53 350 t b b b b;
#X obj 82 797 outlet;
#X obj 170 800 outlet;
#X obj 298 807 outlet;
#X obj 565 804 outlet;
#X obj 246 746 symbol mousedown;
#X obj 541 719 symbol Button;
#X obj 519 294 t a a;
#X obj 282 774 list trim;
#X connect 0 0 1 0;
#X connect 0 1 3 1;
#X connect 1 0 5 0;
#X connect 1 1 21 0;
#X connect 3 0 32 0;
#X connect 4 0 6 0;
#X connect 5 0 30 1;
#X connect 5 1 3 0;
#X connect 6 0 9 0;
#X connect 6 1 13 0;
#X connect 7 0 31 1;
#X connect 8 0 7 0;
#X connect 9 0 8 0;
#X connect 11 0 12 0;
#X connect 12 0 14 0;
#X connect 12 1 15 0;
#X connect 13 0 11 0;
#X connect 14 0 18 1;
#X connect 14 1 19 1;
#X connect 15 0 31 1;
#X connect 18 0 26 0;
#X connect 19 0 27 0;
#X connect 20 0 22 0;
#X connect 21 0 11 0;
#X connect 22 0 0 0;
#X connect 22 1 11 1;
#X connect 23 0 24 0;
#X connect 24 0 25 0;
#X connect 24 1 20 0;
#X connect 25 0 18 0;
#X connect 25 1 19 0;
#X connect 25 2 30 0;
#X connect 25 3 31 0;
#X connect 30 0 33 0;
#X connect 31 0 29 0;
#X connect 32 0 4 0;
#X connect 32 1 11 1;
#X connect 32 1 8 1;
#X connect 33 0 28 0;
#X restore 204 178 pd \$0-arg-defaults;
#X obj 633 464 t a a;
#X obj 747 513 route mousedown;
#X obj 790 673 spigot;
#X msg 838 630 0;
#X msg 803 587 1;
#X obj 658 551 lzr/prepend set;
#X connect 0 0 37 12;
#X connect 1 0 0 0;
#X connect 2 0 1 0;
#X connect 3 0 2 0;
#X connect 4 0 9 0;
#X connect 5 0 9 0;
#X connect 8 0 7 0;
#X connect 9 0 16 0;
#X connect 9 1 53 0;
#X connect 9 2 3 0;
#X connect 10 0 11 0;
#X connect 12 0 10 0;
#X connect 13 0 6 0;
#X connect 14 0 15 1;
#X connect 15 0 22 0;
#X connect 16 0 15 0;
#X connect 18 0 17 0;
#X connect 19 0 18 0;
#X connect 19 1 17 1;
#X connect 20 0 35 0;
#X connect 22 0 27 0;
#X connect 22 1 13 0;
#X connect 22 2 8 0;
#X connect 23 0 20 0;
#X connect 24 0 25 0;
#X connect 24 1 26 1;
#X connect 25 0 26 0;
#X connect 26 0 23 0;
#X connect 27 0 24 0;
#X connect 28 0 34 0;
#X connect 29 0 42 0;
#X connect 29 0 43 0;
#X connect 30 0 28 0;
#X connect 32 0 38 2;
#X connect 33 0 38 3;
#X connect 34 0 38 0;
#X connect 34 1 39 0;
#X connect 34 2 32 0;
#X connect 34 3 33 0;
#X connect 35 0 29 0;
#X connect 35 1 44 0;
#X connect 37 0 19 0;
#X connect 37 0 38 4;
#X connect 39 0 38 1;
#X connect 40 0 32 1;
#X connect 40 0 52 0;
#X connect 41 0 33 1;
#X connect 41 0 52 2;
#X connect 42 0 28 0;
#X connect 43 0 31 0;
#X connect 44 0 56 0;
#X connect 44 1 30 0;
#X connect 45 0 31 0;
#X connect 46 0 14 1;
#X connect 46 1 41 0;
#X connect 46 2 52 3;
#X connect 47 0 14 0;
#X connect 47 1 40 0;
#X connect 47 2 52 1;
#X connect 52 0 37 0;
#X connect 53 0 47 0;
#X connect 53 1 46 0;
#X connect 53 2 54 0;
#X connect 53 3 18 1;
#X connect 54 0 59 0;
#X connect 54 1 55 0;
#X connect 55 0 58 0;
#X connect 55 1 57 0;
#X connect 56 0 45 0;
#X connect 57 0 56 1;
#X connect 58 0 56 1;
#X connect 59 0 43 0;
#X coords 0 0 1 1 100 20 2 500 500;
