#N canvas 370 22 1120 907 10;
#X obj 822 14 lzr/input-interface-selector;
#N canvas 0 22 1440 768 mixer 0;
#X obj 105 274 mmb/mixstrip2.mmb~ \$0;
#X obj 180 274 mmb/mixstrip2.mmb~ \$0;
#X obj 255 274 mmb/mixstrip2.mmb~ \$0;
#X obj 330 274 mmb/mixstrip2.mmb~ \$0;
#X obj 405 274 mmb/mixstrip2.mmb~ \$0;
#X obj 480 274 mmb/mixstrip2.mmb~ \$0;
#X obj 555 274 mmb/mixstrip2.mmb~ \$0;
#X obj 630 274 mmb/mixstrip2.mmb~ \$0;
#X obj 104 211 inlet~;
#X obj 127 188 inlet~;
#X obj 182 211 inlet~;
#X obj 205 188 inlet~;
#X obj 256 212 inlet~;
#X obj 279 189 inlet~;
#X obj 334 212 inlet~;
#X obj 357 189 inlet~;
#X obj 405 210 inlet~;
#X obj 428 187 inlet~;
#X obj 483 210 inlet~;
#X obj 506 187 inlet~;
#X obj 557 211 inlet~;
#X obj 580 188 inlet~;
#X obj 635 211 inlet~;
#X obj 658 188 inlet~;
#X msg 969 459 clear;
#X obj 911 183 t b b;
#X msg 889 213 dump;
#X obj 741 212 inlet;
#X obj 113 518 prepend add;
#X obj 101 494 t a;
#X obj 96 702 mmb/save.me.mmb mixer-channel1 \$0-persist;
#X obj 193 521 prepend add;
#X obj 181 497 t a;
#X obj 267 519 prepend add;
#X obj 255 495 t a;
#X obj 170 680 mmb/save.me.mmb mixer-channel2 \$0-persist;
#X obj 250 656 mmb/save.me.mmb mixer-channel3 \$0-persist;
#X obj 347 517 prepend add;
#X obj 335 493 t a;
#X obj 325 634 mmb/save.me.mmb mixer-channel4 \$0-persist;
#X obj 420 516 prepend add;
#X obj 408 492 t a;
#X obj 382 610 mmb/save.me.mmb mixer-channel5 \$0-persist;
#X obj 493 519 prepend add;
#X obj 481 495 t a;
#X obj 475 589 mmb/save.me.mmb mixer-channel6 \$0-persist;
#X obj 567 520 prepend add;
#X obj 555 496 t a;
#X obj 545 568 mmb/save.me.mmb mixer-channel7 \$0-persist;
#X obj 643 520 prepend add;
#X obj 631 496 t a;
#X obj 617 546 mmb/save.me.mmb mixer-channel8 \$0-persist;
#X obj 911 161 r \$0-persist;
#X obj 57 -17 catch~ \$0-track1-mixer-left;
#X obj 73 2 catch~ \$0-track1-mixer-right;
#X obj 91 22 catch~ \$0-track2-mixer-left;
#X obj 107 41 catch~ \$0-track2-mixer-right;
#X obj 150 62 catch~ \$0-track3-mixer-left;
#X obj 166 81 catch~ \$0-track3-mixer-right;
#X obj 187 100 catch~ \$0-track4-mixer-left;
#X obj 211 119 catch~ \$0-track4-mixer-right;
#X obj 321 -1 catch~ \$0-track5-mixer-left;
#X obj 337 18 catch~ \$0-track5-mixer-right;
#X obj 380 39 catch~ \$0-track6-mixer-left;
#X obj 396 58 catch~ \$0-track6-mixer-right;
#X obj 441 79 catch~ \$0-track7-mixer-left;
#X obj 460 98 catch~ \$0-track7-mixer-right;
#X obj 500 119 catch~ \$0-track8-mixer-left;
#X obj 526 138 catch~ \$0-track8-mixer-right;
#X connect 0 2 28 0;
#X connect 1 2 31 0;
#X connect 2 2 33 0;
#X connect 3 2 37 0;
#X connect 4 2 40 0;
#X connect 5 2 43 0;
#X connect 6 2 46 0;
#X connect 7 2 49 0;
#X connect 8 0 0 0;
#X connect 9 0 0 1;
#X connect 10 0 1 0;
#X connect 11 0 1 1;
#X connect 12 0 2 0;
#X connect 13 0 2 1;
#X connect 14 0 3 0;
#X connect 15 0 3 1;
#X connect 16 0 4 0;
#X connect 17 0 4 1;
#X connect 18 0 5 0;
#X connect 19 0 5 1;
#X connect 20 0 6 0;
#X connect 21 0 6 1;
#X connect 22 0 7 0;
#X connect 23 0 7 1;
#X connect 24 0 30 1;
#X connect 24 0 35 1;
#X connect 24 0 36 1;
#X connect 24 0 39 1;
#X connect 24 0 42 1;
#X connect 24 0 45 1;
#X connect 24 0 48 1;
#X connect 24 0 51 1;
#X connect 25 0 26 0;
#X connect 25 1 24 0;
#X connect 26 0 0 2;
#X connect 26 0 1 2;
#X connect 26 0 2 2;
#X connect 26 0 3 2;
#X connect 26 0 4 2;
#X connect 26 0 5 2;
#X connect 26 0 6 2;
#X connect 26 0 7 2;
#X connect 28 0 30 0;
#X connect 29 0 0 2;
#X connect 30 0 29 0;
#X connect 31 0 35 0;
#X connect 32 0 1 2;
#X connect 33 0 36 0;
#X connect 34 0 2 2;
#X connect 35 0 32 0;
#X connect 36 0 34 0;
#X connect 37 0 39 0;
#X connect 38 0 3 2;
#X connect 39 0 38 0;
#X connect 40 0 42 0;
#X connect 41 0 4 2;
#X connect 42 0 41 0;
#X connect 43 0 45 0;
#X connect 44 0 5 2;
#X connect 45 0 44 0;
#X connect 46 0 48 0;
#X connect 47 0 6 2;
#X connect 48 0 47 0;
#X connect 49 0 51 0;
#X connect 50 0 7 2;
#X connect 51 0 50 0;
#X connect 52 0 25 0;
#X connect 53 0 0 0;
#X connect 54 0 0 1;
#X connect 55 0 1 0;
#X connect 56 0 1 1;
#X connect 57 0 2 0;
#X connect 58 0 2 1;
#X connect 59 0 3 0;
#X connect 60 0 3 1;
#X connect 61 0 4 0;
#X connect 62 0 4 1;
#X connect 63 0 5 0;
#X connect 64 0 5 1;
#X connect 65 0 6 0;
#X connect 66 0 6 1;
#X connect 67 0 7 0;
#X connect 68 0 7 1;
#X coords 0 -1 1 1 605 220 2 100 270;
#X restore 34 324 pd mixer;
#N canvas 264 91 1374 787 persist-presets 0;
#X obj 17 17 bng 15 250 50 0 \$0-load-project.gui empty empty 17 7
0 10 -262144 -1 -1;
#X text 35 15 Load;
#X obj 17 39 bng 15 250 50 0 \$0-save-project.gui empty empty 17 7
0 10 -262144 -1 -1;
#X text 35 38 Save;
#X obj 871 595 textfile;
#X msg 841 495 clear;
#X msg 973 418 save;
#X msg 941 551 write \$1;
#X obj 1098 369 textfile;
#X msg 1098 331 read \$1 \, rewind \, bang;
#X obj 1070 394 t b a;
#X obj 1097 421 prepend load;
#X obj 871 523 prepend add;
#X obj 973 455 mmb/my.hero.mmb \$0-persist;
#X msg 968 484 metro-volume 0.01 \, timesig 3 \, bpm 66 \, mixer-master
state 1 \,;
#X obj 912 484 t a;
#X obj 17 63 bng 15 250 50 0 \$0-save-project-as.gui empty empty 17
7 0 10 -262144 -1 -1;
#X text 35 62 Save As;
#X obj 1134 23 r \$0-load-project.gui;
#X obj 342 23 r \$0-save-project.gui;
#X obj 10 91 cnv 15 100 60 \$0-project-name.gui \$0-project-name.gui.set
PdTest 20 12 0 14 -233017 -66577 0;
#X obj 926 333 t s s b b b;
#X msg 448 409 label \$1;
#X obj 448 432 s \$0-project-name.gui.set;
#X obj 975 24 r \$0-save-project-as.gui;
#X obj 342 429 moses 1;
#X obj 381 699 t a;
#X obj 606 716 t a;
#X obj 680 539 t a;
#X obj 680 136 t a;
#X obj 342 378 int;
#X msg 357 354 1;
#X text 240 380 has the project;
#X text 247 394 been saved?;
#X obj 381 605 symbol;
#X obj 381 576 t b;
#X obj 448 378 splitfilename;
#X obj 802 405 s \$0-global-events;
#X msg 802 383 saving \$1;
#X obj 1116 268 s \$0-global-events;
#X msg 1116 244 loading \$1;
#X text 441 171 change current project;
#X text 678 39 on loadbang;
#X obj 1098 196 t a;
#X text 450 523 show save dialog;
#X text 392 722 save project to this location;
#X obj 395 170 t a;
#X text 232 603 path to current project;
#N canvas 572 64 862 838 \$0-project-chooser 0;
#X obj 353 330 hcs/sys_gui;
#X msg 353 303 file mkdir \$1;
#X obj 211 250 makefilename %s/audio;
#X obj 353 249 makefilename %s/midi;
#X obj 583 19 inlet;
#X obj 353 743 outlet;
#X obj 211 329 hcs/sys_gui;
#X msg 211 302 file mkdir \$1;
#X obj 511 248 t a;
#X obj 353 403 symbol;
#X obj 353 436 spigot;
#X obj 353 517 spigot;
#X msg 409 403 1;
#X msg 386 477 1;
#X obj 353 370 t b b;
#X obj 211 372 t b b;
#X obj 511 321 t a;
#X msg 479 419 0;
#X obj 334 213 t s s s;
#X text 412 536 reset spigots;
#X obj 372 577 makefilename %s/project.txt;
#X obj 353 547 t s s b;
#X obj 577 749 outlet;
#X obj 266 182 tof/folderpanel;
#X obj 583 48 route save load;
#X obj 646 749 outlet;
#X text 84 442 The goal of this whole block here -->;
#X text 53 482 is to output the folder path only when -->;
#X text 88 525 we get both bangs from sys_gui's -->;
#X text 579 765 save;
#X text 344 768 project directory;
#X text 653 769 load;
#X obj 646 634 spigot;
#X msg 679 561 1;
#X obj 646 692 t s b;
#X msg 751 560 0;
#X obj 652 76 t a b;
#X obj 577 635 spigot;
#X msg 610 561 1;
#X obj 577 693 t s b;
#X obj 583 77 t a b;
#X obj 577 605 t a;
#X obj 673 715 t a;
#X obj 690 601 t a;
#X obj 334 156 route bang;
#X obj 391 181 symbol;
#X connect 0 0 14 0;
#X connect 1 0 0 0;
#X connect 2 0 7 0;
#X connect 3 0 1 0;
#X connect 4 0 24 0;
#X connect 6 0 15 0;
#X connect 7 0 6 0;
#X connect 8 0 16 0;
#X connect 9 0 10 0;
#X connect 10 0 11 0;
#X connect 11 0 21 0;
#X connect 12 0 10 1;
#X connect 13 0 11 1;
#X connect 14 0 9 0;
#X connect 14 1 12 0;
#X connect 15 0 9 0;
#X connect 15 1 13 0;
#X connect 16 0 9 1;
#X connect 17 0 10 1;
#X connect 17 0 11 1;
#X connect 18 0 2 0;
#X connect 18 1 3 0;
#X connect 18 2 8 0;
#X connect 20 0 41 0;
#X connect 21 0 5 0;
#X connect 21 1 20 0;
#X connect 21 2 17 0;
#X connect 23 0 18 0;
#X connect 24 0 40 0;
#X connect 24 1 36 0;
#X connect 32 0 34 0;
#X connect 33 0 32 1;
#X connect 34 0 25 0;
#X connect 34 1 42 0;
#X connect 35 0 43 0;
#X connect 36 0 44 0;
#X connect 36 1 33 0;
#X connect 37 0 39 0;
#X connect 38 0 37 1;
#X connect 39 0 22 0;
#X connect 39 1 42 0;
#X connect 40 0 44 0;
#X connect 40 1 38 0;
#X connect 41 0 37 0;
#X connect 41 0 32 0;
#X connect 42 0 35 0;
#X connect 43 0 32 1;
#X connect 43 0 37 1;
#X connect 44 0 23 0;
#X connect 44 1 45 0;
#X connect 45 0 18 0;
#X restore 975 153 pd \$0-project-chooser;
#X msg 1134 57 load;
#X msg 975 59 save;
#X obj 395 308 t b s s;
#X msg 342 452 save;
#X obj 381 641 list prepend save;
#X obj 342 505 t a;
#N canvas 276 252 897 478 \$0-remember-last-project 0;
#X obj 110 43 r \$0-global-events;
#X obj 110 74 route loading saving;
#X obj 110 198 textfile;
#X msg 110 173 clear \, add last-project \$1 \, write state/state.txt
;
#X obj 585 31 loadbang;
#X msg 585 60 read state/state.txt \, rewind \, bang;
#X obj 585 93 textfile;
#X obj 585 126 route last-project;
#X obj 585 391 outlet;
#X text 598 356 outputs last opened project name;
#X text 598 370 on loadbang;
#X obj 110 117 symbol;
#X obj 563 32 bng 15 250 50 0 empty empty empty 17 7 0 10 -262144 -1
-1;
#X obj 585 221 zexy/list2symbol;
#X text 609 200 handle spaces in filename;
#X connect 0 0 1 0;
#X connect 1 0 11 0;
#X connect 1 1 11 0;
#X connect 3 0 2 0;
#X connect 4 0 5 0;
#X connect 5 0 6 0;
#X connect 6 0 7 0;
#X connect 7 0 13 0;
#X connect 11 0 3 0;
#X connect 12 0 5 0;
#X connect 13 0 8 0;
#X restore 669 20 pd \$0-remember-last-project;
#X obj 669 87 list prepend load;
#X text 678 53 outputs last opened project;
#X text 1070 171 load;
#X text 949 230 save;
#X obj 606 522 t a;
#X obj 381 669 list trim;
#X obj 669 109 list trim;
#X obj 802 359 splitfilename;
#X obj 1116 221 splitfilename;
#X connect 5 0 4 0;
#X connect 6 0 13 0;
#X connect 7 0 4 0;
#X connect 8 0 10 0;
#X connect 9 0 8 0;
#X connect 10 0 8 0;
#X connect 10 1 11 0;
#X connect 11 0 13 0;
#X connect 12 0 4 0;
#X connect 13 0 14 0;
#X connect 14 0 15 0;
#X connect 15 0 12 0;
#X connect 18 0 49 0;
#X connect 19 0 30 0;
#X connect 21 0 63 0;
#X connect 21 1 7 0;
#X connect 21 2 14 0;
#X connect 21 3 6 0;
#X connect 21 4 5 0;
#X connect 22 0 23 0;
#X connect 24 0 50 0;
#X connect 25 0 52 0;
#X connect 25 1 35 0;
#X connect 26 0 27 0;
#X connect 27 0 60 0;
#X connect 28 0 29 0;
#X connect 29 0 48 0;
#X connect 30 0 25 0;
#X connect 31 0 30 1;
#X connect 34 0 53 0;
#X connect 35 0 34 0;
#X connect 36 1 22 0;
#X connect 38 0 37 0;
#X connect 40 0 39 0;
#X connect 43 0 9 0;
#X connect 43 0 64 0;
#X connect 46 0 51 0;
#X connect 48 0 46 0;
#X connect 48 1 21 0;
#X connect 48 2 43 0;
#X connect 49 0 48 0;
#X connect 50 0 48 0;
#X connect 51 0 31 0;
#X connect 51 1 34 1;
#X connect 51 2 36 0;
#X connect 52 0 54 0;
#X connect 53 0 61 0;
#X connect 54 0 60 0;
#X connect 55 0 56 0;
#X connect 56 0 62 0;
#X connect 60 0 28 0;
#X connect 61 0 26 0;
#X connect 62 0 29 0;
#X connect 63 0 38 0;
#X connect 64 0 40 0;
#X coords 0 -1 1 1 75 75 2 10 10;
#X restore 740 9 pd persist-presets;
#N canvas 413 118 703 525 mixer-master 0;
#X obj 106 334 dac~;
#X obj 130 43 t b b;
#X msg 108 73 dump;
#X obj 130 21 r \$0-persist;
#X msg 235 132 clear;
#X obj 37 194 t a;
#X obj 154 433 prepend add;
#X obj 108 468 mmb/save.me.mmb mixer-master \$0-persist;
#X obj 89 38 bng 15 250 50 0 empty empty empty 17 7 0 10 -262144 -1
-1;
#X obj 105 104 mixstripmaster \$0;
#X connect 1 0 2 0;
#X connect 1 1 4 0;
#X connect 2 0 9 2;
#X connect 3 0 1 0;
#X connect 4 0 7 1;
#X connect 5 0 9 2;
#X connect 6 0 7 0;
#X connect 7 0 5 0;
#X connect 8 0 1 0;
#X connect 9 0 0 0;
#X connect 9 1 0 1;
#X connect 9 2 6 0;
#X coords 0 -1 1 1 80 220 2 100 100;
#X restore 646 324 pd mixer-master;
#X obj 302 33 lzr/transport-buttons;
#X obj 753 527 pddp/dsp;
#N canvas 389 79 616 592 \$0-cool-stuff 0;
#X obj 45 51 bassemu~;
#X text 46 99 bassemu/examples/simple-sequencer;
#X obj 34 164 bng 15 250 50 0 empty empty empty 17 7 0 10 -262144 -1
-1;
#X obj 45 356 dac~;
#X obj 100 264 bng 15 250 50 0 empty empty empty 17 7 0 10 -262144
-1 -1;
#X obj 453 369 jmmmp/lbang;
#X obj 285 297 jmmmp/metrum;
#X text 390 119 sfruit/saveclear;
#X text 151 418 tof/imagebang;
#X text 389 134 sfruit/gop-edit;
#X text 384 158 iemlib/samplerate~;
#X text 393 188 iemguts/canvasargs;
#X text 380 217 pddp/print;
#X text 379 241 mmb/waveform.mmb;
#X text 395 93 mapping/keygate;
#X text 394 73 iemlib/soundfile_info;
#X text 394 51 iemguts/receivecanvas;
#X text 353 31 hcs/get-audio-dialog;
#X text 354 18 hcs/window-name;
#X text 369 265 hcs/screensize;
#X text 372 348 cyclone/active;
#X obj 322 502 qlist;
#X obj 385 447 pdmtl/synth.wind~;
#X obj 27 470 pdmtl/init.dollar.zero.top;
#X text 34 508 ggee/gcanvas;
#X text 390 401 unauthorized/grid;
#X text 408 488 tof/pmenu;
#X text 413 506 sfruit/cpugraph;
#X text 289 542 MouseState!;
#X text 116 361 list-idx: Get element at position idx.;
#X text 34 15 iemguts/canvasdelete;
#X text 124 43 iemguts/sendcanvas;
#X text 45 124 zexy/demultiplex~;
#X obj 104 294 creb/ti_hihat;
#X obj 34 189 creb/ti_snare;
#X connect 2 0 34 0;
#X connect 4 0 33 0;
#X connect 33 0 3 0;
#X connect 33 0 3 1;
#X connect 34 0 3 0;
#X connect 34 0 3 1;
#X restore 629 9 pd \$0-cool-stuff;
#N canvas 154 88 1193 779 \$0-gui-tricks 0;
#N canvas 298 277 537 413 canvasposition 0;
#X obj 380 43 inlet;
#X obj 387 359 outlet;
#X obj 445 340 outlet;
#X obj 278 45 inlet;
#N canvas 805 348 450 300 canvaspos 0;
#X obj 279 31 inlet;
#X obj 270 192 outlet;
#X obj 340 185 outlet;
#X obj 100 100 cnv 60 60 60 empty empty Test_1 2 13 0 14 -257985 -66577
0;
#X obj 259 99 iemguts/canvasposition;
#X connect 0 0 4 0;
#X connect 4 0 1 0;
#X connect 4 1 2 0;
#X coords 0 -1 1 1 60 60 2 100 100;
#X restore 100 100 pd canvaspos;
#X msg 348 121 map 0 \, map 1;
#N canvas 805 348 450 300 canvaspos 0;
#X obj 279 31 inlet;
#X obj 270 192 outlet;
#X obj 340 185 outlet;
#X obj 100 100 cnv 60 60 60 empty empty Test_2 2 13 0 14 -4034 -66577
0;
#X obj 259 99 iemguts/canvasposition;
#X connect 0 0 4 0;
#X connect 4 0 1 0;
#X connect 4 1 2 0;
#X coords 0 -1 1 1 60 60 2 100 100;
#X restore 100 100 pd canvaspos;
#X obj 347 143 iemguts/sendcanvas 3;
#X connect 0 0 4 0;
#X connect 0 0 5 0;
#X connect 3 0 5 0;
#X connect 3 0 6 0;
#X connect 4 0 1 0;
#X connect 5 0 7 0;
#X coords 0 -1 1 1 60 60 2 100 100;
#X restore 243 344 pd canvasposition;
#X obj 96 113 hsl 128 15 0 200 0 0 empty empty empty -2 -8 0 10 -262144
-1 -1 0 1;
#X floatatom 243 427 5 0 0 0 - - -, f 5;
#X floatatom 296 428 5 0 0 0 - - -, f 5;
#X obj 96 91 hsl 128 15 0 200 0 0 empty empty empty -2 -8 0 10 -262144
-1 -1 0 1;
#X msg 43 137 \$1 100;
#X msg 92 137 \$1 100;
#X msg 282 284 100 100;
#X obj 253 195 bng 15 250 50 0 empty empty empty 17 7 0 10 -262144
-1 -1;
#X msg 367 280 100 100;
#X obj 341 193 bng 15 250 50 0 empty empty empty 17 7 0 10 -262144
-1 -1;
#X msg 280 253 99 99;
#X msg 368 251 99 99;
#X obj 313 63 tgl 15 0 empty empty empty 17 7 0 10 -262144 -1 -1 0
1;
#X obj 313 101 select 0 1;
#N canvas 222 118 860 650 browser 0;
#X msg -106 417 folder \$1;
#X obj -106 362 route folder;
#X obj -106 391 symbol;
#X obj 29 35 mmb/browser.mmb;
#X obj -188 9 jmmmp/lbang;
#X msg -146 228 folder ~/Dropbox/PureData/Effects/;
#X connect 0 0 3 0;
#X connect 1 0 2 0;
#X connect 2 0 0 0;
#X connect 3 0 1 0;
#X connect 4 0 5 0;
#X connect 5 0 3 0;
#X coords 0 -1 1 1 250 200 2 1 1;
#X restore 511 104 pd browser;
#N canvas 527 203 1025 604 \$0-dynamic-size 0;
#X obj 650 109 namecanvas \$0-dynamic-size.canvas;
#X obj 507 393 s \$0-dynamic-size.canvas;
#X obj 506 83 inlet;
#X obj 508 214 select 0 1;
#X text 592 295 donecanvasdialog <x-units> <y-units> <gop> <x-from>
<y-from> <x-to> <y-to> <x-size> <y-size> <x-margin> <y-margin>;
#X obj 473 147 route list float;
#X msg 506 255 100 100 0 0;
#X obj 0 0 cnv 15 100 100 empty empty Canvas_1 15 45 0 14 -4034 -66577
0;
#X obj 100 0 cnv 15 200 100 empty empty Canvas_2 15 45 0 14 -257985
-66577 0;
#X msg 608 255 200 100 100 0;
#X msg 508 344 donecanvasdialog 0 0 2 0 -1 1 1 \$1 \$2 \$3 \$4;
#X obj 16 12 bng 15 250 50 0 \$0-unfold-btn.gui empty Unfold 17 7 0
10 -262144 -1 -1;
#X obj 115 10 bng 15 250 50 0 \$0-fold-btn.gui empty Fold 17 7 0 10
-262144 -1 -1;
#X obj 306 211 r \$0-fold-btn.gui;
#X obj 614 190 r \$0-unfold-btn.gui;
#X obj 318 463 outlet;
#X msg 399 403 bang;
#X connect 2 0 5 0;
#X connect 3 0 6 0;
#X connect 3 1 9 0;
#X connect 5 0 10 0;
#X connect 5 1 3 0;
#X connect 6 0 10 0;
#X connect 9 0 10 0;
#X connect 10 0 1 0;
#X connect 10 0 16 0;
#X connect 13 0 6 0;
#X connect 14 0 9 0;
#X connect 16 0 15 0;
#X coords 0 -1 1 1 200 100 2 100 0;
#X restore 477 420 pd \$0-dynamic-size;
#X obj 477 388 tgl 15 0 empty empty empty 17 7 0 10 -262144 -1 -1 0
1;
#X obj 690 536 namecanvas \$0-gui-tricks.cnv;
#X obj 477 596 s \$0-gui-tricks.cnv;
#X msg 477 567 donecanvasdialog 0 0 0 0 -1 1 1 500 500 100 100;
#X obj 253 223 t b b;
#X obj 341 221 t b b;
#X connect 0 0 2 0;
#X connect 0 1 3 0;
#X connect 1 0 6 0;
#X connect 4 0 5 0;
#X connect 5 0 0 0;
#X connect 6 0 0 1;
#X connect 7 0 0 0;
#X connect 8 0 21 0;
#X connect 9 0 0 1;
#X connect 10 0 22 0;
#X connect 11 0 0 0;
#X connect 12 0 0 1;
#X connect 13 0 14 0;
#X connect 14 0 8 0;
#X connect 14 1 10 0;
#X connect 16 0 20 0;
#X connect 17 0 16 0;
#X connect 20 0 19 0;
#X connect 21 0 7 0;
#X connect 21 1 11 0;
#X connect 22 0 9 0;
#X connect 22 1 12 0;
#X coords 0 0 1 1 500 500 0;
#X restore 629 32 pd \$0-gui-tricks;
#N canvas 443 166 853 545 \$0-messages 0;
#X text 30 29 \$0-global-events:;
#X text 41 47 - play;
#X text 41 62 - pause;
#X text 41 76 - stop;
#X text 41 91 - record;
#X text 41 106 - tick beat <tick_number>;
#X text 40 121 - set-current-track <track_number>;
#X text 36 204 \$0-windowsize: Every second a bang is sent here;
#X text 325 204 in order to check if window size changed;
#X text 41 138 - main-window-redraw;
#X restore 629 54 pd \$0-messages;
#N canvas 483 227 352 287 \$0-debugger 0;
#X obj 105 57 r \$0-global-events;
#X obj 105 86 print \$0-global-event;
#X connect 0 0 1 0;
#X restore 629 76 pd \$0-debugger;
#N canvas 5 585 1425 343 \$0-session-view 0;
#X obj 10 20 session-track \$0 1;
#X obj 184 20 session-track \$0 2;
#X obj 358 20 session-track \$0 3;
#X obj 532 20 session-track \$0 4;
#X obj 706 20 session-track \$0 5;
#X obj 880 20 session-track \$0 6;
#X obj 1054 20 session-track \$0 7;
#X obj 1228 20 session-track \$0 8;
#X restore 6 40 pd \$0-session-view;
#X msg 752 482 \; pd dsp 1;
#X obj 752 449 loadbang;
#N canvas 185 160 818 775 \$0-bpm 0;
#X obj 408 180 metro;
#X floatatom 17 16 5 20 300 1 BPM #0-bpm.gui.set #0-bpm.gui, f 5;
#X obj 408 208 bng 15 250 50 0 empty empty empty 17 7 0 10 -262144
-1 -1;
#X obj 454 137 /;
#X msg 418 112 60000;
#X text 485 111 compute milliseconds between ticks;
#X text 498 127 (60000 / BPM);
#X obj 442 88 t b f;
#X obj 442 59 r \$0-bpm.gui;
#X floatatom 81 17 2 1 9 1 /4 #0-timesig.gui.set #0-timesig.gui, f
2;
#X obj 423 396 r \$0-timesig.gui;
#X obj 408 279 int;
#X obj 448 280 + 1;
#X floatatom 408 333 16 0 0 0 - - -, f 16;
#X text 326 331 beat counter;
#X obj 408 418 mod;
#X floatatom 408 444 5 0 0 0 - - -, f 5;
#X text 282 440 beat within the bar;
#X obj 105 52 cnv 5 5 5 empty \$0-beat-light.gui empty 20 12 0 14 -261681
-262144 0;
#X text 470 509 weak beat;
#X obj 485 535 t b b b;
#X obj 324 533 t b b b;
#X text 297 504 strong beat;
#X obj 421 653 list prepend \$0;
#X msg 421 679 \; \$1-beat-light.gui color \$2;
#X msg 363 606 2;
#X msg 524 604 13;
#X msg 421 605 4;
#X obj 421 581 del 200;
#N canvas 188 88 692 738 \$0-metronome-sound 0;
#X obj 121 -112 inlet;
#X obj 261 -112 inlet;
#X obj 44 101 *~;
#X obj 59 61 line~;
#X obj 59 28 1 50;
#X obj 121 28 0 50;
#X obj 121 6 delay 50;
#X obj 81 178 hip~ 3;
#X obj 143 178 hip~ 3;
#X text 187 179 filter out DC;
#X obj 184 91 *~;
#X obj 199 51 line~;
#X obj 199 16 1 50;
#X obj 261 13 0 50;
#X obj 261 -10 delay 50;
#X obj 184 -69 osc~ 440;
#X obj 44 -68 osc~ 500;
#X obj 121 -21 t a;
#X obj 261 -35 t a;
#X obj 273 409 line~;
#X obj 81 493 *~;
#X obj 101 523 dac~;
#X obj 143 492 *~;
#X obj 143 522 outlet~;
#X obj 43 522 outlet~;
#X obj 273 388 pack 0 50;
#X text 340 387 <-- make a ramp to avoid clicks or zipper noise;
#X msg 273 344 0;
#X obj 273 319 moses 0.011;
#X obj 225 522 outlet;
#X obj 225 265 r \$0-metro-volume.gui;
#X connect 0 0 17 0;
#X connect 1 0 18 0;
#X connect 2 0 7 0;
#X connect 2 0 8 0;
#X connect 3 0 2 1;
#X connect 4 0 3 0;
#X connect 5 0 3 0;
#X connect 6 0 5 0;
#X connect 7 0 20 0;
#X connect 8 0 22 0;
#X connect 10 0 7 0;
#X connect 10 0 8 0;
#X connect 11 0 10 1;
#X connect 12 0 11 0;
#X connect 13 0 11 0;
#X connect 14 0 13 0;
#X connect 15 0 10 0;
#X connect 16 0 2 0;
#X connect 17 0 4 0;
#X connect 17 0 6 0;
#X connect 18 0 14 0;
#X connect 18 0 12 0;
#X connect 19 0 22 1;
#X connect 19 0 20 1;
#X connect 20 0 21 0;
#X connect 20 0 24 0;
#X connect 22 0 21 1;
#X connect 22 0 23 0;
#X connect 25 0 19 0;
#X connect 27 0 25 0;
#X connect 28 0 27 0;
#X connect 28 1 25 0;
#X connect 30 0 28 0;
#X connect 30 0 29 0;
#X restore 203 607 pd \$0-metronome-sound;
#X obj 19 43 hsl 80 15 0.01 1 1 0 \$0-metro-volume.gui \$0-metro-volume.gui.set
volume 3 8 1 10 -245500 -13381 -1 900 0;
#X msg 554 371 tick beat \$1;
#X obj 554 396 s \$0-global-events;
#X obj 264 62 r \$0-global-events;
#X msg 345 137 1;
#X msg 305 137 0;
#X obj 264 96 route stop pause play;
#X obj 408 490 sel 1;
#X text 292 453 (counting from 0);
#X text 557 416 send a tick event;
#X text 556 430 to the global bus of events;
#N canvas 1027 359 579 463 \$0-persist-parameters 0;
#X obj 20 68 s \$0-bpm.gui.set;
#X obj 20 42 mmb/save.me.mmb bpm \$0-persist;
#X obj 21 109 r \$0-timesig.gui;
#X obj 21 133 mmb/save.me.mmb timesig \$0-persist;
#X obj 21 159 s \$0-timesig.gui.set;
#X obj 22 205 r \$0-metro-volume.gui;
#X obj 22 229 mmb/save.me.mmb metro-volume \$0-persist;
#X obj 22 255 s \$0-metro-volume.gui.set;
#X obj 20 18 r \$0-bpm.gui;
#X connect 1 0 0 0;
#X connect 2 0 3 0;
#X connect 3 0 4 0;
#X connect 5 0 6 0;
#X connect 6 0 7 0;
#X connect 8 0 1 0;
#X restore 12 99 pd \$0-persist-parameters;
#X connect 0 0 2 0;
#X connect 2 0 11 0;
#X connect 3 0 0 1;
#X connect 4 0 3 0;
#X connect 7 0 4 0;
#X connect 7 1 3 1;
#X connect 8 0 7 0;
#X connect 10 0 15 1;
#X connect 11 0 12 0;
#X connect 11 0 13 0;
#X connect 12 0 11 1;
#X connect 13 0 15 0;
#X connect 13 0 31 0;
#X connect 15 0 16 0;
#X connect 16 0 37 0;
#X connect 20 0 29 1;
#X connect 20 1 28 0;
#X connect 20 2 26 0;
#X connect 21 0 29 0;
#X connect 21 1 28 0;
#X connect 21 2 25 0;
#X connect 23 0 24 0;
#X connect 25 0 23 0;
#X connect 26 0 23 0;
#X connect 27 0 23 0;
#X connect 28 0 27 0;
#X connect 31 0 32 0;
#X connect 33 0 36 0;
#X connect 34 0 0 0;
#X connect 35 0 0 0;
#X connect 35 0 12 0;
#X connect 36 0 35 0;
#X connect 36 1 35 0;
#X connect 36 2 34 0;
#X connect 37 0 21 0;
#X connect 37 1 20 0;
#X coords 0 -1 1 1 105 55 2 10 10;
#X restore 515 10 pd \$0-bpm;
#N canvas 670 41 953 599 \$0-settings 0;
#X obj 162 60 mediasettings/audiosettings;
#X msg 162 34 listparams;
#X obj 162 87 route params;
#X obj 162 112 route in out;
#X obj 46 150 route devices;
#X obj 289 150 route devices;
#X obj 46 179 unpack f f;
#X obj 289 175 unpack f f;
#X obj 143 516 s pd-\$0-playground;
#X obj 288 225 loop;
#X obj 143 378 * 50;
#X obj 143 353 t f f;
#X obj 143 461 pack f f;
#X obj 289 427 s pd-\$0-playground;
#X obj 289 314 + 400;
#X obj 289 289 * 50;
#X obj 289 264 t f f;
#X obj 289 372 pack f f;
#X obj 335 296 + 1;
#X msg 289 397 obj \$1 500 dac~ \$2;
#X obj 589 152 bng 15 250 50 0 empty empty empty 17 7 0 10 -262144
-1 -1;
#X obj 607 322 s pd-\$0-playground;
#X msg 672 252 find dac~ 1 \, cut;
#X obj 127 210 int;
#X text 147 247 create;
#X text 22 249 delete;
#X obj 179 316 loop;
#X obj 166 286 t b f;
#X obj 73 210 t f f;
#X obj 154 166 loadbang;
#X msg 153 186 0;
#X obj 100 237 moses;
#X obj 143 403 + 50;
#X msg 143 486 obj \$1 50 adc~ \$2;
#X floatatom 28 209 5 0 0 0 - - -, f 5;
#X obj 205 234 + 1;
#X obj 205 286 t a;
#X obj 127 264 moses;
#X msg 35 341 find dac~ 1 \, cut;
#X obj 48 296 loop;
#X obj 28 271 t b f;
#X obj 455 103 s \$0-windowsize;
#X obj 455 58 tgl 15 0 empty empty empty 17 7 0 10 -262144 -1 -1 1
1;
#X obj 455 28 loadbang;
#X obj 510 396 r \$0-global-events;
#X obj 510 432 route redraw-main-window;
#X msg 510 465 map 0 \, map 1;
#X obj 510 499 iemguts/sendcanvas 1;
#X obj 455 79 metro 100;
#X connect 0 0 2 0;
#X connect 1 0 0 0;
#X connect 2 0 3 0;
#X connect 3 0 4 0;
#X connect 3 1 5 0;
#X connect 4 1 6 0;
#X connect 5 1 7 0;
#X connect 6 1 28 0;
#X connect 7 1 9 0;
#X connect 9 1 16 0;
#X connect 10 0 32 0;
#X connect 11 0 10 0;
#X connect 11 1 12 1;
#X connect 12 0 33 0;
#X connect 14 0 17 0;
#X connect 15 0 14 0;
#X connect 16 0 15 0;
#X connect 16 1 18 0;
#X connect 17 0 19 0;
#X connect 18 0 17 1;
#X connect 19 0 13 0;
#X connect 20 0 22 0;
#X connect 22 0 21 0;
#X connect 23 0 31 1;
#X connect 23 0 35 0;
#X connect 23 0 39 2;
#X connect 26 1 11 0;
#X connect 27 0 26 0;
#X connect 27 1 26 2;
#X connect 28 0 23 0;
#X connect 28 1 31 0;
#X connect 29 0 30 0;
#X connect 30 0 23 0;
#X connect 31 0 40 0;
#X connect 31 1 37 0;
#X connect 32 0 12 0;
#X connect 33 0 8 0;
#X connect 34 0 28 0;
#X connect 35 0 36 0;
#X connect 35 0 37 1;
#X connect 36 0 26 1;
#X connect 37 1 27 0;
#X connect 38 0 8 0;
#X connect 39 1 38 0;
#X connect 40 0 39 0;
#X connect 40 1 39 1;
#X connect 42 0 48 0;
#X connect 43 0 42 0;
#X connect 44 0 45 0;
#X connect 45 0 46 0;
#X connect 46 0 47 0;
#X connect 48 0 41 0;
#X restore 5 63 pd \$0-settings;
#X obj 42 107 adc~ 1;
#X obj 120 109 adc~ 2;
#X obj 191 108 adc~ 3;
#X obj 254 107 adc~ 4;
#X obj 337 108 adc~ 5;
#X obj 420 111 adc~ 6;
#X obj 509 109 adc~ 7;
#X obj 611 109 adc~ 8;
#X obj 42 124 lzr/volume-control-mono;
#X obj 120 126 lzr/volume-control-mono;
#X obj 191 125 lzr/volume-control-mono;
#X obj 254 124 lzr/volume-control-mono;
#X obj 337 125 lzr/volume-control-mono;
#X obj 420 128 lzr/volume-control-mono;
#X obj 509 126 lzr/volume-control-mono;
#X obj 611 126 lzr/volume-control-mono;
#X obj 120 276 throw~ \$0-track1-phys-in-right;
#X obj 42 300 throw~ \$0-track1-phys-in-left;
#X obj 805 269 throw~ \$0-track2-phys-in-right;
#X obj 703 294 throw~ \$0-track2-phys-in-left;
#X obj 703 127 lzr/volume-control-mono;
#X obj 805 127 lzr/volume-control-mono;
#X obj 703 110 adc~ 9;
#X obj 805 110 adc~ 10;
#N canvas 539 285 450 300 \$0-track-selector 0;
#X obj 42 125 s \$0-global-events;
#X obj 15 26 hradio 15 1 0 8 empty empty empty 0 -8 0 10 -262144 -1
-1 7;
#X obj 42 73 + 1;
#X text 18 9 Select track;
#X obj 15 49 t b f;
#X text 108 25 7;
#X text 93 25 6;
#X text 78 25 5;
#X text 63 25 4;
#X text 48 25 3;
#X text 34 25 2;
#X text 19 25 1;
#X text 123 25 8;
#X msg 42 98 set-current-track \$1 \, redraw-main-window;
#X connect 1 0 4 0;
#X connect 2 0 13 0;
#X connect 4 1 2 0;
#X connect 13 0 0 0;
#X coords 0 -1 1 1 140 40 2 10 10;
#X restore 5 553 pd \$0-track-selector;
#X obj 909 445 s \$0-global-events;
#X msg 909 415 add-effect lzr/phaser-effect;
#X msg 882 385 add-effect lzr/simple-fuzz-effect;
#N canvas 317 22 1362 917 \$0-effects-panel 0;
#X obj 225 325 throw~ \$0-track1-mixer-left;
#X obj 397 324 throw~ \$0-track1-mixer-right;
#X obj 69 612 throw~ \$0-track2-mixer-right;
#X obj 63 634 throw~ \$0-track2-mixer-left;
#X obj 61 357 catch~ \$0-track2-virt-in-left;
#X obj 74 379 catch~ \$0-track2-virt-in-right;
#X obj 32 57 catch~ \$0-track1-virt-in-left;
#X obj 40 79 catch~ \$0-track1-virt-in-right;
#X obj 577 644 catch~ \$0-track3-virt-in-left;
#X obj 590 666 catch~ \$0-track3-virt-in-right;
#X obj 420 1255 catch~ \$0-track5-virt-in-left;
#X obj 433 1277 catch~ \$0-track5-virt-in-right;
#X obj 405 1554 catch~ \$0-track6-virt-in-left;
#X obj 418 1576 catch~ \$0-track6-virt-in-right;
#X obj 401 1854 catch~ \$0-track7-virt-in-left;
#X obj 414 1876 catch~ \$0-track7-virt-in-right;
#X obj 1 83 t a;
#X obj 1236 100 t a;
#X obj 0 683 t a;
#X obj 0 383 t a;
#X obj 1221 400 t a;
#X obj 6 405 simple-fuzz-effect;
#X obj 0 1200 t a;
#X obj 1251 1183 t a;
#X obj 158 1232 throw~ \$0-track3-mixer-left;
#X obj 166 1210 throw~ \$0-track3-mixer-right;
#X obj 276 1166 throw~ \$0-track4-mixer-right;
#X obj 234 1188 throw~ \$0-track4-mixer-left;
#X obj 456 1202 throw~ \$0-track5-mixer-right;
#X obj 446 1224 throw~ \$0-track5-mixer-left;
#X obj 569 1155 throw~ \$0-track6-mixer-right;
#X obj 547 1176 throw~ \$0-track6-mixer-left;
#X obj 781 1184 throw~ \$0-track7-mixer-right;
#X obj 759 1205 throw~ \$0-track7-mixer-left;
#X obj 2 1283 t a;
#X obj 1248 1300 t a;
#X obj 0 1500 t a;
#X obj 1251 1483 t a;
#X obj 2 1583 t a;
#X obj 1248 1600 t a;
#X obj 0 1800 t a;
#X obj 1251 1783 t a;
#X obj 2 1883 t a;
#X obj 1248 1900 t a;
#X obj 0 2100 t a;
#X obj 1251 2083 t a;
#X obj 2 2183 t a;
#X obj 1248 2200 t a;
#X obj 0 2400 t a;
#X obj 1251 2383 t a;
#X obj 88 2280 poly-synth1;
#X obj 92 2252 notein 1;
#X obj 126 2312 throw~ \$0-track8-mixer-left;
#X obj 85 2336 throw~ \$0-track8-mixer-right;
#X obj 438 2150 catch~ \$0-track8-virt-in-left;
#X obj 451 2172 catch~ \$0-track8-virt-in-right;
#N canvas 387 104 1016 703 \$0-effects-panel-behavior 0;
#X obj 258 421 iemguts/sendcanvas 1;
#X obj 258 128 r \$0-windowsize;
#X obj 171 90 loadbang;
#X msg 171 116 1;
#X obj 297 43 r \$0-global-events;
#X obj 392 94 symbol;
#X obj 499 160 loadbang;
#X obj 171 151 t a;
#X obj 171 453 s \$0-global-events;
#N canvas 720 77 713 700 \$0-add-effect 0;
#X obj 161 -1992 int;
#X obj 161 -1961 + 5;
#X obj 198 -1992 + 200;
#X msg 246 -2020 0;
#X obj 141 -1926 int \$0;
#X obj 246 -1694 - 1;
#X obj 291 -1692 - 2;
#X obj 246 -1663 pack f f;
#X obj 227 -1732 t b f f;
#X msg 227 -1556 redraw-main-window;
#X obj 227 -1533 s \$0-global-events;
#X msg 246 -1623 connect \$2 0 \$1 0 \, connect \$2 1 \$1 1;
#X text 132 -1860 TODO: send a loadbang to the newly created audio
effect abstraction;
#X obj 97 -2078 inlet;
#X obj 307 -2077 inlet;
#X text 92 -2098 send symbol to add effect;
#X text 288 -2095 bang to reset;
#X obj 564 -2073 inlet;
#X text 553 -2090 current track #;
#X obj 121 -1477 outlet;
#X text 110 -1452 send message to effect panel canvas;
#X obj 564 -2040 - 1;
#X obj 564 -2012 * 300;
#X obj 564 -1985 + 105;
#X obj 121 -1891 pack s f f f f;
#X text 553 -1957 y coordinate of track;
#X msg 121 -1830 obj \$3 \$5 \$1 \$2 \$4 1;
#X obj 104 -1764 iemguts/canvasindex 1;
#X obj 489 -1489 outlet;
#X msg 489 -1640 append \$1 200;
#X text 479 -1467 to meta storage;
#X obj 432 -2074 inlet;
#X text 415 -2093 from meta storage;
#X obj 314 -2030 route list;
#X text 514 -1667 object # \, width;
#X obj 314 -2006 unpack f f;
#X obj 104 -2020 t b s b b b;
#X connect 0 0 1 0;
#X connect 0 0 2 0;
#X connect 1 0 24 2;
#X connect 2 0 0 1;
#X connect 3 0 0 1;
#X connect 4 0 24 1;
#X connect 5 0 7 0;
#X connect 5 0 29 0;
#X connect 6 0 7 1;
#X connect 7 0 11 0;
#X connect 8 0 9 0;
#X connect 8 1 5 0;
#X connect 8 2 6 0;
#X connect 9 0 10 0;
#X connect 11 0 19 0;
#X connect 13 0 36 0;
#X connect 14 0 3 0;
#X connect 17 0 21 0;
#X connect 17 0 24 3;
#X connect 21 0 22 0;
#X connect 22 0 23 0;
#X connect 23 0 24 4;
#X connect 24 0 26 0;
#X connect 26 0 19 0;
#X connect 27 1 8 0;
#X connect 29 0 28 0;
#X connect 31 0 33 0;
#X connect 33 0 35 0;
#X connect 36 0 27 0;
#X connect 36 1 24 0;
#X connect 36 2 4 0;
#X connect 36 3 0 0;
#X restore 392 353 pd \$0-add-effect;
#X floatatom 289 241 5 0 0 0 - - -, f 5;
#X text 290 224 current track #;
#X obj 487 185 t a;
#X obj 485 297 t a;
#X obj 706 452 t a;
#X obj 706 278 t a;
#X floatatom 437 531 5 0 0 0 - - -, f 5;
#X text 433 513 current effect #;
#X floatatom 436 608 5 0 0 0 - - -, f 5;
#X text 433 590 current width;
#N canvas 920 81 577 630 \$0-set-track 0;
#X obj 128 44 inlet;
#X obj 128 251 - 1;
#X obj 128 306 + 100;
#X obj 128 278 * 300;
#X obj 128 377 pack f f;
#X obj 146 352 t b f;
#X msg 278 485 donecanvasdialog 0 0 2 0 -1 1 1 \$2 200 0 \$1;
#X obj 435 219 unpack;
#X obj 435 274 - 10;
#X obj 435 248 change;
#X obj 128 403 t b l;
#X msg 128 485 redraw-main-window;
#X obj 294 188 iemguts/canvasposition 2;
#X obj 128 531 outlet;
#X obj 278 533 outlet;
#X text 321 535 to effect panel canvas;
#X text 123 556 to global event bus;
#X obj 294 46 inlet;
#X text 287 26 bang to refresh window size;
#X text 92 26 Track # to switch to;
#X connect 0 0 1 0;
#X connect 1 0 3 0;
#X connect 2 0 4 0;
#X connect 3 0 2 0;
#X connect 4 0 10 0;
#X connect 5 0 4 0;
#X connect 5 1 4 1;
#X connect 6 0 14 0;
#X connect 7 0 9 0;
#X connect 8 0 5 0;
#X connect 9 0 8 0;
#X connect 10 0 11 0;
#X connect 10 1 6 0;
#X connect 11 0 13 0;
#X connect 12 1 7 0;
#X connect 17 0 12 0;
#X restore 171 240 pd \$0-set-track;
#X obj 297 68 route set-current-track add-effect reset-effects;
#N canvas 429 22 450 300 \$0-init-fx-panel-position 0;
#X obj 87 -1818 unpack;
#X msg 120 -1780 5 \$1;
#X obj 87 -1873 inlet;
#X obj 87 -1845 iemguts/canvasposition 2;
#X obj 120 -1743 iemguts/canvasposition 2;
#X connect 0 1 1 0;
#X connect 1 0 4 0;
#X connect 2 0 3 0;
#X connect 3 0 0 0;
#X restore 685 120 pd \$0-init-fx-panel-position;
#X obj 685 75 loadbang;
#N canvas 688 72 933 754 \$0-fx-meta-storage-operations 0;
#X obj 108 41 inlet;
#X obj 489 34 inlet;
#X text 472 12 current track #;
#X text 66 106 insert;
#X text 202 124 get;
#X obj 670 275 list-abs/list-insert;
#N canvas 383 105 799 741 \$0-fx-meta-storage 0;
#X obj 62 140 zexy/demultiplex 1 2 3 4 5 6 7 8;
#X obj 148 491 t a;
#X obj 62 491 list append;
#X obj 62 62 inlet;
#X text -15 16 bang to output stored list;
#X text -16 33 send list to append at the end;
#X obj 314 65 inlet;
#X text 291 44 track # to get or append;
#X obj 337 559 outlet;
#X obj 175 442 t a;
#X obj 89 442 list append;
#X obj 202 392 t a;
#X obj 116 392 list append;
#X obj 229 346 t a;
#X obj 143 346 list append;
#X obj 256 314 t a;
#X obj 170 314 list append;
#X obj 283 269 t a;
#X obj 197 269 list append;
#X obj 310 240 t a;
#X obj 224 240 list append;
#X obj 337 211 t a;
#X obj 251 211 list append;
#X obj 314 92 - 1;
#X obj 200 65 inlet;
#X obj 125 182 zexy/demultiplex 1 2 3 4 5 6 7 8;
#X text 201 44 reset list;
#X connect 0 0 2 0;
#X connect 0 1 10 0;
#X connect 0 2 12 0;
#X connect 0 3 14 0;
#X connect 0 4 16 0;
#X connect 0 5 18 0;
#X connect 0 6 20 0;
#X connect 0 7 22 0;
#X connect 1 0 2 1;
#X connect 1 0 8 0;
#X connect 2 0 1 0;
#X connect 3 0 0 0;
#X connect 6 0 23 0;
#X connect 9 0 10 1;
#X connect 9 0 8 0;
#X connect 10 0 9 0;
#X connect 11 0 12 1;
#X connect 11 0 8 0;
#X connect 12 0 11 0;
#X connect 13 0 14 1;
#X connect 13 0 8 0;
#X connect 14 0 13 0;
#X connect 15 0 16 1;
#X connect 15 0 8 0;
#X connect 16 0 15 0;
#X connect 17 0 18 1;
#X connect 17 0 8 0;
#X connect 18 0 17 0;
#X connect 19 0 20 1;
#X connect 19 0 8 0;
#X connect 20 0 19 0;
#X connect 21 0 22 1;
#X connect 21 0 8 0;
#X connect 22 0 21 0;
#X connect 23 0 0 1;
#X connect 23 0 25 1;
#X connect 24 0 25 0;
#X connect 25 0 2 1;
#X connect 25 1 10 1;
#X connect 25 2 12 1;
#X connect 25 3 14 1;
#X connect 25 4 16 1;
#X connect 25 5 18 1;
#X connect 25 6 20 1;
#X connect 25 7 22 1;
#X restore 366 323 pd \$0-fx-meta-storage;
#X text 120 182 append;
#X obj 178 424 list split;
#X obj 229 492 list split 2;
#X obj 185 659 outlet;
#X obj 235 370 - 1;
#X obj 235 398 * 2;
#X obj 178 369 list;
#X text 265 141 delete;
#X obj 229 592 list append;
#X obj 548 650 t a;
#X obj 548 173 t a;
#X obj 152 162 t a;
#X obj 229 569 spigot;
#X obj 292 567 spigot;
#X obj 196 248 t b b f;
#X obj 196 143 t f b;
#X msg 338 482 0;
#X obj 307 146 t f b;
#X msg 371 481 1;
#X obj 185 580 list;
#X text 16 487 only after deleting;
#X obj 152 513 t b l;
#X text 17 476 make sure we send output;
#X text 554 377 replace stored list;
#X text 554 390 with a new version;
#X text 554 403 with two elements removed;
#X obj 498 241 t l b;
#X obj 647 500 t b;
#X obj 192 462 route bang;
#X obj 108 85 route insert append get delete;
#X connect 0 0 36 0;
#X connect 1 0 6 2;
#X connect 6 0 13 1;
#X connect 8 0 28 0;
#X connect 8 1 35 0;
#X connect 8 2 34 0;
#X connect 9 0 26 1;
#X connect 9 1 20 0;
#X connect 11 0 12 0;
#X connect 12 0 8 1;
#X connect 13 0 8 0;
#X connect 15 0 16 0;
#X connect 16 0 17 0;
#X connect 17 0 33 0;
#X connect 18 0 6 0;
#X connect 19 0 15 0;
#X connect 20 0 15 1;
#X connect 21 0 13 0;
#X connect 21 1 6 0;
#X connect 21 2 11 0;
#X connect 22 0 21 0;
#X connect 22 1 23 0;
#X connect 23 0 20 1;
#X connect 23 0 19 1;
#X connect 24 0 21 0;
#X connect 24 1 25 0;
#X connect 25 0 20 1;
#X connect 25 0 19 1;
#X connect 26 0 10 0;
#X connect 28 0 26 0;
#X connect 28 1 19 0;
#X connect 33 0 6 0;
#X connect 33 1 6 1;
#X connect 34 0 10 0;
#X connect 35 0 26 1;
#X connect 35 0 15 1;
#X connect 35 1 9 0;
#X connect 36 1 18 0;
#X connect 36 2 22 0;
#X connect 36 3 24 0;
#X restore 485 385 pd \$0-fx-meta-storage-operations;
#X connect 1 0 20 1;
#X connect 2 0 3 0;
#X connect 3 0 7 0;
#X connect 4 0 21 0;
#X connect 5 0 9 0;
#X connect 6 0 12 0;
#X connect 7 0 10 0;
#X connect 7 0 20 0;
#X connect 9 0 0 0;
#X connect 9 1 24 0;
#X connect 10 0 13 0;
#X connect 12 0 9 1;
#X connect 13 0 9 3;
#X connect 13 0 24 1;
#X connect 14 0 15 0;
#X connect 15 0 9 2;
#X connect 20 0 8 0;
#X connect 20 1 0 0;
#X connect 21 0 7 0;
#X connect 21 1 5 0;
#X connect 21 2 12 0;
#X connect 23 0 22 0;
#X connect 24 0 14 0;
#X coords 0 703 1 702 100 100 0;
#X restore 7 11 pd \$0-effects-panel-behavior;
#X obj 49 309 zexy/demultiplex~;
#X obj 1 600 t a;
#X obj 1222 583 t a;
#X obj 1 300 t a;
#X obj 1233 283 t a;
#X obj 741 946 catch~ \$0-track4-virt-in-left;
#X obj 754 968 catch~ \$0-track4-virt-in-right;
#X obj 1221 700 t a;
#X obj 2 983 t a;
#X obj 1242 1000 t a;
#X obj 408 889 mpx16;
#X obj 343 1105 kick-drum;
#X obj 468 1087 acreil-snare1-drum;
#X obj 606 1079 acreil-snare2-drum;
#X obj 324 959 select 2 3 1 4 5;
#X floatatom 408 930 5 0 0 0 - - -, f 5;
#X obj 745 1032 bng 15 250 50 0 empty empty empty 17 7 0 10 -262144
-1 -1;
#X obj 606 1045 bng 15 250 50 0 empty empty empty 17 7 0 10 -262144
-1 -1;
#X obj 341 1085 bng 15 250 50 0 empty empty empty 17 7 0 10 -262144
-1 -1;
#X obj 469 1063 bng 15 250 50 0 empty empty empty 17 7 0 10 -262144
-1 -1;
#X obj 158 1073 bng 15 250 50 0 empty empty empty 17 7 0 10 -262144
-1 -1;
#X obj 408 862 notein;
#X obj 387 797 midiparse;
#X obj 388 699 midiin;
#X obj 387 823 unpack f f;
#X obj 387 722 midi-recorder midi/drums.mid;
#X obj 0 899 t a;
#X obj 1251 882 t a;
#X obj 158 1096 creb/ti_hihat;
#X obj 746 1059 creb/ti_snare;
#X connect 4 0 21 0;
#X connect 5 0 21 1;
#X connect 16 0 17 0;
#X connect 19 0 20 0;
#X connect 21 0 3 0;
#X connect 21 1 2 0;
#X connect 23 0 22 0;
#X connect 34 0 35 0;
#X connect 37 0 36 0;
#X connect 38 0 39 0;
#X connect 41 0 40 0;
#X connect 42 0 43 0;
#X connect 45 0 44 0;
#X connect 46 0 47 0;
#X connect 49 0 48 0;
#X connect 50 0 53 0;
#X connect 50 0 52 0;
#X connect 51 0 50 0;
#X connect 51 1 50 1;
#X connect 59 0 58 0;
#X connect 61 0 60 0;
#X connect 65 0 66 0;
#X connect 67 0 71 0;
#X connect 67 0 72 0;
#X connect 68 0 27 0;
#X connect 68 1 26 0;
#X connect 69 0 29 0;
#X connect 69 0 28 0;
#X connect 70 0 31 0;
#X connect 70 1 30 0;
#X connect 71 0 77 0;
#X connect 71 1 73 0;
#X connect 71 2 75 0;
#X connect 71 3 76 0;
#X connect 71 4 74 0;
#X connect 73 0 86 0;
#X connect 74 0 70 0;
#X connect 75 0 68 0;
#X connect 76 0 69 0;
#X connect 77 0 85 0;
#X connect 78 0 67 0;
#X connect 78 0 79 0;
#X connect 78 0 79 0;
#X connect 78 0 79 0;
#X connect 78 0 79 0;
#X connect 78 1 67 1;
#X connect 79 0 81 0;
#X connect 80 0 82 0;
#X connect 81 0 67 0;
#X connect 81 1 67 1;
#X connect 82 0 79 0;
#X connect 84 0 83 0;
#X connect 85 0 24 0;
#X connect 85 0 25 0;
#X connect 86 0 33 0;
#X connect 86 0 32 0;
#X coords 0 -1 1 1 1110 200 2 0 100;
#X restore 5 596 pd \$0-effects-panel;
#X msg 846 361 reset-effects;
#X connect 12 0 11 0;
#X connect 15 0 23 0;
#X connect 16 0 24 0;
#X connect 17 0 25 0;
#X connect 18 0 26 0;
#X connect 19 0 27 0;
#X connect 20 0 28 0;
#X connect 21 0 29 0;
#X connect 22 0 30 0;
#X connect 23 0 32 0;
#X connect 24 0 31 0;
#X connect 35 0 34 0;
#X connect 36 0 33 0;
#X connect 37 0 35 0;
#X connect 38 0 36 0;
#X connect 41 0 40 0;
#X connect 42 0 40 0;
#X connect 44 0 40 0;
#X coords 0 0 1 1 500 500 0;
