#N struct 2608-template float w float h float w2 float h2 float border-color
float background-color float behind-color float shadow-color float
levitation;
#N struct 2612-template float w float h float w2 float h2 float border-color
float background-color float behind-color float shadow-color float
levitation;
#N struct 2616-template float w float h float w2 float h2 float border-color
float background-color float behind-color float shadow-color float
levitation;
#N struct 2620-template float w float h float w2 float h2 float border-color
float background-color float behind-color float shadow-color float
levitation;
#N struct 2624-template float w float h float w2 float h2 float border-color
float background-color float behind-color float shadow-color float
levitation;
#N struct 2628-template float w float h float w2 float h2 float border-color
float background-color float behind-color float shadow-color float
levitation;
#N struct 2632-template float w float h float w2 float h2 float border-color
float background-color float behind-color float shadow-color float
levitation;
#N struct 2636-template float w float h float w2 float h2 float border-color
float background-color float behind-color float shadow-color float
levitation;
#N struct 2640-template float w float h float w2 float h2 float border-color
float background-color float behind-color float shadow-color float
levitation;
#N struct 2677-template float w float h float w2 float h2 float border-color
float background-color float behind-color float shadow-color float
levitation;
#N struct 2680-template float w float h float w2 float h2 float border-color
float background-color float behind-color float shadow-color float
levitation;
#N struct 2684-template float w float h float w2 float h2 float border-color
float background-color float behind-color float shadow-color float
levitation;
#N struct 2689-template float w float h float w2 float h2 float border-color
float background-color float behind-color float shadow-color float
levitation;
#N struct 2714-template float w float h float w2 float h2 float border-color
float background-color float behind-color float shadow-color float
levitation;
#N struct 2717-template float w float h float w2 float h2 float border-color
float background-color float behind-color float shadow-color float
levitation;
#N struct 2720-template float w float h float w2 float h2 float border-color
float background-color float behind-color float shadow-color float
levitation;
#N struct 2723-template float w float h float w2 float h2 float border-color
float background-color float behind-color float shadow-color float
levitation;
#N struct 2726-template float w float h float w2 float h2 float border-color
float background-color float behind-color float shadow-color float
levitation;
#N struct 2729-template float w float h float w2 float h2 float border-color
float background-color float behind-color float shadow-color float
levitation;
#N struct 2732-template float w float h float w2 float h2 float border-color
float background-color float behind-color float shadow-color float
levitation;
#N struct 2735-template float w float h float w2 float h2 float border-color
float background-color float behind-color float shadow-color float
levitation;
#N struct 2811-template float w float h float w2 float h2 float border-color
float background-color float behind-color float shadow-color float
levitation float text-color symbol label float boxpos float symbolpos
;
#N struct 2815-template float w float h float w2 float h2 float border-color
float background-color float behind-color float shadow-color float
levitation float text-color symbol label float boxpos float symbolpos
;
#N struct 2819-template float w float h float w2 float h2 float border-color
float background-color float behind-color float shadow-color float
levitation float text-color symbol label float boxpos float symbolpos
;
#N struct 2823-template float w float h float w2 float h2 float border-color
float background-color float behind-color float shadow-color float
levitation float text-color symbol label float boxpos float symbolpos
;
#N struct 2827-template float w float h float w2 float h2 float border-color
float background-color float behind-color float shadow-color float
levitation float text-color symbol label float boxpos float symbolpos
;
#N struct 2831-template float w float h float w2 float h2 float border-color
float background-color float behind-color float shadow-color float
levitation float text-color symbol label float boxpos float symbolpos
;
#N struct 2835-template float w float h float w2 float h2 float border-color
float background-color float behind-color float shadow-color float
levitation float text-color symbol label float boxpos float symbolpos
;
#N canvas 211 22 1440 905 10;
#X declare -path .;
#N canvas 184 22 1457 899 \$0-implementation 0;
#N canvas 168 22 1482 875 mixer 0;
#X obj 104 196 inlet~;
#X obj 127 173 inlet~;
#X obj 182 196 inlet~;
#X obj 205 173 inlet~;
#X obj 256 197 inlet~;
#X obj 279 174 inlet~;
#X obj 334 197 inlet~;
#X obj 357 174 inlet~;
#X obj 405 195 inlet~;
#X obj 428 172 inlet~;
#X obj 483 195 inlet~;
#X obj 506 172 inlet~;
#X obj 557 196 inlet~;
#X obj 580 173 inlet~;
#X obj 635 196 inlet~;
#X obj 658 173 inlet~;
#X msg 969 489 clear;
#X obj 911 159 t b b;
#X msg 889 189 dump;
#X obj 741 197 inlet;
#X obj 531 808 lzr/pp add;
#X obj 531 831 mmb/save.me.mmb mixer-channel1 \$0-persist;
#X obj 533 753 lzr/pp add;
#X obj 542 696 lzr/pp add;
#X obj 533 776 mmb/save.me.mmb mixer-channel2 \$0-persist;
#X obj 542 720 mmb/save.me.mmb mixer-channel3 \$0-persist;
#X obj 544 634 lzr/pp add;
#X obj 544 658 mmb/save.me.mmb mixer-channel4 \$0-persist;
#X obj 1088 714 lzr/pp add;
#X obj 1088 737 mmb/save.me.mmb mixer-channel5 \$0-persist;
#X obj 1093 651 lzr/pp add;
#X obj 1093 675 mmb/save.me.mmb mixer-channel6 \$0-persist;
#X obj 1091 596 lzr/pp add;
#X obj 1091 620 mmb/save.me.mmb mixer-channel7 \$0-persist;
#X obj 1091 533 lzr/pp add;
#X obj 1091 558 mmb/save.me.mmb mixer-channel8 \$0-persist;
#X obj 911 137 r \$0-persist;
#X obj 753 110 route save-parameters mixer-param;
#X obj 373 146 route 1 2 3 4 5 6 7 8;
#X obj 753 77 inlet;
#X text 730 56 from global event bus;
#X obj 83 545 outlet~;
#X obj 116 576 outlet~;
#X obj 169 544 outlet~;
#X obj 197 575 outlet~;
#X obj 239 544 outlet~;
#X obj 267 575 outlet~;
#X obj 319 544 outlet~;
#X obj 347 575 outlet~;
#X obj 393 545 outlet~;
#X obj 426 576 outlet~;
#X obj 479 544 outlet~;
#X obj 507 575 outlet~;
#X obj 549 544 outlet~;
#X obj 577 575 outlet~;
#X obj 629 544 outlet~;
#X obj 657 575 outlet~;
#X obj 100 270 lzr/border 475 220 6;
#X obj 106 277 lzr/mixstrip~ \$0;
#X obj 164 277 lzr/mixstrip~ \$0;
#X obj 222 277 lzr/mixstrip~ \$0;
#X obj 280 277 lzr/mixstrip~ \$0;
#X obj 338 277 lzr/mixstrip~ \$0;
#X obj 396 277 lzr/mixstrip~ \$0;
#X obj 454 277 lzr/mixstrip~ \$0;
#X obj 512 277 lzr/mixstrip~ \$0;
#X connect 0 0 58 0;
#X connect 1 0 58 1;
#X connect 2 0 59 0;
#X connect 3 0 59 1;
#X connect 4 0 60 0;
#X connect 5 0 60 1;
#X connect 6 0 61 0;
#X connect 7 0 61 1;
#X connect 8 0 62 0;
#X connect 9 0 62 1;
#X connect 10 0 63 0;
#X connect 11 0 63 1;
#X connect 12 0 64 0;
#X connect 13 0 64 1;
#X connect 14 0 65 0;
#X connect 15 0 65 1;
#X connect 16 0 21 1;
#X connect 16 0 24 1;
#X connect 16 0 25 1;
#X connect 16 0 27 1;
#X connect 16 0 29 1;
#X connect 16 0 31 1;
#X connect 16 0 33 1;
#X connect 16 0 35 1;
#X connect 17 0 18 0;
#X connect 17 1 16 0;
#X connect 18 0 58 2;
#X connect 18 0 59 2;
#X connect 18 0 60 2;
#X connect 18 0 61 2;
#X connect 18 0 62 2;
#X connect 18 0 63 2;
#X connect 18 0 64 2;
#X connect 18 0 65 2;
#X connect 20 0 21 0;
#X connect 21 0 58 2;
#X connect 22 0 24 0;
#X connect 23 0 25 0;
#X connect 24 0 59 2;
#X connect 25 0 60 2;
#X connect 26 0 27 0;
#X connect 27 0 61 2;
#X connect 28 0 29 0;
#X connect 29 0 62 2;
#X connect 30 0 31 0;
#X connect 31 0 63 2;
#X connect 32 0 33 0;
#X connect 33 0 64 2;
#X connect 34 0 35 0;
#X connect 35 0 65 2;
#X connect 36 0 17 0;
#X connect 37 0 17 0;
#X connect 37 1 38 0;
#X connect 38 0 58 2;
#X connect 38 1 59 2;
#X connect 38 2 60 2;
#X connect 38 3 61 2;
#X connect 38 4 62 2;
#X connect 38 5 63 2;
#X connect 38 6 64 2;
#X connect 38 7 65 2;
#X connect 39 0 37 0;
#X connect 58 0 41 0;
#X connect 58 1 42 0;
#X connect 58 2 20 0;
#X connect 59 0 43 0;
#X connect 59 1 44 0;
#X connect 59 2 22 0;
#X connect 60 0 45 0;
#X connect 60 1 46 0;
#X connect 60 2 23 0;
#X connect 61 0 47 0;
#X connect 61 1 48 0;
#X connect 61 2 26 0;
#X connect 62 0 49 0;
#X connect 62 1 50 0;
#X connect 62 2 28 0;
#X connect 63 0 51 0;
#X connect 63 1 52 0;
#X connect 63 2 30 0;
#X connect 64 0 53 0;
#X connect 64 1 54 0;
#X connect 64 2 32 0;
#X connect 65 0 55 0;
#X connect 65 1 56 0;
#X connect 65 2 34 0;
#X coords 0 -1 1 1 475 220 2 100 270;
#X restore 5 956 pd mixer;
#N canvas 234 22 1411 918 persist-presets 0;
#X obj 15 17 bng 15 250 50 0 \$0-load-project.gui empty empty 17 7
0 10 -262144 -1 -1;
#X text 33 15 Load;
#X obj 15 40 bng 15 250 50 0 \$0-save-project.gui empty empty 17 7
0 10 -262144 -1 -1;
#X text 33 39 Save;
#X obj 722 678 textfile;
#X msg 727 565 clear;
#X msg 857 488 save;
#X msg 654 583 write \$1;
#X obj 982 416 textfile;
#X msg 982 378 read \$1 \, rewind \, bang;
#X obj 926 464 t b a;
#X obj 857 525 mmb/my.hero.mmb \$0-persist;
#X obj 15 63 bng 15 250 50 0 \$0-save-project-as.gui empty empty 17
7 0 10 -262144 -1 -1;
#X text 33 62 Save As;
#X obj 949 141 r \$0-load-project.gui;
#X obj 253 93 r \$0-save-project.gui;
#X obj 10 91 cnv 15 100 60 \$0-project-name.gui \$0-project-name.gui.set
Empty 20 12 0 14 -233017 -66577 0;
#X msg 359 479 label \$1;
#X obj 359 502 s \$0-project-name.gui.set;
#X obj 766 141 r \$0-save-project-as.gui;
#X obj 253 499 moses 1;
#X obj 292 769 t a;
#X obj 517 786 t a;
#X obj 564 609 t a;
#X obj 564 206 t a;
#X obj 253 448 int;
#X msg 268 424 1;
#X text 128 450 has the project;
#X text 128 468 been saved?;
#X obj 292 675 symbol;
#X obj 292 646 t b;
#X obj 359 448 iemlib/splitfilename;
#X msg 631 466 saving \$1;
#X msg 1156 402 loading \$1;
#X text 352 241 change current project;
#X text 562 121 on loadbang;
#X obj 982 266 t a;
#X text 361 593 show save dialog;
#X text 303 792 save project to this location;
#X obj 306 240 t a;
#X text 103 672 path to current project;
#N canvas 572 64 862 838 \$0-project-chooser 0;
#X obj 353 330 hcs/sys_gui;
#X msg 353 303 file mkdir \$1;
#X obj 185 250 makefilename %s/audio;
#X obj 353 249 makefilename %s/midi;
#X obj 583 19 inlet;
#X obj 353 743 outlet;
#X obj 185 329 hcs/sys_gui;
#X msg 185 302 file mkdir \$1;
#X obj 511 248 t a;
#X obj 353 403 symbol;
#X obj 353 436 spigot;
#X obj 353 517 spigot;
#X msg 409 403 1;
#X msg 386 477 1;
#X obj 353 370 t b b;
#X obj 185 372 t b b;
#X obj 511 321 t a;
#X msg 479 419 0;
#X obj 334 213 t s s s;
#X text 412 536 reset spigots;
#X obj 372 577 makefilename %s/project.txt;
#X obj 353 547 t s s b;
#X obj 577 749 outlet;
#X obj 266 182 tof/folderpanel;
#X obj 583 48 route save load;
#X obj 646 749 outlet;
#X text 84 442 The goal of this whole block here -->;
#X text 53 482 is to output the folder path only when -->;
#X text 88 525 we get both bangs from sys_gui's -->;
#X text 579 765 save;
#X text 344 768 project directory;
#X text 653 769 load;
#X obj 646 634 spigot;
#X msg 679 561 1;
#X obj 646 692 t s b;
#X msg 751 560 0;
#X obj 652 76 t a b;
#X obj 577 635 spigot;
#X msg 610 561 1;
#X obj 577 693 t s b;
#X obj 583 77 t a b;
#X obj 577 605 t a;
#X obj 673 715 t a;
#X obj 690 601 t a;
#X obj 334 156 route bang;
#X obj 391 181 symbol;
#X connect 0 0 14 0;
#X connect 1 0 0 0;
#X connect 2 0 7 0;
#X connect 3 0 1 0;
#X connect 4 0 24 0;
#X connect 6 0 15 0;
#X connect 7 0 6 0;
#X connect 8 0 16 0;
#X connect 9 0 10 0;
#X connect 10 0 11 0;
#X connect 11 0 21 0;
#X connect 12 0 10 1;
#X connect 13 0 11 1;
#X connect 14 0 9 0;
#X connect 14 1 12 0;
#X connect 15 0 9 0;
#X connect 15 1 13 0;
#X connect 16 0 9 1;
#X connect 17 0 10 1;
#X connect 17 0 11 1;
#X connect 18 0 2 0;
#X connect 18 1 3 0;
#X connect 18 2 8 0;
#X connect 20 0 41 0;
#X connect 21 0 5 0;
#X connect 21 1 20 0;
#X connect 21 2 17 0;
#X connect 23 0 18 0;
#X connect 24 0 40 0;
#X connect 24 1 36 0;
#X connect 32 0 34 0;
#X connect 33 0 32 1;
#X connect 34 0 25 0;
#X connect 34 1 42 0;
#X connect 35 0 43 0;
#X connect 36 0 44 0;
#X connect 36 1 33 0;
#X connect 37 0 39 0;
#X connect 38 0 37 1;
#X connect 39 0 22 0;
#X connect 39 1 42 0;
#X connect 40 0 44 0;
#X connect 40 1 38 0;
#X connect 41 0 37 0;
#X connect 41 0 32 0;
#X connect 42 0 35 0;
#X connect 43 0 32 1;
#X connect 43 0 37 1;
#X connect 44 0 23 0;
#X connect 44 1 45 0;
#X connect 45 0 18 0;
#X restore 859 223 pd \$0-project-chooser;
#X msg 949 175 load;
#X msg 766 177 save;
#X obj 306 378 t b s s;
#X msg 253 522 save;
#X obj 253 575 t a;
#N canvas 242 50 1295 801 \$0-remember-last-project 0;
#X obj 794 685 textfile;
#X obj 144 68 loadbang;
#X obj 144 172 textfile;
#X obj 44 699 outlet;
#X text 57 664 outputs last opened project name;
#X text 57 678 on loadbang;
#X obj 122 69 bng 15 250 50 0 empty empty empty 17 7 0 10 -262144 -1
-1;
#X obj 46 508 zexy/list2symbol;
#X text 70 487 handle spaces in filename;
#X obj 41 286 t a;
#X obj 41 83 t a;
#X msg 144 98 read state/state.txt \, rewind \, bang;
#X obj 144 203 t b a a;
#X obj 854 61 route loading saving midi-autoconnect;
#X msg 862 574 clear;
#X msg 502 575 write state/state.txt;
#X obj 470 446 lzr/pp set;
#X obj 670 510 lzr/assoc;
#X obj 824 123 lzr/pp last-project;
#X obj 697 445 lzr/pp set;
#X obj 1024 232 lzr/pp midi-autoconnect;
#X obj 670 574 lzr/pp add;
#X obj 704 320 t b b a b;
#X msg 633 445 get-all;
#X obj 146 392 route last-project midi-autoconnect;
#X obj 297 498 lzr/pp midi-autoconnect-set;
#X obj 297 451 zexy/list2symbol;
#X obj 854 26 inlet;
#X text 840 8 from global event bus;
#X obj 389 703 outlet;
#X text 388 727 to global event bus;
#X connect 1 0 11 0;
#X connect 2 0 12 0;
#X connect 6 0 11 0;
#X connect 7 0 3 0;
#X connect 9 0 10 0;
#X connect 10 0 2 0;
#X connect 11 0 2 0;
#X connect 12 0 9 0;
#X connect 12 1 24 0;
#X connect 12 2 16 0;
#X connect 13 0 18 0;
#X connect 13 1 18 0;
#X connect 13 2 20 0;
#X connect 14 0 0 0;
#X connect 15 0 0 0;
#X connect 16 0 17 0;
#X connect 17 0 21 0;
#X connect 18 0 22 0;
#X connect 19 0 17 0;
#X connect 20 0 22 0;
#X connect 21 0 0 0;
#X connect 22 0 15 0;
#X connect 22 1 23 0;
#X connect 22 2 19 0;
#X connect 22 3 14 0;
#X connect 23 0 17 0;
#X connect 24 0 7 0;
#X connect 24 1 26 0;
#X connect 25 0 29 0;
#X connect 26 0 25 0;
#X connect 27 0 13 0;
#X restore 553 102 pd \$0-remember-last-project;
#X text 954 241 load;
#X text 833 300 save;
#X obj 517 592 t a;
#X obj 631 442 iemlib/splitfilename;
#X obj 1156 379 iemlib/splitfilename;
#X obj 80 12 bng 8 250 50 0 empty empty empty 17 7 0 10 -262144 -1
-1;
#X obj 97 48 iemguts/sendcanvas;
#X msg 97 24 vis 1;
#X msg 209 364 bang;
#N canvas 687 29 682 858 \$0-project-params-storage 0;
#X obj 43 48 inlet;
#X obj 28 189 outlet;
#X msg 121 96;
#X text 122 25 just a message box \;;
#X text 124 42 mmm/my.hero.mmb knows;
#X text 122 58 how to save all project;
#X text 123 74 settings here;
#X connect 0 0 2 0;
#X connect 2 0 1 0;
#X restore 845 613 pd \$0-project-params-storage;
#X obj 1109 702 t a;
#X obj 926 377 t a;
#X msg 1190 599 force-track-number 1;
#X text 1203 619 to track switcher;
#X text 1205 635 GUI;
#X msg 657 740 save-parameters;
#X obj 1138 62 route clip-params;
#N canvas 259 236 640 437 \$0-save-clip-params 0;
#X obj 104 119 lzr/pp add;
#X obj 104 64 inlet;
#X obj 104 223 lzr/pp set-clip-param;
#X obj 104 275 outlet;
#X obj 104 163 mmb/save.me.mmb clip-params \$0-persist;
#X obj 367 64 inlet;
#X text 354 8 bang to initiate;
#X text 353 22 saving process;
#X text 348 41 (clears all saved data);
#X msg 367 112 clear;
#X connect 0 0 4 0;
#X connect 1 0 0 0;
#X connect 2 0 3 0;
#X connect 4 0 2 0;
#X connect 5 0 9 0;
#X connect 9 0 4 1;
#X restore 1138 102 pd \$0-save-clip-params;
#X obj 1311 379 t a;
#X obj 810 404 t s s b b b b b;
#X obj 912 284 t a;
#X obj 1327 350 t a;
#X obj 1327 70 t a;
#X obj 1138 34 inlet;
#X text 1132 15 from global event bus;
#X obj 631 797 outlet;
#X text 615 819 to global event bus;
#X obj 958 491 lzr/pp load;
#X obj 740 653 lzr/pp add;
#X obj 553 177 lzr/pp load;
#X obj 292 711 lzr/pp save;
#X text 562 150 opened project;
#X text 562 135 outputs last;
#X obj 594 483 t a;
#X connect 5 0 4 0;
#X connect 6 0 11 0;
#X connect 7 0 4 0;
#X connect 8 0 10 0;
#X connect 8 1 60 0;
#X connect 9 0 8 0;
#X connect 10 0 59 0;
#X connect 10 1 75 0;
#X connect 11 0 57 0;
#X connect 14 0 42 0;
#X connect 15 0 25 0;
#X connect 17 0 18 0;
#X connect 19 0 43 0;
#X connect 20 0 45 0;
#X connect 20 1 30 0;
#X connect 21 0 22 0;
#X connect 22 0 50 0;
#X connect 23 0 24 0;
#X connect 24 0 41 0;
#X connect 25 0 20 0;
#X connect 26 0 25 1;
#X connect 29 0 78 0;
#X connect 30 0 29 0;
#X connect 31 1 17 0;
#X connect 32 0 73 0;
#X connect 33 0 58 0;
#X connect 36 0 9 0;
#X connect 36 0 52 0;
#X connect 39 0 44 0;
#X connect 41 0 39 0;
#X connect 41 1 67 0;
#X connect 41 2 36 0;
#X connect 42 0 41 0;
#X connect 43 0 41 0;
#X connect 44 0 26 0;
#X connect 44 1 29 1;
#X connect 44 2 31 0;
#X connect 45 0 46 0;
#X connect 46 0 50 0;
#X connect 47 0 77 0;
#X connect 47 1 81 0;
#X connect 50 0 23 0;
#X connect 51 0 32 0;
#X connect 52 0 33 0;
#X connect 53 0 55 0;
#X connect 55 0 54 0;
#X connect 56 0 25 0;
#X connect 57 0 76 0;
#X connect 58 0 73 0;
#X connect 59 0 8 0;
#X connect 60 0 58 0;
#X connect 63 0 73 0;
#X connect 64 0 65 0;
#X connect 65 0 66 0;
#X connect 66 0 58 0;
#X connect 67 0 51 0;
#X connect 67 1 7 0;
#X connect 67 2 57 0;
#X connect 67 3 6 0;
#X connect 67 4 5 0;
#X connect 67 5 63 0;
#X connect 67 6 68 0;
#X connect 68 0 69 0;
#X connect 69 0 70 0;
#X connect 70 0 65 1;
#X connect 71 0 64 0;
#X connect 71 0 47 0;
#X connect 75 0 11 0;
#X connect 76 0 4 0;
#X connect 77 0 24 0;
#X connect 78 0 21 0;
#X connect 81 0 73 0;
#X coords 0 -1 1 1 80 80 2 10 10;
#X restore 1311 1093 pd persist-presets;
#N canvas 430 64 792 710 mixer-master 0;
#X obj 106 434 dac~;
#X obj 196 43 t b b;
#X msg 196 73 dump;
#X obj 196 21 r \$0-persist;
#X msg 544 277 clear;
#X obj 274 468 lzr/pp add;
#X obj 274 499 mmb/save.me.mmb mixer-master \$0-persist;
#X obj 175 22 bng 15 250 50 0 empty empty empty 17 7 0 10 -262144 -1
-1;
#X obj 405 68 route mixer-param;
#X obj 405 95 route 0;
#X obj 405 42 inlet;
#X text 377 19 from global event bus;
#X obj 105 204 lzr/mixstripmaster \$0;
#X obj 37 33 inlet~;
#X obj 90 33 inlet~;
#X connect 1 0 2 0;
#X connect 1 1 4 0;
#X connect 2 0 12 2;
#X connect 3 0 1 0;
#X connect 4 0 6 1;
#X connect 5 0 6 0;
#X connect 6 0 12 2;
#X connect 7 0 1 0;
#X connect 8 0 9 0;
#X connect 9 0 12 2;
#X connect 10 0 8 0;
#X connect 12 0 0 0;
#X connect 12 1 0 1;
#X connect 12 2 5 0;
#X connect 13 0 12 0;
#X connect 14 0 12 1;
#X coords 0 -1 1 1 80 220 2 100 200;
#X restore 490 956 pd mixer-master;
#N canvas 389 79 1258 800 \$0-cool-stuff 0;
#X text 38 49 bassemu/examples/simple-sequencer;
#X text 27 527 sfruit/saveclear;
#X text 36 117 tof/imagebang;
#X text 26 542 sfruit/gop-edit;
#X text 23 563 iemlib/samplerate~;
#X text 23 582 iemguts/canvasargs;
#X text 23 611 pddp/print;
#X text 22 635 mmb/waveform.mmb;
#X text 32 501 mapping/keygate;
#X text 31 481 iemlib/soundfile_info;
#X text 31 459 iemguts/receivecanvas;
#X text 34 438 hcs/get-audio-dialog;
#X text 35 425 hcs/window-name;
#X text 22 659 hcs/screensize;
#X text 42 378 cyclone/active;
#X text 36 157 ggee/gcanvas;
#X text 41 401 unauthorized/grid;
#X text 35 221 tof/pmenu;
#X text 31 239 sfruit/cpugraph;
#X text 32 202 MouseState!;
#X text 40 91 list-idx: Get element at position idx.;
#X text 34 15 iemguts/canvasdelete;
#X text 36 31 iemguts/sendcanvas;
#X text 38 71 zexy/demultiplex~;
#X text 42 260 creb/ti_snare;
#X text 42 276 creb/ti_hihat;
#X text 43 295 bassemu~;
#X text 34 137 pdmtl/init.dollar.zero.top;
#X text 32 180 pdmtl/synth.wind~;
#X text 33 315 jmmmp/lbang;
#X text 37 336 jmmmp/metrum;
#X text 39 356 qlist;
#X restore 91 193 pd \$0-cool-stuff;
#N canvas 443 166 853 545 \$0-messages 0;
#X text 30 29 \$0-global-events:;
#X text 41 47 - play;
#X text 41 62 - pause;
#X text 41 76 - stop;
#X text 41 91 - record;
#X text 41 106 - tick beat <tick_number>;
#X text 40 121 - set-current-track <track_number>;
#X text 36 204 \$0-windowsize: Every second a bang is sent here;
#X text 88 222 in order to check if window size changed;
#X text 41 138 - main-window-redraw;
#X text 41 154 - save-parameters;
#X restore 91 215 pd \$0-messages;
#N canvas 483 227 359 206 \$0-debugger 0;
#X obj 107 155 print \$0-global-event;
#X obj 107 97 spigot;
#X obj 146 62 tgl 15 0 empty empty empty 17 7 0 10 -262144 -1 -1 0
1;
#X obj 107 17 inlet;
#X connect 1 0 0 0;
#X connect 2 0 1 1;
#X connect 3 0 1 0;
#X restore 91 172 pd \$0-debugger;
#N canvas 185 160 818 775 \$0-bpm 0;
#X obj 408 180 metro;
#X obj 408 208 bng 15 250 50 0 empty empty empty 17 7 0 10 -262144
-1 -1;
#X obj 454 137 /;
#X msg 418 112 60000;
#X text 485 111 compute milliseconds between ticks;
#X text 498 127 (60000 / BPM);
#X obj 442 88 t b f;
#X obj 442 59 r \$0-bpm.gui;
#X obj 423 396 r \$0-timesig.gui;
#X obj 408 279 int;
#X obj 448 280 + 1;
#X floatatom 408 333 16 0 0 0 - - -, f 16;
#X text 306 334 beat counter;
#X obj 408 418 mod;
#X floatatom 408 444 5 0 0 0 - - -, f 5;
#X text 257 440 beat within the bar;
#X text 470 509 weak beat;
#X obj 485 535 t b b b;
#X obj 324 533 t b b b;
#X text 287 504 strong beat;
#X obj 421 653 list prepend \$0;
#X msg 421 679 \; \$1-beat-light.gui color \$2;
#X msg 363 606 2;
#X msg 524 604 13;
#X msg 421 605 4;
#X obj 421 581 del 200;
#N canvas 188 88 692 738 \$0-metronome-sound 0;
#X obj 121 -112 inlet;
#X obj 261 -112 inlet;
#X obj 44 101 *~;
#X obj 59 61 line~;
#X obj 59 28 1 50;
#X obj 121 28 0 50;
#X obj 121 6 delay 50;
#X obj 81 178 hip~ 3;
#X obj 143 178 hip~ 3;
#X text 187 179 filter out DC;
#X obj 184 91 *~;
#X obj 199 51 line~;
#X obj 199 16 1 50;
#X obj 261 13 0 50;
#X obj 261 -10 delay 50;
#X obj 184 -69 osc~ 440;
#X obj 44 -68 osc~ 500;
#X obj 121 -21 t a;
#X obj 261 -35 t a;
#X obj 273 409 line~;
#X obj 81 493 *~;
#X obj 101 523 dac~;
#X obj 143 492 *~;
#X obj 143 522 outlet~;
#X obj 43 522 outlet~;
#X obj 273 388 pack 0 50;
#X text 340 387 <-- make a ramp to avoid clicks or zipper noise;
#X msg 273 344 0;
#X obj 273 319 moses 0.011;
#X obj 225 522 outlet;
#X obj 225 265 r \$0-metro-volume.gui;
#X connect 0 0 17 0;
#X connect 1 0 18 0;
#X connect 2 0 7 0;
#X connect 2 0 8 0;
#X connect 3 0 2 1;
#X connect 4 0 3 0;
#X connect 5 0 3 0;
#X connect 6 0 5 0;
#X connect 7 0 20 0;
#X connect 8 0 22 0;
#X connect 10 0 7 0;
#X connect 10 0 8 0;
#X connect 11 0 10 1;
#X connect 12 0 11 0;
#X connect 13 0 11 0;
#X connect 14 0 13 0;
#X connect 15 0 10 0;
#X connect 16 0 2 0;
#X connect 17 0 4 0;
#X connect 17 0 6 0;
#X connect 18 0 14 0;
#X connect 18 0 12 0;
#X connect 19 0 22 1;
#X connect 19 0 20 1;
#X connect 20 0 21 0;
#X connect 20 0 24 0;
#X connect 22 0 21 1;
#X connect 22 0 23 0;
#X connect 25 0 19 0;
#X connect 27 0 25 0;
#X connect 28 0 27 0;
#X connect 28 1 25 0;
#X connect 30 0 28 0;
#X connect 30 0 29 0;
#X restore 203 607 pd \$0-metronome-sound;
#X msg 554 371 tick beat \$1;
#X msg 345 137 1;
#X msg 305 137 0;
#X obj 264 96 route stop pause play;
#X obj 408 490 sel 1;
#X text 267 453 (counting from 0);
#X text 557 416 send a tick event;
#X text 556 430 to the global bus of events;
#N canvas 1027 359 579 463 \$0-persist-parameters 0;
#X obj 20 68 s \$0-bpm.gui.set;
#X obj 20 42 mmb/save.me.mmb bpm \$0-persist;
#X obj 21 109 r \$0-timesig.gui;
#X obj 21 133 mmb/save.me.mmb timesig \$0-persist;
#X obj 21 159 s \$0-timesig.gui.set;
#X obj 22 205 r \$0-metro-volume.gui;
#X obj 22 229 mmb/save.me.mmb metro-volume \$0-persist;
#X obj 22 255 s \$0-metro-volume.gui.set;
#X obj 20 18 r \$0-bpm.gui;
#X connect 1 0 0 0;
#X connect 2 0 3 0;
#X connect 3 0 4 0;
#X connect 5 0 6 0;
#X connect 6 0 7 0;
#X connect 8 0 1 0;
#X restore 12 99 pd \$0-persist-parameters;
#X obj 264 62 inlet;
#X text 260 37 from global bus;
#X obj 554 396 outlet;
#X obj 10 10 lzr/border 105 55 3 999 0 555 999;
#X floatatom 14 14 5 20 300 1 BPM #0-bpm.gui.set #0-bpm.gui, f 5;
#X floatatom 78 15 2 1 9 1 /4 #0-timesig.gui.set #0-timesig.gui, f
2;
#X obj 102 50 cnv 5 5 5 empty \$0-beat-light.gui empty 20 12 0 14 -261681
-262144 0;
#X obj 16 41 hsl 80 15 0.01 1 1 0 \$0-metro-volume.gui \$0-metro-volume.gui.set
volume 3 8 1 10 -245500 -13381 -1 0 0;
#X connect 0 0 1 0;
#X connect 1 0 9 0;
#X connect 2 0 0 1;
#X connect 3 0 2 0;
#X connect 6 0 3 0;
#X connect 6 1 2 1;
#X connect 7 0 6 0;
#X connect 8 0 13 1;
#X connect 9 0 10 0;
#X connect 9 0 11 0;
#X connect 10 0 9 1;
#X connect 11 0 13 0;
#X connect 11 0 27 0;
#X connect 13 0 14 0;
#X connect 14 0 31 0;
#X connect 17 0 26 1;
#X connect 17 1 25 0;
#X connect 17 2 23 0;
#X connect 18 0 26 0;
#X connect 18 1 25 0;
#X connect 18 2 22 0;
#X connect 20 0 21 0;
#X connect 22 0 20 0;
#X connect 23 0 20 0;
#X connect 24 0 20 0;
#X connect 25 0 24 0;
#X connect 27 0 38 0;
#X connect 28 0 0 0;
#X connect 29 0 0 0;
#X connect 29 0 10 0;
#X connect 30 0 29 0;
#X connect 30 1 29 0;
#X connect 30 2 28 0;
#X connect 31 0 18 0;
#X connect 31 1 17 0;
#X connect 36 0 30 0;
#X coords 0 -1 1 1 105 55 2 10 10;
#X restore 7 305 pd \$0-bpm;
#N canvas 670 41 953 599 \$0-settings 0;
#X obj 162 60 mediasettings/audiosettings;
#X msg 162 34 listparams;
#X obj 162 87 route params;
#X obj 162 112 route in out;
#X obj 46 150 route devices;
#X obj 289 150 route devices;
#X obj 46 179 unpack f f;
#X obj 289 175 unpack f f;
#X obj 143 516 s pd-\$0-playground;
#X obj 143 378 * 50;
#X obj 143 353 t f f;
#X obj 143 461 pack f f;
#X obj 289 427 s pd-\$0-playground;
#X obj 289 314 + 400;
#X obj 289 289 * 50;
#X obj 289 264 t f f;
#X obj 289 372 pack f f;
#X obj 335 296 + 1;
#X msg 289 397 obj \$1 500 dac~ \$2;
#X obj 410 24 bng 15 250 50 0 empty empty empty 17 7 0 10 -262144 -1
-1;
#X obj 428 194 s pd-\$0-playground;
#X msg 493 124 find dac~ 1 \, cut;
#X obj 127 210 int;
#X text 147 247 create;
#X text 22 249 delete;
#X obj 166 286 t b f;
#X obj 73 210 t f f;
#X obj 154 166 loadbang;
#X msg 153 186 0;
#X obj 100 237 moses;
#X obj 143 403 + 50;
#X msg 143 486 obj \$1 50 adc~ \$2;
#X floatatom 28 209 5 0 0 0 - - -, f 5;
#X obj 205 234 + 1;
#X obj 205 286 t a;
#X obj 127 264 moses;
#X msg 35 341 find dac~ 1 \, cut;
#X obj 28 271 t b f;
#X obj 589 512 s \$0-windowsize;
#X obj 589 467 tgl 15 0 empty empty empty 17 7 0 10 -262144 -1 -1 0
1;
#X obj 589 488 metro 100;
#X msg 767 142 \; pd dsp 1;
#X obj 767 109 loadbang;
#X connect 0 0 2 0;
#X connect 1 0 0 0;
#X connect 2 0 3 0;
#X connect 3 0 4 0;
#X connect 3 1 5 0;
#X connect 4 1 6 0;
#X connect 5 1 7 0;
#X connect 6 1 26 0;
#X connect 9 0 30 0;
#X connect 10 0 9 0;
#X connect 10 1 11 1;
#X connect 11 0 31 0;
#X connect 13 0 16 0;
#X connect 14 0 13 0;
#X connect 15 0 14 0;
#X connect 15 1 17 0;
#X connect 16 0 18 0;
#X connect 17 0 16 1;
#X connect 18 0 12 0;
#X connect 19 0 21 0;
#X connect 21 0 20 0;
#X connect 22 0 29 1;
#X connect 22 0 33 0;
#X connect 26 0 22 0;
#X connect 26 1 29 0;
#X connect 27 0 28 0;
#X connect 28 0 22 0;
#X connect 29 0 37 0;
#X connect 29 1 35 0;
#X connect 30 0 11 0;
#X connect 31 0 8 0;
#X connect 32 0 26 0;
#X connect 33 0 34 0;
#X connect 33 0 35 1;
#X connect 35 1 25 0;
#X connect 36 0 8 0;
#X connect 39 0 40 0;
#X connect 40 0 38 0;
#X connect 42 0 41 0;
#X restore 91 236 pd \$0-settings;
#N canvas 517 155 702 482 \$0-track-selector 0;
#X obj 211 249 + 1;
#X msg 211 308 set-current-track \$1 \, redraw-main-window;
#X obj 211 117 route force-track-number;
#X obj 211 175 - 1;
#X obj 211 63 inlet;
#X obj 211 366 outlet;
#X text 207 36 from global events bus;
#X text 209 396 to global events bus;
#X obj 200 200 lzr/border 140 40 3 999 0 555 999;
#X obj 209 218 hradio 15 1 0 8 \$0-track-selector-radio \$0-track-selector-radio.set
empty 0 -8 0 10 -262144 -1 -1 0;
#X text 223 201 Select track;
#X text 212 218 1;
#X text 227 218 2;
#X text 242 218 3;
#X text 257 218 4;
#X text 272 218 5;
#X text 287 218 6;
#X text 302 218 7;
#X text 317 218 8;
#X connect 0 0 1 0;
#X connect 1 0 5 0;
#X connect 2 0 3 0;
#X connect 3 0 9 0;
#X connect 4 0 2 0;
#X connect 9 0 0 0;
#X coords 0 -1 1 1 140 40 2 200 200;
#X restore 5 695 pd \$0-track-selector;
#X obj 859 1203 s \$0-global-events;
#X text 14 378 Track 1;
#X text 181 376 Track 2;
#X text 358 376 Track 3;
#X text 531 376 Track 4;
#X text 697 375 Track 5;
#X text 881 375 Track 6;
#X text 1054 377 Track 7;
#X text 1229 375 Track 8;
#X obj 122 305 lzr/transport-buttons \$0;
#X obj 5 739 lzr/effects-panel \$0;
#X obj 1049 396 lzr/session-midi-track \$0 7;
#X obj 1064 706 lzr/pp add-effect;
#X obj 460 97 r \$0-global-events;
#X obj 701 691 lzr/button lzr/reverb-effect 100 20 Add reverb;
#X obj 701 715 lzr/button lzr/simple-fuzz-effect 100 20 Add fuzz;
#X obj 809 691 lzr/button lzr/phaser-effect 100 20 Add phaser;
#X obj 809 715 lzr/button lzr/poly-synth-effect 100 20 Add poly synth
;
#X obj 915 691 lzr/button lzr/drums-effect 100 20 Add drums;
#X obj 1291 692 lzr/button delete-track-effects 100 20 Delete effects
;
#X obj 1291 715 lzr/button show-panel-guts 100 20 Show panel guts;
#X msg 1214 252 map 0 \, map 1;
#X obj 1214 229 route redraw-main-window;
#X obj 1214 275 iemguts/sendcanvas 1;
#N canvas 212 39 1385 847 \$0-input 0;
#X obj 12 7 adc~ 1;
#X obj 90 9 adc~ 2;
#X obj 161 8 adc~ 3;
#X obj 224 7 adc~ 4;
#X obj 307 8 adc~ 5;
#X obj 390 11 adc~ 6;
#X obj 479 9 adc~ 7;
#X obj 581 9 adc~ 8;
#X obj 12 24 lzr/volume-control-mono;
#X obj 90 26 lzr/volume-control-mono;
#X obj 161 25 lzr/volume-control-mono;
#X obj 224 24 lzr/volume-control-mono;
#X obj 307 25 lzr/volume-control-mono;
#X obj 390 28 lzr/volume-control-mono;
#X obj 479 26 lzr/volume-control-mono;
#X obj 581 26 lzr/volume-control-mono;
#X obj 673 27 lzr/volume-control-mono;
#X obj 775 27 lzr/volume-control-mono;
#X obj 673 10 adc~ 9;
#X obj 775 10 adc~ 10;
#X obj 352 298 lzr/midi-input 1;
#X obj 482 298 lzr/midi-input 10;
#X obj 1135 302 lzr/input-interface-selector;
#N canvas 283 73 866 540 \$0-apc-mini-lights 0;
#X obj 128 422 noteout 1;
#X floatatom 120 361 5 0 0 0 - - -, f 5;
#X floatatom 188 364 5 0 0 0 - - -, f 5;
#X obj 124 60 tgl 15 0 empty empty empty 17 7 0 10 -262144 -1 -1 0
1;
#X obj 124 127 cyclone/counter;
#X floatatom 61 265 5 0 0 0 - - -, f 5;
#X msg 368 171 bang;
#X obj 298 332 pack f 0;
#X obj 242 374 unpack f f;
#X obj 172 191 random 3;
#X obj 184 268 + 1;
#X obj 171 218 * 2;
#X obj 124 91 metro 1000;
#X floatatom 193 58 5 0 0 0 - - -, f 5;
#X obj 202 318 mod 2;
#X obj 117 155 t f b b f;
#X obj 416 326 spigot;
#X obj 374 275 t f f;
#X obj 455 300 !=;
#X obj 62 189 mod 64;
#X obj 490 220 mod 64;
#X obj 374 224 lzr/for 64;
#X connect 1 0 0 0;
#X connect 2 0 0 1;
#X connect 3 0 12 0;
#X connect 4 0 15 0;
#X connect 5 0 1 0;
#X connect 6 0 21 0;
#X connect 7 0 8 0;
#X connect 8 0 0 0;
#X connect 8 1 0 1;
#X connect 9 0 11 0;
#X connect 10 0 14 0;
#X connect 11 0 10 0;
#X connect 12 0 4 0;
#X connect 13 0 12 1;
#X connect 14 0 2 0;
#X connect 15 0 19 0;
#X connect 15 1 9 0;
#X connect 15 2 21 0;
#X connect 15 3 20 0;
#X connect 16 0 7 0;
#X connect 17 0 16 0;
#X connect 17 1 18 0;
#X connect 18 0 16 1;
#X connect 19 0 5 0;
#X connect 20 0 18 1;
#X connect 21 0 17 0;
#X restore 354 232 pd \$0-apc-mini-lights;
#N canvas 1023 239 469 552 0-apc-mini 0;
#X obj 173 217 - 47;
#X obj 173 242 moses 9;
#X msg 219 269 0;
#X obj 106 363 pack f f;
#X msg 106 401 mixer-param \$2 volume \$1;
#X obj 106 270 - 100;
#X obj 106 217 / 127;
#X obj 106 243 * 112;
#X obj 106 31 inlet;
#X obj 106 476 outlet;
#X obj 106 58 route midi-control;
#X obj 106 99 unpack f f;
#X connect 0 0 1 0;
#X connect 1 0 3 1;
#X connect 1 1 2 0;
#X connect 2 0 3 1;
#X connect 3 0 4 0;
#X connect 4 0 9 0;
#X connect 5 0 3 0;
#X connect 6 0 7 0;
#X connect 7 0 5 0;
#X connect 8 0 10 0;
#X connect 10 0 11 0;
#X connect 11 0 6 0;
#X connect 11 1 0 0;
#X restore 655 347 pd 0-apc-mini;
#X obj 655 298 lzr/midi-input 1;
#X obj 812 298 lzr/midi-input 17;
#N canvas 220 231 450 300 \$0-apc-midimix 0;
#X obj 144 47 inlet;
#X obj 143 235 outlet;
#X restore 812 347 pd \$0-apc-midimix;
#X obj 1135 272 inlet;
#X text 1132 243 from global event bus;
#X obj 1135 758 outlet;
#X text 1125 782 to global event bus;
#X obj 592 758 outlet;
#X obj 652 758 outlet;
#X obj 712 758 outlet;
#X obj 772 758 outlet;
#X obj 832 758 outlet;
#X obj 892 758 outlet;
#X obj 952 758 outlet;
#X obj 1012 758 outlet;
#X text 752 791 midi tracks 1 - 8;
#X obj 20 678 outlet~;
#X obj 87 677 outlet~;
#X obj 158 676 outlet~;
#X obj 231 673 outlet~;
#X obj 305 673 outlet~;
#X obj 370 673 outlet~;
#X obj 453 668 outlet~;
#X obj 527 670 outlet~;
#X obj 30 710 outlet~;
#X obj 105 709 outlet~;
#X obj 177 701 outlet~;
#X obj 250 702 outlet~;
#X obj 316 703 outlet~;
#X obj 390 699 outlet~;
#X obj 464 693 outlet~;
#X obj 533 694 outlet~;
#X connect 0 0 8 0;
#X connect 1 0 9 0;
#X connect 2 0 10 0;
#X connect 3 0 11 0;
#X connect 4 0 12 0;
#X connect 5 0 13 0;
#X connect 6 0 14 0;
#X connect 7 0 15 0;
#X connect 8 0 41 0;
#X connect 9 0 49 0;
#X connect 12 0 42 0;
#X connect 12 0 50 0;
#X connect 18 0 16 0;
#X connect 19 0 17 0;
#X connect 20 0 38 0;
#X connect 21 0 39 0;
#X connect 22 0 30 0;
#X connect 24 0 30 0;
#X connect 25 0 24 0;
#X connect 26 0 27 0;
#X connect 27 0 30 0;
#X connect 28 0 22 0;
#X restore 670 127 pd \$0-input -----------------------------------------------
;
#X obj 1222 396 lzr/session-midi-track \$0 8;
#X obj 6 395 lzr/session-track \$0 1;
#X obj 180 395 lzr/session-track \$0 2;
#X obj 354 395 lzr/session-track \$0 3;
#X obj 528 395 lzr/session-track \$0 4;
#X obj 702 395 lzr/session-track \$0 5;
#X obj 876 395 lzr/session-track \$0 6;
#X obj 47 98 declare -path .;
#X connect 0 0 2 0;
#X connect 0 1 2 1;
#X connect 0 2 2 0;
#X connect 0 3 2 1;
#X connect 0 4 2 0;
#X connect 0 5 2 1;
#X connect 0 6 2 0;
#X connect 0 7 2 1;
#X connect 0 8 2 0;
#X connect 0 9 2 1;
#X connect 0 10 2 0;
#X connect 0 11 2 1;
#X connect 0 12 2 0;
#X connect 0 13 2 1;
#X connect 0 14 2 0;
#X connect 0 15 2 1;
#X connect 1 0 9 0;
#X connect 6 0 9 0;
#X connect 8 0 9 0;
#X connect 18 0 9 0;
#X connect 19 0 0 0;
#X connect 19 1 0 1;
#X connect 19 3 0 2;
#X connect 19 4 0 3;
#X connect 19 6 0 4;
#X connect 19 7 0 5;
#X connect 19 9 0 6;
#X connect 19 10 0 7;
#X connect 19 12 0 8;
#X connect 19 13 0 9;
#X connect 19 15 0 10;
#X connect 19 16 0 11;
#X connect 19 18 0 12;
#X connect 19 19 0 13;
#X connect 19 21 0 14;
#X connect 19 22 0 15;
#X connect 19 24 9 0;
#X connect 20 0 19 20;
#X connect 20 1 9 0;
#X connect 21 0 9 0;
#X connect 22 0 8 0;
#X connect 22 0 18 0;
#X connect 22 0 1 0;
#X connect 22 0 6 0;
#X connect 22 0 33 0;
#X connect 22 0 5 0;
#X connect 22 0 2 2;
#X connect 22 0 0 17;
#X connect 22 0 31 0;
#X connect 22 0 20 1;
#X connect 22 0 19 24;
#X connect 22 0 34 1;
#X connect 22 0 35 3;
#X connect 22 0 36 3;
#X connect 22 0 37 3;
#X connect 22 0 38 3;
#X connect 22 0 39 3;
#X connect 22 0 40 3;
#X connect 23 0 21 0;
#X connect 24 0 21 0;
#X connect 25 0 21 0;
#X connect 26 0 21 0;
#X connect 27 0 21 0;
#X connect 28 0 9 0;
#X connect 29 0 9 0;
#X connect 30 0 32 0;
#X connect 31 0 30 0;
#X connect 33 0 35 0;
#X connect 33 1 35 1;
#X connect 33 2 36 0;
#X connect 33 3 36 1;
#X connect 33 4 37 0;
#X connect 33 5 37 1;
#X connect 33 6 38 0;
#X connect 33 7 38 1;
#X connect 33 8 39 0;
#X connect 33 9 39 1;
#X connect 33 10 40 0;
#X connect 33 11 40 1;
#X connect 33 16 35 2;
#X connect 33 17 36 2;
#X connect 33 18 37 2;
#X connect 33 19 38 2;
#X connect 33 20 39 2;
#X connect 33 21 40 2;
#X connect 33 22 20 0;
#X connect 33 23 34 0;
#X connect 33 24 9 0;
#X connect 34 0 19 23;
#X connect 34 1 9 0;
#X connect 35 0 19 0;
#X connect 35 1 19 1;
#X connect 35 2 19 2;
#X connect 35 3 9 0;
#X connect 36 0 19 3;
#X connect 36 1 19 4;
#X connect 36 2 19 5;
#X connect 36 3 9 0;
#X connect 37 0 19 6;
#X connect 37 1 19 7;
#X connect 37 2 19 8;
#X connect 37 3 9 0;
#X connect 38 0 19 9;
#X connect 38 1 19 10;
#X connect 38 2 19 11;
#X connect 38 3 9 0;
#X connect 39 1 19 13;
#X connect 39 2 19 14;
#X connect 39 3 9 0;
#X connect 40 0 19 15;
#X connect 40 1 19 16;
#X connect 40 2 19 17;
#X connect 40 3 9 0;
#X coords 0 -1 1 1 1400 880 2 0 300;
#X restore 2 2 pd \$0-implementation;
#X coords 0 0 1 1 500 500 0;
