#N canvas 373 71 1194 740 10;
#X obj 822 14 lzr/input-interface-selector;
#N canvas 0 22 1440 768 mixer 0;
#X obj 105 274 mmb/mixstrip2.mmb~ \$0;
#X obj 180 274 mmb/mixstrip2.mmb~ \$0;
#X obj 255 274 mmb/mixstrip2.mmb~ \$0;
#X obj 330 274 mmb/mixstrip2.mmb~ \$0;
#X obj 405 274 mmb/mixstrip2.mmb~ \$0;
#X obj 480 274 mmb/mixstrip2.mmb~ \$0;
#X obj 555 274 mmb/mixstrip2.mmb~ \$0;
#X obj 630 274 mmb/mixstrip2.mmb~ \$0;
#X obj 104 211 inlet~;
#X obj 127 188 inlet~;
#X obj 182 211 inlet~;
#X obj 205 188 inlet~;
#X obj 256 212 inlet~;
#X obj 279 189 inlet~;
#X obj 334 212 inlet~;
#X obj 357 189 inlet~;
#X obj 405 210 inlet~;
#X obj 428 187 inlet~;
#X obj 483 210 inlet~;
#X obj 506 187 inlet~;
#X obj 557 211 inlet~;
#X obj 580 188 inlet~;
#X obj 635 211 inlet~;
#X obj 658 188 inlet~;
#X msg 969 459 clear;
#X obj 911 183 t b b;
#X msg 889 213 dump;
#X obj 741 212 inlet;
#X obj 113 518 prepend add;
#X obj 101 494 t a;
#X obj 96 702 mmb/save.me.mmb mixer-channel1 \$0-persist;
#X obj 193 521 prepend add;
#X obj 181 497 t a;
#X obj 267 519 prepend add;
#X obj 255 495 t a;
#X obj 170 680 mmb/save.me.mmb mixer-channel2 \$0-persist;
#X obj 250 656 mmb/save.me.mmb mixer-channel3 \$0-persist;
#X obj 347 517 prepend add;
#X obj 335 493 t a;
#X obj 325 634 mmb/save.me.mmb mixer-channel4 \$0-persist;
#X obj 420 516 prepend add;
#X obj 408 492 t a;
#X obj 382 610 mmb/save.me.mmb mixer-channel5 \$0-persist;
#X obj 493 519 prepend add;
#X obj 481 495 t a;
#X obj 475 589 mmb/save.me.mmb mixer-channel6 \$0-persist;
#X obj 567 520 prepend add;
#X obj 555 496 t a;
#X obj 545 568 mmb/save.me.mmb mixer-channel7 \$0-persist;
#X obj 643 520 prepend add;
#X obj 631 496 t a;
#X obj 617 546 mmb/save.me.mmb mixer-channel8 \$0-persist;
#X obj 911 161 r \$0-persist;
#X obj 57 -17 catch~ \$0-track1-mixer-left;
#X obj 73 2 catch~ \$0-track1-mixer-right;
#X obj 91 22 catch~ \$0-track2-mixer-left;
#X obj 107 41 catch~ \$0-track2-mixer-right;
#X obj 150 62 catch~ \$0-track3-mixer-left;
#X obj 166 81 catch~ \$0-track3-mixer-right;
#X obj 187 100 catch~ \$0-track4-mixer-left;
#X obj 211 119 catch~ \$0-track4-mixer-right;
#X obj 321 -1 catch~ \$0-track5-mixer-left;
#X obj 337 18 catch~ \$0-track5-mixer-right;
#X obj 380 39 catch~ \$0-track6-mixer-left;
#X obj 396 58 catch~ \$0-track6-mixer-right;
#X obj 441 79 catch~ \$0-track7-mixer-left;
#X obj 460 98 catch~ \$0-track7-mixer-right;
#X obj 500 119 catch~ \$0-track8-mixer-left;
#X obj 526 138 catch~ \$0-track8-mixer-right;
#X connect 0 2 28 0;
#X connect 1 2 31 0;
#X connect 2 2 33 0;
#X connect 3 2 37 0;
#X connect 4 2 40 0;
#X connect 5 2 43 0;
#X connect 6 2 46 0;
#X connect 7 2 49 0;
#X connect 8 0 0 0;
#X connect 9 0 0 1;
#X connect 10 0 1 0;
#X connect 11 0 1 1;
#X connect 12 0 2 0;
#X connect 13 0 2 1;
#X connect 14 0 3 0;
#X connect 15 0 3 1;
#X connect 16 0 4 0;
#X connect 17 0 4 1;
#X connect 18 0 5 0;
#X connect 19 0 5 1;
#X connect 20 0 6 0;
#X connect 21 0 6 1;
#X connect 22 0 7 0;
#X connect 23 0 7 1;
#X connect 24 0 30 1;
#X connect 24 0 35 1;
#X connect 24 0 36 1;
#X connect 24 0 39 1;
#X connect 24 0 42 1;
#X connect 24 0 45 1;
#X connect 24 0 48 1;
#X connect 24 0 51 1;
#X connect 25 0 26 0;
#X connect 25 1 24 0;
#X connect 26 0 0 2;
#X connect 26 0 1 2;
#X connect 26 0 2 2;
#X connect 26 0 3 2;
#X connect 26 0 4 2;
#X connect 26 0 5 2;
#X connect 26 0 6 2;
#X connect 26 0 7 2;
#X connect 28 0 30 0;
#X connect 29 0 0 2;
#X connect 30 0 29 0;
#X connect 31 0 35 0;
#X connect 32 0 1 2;
#X connect 33 0 36 0;
#X connect 34 0 2 2;
#X connect 35 0 32 0;
#X connect 36 0 34 0;
#X connect 37 0 39 0;
#X connect 38 0 3 2;
#X connect 39 0 38 0;
#X connect 40 0 42 0;
#X connect 41 0 4 2;
#X connect 42 0 41 0;
#X connect 43 0 45 0;
#X connect 44 0 5 2;
#X connect 45 0 44 0;
#X connect 46 0 48 0;
#X connect 47 0 6 2;
#X connect 48 0 47 0;
#X connect 49 0 51 0;
#X connect 50 0 7 2;
#X connect 51 0 50 0;
#X connect 52 0 25 0;
#X connect 53 0 0 0;
#X connect 54 0 0 1;
#X connect 55 0 1 0;
#X connect 56 0 1 1;
#X connect 57 0 2 0;
#X connect 58 0 2 1;
#X connect 59 0 3 0;
#X connect 60 0 3 1;
#X connect 61 0 4 0;
#X connect 62 0 4 1;
#X connect 63 0 5 0;
#X connect 64 0 5 1;
#X connect 65 0 6 0;
#X connect 66 0 6 1;
#X connect 67 0 7 0;
#X connect 68 0 7 1;
#X coords 0 -1 1 1 605 220 2 100 270;
#X restore 28 504 pd mixer;
#N canvas 264 91 1374 787 persist-presets 0;
#X obj 17 17 bng 15 250 50 0 \$0-load-project.gui empty empty 17 7
0 10 -262144 -1 -1;
#X text 35 15 Load;
#X obj 17 39 bng 15 250 50 0 \$0-save-project.gui empty empty 17 7
0 10 -262144 -1 -1;
#X text 35 38 Save;
#X obj 871 426 textfile;
#X msg 841 326 clear;
#X msg 973 249 save;
#X msg 941 382 write \$1;
#X obj 1098 53 openpanel;
#X obj 1098 200 textfile;
#X msg 1098 162 read \$1 \, rewind \, bang;
#X obj 1070 225 t b a;
#X obj 1097 252 prepend load;
#X obj 926 59 savepanel;
#X obj 871 354 prepend add;
#X obj 973 286 mmb/my.hero.mmb \$0-persist;
#X msg 968 315 metro-volume 0.0511518 \, timesig 5 \, bpm 52 \, mixer-master
state 1 \,;
#X obj 912 315 t a;
#X obj 17 63 bng 15 250 50 0 \$0-save-project-as.gui empty empty 17
7 0 10 -262144 -1 -1;
#X text 35 62 Save As;
#X obj 1098 23 r \$0-load-project.gui;
#X obj 342 23 r \$0-save-project.gui;
#X obj 96 12 cnv 15 100 60 \$0-project-name.gui \$0-project-name.gui.set
name with spaces.txt 20 12 0 14 -233017 -66577 0;
#X obj 926 164 t s s b b b;
#X msg 428 277 label \$1;
#X obj 428 308 s \$0-project-name.gui.set;
#X obj 926 24 r \$0-save-project-as.gui;
#X obj 342 316 moses 1;
#X obj 381 483 t a;
#X obj 616 500 t a;
#X obj 616 147 t a;
#X obj 342 347 t b;
#X obj 649 364 t a;
#X obj 649 42 t a;
#X obj 342 251 int;
#X msg 357 227 1;
#X text 240 253 has the project;
#X text 247 267 been saved?;
#X obj 381 448 symbol;
#X obj 387 196 t b s;
#X obj 381 419 t b;
#X obj 428 251 splitfilename;
#X obj 758 226 s \$0-global-events;
#X msg 758 198 saving \$1;
#X obj 1116 137 s \$0-global-events;
#X msg 1116 113 loading \$1;
#X obj 1006 107 t a;
#X obj 387 124 t a;
#X text 387 105 change current project;
#N canvas 276 252 897 478 \$0-remember-last-project 0;
#X obj 110 43 r \$0-global-events;
#X obj 110 74 route loading saving;
#X obj 110 198 textfile;
#X msg 110 173 clear \, add last-project \$1 \, write state/state.txt
;
#X obj 585 31 loadbang;
#X msg 585 60 read state/state.txt \, rewind \, bang;
#X obj 585 93 textfile;
#X obj 585 126 route last-project;
#X obj 585 391 outlet;
#X text 598 356 outputs last opened project name;
#X text 598 370 on loadbang;
#X obj 110 117 symbol;
#X obj 563 32 bng 15 250 50 0 empty empty empty 17 7 0 10 -262144 -1
-1;
#X obj 585 221 zexy/list2symbol;
#X text 609 200 handle spaces in filename;
#X connect 0 0 1 0;
#X connect 1 0 11 0;
#X connect 1 1 11 0;
#X connect 3 0 2 0;
#X connect 4 0 5 0;
#X connect 5 0 6 0;
#X connect 6 0 7 0;
#X connect 7 0 13 0;
#X connect 11 0 3 0;
#X connect 12 0 5 0;
#X connect 13 0 8 0;
#X restore 10 129 pd \$0-remember-last-project;
#X obj 10 167 t a;
#X text 12 191 outputs last opened project;
#X text 13 208 on loadbang;
#X obj 1098 90 t a;
#X obj 260 73 t a;
#X obj 260 184 t a;
#X text 450 365 show save dialog;
#X text 392 506 save project to this location;
#X obj 731 591 tof/folderpanel;
#X obj 731 684 hcs/sys_gui;
#X msg 731 657 file mkdir \$1;
#X obj 731 621 makefilename %s/audio;
#X obj 731 570 bng 15 250 50 0 empty empty empty 17 7 0 10 -262144
-1 -1;
#X connect 5 0 4 0;
#X connect 6 0 15 0;
#X connect 7 0 4 0;
#X connect 8 0 53 0;
#X connect 9 0 11 0;
#X connect 10 0 9 0;
#X connect 11 0 9 0;
#X connect 11 1 12 0;
#X connect 12 0 15 0;
#X connect 13 0 23 0;
#X connect 13 0 46 0;
#X connect 14 0 4 0;
#X connect 15 0 16 0;
#X connect 16 0 17 0;
#X connect 17 0 14 0;
#X connect 20 0 8 0;
#X connect 21 0 34 0;
#X connect 23 0 43 0;
#X connect 23 1 7 0;
#X connect 23 2 16 0;
#X connect 23 3 6 0;
#X connect 23 4 5 0;
#X connect 24 0 25 0;
#X connect 26 0 13 0;
#X connect 27 0 31 0;
#X connect 27 1 40 0;
#X connect 28 0 29 0;
#X connect 29 0 30 0;
#X connect 30 0 23 0;
#X connect 31 0 32 0;
#X connect 32 0 33 0;
#X connect 33 0 13 0;
#X connect 34 0 27 0;
#X connect 35 0 34 1;
#X connect 38 0 28 0;
#X connect 39 0 35 0;
#X connect 39 1 38 1;
#X connect 39 1 41 0;
#X connect 40 0 38 0;
#X connect 41 1 24 0;
#X connect 43 0 42 0;
#X connect 45 0 44 0;
#X connect 46 0 47 0;
#X connect 47 0 39 0;
#X connect 49 0 50 0;
#X connect 50 0 55 0;
#X connect 53 0 45 0;
#X connect 53 0 10 0;
#X connect 53 0 46 0;
#X connect 54 0 53 0;
#X connect 55 0 54 0;
#X connect 58 0 61 0;
#X connect 60 0 59 0;
#X connect 61 0 60 0;
#X connect 62 0 58 0;
#X coords 0 -1 1 1 75 75 2 10 10;
#X restore 740 9 pd persist-presets;
#N canvas 413 118 703 525 mixer-master 0;
#X obj 106 334 dac~;
#X obj 130 43 t b b;
#X msg 108 73 dump;
#X obj 130 21 r \$0-persist;
#X msg 235 132 clear;
#X obj 37 194 t a;
#X obj 154 433 prepend add;
#X obj 108 468 mmb/save.me.mmb mixer-master \$0-persist;
#X obj 89 38 bng 15 250 50 0 empty empty empty 17 7 0 10 -262144 -1
-1;
#X obj 105 104 mixstripmaster \$0;
#X connect 1 0 2 0;
#X connect 1 1 4 0;
#X connect 2 0 9 2;
#X connect 3 0 1 0;
#X connect 4 0 7 1;
#X connect 5 0 9 2;
#X connect 6 0 7 0;
#X connect 7 0 5 0;
#X connect 8 0 1 0;
#X connect 9 0 0 0;
#X connect 9 1 0 1;
#X connect 9 2 6 0;
#X coords 0 -1 1 1 80 220 2 100 100;
#X restore 640 504 pd mixer-master;
#X obj 302 33 lzr/transport-buttons;
#X obj 747 675 pddp/dsp;
#N canvas 378 82 616 592 \$0-cool-stuff 0;
#X obj 45 51 bassemu~;
#X text 46 99 bassemu/examples/simple-sequencer;
#X obj -9 183 ti_snare;
#X obj -9 158 bng 15 250 50 0 empty empty empty 17 7 0 10 -262144 -1
-1;
#X obj 2 350 dac~;
#X obj 61 288 ti_hihat;
#X obj 57 258 bng 15 250 50 0 empty empty empty 17 7 0 10 -262144 -1
-1;
#X obj 453 369 jmmmp/lbang;
#X obj 285 297 jmmmp/metrum;
#X text 390 119 sfruit/saveclear;
#X text 151 418 tof/imagebang;
#X text 389 134 sfruit/gop-edit;
#X text 384 158 iemlib/samplerate~;
#X text 393 188 iemguts/canvasargs;
#X text 380 217 pddp/print;
#X text 379 241 mmb/waveform.mmb;
#X text 395 93 mapping/keygate;
#X text 394 73 iemlib/soundfile_info;
#X text 394 51 iemguts/receivecanvas;
#X text 353 31 hcs/get-audio-dialog;
#X text 354 18 hcs/window-name;
#X text 369 265 hcs/screensize;
#X text 372 348 cyclone/active;
#X obj 322 502 qlist;
#X obj 385 447 pdmtl/synth.wind~;
#X obj 27 470 pdmtl/init.dollar.zero.top;
#X text 34 508 ggee/gcanvas;
#X text 390 401 unauthorized/grid;
#X text 408 488 tof/pmenu;
#X text 413 506 sfruit/cpugraph;
#X text 289 542 MouseState!;
#X text 116 361 list-idx: Get element at position idx.;
#X connect 2 0 4 0;
#X connect 2 0 4 1;
#X connect 3 0 2 0;
#X connect 5 0 4 0;
#X connect 5 0 4 1;
#X connect 6 0 5 0;
#X restore 629 9 pd \$0-cool-stuff;
#N canvas 154 88 1066 644 \$0-gui-tricks 0;
#N canvas 298 277 537 413 canvasposition 0;
#X obj 380 43 inlet;
#X obj 387 359 outlet;
#X obj 445 340 outlet;
#X obj 278 45 inlet;
#N canvas 805 348 450 300 canvaspos 0;
#X obj 279 31 inlet;
#X obj 270 192 outlet;
#X obj 340 185 outlet;
#X obj 100 100 cnv 60 60 60 empty empty Test_1 2 13 0 14 -257985 -66577
0;
#X obj 259 99 iemguts/canvasposition;
#X connect 0 0 4 0;
#X connect 4 0 1 0;
#X connect 4 1 2 0;
#X coords 0 -1 1 1 60 60 2 100 100;
#X restore 100 100 pd canvaspos;
#X msg 348 121 map 0 \, map 1;
#N canvas 805 348 450 300 canvaspos 0;
#X obj 279 31 inlet;
#X obj 270 192 outlet;
#X obj 340 185 outlet;
#X obj 100 100 cnv 60 60 60 empty empty Test_2 2 13 0 14 -4034 -66577
0;
#X obj 259 99 iemguts/canvasposition;
#X connect 0 0 4 0;
#X connect 4 0 1 0;
#X connect 4 1 2 0;
#X coords 0 -1 1 1 60 60 2 100 100;
#X restore 100 100 pd canvaspos;
#X obj 347 143 iemguts/sendcanvas 3;
#X connect 0 0 4 0;
#X connect 0 0 5 0;
#X connect 3 0 5 0;
#X connect 3 0 6 0;
#X connect 4 0 1 0;
#X connect 5 0 7 0;
#X coords 0 -1 1 1 60 60 2 100 100;
#X restore 234 344 pd canvasposition;
#X obj 169 114 hsl 128 15 0 200 0 0 empty empty empty -2 -8 0 10 -262144
-1 -1 0 1;
#X floatatom 196 425 5 0 0 0 - - -;
#X floatatom 330 442 5 0 0 0 - - -;
#X obj 238 156 hsl 128 15 0 200 0 0 empty empty empty -2 -8 0 10 -262144
-1 -1 0 1;
#X msg 220 191 \$1 100;
#X msg 151 149 \$1 100;
#X obj 265 223 t b b b;
#X msg 318 298 100 100;
#X obj 274 195 bng 15 250 50 0 empty empty empty 17 7 0 10 -262144
-1 -1;
#X obj 341 221 t b b b;
#X msg 394 296 100 100;
#X obj 350 193 bng 15 250 50 0 empty empty empty 17 7 0 10 -262144
-1 -1;
#X msg 313 252 99 99;
#X msg 389 250 99 99;
#X obj 321 63 tgl 15 0 empty empty empty 17 7 0 10 -262144 -1 -1 0
1;
#X obj 324 101 select 0 1;
#X obj 307 22 % 2;
#N canvas 222 118 860 650 browser 0;
#X msg -106 417 folder \$1;
#X obj -106 362 route folder;
#X obj -106 391 symbol;
#X obj 29 35 mmb/browser.mmb;
#X obj -188 9 jmmmp/lbang;
#X msg -146 228 folder ~/Dropbox/PureData/Effects/;
#X connect 0 0 3 0;
#X connect 1 0 2 0;
#X connect 2 0 0 0;
#X connect 3 0 1 0;
#X connect 4 0 5 0;
#X connect 5 0 3 0;
#X coords 0 -1 1 1 250 200 2 1 1;
#X restore 511 104 pd browser;
#X connect 0 0 2 0;
#X connect 0 1 3 0;
#X connect 1 0 6 0;
#X connect 4 0 5 0;
#X connect 5 0 0 0;
#X connect 6 0 0 1;
#X connect 7 1 8 0;
#X connect 7 2 13 0;
#X connect 8 0 0 0;
#X connect 9 0 7 0;
#X connect 10 1 11 0;
#X connect 10 2 14 0;
#X connect 11 0 0 1;
#X connect 12 0 10 0;
#X connect 13 0 0 0;
#X connect 14 0 0 1;
#X connect 15 0 16 0;
#X connect 16 0 9 0;
#X connect 16 1 12 0;
#X connect 17 0 15 0;
#X restore 629 32 pd \$0-gui-tricks;
#N canvas 908 202 476 371 \$0-messages 0;
#X text 30 29 \$0-global-events:;
#X text 41 47 - play;
#X text 41 62 - pause;
#X text 41 76 - stop;
#X text 41 91 - record;
#X text 41 106 - tick beat <tick_number>;
#X restore 629 54 pd \$0-messages;
#N canvas 483 227 352 287 \$0-debugger 0;
#X obj 105 57 r \$0-global-events;
#X obj 105 86 print \$0-global-event;
#X connect 0 0 1 0;
#X restore 629 76 pd \$0-debugger;
#N canvas 5 585 1425 343 \$0-session-view 1;
#X obj 10 20 session-track \$0 1;
#X obj 184 20 session-track \$0 2;
#X obj 358 20 session-track \$0 3;
#X obj 532 20 session-track \$0 4;
#X obj 706 20 session-track \$0 5;
#X obj 880 20 session-track \$0 6;
#X obj 1054 20 session-track \$0 7;
#X obj 1228 20 session-track \$0 8;
#X restore -83 40 pd \$0-session-view;
#X msg 772 590 \; pd dsp 1;
#X obj 767 557 loadbang;
#N canvas 185 160 818 775 \$0-bpm 0;
#X obj 408 180 metro;
#X floatatom 17 16 5 20 300 1 BPM #0-bpm.gui.set #0-bpm.gui;
#X obj 408 208 bng 15 250 50 0 empty empty empty 17 7 0 10 -262144
-1 -1;
#X obj 454 137 /;
#X msg 418 112 60000;
#X text 485 111 compute milliseconds between ticks;
#X text 498 127 (60000 / BPM);
#X obj 442 88 t b f;
#X obj 442 59 r \$0-bpm.gui;
#X floatatom 81 17 2 1 9 1 /4 #0-timesig.gui.set #0-timesig.gui;
#X obj 423 396 r \$0-timesig.gui;
#X obj 408 279 int;
#X obj 448 280 + 1;
#X floatatom 408 333 16 0 0 0 - - -;
#X text 326 331 beat counter;
#X obj 408 418 mod;
#X floatatom 408 444 5 0 0 0 - - -;
#X text 282 440 beat within the bar;
#X obj 105 52 cnv 5 5 5 empty \$0-beat-light.gui empty 20 12 0 14 -261681
-262144 0;
#X text 470 509 weak beat;
#X obj 485 535 t b b b;
#X obj 324 533 t b b b;
#X text 297 504 strong beat;
#X obj 421 653 list prepend \$0;
#X msg 421 679 \; \$1-beat-light.gui color \$2;
#X msg 363 606 2;
#X msg 524 604 13;
#X msg 421 605 4;
#X obj 421 581 del 200;
#N canvas 188 88 692 738 \$0-metronome-sound 0;
#X obj 121 -112 inlet;
#X obj 261 -112 inlet;
#X obj 44 101 *~;
#X obj 59 61 line~;
#X obj 59 28 1 50;
#X obj 121 28 0 50;
#X obj 121 6 delay 50;
#X obj 81 178 hip~ 3;
#X obj 143 178 hip~ 3;
#X text 187 179 filter out DC;
#X obj 184 91 *~;
#X obj 199 51 line~;
#X obj 199 16 1 50;
#X obj 261 13 0 50;
#X obj 261 -10 delay 50;
#X obj 184 -69 osc~ 440;
#X obj 44 -68 osc~ 500;
#X obj 121 -21 t a;
#X obj 261 -35 t a;
#X obj 273 409 line~;
#X obj 81 493 *~;
#X obj 101 523 dac~;
#X obj 143 492 *~;
#X obj 143 522 outlet~;
#X obj 43 522 outlet~;
#X obj 273 388 pack 0 50;
#X text 340 387 <-- make a ramp to avoid clicks or zipper noise;
#X msg 273 344 0;
#X obj 273 319 moses 0.011;
#X obj 225 522 outlet;
#X obj 225 265 r \$0-metro-volume.gui;
#X connect 0 0 17 0;
#X connect 1 0 18 0;
#X connect 2 0 7 0;
#X connect 2 0 8 0;
#X connect 3 0 2 1;
#X connect 4 0 3 0;
#X connect 5 0 3 0;
#X connect 6 0 5 0;
#X connect 7 0 20 0;
#X connect 8 0 22 0;
#X connect 10 0 7 0;
#X connect 10 0 8 0;
#X connect 11 0 10 1;
#X connect 12 0 11 0;
#X connect 13 0 11 0;
#X connect 14 0 13 0;
#X connect 15 0 10 0;
#X connect 16 0 2 0;
#X connect 17 0 4 0;
#X connect 17 0 6 0;
#X connect 18 0 14 0;
#X connect 18 0 12 0;
#X connect 19 0 22 1;
#X connect 19 0 20 1;
#X connect 20 0 21 0;
#X connect 20 0 24 0;
#X connect 22 0 21 1;
#X connect 22 0 23 0;
#X connect 25 0 19 0;
#X connect 27 0 25 0;
#X connect 28 0 27 0;
#X connect 28 1 25 0;
#X connect 30 0 28 0;
#X connect 30 0 29 0;
#X restore 203 607 pd \$0-metronome-sound;
#X obj 19 43 hsl 80 15 0.01 1 1 0 \$0-metro-volume.gui \$0-metro-volume.gui.set
volume 3 8 1 10 -245500 -13381 -1 2800 0;
#X msg 554 371 tick beat \$1;
#X obj 554 396 s \$0-global-events;
#X obj 264 62 r \$0-global-events;
#X msg 345 137 1;
#X msg 305 137 0;
#X obj 264 96 route stop pause play;
#X obj 408 490 sel 1;
#X text 292 453 (counting from 0);
#X text 557 416 send a tick event;
#X text 556 430 to the global bus of events;
#N canvas 1027 359 579 463 \$0-persist-parameters 0;
#X obj 20 68 s \$0-bpm.gui.set;
#X obj 20 42 mmb/save.me.mmb bpm \$0-persist;
#X obj 21 109 r \$0-timesig.gui;
#X obj 21 133 mmb/save.me.mmb timesig \$0-persist;
#X obj 21 159 s \$0-timesig.gui.set;
#X obj 22 205 r \$0-metro-volume.gui;
#X obj 22 229 mmb/save.me.mmb metro-volume \$0-persist;
#X obj 22 255 s \$0-metro-volume.gui.set;
#X obj 20 18 r \$0-bpm.gui;
#X connect 1 0 0 0;
#X connect 2 0 3 0;
#X connect 3 0 4 0;
#X connect 5 0 6 0;
#X connect 6 0 7 0;
#X connect 8 0 1 0;
#X restore 12 99 pd \$0-persist-parameters;
#X connect 0 0 2 0;
#X connect 2 0 11 0;
#X connect 3 0 0 1;
#X connect 4 0 3 0;
#X connect 7 0 4 0;
#X connect 7 1 3 1;
#X connect 8 0 7 0;
#X connect 10 0 15 1;
#X connect 11 0 12 0;
#X connect 11 0 13 0;
#X connect 12 0 11 1;
#X connect 13 0 15 0;
#X connect 13 0 31 0;
#X connect 15 0 16 0;
#X connect 16 0 37 0;
#X connect 20 0 29 1;
#X connect 20 1 28 0;
#X connect 20 2 26 0;
#X connect 21 0 29 0;
#X connect 21 1 28 0;
#X connect 21 2 25 0;
#X connect 23 0 24 0;
#X connect 25 0 23 0;
#X connect 26 0 23 0;
#X connect 27 0 23 0;
#X connect 28 0 27 0;
#X connect 31 0 32 0;
#X connect 33 0 36 0;
#X connect 34 0 0 0;
#X connect 35 0 0 0;
#X connect 35 0 12 0;
#X connect 36 0 35 0;
#X connect 36 1 35 0;
#X connect 36 2 34 0;
#X connect 37 0 21 0;
#X connect 37 1 20 0;
#X coords 0 -1 1 1 105 55 2 10 10;
#X restore 515 10 pd \$0-bpm;
#N canvas 670 41 953 599 \$0-settings 0;
#X obj 162 60 mediasettings/audiosettings;
#X msg 162 34 listparams;
#X obj 162 87 route params;
#X obj 162 112 route in out;
#X obj 46 150 route devices;
#X obj 289 150 route devices;
#X obj 46 179 unpack f f;
#X obj 289 175 unpack f f;
#X obj 143 516 s pd-\$0-playground;
#X obj 288 225 loop;
#X obj 143 378 * 50;
#X obj 143 353 t f f;
#X obj 143 461 pack f f;
#X obj 289 427 s pd-\$0-playground;
#X obj 289 314 + 400;
#X obj 289 289 * 50;
#X obj 289 264 t f f;
#X obj 289 372 pack f f;
#X obj 335 296 + 1;
#X msg 289 397 obj \$1 500 dac~ \$2;
#X obj 589 152 bng 15 250 50 0 empty empty empty 17 7 0 10 -262144
-1 -1;
#X obj 607 322 s pd-\$0-playground;
#X msg 672 252 find dac~ 1 \, cut;
#X obj 127 210 int;
#X text 147 247 create;
#X text 22 249 delete;
#X obj 179 316 loop;
#X obj 166 286 t b f;
#X obj 73 210 t f f;
#X obj 154 166 loadbang;
#X msg 153 186 0;
#X obj 100 237 moses;
#X obj 143 403 + 50;
#X msg 143 486 obj \$1 50 adc~ \$2;
#X floatatom 28 209 5 0 0 0 - - -;
#X obj 205 234 + 1;
#X obj 205 286 t a;
#X obj 127 264 moses;
#X msg 35 341 find dac~ 1 \, cut;
#X obj 48 296 loop;
#X obj 28 271 t b f;
#X connect 0 0 2 0;
#X connect 1 0 0 0;
#X connect 2 0 3 0;
#X connect 3 0 4 0;
#X connect 3 1 5 0;
#X connect 4 1 6 0;
#X connect 5 1 7 0;
#X connect 6 1 28 0;
#X connect 7 1 9 0;
#X connect 9 1 16 0;
#X connect 10 0 32 0;
#X connect 11 0 10 0;
#X connect 11 1 12 1;
#X connect 12 0 33 0;
#X connect 14 0 17 0;
#X connect 15 0 14 0;
#X connect 16 0 15 0;
#X connect 16 1 18 0;
#X connect 17 0 19 0;
#X connect 18 0 17 1;
#X connect 19 0 13 0;
#X connect 20 0 22 0;
#X connect 22 0 21 0;
#X connect 23 0 31 1;
#X connect 23 0 35 0;
#X connect 23 0 39 2;
#X connect 26 1 11 0;
#X connect 27 0 26 0;
#X connect 27 1 26 2;
#X connect 28 0 23 0;
#X connect 28 1 31 0;
#X connect 29 0 30 0;
#X connect 30 0 23 0;
#X connect 31 0 40 0;
#X connect 31 1 37 0;
#X connect 32 0 12 0;
#X connect 33 0 8 0;
#X connect 34 0 28 0;
#X connect 35 0 36 0;
#X connect 35 0 37 1;
#X connect 36 0 26 1;
#X connect 37 1 27 0;
#X connect 38 0 8 0;
#X connect 39 1 38 0;
#X connect 40 0 39 0;
#X connect 40 1 39 1;
#X restore -84 63 pd \$0-settings;
#N canvas 102 22 1212 908 \$0-playground 0;
#X obj 24 77 lzr/phaser-effect;
#X obj 222 68 simple-fuzz-effect;
#X obj 30 231 throw~ \$0-track1-mixer-left;
#X obj 36 209 throw~ \$0-track1-mixer-right;
#X obj 967 159 poly-synth1;
#X obj 971 131 notein 1;
#X obj 1005 191 throw~ \$0-track8-mixer-left;
#X obj 964 215 throw~ \$0-track8-mixer-right;
#X obj 228 247 throw~ \$0-track2-mixer-right;
#X obj 222 269 throw~ \$0-track2-mixer-left;
#X obj 220 16 catch~ \$0-track2-virt-in-left;
#X obj 233 38 catch~ \$0-track2-virt-in-right;
#X obj 26 19 catch~ \$0-track1-virt-in-left;
#X obj 34 41 catch~ \$0-track1-virt-in-right;
#X obj 460 35 catch~ \$0-track3-virt-in-left;
#X obj 473 57 catch~ \$0-track3-virt-in-right;
#X obj 863 21 catch~ \$0-track5-virt-in-left;
#X obj 876 43 catch~ \$0-track5-virt-in-right;
#X obj 584 84 catch~ \$0-track6-virt-in-left;
#X obj 597 106 catch~ \$0-track6-virt-in-right;
#X obj 792 80 catch~ \$0-track7-virt-in-left;
#X obj 805 102 catch~ \$0-track7-virt-in-right;
#X obj 990 77 catch~ \$0-track8-virt-in-left;
#X obj 1003 99 catch~ \$0-track8-virt-in-right;
#X obj 665 20 catch~ \$0-track4-virt-in-left;
#X obj 678 42 catch~ \$0-track4-virt-in-right;
#X obj 818 510 ti_snare;
#X obj 230 547 ti_hihat;
#X obj 480 340 mpx16;
#X obj 415 556 kick-drum;
#X obj 540 538 acreil-snare1-drum;
#X obj 678 524 acreil-snare2-drum;
#X obj 396 410 select 2 3 1 4 5;
#X floatatom 480 381 5 0 0 0 - - -;
#X obj 817 483 bng 15 250 50 0 empty empty empty 17 7 0 10 -262144
-1 -1;
#X obj 678 496 bng 15 250 50 0 empty empty empty 17 7 0 10 -262144
-1 -1;
#X obj 413 536 bng 15 250 50 0 empty empty empty 17 7 0 10 -262144
-1 -1;
#X obj 541 514 bng 15 250 50 0 empty empty empty 17 7 0 10 -262144
-1 -1;
#X obj 230 524 bng 15 250 50 0 empty empty empty 17 7 0 10 -262144
-1 -1;
#X obj 480 313 notein;
#X obj 459 248 midiparse;
#X obj 460 150 midiin;
#X obj 459 274 unpack f f;
#X obj 230 683 throw~ \$0-track3-mixer-left;
#X obj 238 661 throw~ \$0-track3-mixer-right;
#X obj 348 617 throw~ \$0-track4-mixer-right;
#X obj 306 639 throw~ \$0-track4-mixer-left;
#X obj 528 653 throw~ \$0-track5-mixer-right;
#X obj 518 675 throw~ \$0-track5-mixer-left;
#X obj 641 606 throw~ \$0-track6-mixer-right;
#X obj 619 627 throw~ \$0-track6-mixer-left;
#X obj 853 635 throw~ \$0-track7-mixer-right;
#X obj 831 656 throw~ \$0-track7-mixer-left;
#X obj 459 173 midi-recorder midi/drums.mid;
#X connect 0 0 2 0;
#X connect 0 1 3 0;
#X connect 1 0 9 0;
#X connect 1 1 8 0;
#X connect 4 0 7 0;
#X connect 4 0 6 0;
#X connect 5 0 4 0;
#X connect 5 1 4 1;
#X connect 10 0 1 0;
#X connect 11 0 1 1;
#X connect 12 0 0 0;
#X connect 13 0 0 1;
#X connect 26 0 51 0;
#X connect 26 0 52 0;
#X connect 27 0 44 0;
#X connect 27 0 43 0;
#X connect 28 0 32 0;
#X connect 28 0 33 0;
#X connect 29 0 46 0;
#X connect 29 1 45 0;
#X connect 30 0 48 0;
#X connect 30 1 47 0;
#X connect 31 0 50 0;
#X connect 31 1 49 0;
#X connect 32 0 38 0;
#X connect 32 1 34 0;
#X connect 32 2 36 0;
#X connect 32 3 37 0;
#X connect 32 4 35 0;
#X connect 34 0 26 0;
#X connect 35 0 31 0;
#X connect 36 0 29 0;
#X connect 37 0 30 0;
#X connect 38 0 27 0;
#X connect 39 0 28 0;
#X connect 39 1 28 1;
#X connect 40 0 42 0;
#X connect 41 0 53 0;
#X connect 42 0 28 0;
#X connect 42 1 28 1;
#X connect 53 0 40 0;
#X restore -83 17 pd \$0-playground;
#X obj -41 188 adc~ 1;
#X obj 37 190 adc~ 2;
#X obj 108 189 adc~ 3;
#X obj 210 188 adc~ 4;
#X obj 293 189 adc~ 5;
#X obj 376 192 adc~ 6;
#X obj 465 190 adc~ 7;
#X obj 567 190 adc~ 8;
#X obj -41 205 lzr/volume-control-mono;
#X obj 37 207 lzr/volume-control-mono;
#X obj 108 206 lzr/volume-control-mono;
#X obj 210 205 lzr/volume-control-mono;
#X obj 293 206 lzr/volume-control-mono;
#X obj 376 209 lzr/volume-control-mono;
#X obj 465 207 lzr/volume-control-mono;
#X obj 567 207 lzr/volume-control-mono;
#X obj 37 357 throw~ \$0-track1-phys-in-right;
#X obj -41 381 throw~ \$0-track1-phys-in-left;
#X obj 761 350 throw~ \$0-track2-phys-in-right;
#X obj 659 375 throw~ \$0-track2-phys-in-left;
#X obj 659 208 lzr/volume-control-mono;
#X obj 761 208 lzr/volume-control-mono;
#X obj 659 191 adc~ 9;
#X obj 761 191 adc~ 10;
#X connect 12 0 11 0;
#X connect 16 0 24 0;
#X connect 17 0 25 0;
#X connect 18 0 26 0;
#X connect 19 0 27 0;
#X connect 20 0 28 0;
#X connect 21 0 29 0;
#X connect 22 0 30 0;
#X connect 23 0 31 0;
#X connect 24 0 33 0;
#X connect 25 0 32 0;
#X connect 36 0 35 0;
#X connect 37 0 34 0;
#X connect 38 0 36 0;
#X connect 39 0 37 0;
