#N canvas 301 37 1351 889 10;
#X obj 837 14 lzr/input-interface-selector;
#N canvas 0 22 1440 768 mixer 0;
#X obj 105 274 mmb/mixstrip2.mmb~ \$0;
#X obj 180 274 mmb/mixstrip2.mmb~ \$0;
#X obj 255 274 mmb/mixstrip2.mmb~ \$0;
#X obj 330 274 mmb/mixstrip2.mmb~ \$0;
#X obj 405 274 mmb/mixstrip2.mmb~ \$0;
#X obj 480 274 mmb/mixstrip2.mmb~ \$0;
#X obj 555 274 mmb/mixstrip2.mmb~ \$0;
#X obj 630 274 mmb/mixstrip2.mmb~ \$0;
#X obj 104 211 inlet~;
#X obj 127 188 inlet~;
#X obj 182 211 inlet~;
#X obj 205 188 inlet~;
#X obj 256 212 inlet~;
#X obj 279 189 inlet~;
#X obj 334 212 inlet~;
#X obj 357 189 inlet~;
#X obj 405 210 inlet~;
#X obj 428 187 inlet~;
#X obj 483 210 inlet~;
#X obj 506 187 inlet~;
#X obj 557 211 inlet~;
#X obj 580 188 inlet~;
#X obj 635 211 inlet~;
#X obj 658 188 inlet~;
#X msg 969 459 clear;
#X obj 911 183 t b b;
#X msg 889 213 dump;
#X obj 741 212 inlet;
#X obj 113 518 prepend add;
#X obj 101 494 t a;
#X obj 96 702 mmb/save.me.mmb mixer-channel1 \$0-persist;
#X obj 193 521 prepend add;
#X obj 181 497 t a;
#X obj 267 519 prepend add;
#X obj 255 495 t a;
#X obj 170 680 mmb/save.me.mmb mixer-channel2 \$0-persist;
#X obj 250 656 mmb/save.me.mmb mixer-channel3 \$0-persist;
#X obj 347 517 prepend add;
#X obj 335 493 t a;
#X obj 325 634 mmb/save.me.mmb mixer-channel4 \$0-persist;
#X obj 420 516 prepend add;
#X obj 408 492 t a;
#X obj 382 610 mmb/save.me.mmb mixer-channel5 \$0-persist;
#X obj 493 519 prepend add;
#X obj 481 495 t a;
#X obj 475 589 mmb/save.me.mmb mixer-channel6 \$0-persist;
#X obj 567 520 prepend add;
#X obj 555 496 t a;
#X obj 545 568 mmb/save.me.mmb mixer-channel7 \$0-persist;
#X obj 643 520 prepend add;
#X obj 631 496 t a;
#X obj 617 546 mmb/save.me.mmb mixer-channel8 \$0-persist;
#X obj 911 161 r \$0-persist;
#X obj 57 -17 catch~ \$0-track1-mixer-left;
#X obj 73 2 catch~ \$0-track1-mixer-right;
#X obj 91 22 catch~ \$0-track2-mixer-left;
#X obj 107 41 catch~ \$0-track2-mixer-right;
#X obj 150 62 catch~ \$0-track3-mixer-left;
#X obj 166 81 catch~ \$0-track3-mixer-right;
#X obj 187 100 catch~ \$0-track4-mixer-left;
#X obj 211 119 catch~ \$0-track4-mixer-right;
#X obj 321 -1 catch~ \$0-track5-mixer-left;
#X obj 337 18 catch~ \$0-track5-mixer-right;
#X obj 380 39 catch~ \$0-track6-mixer-left;
#X obj 396 58 catch~ \$0-track6-mixer-right;
#X obj 441 79 catch~ \$0-track7-mixer-left;
#X obj 460 98 catch~ \$0-track7-mixer-right;
#X obj 500 119 catch~ \$0-track8-mixer-left;
#X obj 526 138 catch~ \$0-track8-mixer-right;
#X obj 863 87 r \$0-global-events;
#X obj 863 120 route dump-parameters;
#X connect 0 2 28 0;
#X connect 1 2 31 0;
#X connect 2 2 33 0;
#X connect 3 2 37 0;
#X connect 4 2 40 0;
#X connect 5 2 43 0;
#X connect 6 2 46 0;
#X connect 7 2 49 0;
#X connect 8 0 0 0;
#X connect 9 0 0 1;
#X connect 10 0 1 0;
#X connect 11 0 1 1;
#X connect 12 0 2 0;
#X connect 13 0 2 1;
#X connect 14 0 3 0;
#X connect 15 0 3 1;
#X connect 16 0 4 0;
#X connect 17 0 4 1;
#X connect 18 0 5 0;
#X connect 19 0 5 1;
#X connect 20 0 6 0;
#X connect 21 0 6 1;
#X connect 22 0 7 0;
#X connect 23 0 7 1;
#X connect 24 0 30 1;
#X connect 24 0 35 1;
#X connect 24 0 36 1;
#X connect 24 0 39 1;
#X connect 24 0 42 1;
#X connect 24 0 45 1;
#X connect 24 0 48 1;
#X connect 24 0 51 1;
#X connect 25 0 26 0;
#X connect 25 1 24 0;
#X connect 26 0 0 2;
#X connect 26 0 1 2;
#X connect 26 0 2 2;
#X connect 26 0 3 2;
#X connect 26 0 4 2;
#X connect 26 0 5 2;
#X connect 26 0 6 2;
#X connect 26 0 7 2;
#X connect 28 0 30 0;
#X connect 29 0 0 2;
#X connect 30 0 29 0;
#X connect 31 0 35 0;
#X connect 32 0 1 2;
#X connect 33 0 36 0;
#X connect 34 0 2 2;
#X connect 35 0 32 0;
#X connect 36 0 34 0;
#X connect 37 0 39 0;
#X connect 38 0 3 2;
#X connect 39 0 38 0;
#X connect 40 0 42 0;
#X connect 41 0 4 2;
#X connect 42 0 41 0;
#X connect 43 0 45 0;
#X connect 44 0 5 2;
#X connect 45 0 44 0;
#X connect 46 0 48 0;
#X connect 47 0 6 2;
#X connect 48 0 47 0;
#X connect 49 0 51 0;
#X connect 50 0 7 2;
#X connect 51 0 50 0;
#X connect 52 0 25 0;
#X connect 53 0 0 0;
#X connect 54 0 0 1;
#X connect 55 0 1 0;
#X connect 56 0 1 1;
#X connect 57 0 2 0;
#X connect 58 0 2 1;
#X connect 59 0 3 0;
#X connect 60 0 3 1;
#X connect 61 0 4 0;
#X connect 62 0 4 1;
#X connect 63 0 5 0;
#X connect 64 0 5 1;
#X connect 65 0 6 0;
#X connect 66 0 6 1;
#X connect 67 0 7 0;
#X connect 68 0 7 1;
#X connect 69 0 70 0;
#X connect 70 0 25 0;
#X coords 0 -1 1 1 605 220 2 100 270;
#X restore 34 324 pd mixer;
#N canvas 264 91 1374 787 persist-presets 0;
#X obj 15 17 bng 15 250 50 0 \$0-load-project.gui empty empty 17 7
0 10 -262144 -1 -1;
#X text 33 15 Load;
#X obj 15 40 bng 15 250 50 0 \$0-save-project.gui empty empty 17 7
0 10 -262144 -1 -1;
#X text 33 39 Save;
#X obj 722 608 textfile;
#X msg 722 510 clear;
#X msg 857 418 save;
#X msg 708 456 write \$1;
#X obj 982 346 textfile;
#X msg 982 308 read \$1 \, rewind \, bang;
#X obj 954 394 t b a;
#X obj 986 421 prepend load;
#X obj 740 583 prepend add;
#X obj 857 455 mmb/my.hero.mmb \$0-persist;
#X obj 15 63 bng 15 250 50 0 \$0-save-project-as.gui empty empty 17
7 0 10 -262144 -1 -1;
#X text 33 62 Save As;
#X obj 1042 23 r \$0-load-project.gui;
#X obj 253 23 r \$0-save-project.gui;
#X obj 10 91 cnv 15 100 60 \$0-project-name.gui \$0-project-name.gui.set
Empty 20 12 0 14 -233017 -66577 0;
#X msg 359 409 label \$1;
#X obj 359 432 s \$0-project-name.gui.set;
#X obj 859 24 r \$0-save-project-as.gui;
#X obj 253 429 moses 1;
#X obj 292 699 t a;
#X obj 517 716 t a;
#X obj 564 539 t a;
#X obj 564 136 t a;
#X obj 253 378 int;
#X msg 268 354 1;
#X text 128 380 has the project;
#X text 135 394 been saved?;
#X obj 292 605 symbol;
#X obj 292 576 t b;
#X obj 359 378 splitfilename;
#X obj 631 727 s \$0-global-events;
#X msg 631 436 saving \$1;
#X msg 1156 332 loading \$1;
#X text 352 171 change current project;
#X text 562 39 on loadbang;
#X obj 982 196 t a;
#X text 361 523 show save dialog;
#X text 303 722 save project to this location;
#X obj 306 170 t a;
#X text 103 602 path to current project;
#N canvas 572 64 862 838 \$0-project-chooser 0;
#X obj 353 330 hcs/sys_gui;
#X msg 353 303 file mkdir \$1;
#X obj 185 250 makefilename %s/audio;
#X obj 353 249 makefilename %s/midi;
#X obj 583 19 inlet;
#X obj 353 743 outlet;
#X obj 185 329 hcs/sys_gui;
#X msg 185 302 file mkdir \$1;
#X obj 511 248 t a;
#X obj 353 403 symbol;
#X obj 353 436 spigot;
#X obj 353 517 spigot;
#X msg 409 403 1;
#X msg 386 477 1;
#X obj 353 370 t b b;
#X obj 185 372 t b b;
#X obj 511 321 t a;
#X msg 479 419 0;
#X obj 334 213 t s s s;
#X text 412 536 reset spigots;
#X obj 372 577 makefilename %s/project.txt;
#X obj 353 547 t s s b;
#X obj 577 749 outlet;
#X obj 266 182 tof/folderpanel;
#X obj 583 48 route save load;
#X obj 646 749 outlet;
#X text 84 442 The goal of this whole block here -->;
#X text 53 482 is to output the folder path only when -->;
#X text 88 525 we get both bangs from sys_gui's -->;
#X text 579 765 save;
#X text 344 768 project directory;
#X text 653 769 load;
#X obj 646 634 spigot;
#X msg 679 561 1;
#X obj 646 692 t s b;
#X msg 751 560 0;
#X obj 652 76 t a b;
#X obj 577 635 spigot;
#X msg 610 561 1;
#X obj 577 693 t s b;
#X obj 583 77 t a b;
#X obj 577 605 t a;
#X obj 673 715 t a;
#X obj 690 601 t a;
#X obj 334 156 route bang;
#X obj 391 181 symbol;
#X connect 0 0 14 0;
#X connect 1 0 0 0;
#X connect 2 0 7 0;
#X connect 3 0 1 0;
#X connect 4 0 24 0;
#X connect 6 0 15 0;
#X connect 7 0 6 0;
#X connect 8 0 16 0;
#X connect 9 0 10 0;
#X connect 10 0 11 0;
#X connect 11 0 21 0;
#X connect 12 0 10 1;
#X connect 13 0 11 1;
#X connect 14 0 9 0;
#X connect 14 1 12 0;
#X connect 15 0 9 0;
#X connect 15 1 13 0;
#X connect 16 0 9 1;
#X connect 17 0 10 1;
#X connect 17 0 11 1;
#X connect 18 0 2 0;
#X connect 18 1 3 0;
#X connect 18 2 8 0;
#X connect 20 0 41 0;
#X connect 21 0 5 0;
#X connect 21 1 20 0;
#X connect 21 2 17 0;
#X connect 23 0 18 0;
#X connect 24 0 40 0;
#X connect 24 1 36 0;
#X connect 32 0 34 0;
#X connect 33 0 32 1;
#X connect 34 0 25 0;
#X connect 34 1 42 0;
#X connect 35 0 43 0;
#X connect 36 0 44 0;
#X connect 36 1 33 0;
#X connect 37 0 39 0;
#X connect 38 0 37 1;
#X connect 39 0 22 0;
#X connect 39 1 42 0;
#X connect 40 0 44 0;
#X connect 40 1 38 0;
#X connect 41 0 37 0;
#X connect 41 0 32 0;
#X connect 42 0 35 0;
#X connect 43 0 32 1;
#X connect 43 0 37 1;
#X connect 44 0 23 0;
#X connect 44 1 45 0;
#X connect 45 0 18 0;
#X restore 859 153 pd \$0-project-chooser;
#X msg 1042 57 load;
#X msg 859 59 save;
#X obj 306 308 t b s s;
#X msg 253 452 save;
#X obj 292 641 list prepend save;
#X obj 253 505 t a;
#N canvas 276 252 897 478 \$0-remember-last-project 0;
#X obj 110 43 r \$0-global-events;
#X obj 110 74 route loading saving;
#X obj 110 198 textfile;
#X msg 110 173 clear \, add last-project \$1 \, write state/state.txt
;
#X obj 585 31 loadbang;
#X msg 585 60 read state/state.txt \, rewind \, bang;
#X obj 585 93 textfile;
#X obj 585 126 route last-project;
#X obj 585 391 outlet;
#X text 598 356 outputs last opened project name;
#X text 598 370 on loadbang;
#X obj 110 117 symbol;
#X obj 563 32 bng 15 250 50 0 empty empty empty 17 7 0 10 -262144 -1
-1;
#X obj 585 221 zexy/list2symbol;
#X text 609 200 handle spaces in filename;
#X connect 0 0 1 0;
#X connect 1 0 11 0;
#X connect 1 1 11 0;
#X connect 3 0 2 0;
#X connect 4 0 5 0;
#X connect 5 0 6 0;
#X connect 6 0 7 0;
#X connect 7 0 13 0;
#X connect 11 0 3 0;
#X connect 12 0 5 0;
#X connect 13 0 8 0;
#X restore 553 20 pd \$0-remember-last-project;
#X obj 553 87 list prepend load;
#X text 562 53 outputs last opened project;
#X text 954 171 load;
#X text 833 230 save;
#X obj 517 522 t a;
#X obj 292 669 list trim;
#X obj 553 109 list trim;
#X obj 631 412 splitfilename;
#X obj 1156 309 splitfilename;
#X obj 80 12 bng 8 250 50 0 empty empty empty 17 7 0 10 -262144 -1
-1;
#X obj 97 48 iemguts/sendcanvas;
#X msg 97 24 vis 1;
#X obj 810 333 t s s b b b b;
#X msg 657 670 dump-parameters;
#X msg 209 294 bang;
#N canvas 687 29 682 858 \$0-project-params-storage 0;
#X obj 43 48 inlet;
#X obj 28 189 outlet;
#X msg 121 96;
#X text 122 25 just a message box \;;
#X text 124 42 mmm/my.hero.mmb knows;
#X text 122 58 how to save all project;
#X text 123 74 settings here;
#X connect 0 0 2 0;
#X connect 2 0 1 0;
#X restore 845 543 pd \$0-project-params-storage;
#X obj 1109 632 t a;
#X obj 926 307 t a;
#X msg 1109 404 force-track-number 1;
#X text 1196 425 to track switcher;
#X text 1198 441 GUI;
#X connect 5 0 4 0;
#X connect 6 0 13 0;
#X connect 7 0 4 0;
#X connect 8 0 10 0;
#X connect 8 1 70 0;
#X connect 9 0 8 0;
#X connect 10 0 69 0;
#X connect 10 1 11 0;
#X connect 11 0 13 0;
#X connect 12 0 4 0;
#X connect 13 0 67 0;
#X connect 16 0 45 0;
#X connect 17 0 27 0;
#X connect 19 0 20 0;
#X connect 21 0 46 0;
#X connect 22 0 48 0;
#X connect 22 1 32 0;
#X connect 23 0 24 0;
#X connect 24 0 56 0;
#X connect 25 0 26 0;
#X connect 26 0 44 0;
#X connect 27 0 22 0;
#X connect 28 0 27 1;
#X connect 31 0 49 0;
#X connect 32 0 31 0;
#X connect 33 1 19 0;
#X connect 35 0 34 0;
#X connect 36 0 68 0;
#X connect 39 0 9 0;
#X connect 39 0 60 0;
#X connect 42 0 47 0;
#X connect 44 0 42 0;
#X connect 44 1 64 0;
#X connect 44 2 39 0;
#X connect 45 0 44 0;
#X connect 46 0 44 0;
#X connect 47 0 28 0;
#X connect 47 1 31 1;
#X connect 47 2 33 0;
#X connect 48 0 50 0;
#X connect 49 0 57 0;
#X connect 50 0 56 0;
#X connect 51 0 52 0;
#X connect 52 0 58 0;
#X connect 56 0 25 0;
#X connect 57 0 23 0;
#X connect 58 0 26 0;
#X connect 59 0 35 0;
#X connect 60 0 36 0;
#X connect 61 0 63 0;
#X connect 63 0 62 0;
#X connect 64 0 59 0;
#X connect 64 1 7 0;
#X connect 64 2 67 0;
#X connect 64 3 6 0;
#X connect 64 4 5 0;
#X connect 64 5 65 0;
#X connect 65 0 34 0;
#X connect 66 0 27 0;
#X connect 67 0 12 0;
#X connect 68 0 34 0;
#X connect 69 0 8 0;
#X connect 70 0 68 0;
#X coords 0 -1 1 1 80 80 2 10 10;
#X restore 998 17 pd persist-presets;
#N canvas 413 118 703 525 mixer-master 0;
#X obj 106 334 dac~;
#X obj 130 43 t b b;
#X msg 108 73 dump;
#X obj 130 21 r \$0-persist;
#X msg 235 132 clear;
#X obj 37 194 t a;
#X obj 154 433 prepend add;
#X obj 108 468 mmb/save.me.mmb mixer-master \$0-persist;
#X obj 89 38 bng 15 250 50 0 empty empty empty 17 7 0 10 -262144 -1
-1;
#X obj 105 104 mixstripmaster \$0;
#X connect 1 0 2 0;
#X connect 1 1 4 0;
#X connect 2 0 9 2;
#X connect 3 0 1 0;
#X connect 4 0 7 1;
#X connect 5 0 9 2;
#X connect 6 0 7 0;
#X connect 7 0 5 0;
#X connect 8 0 1 0;
#X connect 9 0 0 0;
#X connect 9 1 0 1;
#X connect 9 2 6 0;
#X coords 0 -1 1 1 80 220 2 100 100;
#X restore 646 324 pd mixer-master;
#X obj 302 33 lzr/transport-buttons;
#X obj 753 527 pddp/dsp;
#N canvas 389 79 1258 800 \$0-cool-stuff 0;
#X obj 45 51 bassemu~;
#X text 46 99 bassemu/examples/simple-sequencer;
#X obj 34 164 bng 15 250 50 0 empty empty empty 17 7 0 10 -262144 -1
-1;
#X obj 45 356 dac~;
#X obj 100 264 bng 15 250 50 0 empty empty empty 17 7 0 10 -262144
-1 -1;
#X obj 453 369 jmmmp/lbang;
#X obj 285 297 jmmmp/metrum;
#X text 390 119 sfruit/saveclear;
#X text 151 418 tof/imagebang;
#X text 389 134 sfruit/gop-edit;
#X text 384 158 iemlib/samplerate~;
#X text 393 188 iemguts/canvasargs;
#X text 380 217 pddp/print;
#X text 379 241 mmb/waveform.mmb;
#X text 395 93 mapping/keygate;
#X text 394 73 iemlib/soundfile_info;
#X text 394 51 iemguts/receivecanvas;
#X text 353 31 hcs/get-audio-dialog;
#X text 354 18 hcs/window-name;
#X text 369 265 hcs/screensize;
#X text 372 348 cyclone/active;
#X obj 322 502 qlist;
#X obj 385 447 pdmtl/synth.wind~;
#X obj 27 470 pdmtl/init.dollar.zero.top;
#X text 34 508 ggee/gcanvas;
#X text 390 401 unauthorized/grid;
#X text 408 488 tof/pmenu;
#X text 413 506 sfruit/cpugraph;
#X text 289 542 MouseState!;
#X text 116 361 list-idx: Get element at position idx.;
#X text 34 15 iemguts/canvasdelete;
#X text 124 43 iemguts/sendcanvas;
#X text 45 124 zexy/demultiplex~;
#X obj 104 294 creb/ti_hihat;
#X obj 34 189 creb/ti_snare;
#X obj 624 569 mpx16;
#X obj 559 785 kick-drum;
#X obj 684 767 acreil-snare1-drum;
#X obj 822 759 acreil-snare2-drum;
#X obj 540 639 select 2 3 1 4 5;
#X floatatom 624 610 5 0 0 0 - - -, f 5;
#X obj 961 712 bng 15 250 50 0 empty empty empty 17 7 0 10 -262144
-1 -1;
#X obj 822 725 bng 15 250 50 0 empty empty empty 17 7 0 10 -262144
-1 -1;
#X obj 557 765 bng 15 250 50 0 empty empty empty 17 7 0 10 -262144
-1 -1;
#X obj 685 743 bng 15 250 50 0 empty empty empty 17 7 0 10 -262144
-1 -1;
#X obj 374 753 bng 15 250 50 0 empty empty empty 17 7 0 10 -262144
-1 -1;
#X obj 624 542 notein;
#X obj 603 477 midiparse;
#X obj 604 379 midiin;
#X obj 603 503 unpack f f;
#X obj 603 402 midi-recorder midi/drums.mid;
#X obj 374 776 creb/ti_hihat;
#X obj 962 739 creb/ti_snare;
#X connect 2 0 34 0;
#X connect 4 0 33 0;
#X connect 33 0 3 0;
#X connect 33 0 3 1;
#X connect 34 0 3 0;
#X connect 34 0 3 1;
#X connect 35 0 39 0;
#X connect 35 0 40 0;
#X connect 39 0 45 0;
#X connect 39 1 41 0;
#X connect 39 2 43 0;
#X connect 39 3 44 0;
#X connect 39 4 42 0;
#X connect 41 0 52 0;
#X connect 42 0 38 0;
#X connect 43 0 36 0;
#X connect 44 0 37 0;
#X connect 45 0 51 0;
#X connect 46 0 35 0;
#X connect 46 0 47 0;
#X connect 46 0 47 0;
#X connect 46 0 47 0;
#X connect 46 0 47 0;
#X connect 46 1 35 1;
#X connect 47 0 49 0;
#X connect 48 0 50 0;
#X connect 49 0 35 0;
#X connect 49 1 35 1;
#X connect 50 0 47 0;
#X restore 629 9 pd \$0-cool-stuff;
#N canvas 154 88 1193 779 \$0-gui-tricks 0;
#N canvas 298 277 537 413 canvasposition 0;
#X obj 380 43 inlet;
#X obj 387 359 outlet;
#X obj 445 340 outlet;
#X obj 278 45 inlet;
#N canvas 805 348 450 300 canvaspos 0;
#X obj 279 31 inlet;
#X obj 270 192 outlet;
#X obj 340 185 outlet;
#X obj 100 100 cnv 60 60 60 empty empty Test_1 2 13 0 14 -257985 -66577
0;
#X obj 259 99 iemguts/canvasposition;
#X connect 0 0 4 0;
#X connect 4 0 1 0;
#X connect 4 1 2 0;
#X coords 0 -1 1 1 60 60 2 100 100;
#X restore 100 100 pd canvaspos;
#X msg 348 121 map 0 \, map 1;
#N canvas 805 348 450 300 canvaspos 0;
#X obj 279 31 inlet;
#X obj 270 192 outlet;
#X obj 340 185 outlet;
#X obj 100 100 cnv 60 60 60 empty empty Test_2 2 13 0 14 -4034 -66577
0;
#X obj 259 99 iemguts/canvasposition;
#X connect 0 0 4 0;
#X connect 4 0 1 0;
#X connect 4 1 2 0;
#X coords 0 -1 1 1 60 60 2 100 100;
#X restore 100 100 pd canvaspos;
#X obj 347 143 iemguts/sendcanvas 3;
#X connect 0 0 4 0;
#X connect 0 0 5 0;
#X connect 3 0 5 0;
#X connect 3 0 6 0;
#X connect 4 0 1 0;
#X connect 5 0 7 0;
#X coords 0 -1 1 1 60 60 2 100 100;
#X restore 243 344 pd canvasposition;
#X obj 96 113 hsl 128 15 0 200 0 0 empty empty empty -2 -8 0 10 -262144
-1 -1 0 1;
#X floatatom 243 427 5 0 0 0 - - -, f 5;
#X floatatom 296 428 5 0 0 0 - - -, f 5;
#X obj 96 91 hsl 128 15 0 200 0 0 empty empty empty -2 -8 0 10 -262144
-1 -1 0 1;
#X msg 43 137 \$1 100;
#X msg 92 137 \$1 100;
#X msg 282 284 100 100;
#X obj 253 195 bng 15 250 50 0 empty empty empty 17 7 0 10 -262144
-1 -1;
#X msg 367 280 100 100;
#X obj 341 193 bng 15 250 50 0 empty empty empty 17 7 0 10 -262144
-1 -1;
#X msg 280 253 99 99;
#X msg 368 251 99 99;
#X obj 313 63 tgl 15 0 empty empty empty 17 7 0 10 -262144 -1 -1 0
1;
#X obj 313 101 select 0 1;
#N canvas 222 118 860 650 browser 0;
#X msg -106 417 folder \$1;
#X obj -106 362 route folder;
#X obj -106 391 symbol;
#X obj 29 35 mmb/browser.mmb;
#X obj -188 9 jmmmp/lbang;
#X msg -146 228 folder ~/Dropbox/PureData/Effects/;
#X connect 0 0 3 0;
#X connect 1 0 2 0;
#X connect 2 0 0 0;
#X connect 3 0 1 0;
#X connect 4 0 5 0;
#X connect 5 0 3 0;
#X coords 0 -1 1 1 250 200 2 1 1;
#X restore 511 104 pd browser;
#N canvas 527 203 1025 604 \$0-dynamic-size 0;
#X obj 650 109 namecanvas \$0-dynamic-size.canvas;
#X obj 507 393 s \$0-dynamic-size.canvas;
#X obj 506 83 inlet;
#X obj 508 214 select 0 1;
#X text 592 295 donecanvasdialog <x-units> <y-units> <gop> <x-from>
<y-from> <x-to> <y-to> <x-size> <y-size> <x-margin> <y-margin>;
#X obj 473 147 route list float;
#X msg 506 255 100 100 0 0;
#X obj 0 0 cnv 15 100 100 empty empty Canvas_1 15 45 0 14 -4034 -66577
0;
#X obj 100 0 cnv 15 200 100 empty empty Canvas_2 15 45 0 14 -257985
-66577 0;
#X msg 608 255 200 100 100 0;
#X msg 508 344 donecanvasdialog 0 0 2 0 -1 1 1 \$1 \$2 \$3 \$4;
#X obj 16 12 bng 15 250 50 0 \$0-unfold-btn.gui empty Unfold 17 7 0
10 -262144 -1 -1;
#X obj 115 10 bng 15 250 50 0 \$0-fold-btn.gui empty Fold 17 7 0 10
-262144 -1 -1;
#X obj 306 211 r \$0-fold-btn.gui;
#X obj 614 190 r \$0-unfold-btn.gui;
#X obj 318 463 outlet;
#X msg 399 403 bang;
#X connect 2 0 5 0;
#X connect 3 0 6 0;
#X connect 3 1 9 0;
#X connect 5 0 10 0;
#X connect 5 1 3 0;
#X connect 6 0 10 0;
#X connect 9 0 10 0;
#X connect 10 0 1 0;
#X connect 10 0 16 0;
#X connect 13 0 6 0;
#X connect 14 0 9 0;
#X connect 16 0 15 0;
#X coords 0 -1 1 1 100 100 2 0 0;
#X restore 477 420 pd \$0-dynamic-size;
#X obj 477 388 tgl 15 0 empty empty empty 17 7 0 10 -262144 -1 -1 0
1;
#X obj 690 536 namecanvas \$0-gui-tricks.cnv;
#X obj 477 596 s \$0-gui-tricks.cnv;
#X msg 477 567 donecanvasdialog 0 0 0 0 -1 1 1 500 500 100 100;
#X obj 253 223 t b b;
#X obj 341 221 t b b;
#X connect 0 0 2 0;
#X connect 0 1 3 0;
#X connect 1 0 6 0;
#X connect 4 0 5 0;
#X connect 5 0 0 0;
#X connect 6 0 0 1;
#X connect 7 0 0 0;
#X connect 8 0 21 0;
#X connect 9 0 0 1;
#X connect 10 0 22 0;
#X connect 11 0 0 0;
#X connect 12 0 0 1;
#X connect 13 0 14 0;
#X connect 14 0 8 0;
#X connect 14 1 10 0;
#X connect 16 0 20 0;
#X connect 17 0 16 0;
#X connect 20 0 19 0;
#X connect 21 0 7 0;
#X connect 21 1 11 0;
#X connect 22 0 9 0;
#X connect 22 1 12 0;
#X coords 0 0 1 1 500 500 0;
#X restore 629 32 pd \$0-gui-tricks;
#N canvas 443 166 853 545 \$0-messages 0;
#X text 30 29 \$0-global-events:;
#X text 41 47 - play;
#X text 41 62 - pause;
#X text 41 76 - stop;
#X text 41 91 - record;
#X text 41 106 - tick beat <tick_number>;
#X text 40 121 - set-current-track <track_number>;
#X text 36 204 \$0-windowsize: Every second a bang is sent here;
#X text 88 222 in order to check if window size changed;
#X text 41 138 - main-window-redraw;
#X text 41 154 - dump-parameters;
#X restore 629 54 pd \$0-messages;
#N canvas 483 227 359 206 \$0-debugger 0;
#X obj 105 57 r \$0-global-events;
#X obj 105 86 print \$0-global-event;
#X connect 0 0 1 0;
#X restore 629 76 pd \$0-debugger;
#N canvas 227 200 1425 343 \$0-session-view 0;
#X obj 10 20 session-track \$0 1;
#X obj 184 20 session-track \$0 2;
#X obj 358 20 session-track \$0 3;
#X obj 532 20 session-track \$0 4;
#X obj 706 20 session-track \$0 5;
#X obj 880 20 session-track \$0 6;
#X obj 1054 20 session-track \$0 7;
#X obj 1228 20 session-track \$0 8;
#X restore 6 40 pd \$0-session-view;
#X msg 752 482 \; pd dsp 1;
#X obj 752 449 loadbang;
#N canvas 185 160 818 775 \$0-bpm 0;
#X obj 408 180 metro;
#X floatatom 17 16 5 20 300 1 BPM #0-bpm.gui.set #0-bpm.gui, f 5;
#X obj 408 208 bng 15 250 50 0 empty empty empty 17 7 0 10 -262144
-1 -1;
#X obj 454 137 /;
#X msg 418 112 60000;
#X text 485 111 compute milliseconds between ticks;
#X text 498 127 (60000 / BPM);
#X obj 442 88 t b f;
#X obj 442 59 r \$0-bpm.gui;
#X floatatom 81 17 2 1 9 1 /4 #0-timesig.gui.set #0-timesig.gui, f
2;
#X obj 423 396 r \$0-timesig.gui;
#X obj 408 279 int;
#X obj 448 280 + 1;
#X floatatom 408 333 16 0 0 0 - - -, f 16;
#X text 326 331 beat counter;
#X obj 408 418 mod;
#X floatatom 408 444 5 0 0 0 - - -, f 5;
#X text 282 440 beat within the bar;
#X obj 105 52 cnv 5 5 5 empty \$0-beat-light.gui empty 20 12 0 14 -261681
-262144 0;
#X text 470 509 weak beat;
#X obj 485 535 t b b b;
#X obj 324 533 t b b b;
#X text 297 504 strong beat;
#X obj 421 653 list prepend \$0;
#X msg 421 679 \; \$1-beat-light.gui color \$2;
#X msg 363 606 2;
#X msg 524 604 13;
#X msg 421 605 4;
#X obj 421 581 del 200;
#N canvas 188 88 692 738 \$0-metronome-sound 0;
#X obj 121 -112 inlet;
#X obj 261 -112 inlet;
#X obj 44 101 *~;
#X obj 59 61 line~;
#X obj 59 28 1 50;
#X obj 121 28 0 50;
#X obj 121 6 delay 50;
#X obj 81 178 hip~ 3;
#X obj 143 178 hip~ 3;
#X text 187 179 filter out DC;
#X obj 184 91 *~;
#X obj 199 51 line~;
#X obj 199 16 1 50;
#X obj 261 13 0 50;
#X obj 261 -10 delay 50;
#X obj 184 -69 osc~ 440;
#X obj 44 -68 osc~ 500;
#X obj 121 -21 t a;
#X obj 261 -35 t a;
#X obj 273 409 line~;
#X obj 81 493 *~;
#X obj 101 523 dac~;
#X obj 143 492 *~;
#X obj 143 522 outlet~;
#X obj 43 522 outlet~;
#X obj 273 388 pack 0 50;
#X text 340 387 <-- make a ramp to avoid clicks or zipper noise;
#X msg 273 344 0;
#X obj 273 319 moses 0.011;
#X obj 225 522 outlet;
#X obj 225 265 r \$0-metro-volume.gui;
#X connect 0 0 17 0;
#X connect 1 0 18 0;
#X connect 2 0 7 0;
#X connect 2 0 8 0;
#X connect 3 0 2 1;
#X connect 4 0 3 0;
#X connect 5 0 3 0;
#X connect 6 0 5 0;
#X connect 7 0 20 0;
#X connect 8 0 22 0;
#X connect 10 0 7 0;
#X connect 10 0 8 0;
#X connect 11 0 10 1;
#X connect 12 0 11 0;
#X connect 13 0 11 0;
#X connect 14 0 13 0;
#X connect 15 0 10 0;
#X connect 16 0 2 0;
#X connect 17 0 4 0;
#X connect 17 0 6 0;
#X connect 18 0 14 0;
#X connect 18 0 12 0;
#X connect 19 0 22 1;
#X connect 19 0 20 1;
#X connect 20 0 21 0;
#X connect 20 0 24 0;
#X connect 22 0 21 1;
#X connect 22 0 23 0;
#X connect 25 0 19 0;
#X connect 27 0 25 0;
#X connect 28 0 27 0;
#X connect 28 1 25 0;
#X connect 30 0 28 0;
#X connect 30 0 29 0;
#X restore 203 607 pd \$0-metronome-sound;
#X obj 19 43 hsl 80 15 0.01 1 1 0 \$0-metro-volume.gui \$0-metro-volume.gui.set
volume 3 8 1 10 -245500 -13381 -1 4800 0;
#X msg 554 371 tick beat \$1;
#X obj 554 396 s \$0-global-events;
#X obj 264 62 r \$0-global-events;
#X msg 345 137 1;
#X msg 305 137 0;
#X obj 264 96 route stop pause play;
#X obj 408 490 sel 1;
#X text 292 453 (counting from 0);
#X text 557 416 send a tick event;
#X text 556 430 to the global bus of events;
#N canvas 1027 359 579 463 \$0-persist-parameters 0;
#X obj 20 68 s \$0-bpm.gui.set;
#X obj 20 42 mmb/save.me.mmb bpm \$0-persist;
#X obj 21 109 r \$0-timesig.gui;
#X obj 21 133 mmb/save.me.mmb timesig \$0-persist;
#X obj 21 159 s \$0-timesig.gui.set;
#X obj 22 205 r \$0-metro-volume.gui;
#X obj 22 229 mmb/save.me.mmb metro-volume \$0-persist;
#X obj 22 255 s \$0-metro-volume.gui.set;
#X obj 20 18 r \$0-bpm.gui;
#X connect 1 0 0 0;
#X connect 2 0 3 0;
#X connect 3 0 4 0;
#X connect 5 0 6 0;
#X connect 6 0 7 0;
#X connect 8 0 1 0;
#X restore 12 99 pd \$0-persist-parameters;
#X connect 0 0 2 0;
#X connect 2 0 11 0;
#X connect 3 0 0 1;
#X connect 4 0 3 0;
#X connect 7 0 4 0;
#X connect 7 1 3 1;
#X connect 8 0 7 0;
#X connect 10 0 15 1;
#X connect 11 0 12 0;
#X connect 11 0 13 0;
#X connect 12 0 11 1;
#X connect 13 0 15 0;
#X connect 13 0 31 0;
#X connect 15 0 16 0;
#X connect 16 0 37 0;
#X connect 20 0 29 1;
#X connect 20 1 28 0;
#X connect 20 2 26 0;
#X connect 21 0 29 0;
#X connect 21 1 28 0;
#X connect 21 2 25 0;
#X connect 23 0 24 0;
#X connect 25 0 23 0;
#X connect 26 0 23 0;
#X connect 27 0 23 0;
#X connect 28 0 27 0;
#X connect 31 0 32 0;
#X connect 33 0 36 0;
#X connect 34 0 0 0;
#X connect 35 0 0 0;
#X connect 35 0 12 0;
#X connect 36 0 35 0;
#X connect 36 1 35 0;
#X connect 36 2 34 0;
#X connect 37 0 21 0;
#X connect 37 1 20 0;
#X coords 0 -1 1 1 105 55 2 10 10;
#X restore 515 10 pd \$0-bpm;
#N canvas 670 41 953 599 \$0-settings 0;
#X obj 162 60 mediasettings/audiosettings;
#X msg 162 34 listparams;
#X obj 162 87 route params;
#X obj 162 112 route in out;
#X obj 46 150 route devices;
#X obj 289 150 route devices;
#X obj 46 179 unpack f f;
#X obj 289 175 unpack f f;
#X obj 143 516 s pd-\$0-playground;
#X obj 288 225 loop;
#X obj 143 378 * 50;
#X obj 143 353 t f f;
#X obj 143 461 pack f f;
#X obj 289 427 s pd-\$0-playground;
#X obj 289 314 + 400;
#X obj 289 289 * 50;
#X obj 289 264 t f f;
#X obj 289 372 pack f f;
#X obj 335 296 + 1;
#X msg 289 397 obj \$1 500 dac~ \$2;
#X obj 589 152 bng 15 250 50 0 empty empty empty 17 7 0 10 -262144
-1 -1;
#X obj 607 322 s pd-\$0-playground;
#X msg 672 252 find dac~ 1 \, cut;
#X obj 127 210 int;
#X text 147 247 create;
#X text 22 249 delete;
#X obj 179 316 loop;
#X obj 166 286 t b f;
#X obj 73 210 t f f;
#X obj 154 166 loadbang;
#X msg 153 186 0;
#X obj 100 237 moses;
#X obj 143 403 + 50;
#X msg 143 486 obj \$1 50 adc~ \$2;
#X floatatom 28 209 5 0 0 0 - - -, f 5;
#X obj 205 234 + 1;
#X obj 205 286 t a;
#X obj 127 264 moses;
#X msg 35 341 find dac~ 1 \, cut;
#X obj 48 296 loop;
#X obj 28 271 t b f;
#X obj 455 103 s \$0-windowsize;
#X obj 455 58 tgl 15 0 empty empty empty 17 7 0 10 -262144 -1 -1 1
1;
#X obj 455 28 loadbang;
#X obj 510 396 r \$0-global-events;
#X msg 510 494 map 0 \, map 1;
#X obj 510 528 iemguts/sendcanvas 1;
#X obj 455 79 metro 100;
#X obj 510 432 route redraw-main-window;
#X obj 510 463 t a a;
#X obj 563 463 print Redrawing main window...;
#X connect 0 0 2 0;
#X connect 1 0 0 0;
#X connect 2 0 3 0;
#X connect 3 0 4 0;
#X connect 3 1 5 0;
#X connect 4 1 6 0;
#X connect 5 1 7 0;
#X connect 6 1 28 0;
#X connect 7 1 9 0;
#X connect 9 1 16 0;
#X connect 10 0 32 0;
#X connect 11 0 10 0;
#X connect 11 1 12 1;
#X connect 12 0 33 0;
#X connect 14 0 17 0;
#X connect 15 0 14 0;
#X connect 16 0 15 0;
#X connect 16 1 18 0;
#X connect 17 0 19 0;
#X connect 18 0 17 1;
#X connect 19 0 13 0;
#X connect 20 0 22 0;
#X connect 22 0 21 0;
#X connect 23 0 31 1;
#X connect 23 0 35 0;
#X connect 23 0 39 2;
#X connect 26 1 11 0;
#X connect 27 0 26 0;
#X connect 27 1 26 2;
#X connect 28 0 23 0;
#X connect 28 1 31 0;
#X connect 29 0 30 0;
#X connect 30 0 23 0;
#X connect 31 0 40 0;
#X connect 31 1 37 0;
#X connect 32 0 12 0;
#X connect 33 0 8 0;
#X connect 34 0 28 0;
#X connect 35 0 36 0;
#X connect 35 0 37 1;
#X connect 36 0 26 1;
#X connect 37 1 27 0;
#X connect 38 0 8 0;
#X connect 39 1 38 0;
#X connect 40 0 39 0;
#X connect 40 1 39 1;
#X connect 42 0 47 0;
#X connect 43 0 42 0;
#X connect 44 0 48 0;
#X connect 45 0 46 0;
#X connect 47 0 41 0;
#X connect 48 0 49 0;
#X connect 49 0 45 0;
#X connect 49 1 50 0;
#X restore 5 63 pd \$0-settings;
#X obj 42 107 adc~ 1;
#X obj 120 109 adc~ 2;
#X obj 191 108 adc~ 3;
#X obj 254 107 adc~ 4;
#X obj 337 108 adc~ 5;
#X obj 420 111 adc~ 6;
#X obj 509 109 adc~ 7;
#X obj 611 109 adc~ 8;
#X obj 42 124 lzr/volume-control-mono;
#X obj 120 126 lzr/volume-control-mono;
#X obj 191 125 lzr/volume-control-mono;
#X obj 254 124 lzr/volume-control-mono;
#X obj 337 125 lzr/volume-control-mono;
#X obj 420 128 lzr/volume-control-mono;
#X obj 509 126 lzr/volume-control-mono;
#X obj 611 126 lzr/volume-control-mono;
#X obj 120 276 throw~ \$0-track1-phys-in-right;
#X obj 42 300 throw~ \$0-track1-phys-in-left;
#X obj 805 269 throw~ \$0-track2-phys-in-right;
#X obj 703 294 throw~ \$0-track2-phys-in-left;
#X obj 703 127 lzr/volume-control-mono;
#X obj 805 127 lzr/volume-control-mono;
#X obj 703 110 adc~ 9;
#X obj 805 110 adc~ 10;
#N canvas 517 155 702 482 \$0-track-selector 0;
#X obj 211 335 s \$0-global-events;
#X obj 211 219 hradio 15 1 0 8 empty empty empty 0 -8 0 10 -262144
-1 -1 0;
#X obj 211 249 + 1;
#X text 214 202 Select track;
#X text 304 218 7;
#X text 289 218 6;
#X text 274 218 5;
#X text 259 218 4;
#X text 244 218 3;
#X text 230 218 2;
#X text 215 218 1;
#X text 319 218 8;
#X msg 211 308 set-current-track \$1 \, redraw-main-window;
#X obj 211 88 r \$0-global-events;
#X obj 211 117 route force-track-number;
#X obj 211 175 - 1;
#X connect 1 0 2 0;
#X connect 2 0 12 0;
#X connect 12 0 0 0;
#X connect 13 0 14 0;
#X connect 14 0 15 0;
#X connect 15 0 1 0;
#X coords 0 -1 1 1 140 40 2 200 200;
#X restore 5 553 pd \$0-track-selector;
#X obj 904 507 s \$0-global-events;
#X msg 909 415 add-effect lzr/phaser-effect;
#X msg 882 385 add-effect lzr/simple-fuzz-effect;
#N canvas 306 33 1362 917 \$0-effects-panel 1;
#X obj 1 83 t a;
#X obj 1236 100 t a;
#X obj 0 683 t a;
#X obj 0 383 t a;
#X obj 1221 400 t a;
#X obj 0 1200 t a;
#X obj 1251 1183 t a;
#X obj 2 1283 t a;
#X obj 1248 1300 t a;
#X obj 0 1500 t a;
#X obj 1251 1483 t a;
#X obj 2 1583 t a;
#X obj 1248 1600 t a;
#X obj 0 1800 t a;
#X obj 1251 1783 t a;
#X obj 2 1883 t a;
#X obj 1248 1900 t a;
#X obj 0 2100 t a;
#X obj 1251 2083 t a;
#X obj 2 2183 t a;
#X obj 1248 2200 t a;
#X obj 0 2400 t a;
#X obj 1251 2383 t a;
#N canvas 299 24 1351 916 \$0-effects-panel-behavior 0;
#X obj 42 109 loadbang;
#X msg 42 135 1;
#X obj 403 169 symbol;
#X obj 182 178 t a;
#N canvas 420 22 1185 913 \$0-add-effect 0;
#X obj 187 255 + 5;
#X obj 166 284 int \$0;
#X obj 90 46 inlet;
#X text 52 26 send symbol to add effect;
#X obj 650 76 inlet;
#X text 634 56 current track #;
#X obj 412 758 outlet;
#X obj 650 129 - 1;
#X obj 650 157 * 300;
#X obj 650 184 + 105;
#X obj 802 771 outlet;
#X msg 802 729 append \$1 200;
#X text 792 793 to meta storage;
#X obj 475 82 inlet;
#X text 449 65 from meta storage;
#X text 806 710 object # \, width;
#X obj 144 321 pack s f f f f f;
#X obj 347 176 unpack f f f;
#X text 316 783 send message to;
#X text 313 797 effect panel canvas;
#X text 446 20 (# of effects \,;
#X text 460 50 last obj #);
#X text 459 36 total width \,;
#N canvas 600 233 772 531 \$0-connect-with-cables 0;
#X obj 186 159 int;
#X obj 225 159 int;
#X obj 262 159 t a;
#X obj 186 108 t b;
#X obj 46 37 inlet;
#X text 12 19 new effect's object #;
#X obj 186 32 inlet;
#X text 184 13 prev. object's #;
#X obj 325 29 inlet;
#X text 325 11 throw and catch object #'s;
#X obj 163 394 outlet;
#X text 86 423 connect/disconnect messages to send to fx panel canvas
;
#X obj 186 68 moses 0;
#X msg 153 159 0;
#X msg 344 196 1;
#X obj 325 76 unpack f f f f;
#X obj 163 240 pack f f f f f f;
#X text 446 87 L in \, R in \, L out \, R out;
#X msg 163 268 vis 1 \, disconnect \$2 0 \$5 0 \, disconnect \$3 \$4
\$6 0 \, connect \$2 0 \$1 0 \, connect \$3 \$4 \$1 1 \, connect \$1
0 \$5 0 \, connect \$1 1 \$6 0 \, vis 0;
#X obj 507 53 p throw.catch.ids;
#X obj 102 60 p prev.obj;
#X obj 39 185 p new.obj;
#X obj 222 339 p resulting.message;
#X connect 0 0 16 1;
#X connect 1 0 16 2;
#X connect 2 0 14 0;
#X connect 2 0 16 2;
#X connect 2 0 16 1;
#X connect 3 0 0 0;
#X connect 3 0 1 0;
#X connect 3 0 13 0;
#X connect 4 0 21 0;
#X connect 6 0 20 0;
#X connect 8 0 19 0;
#X connect 12 0 3 0;
#X connect 12 1 2 0;
#X connect 13 0 16 3;
#X connect 14 0 16 3;
#X connect 15 0 0 1;
#X connect 15 1 1 1;
#X connect 15 2 16 4;
#X connect 15 3 16 5;
#X connect 16 0 18 0;
#X connect 18 0 22 0;
#X connect 19 0 15 0;
#X connect 20 0 12 0;
#X connect 21 0 16 0;
#X connect 22 0 10 0;
#X restore 412 630 pd \$0-connect-with-cables;
#X obj 412 670 t a;
#X obj 893 67 inlet;
#X text 779 45 throw/catch object IDs;
#X msg 178 100 get-status;
#X msg 144 432 obj \$3 \$5 lzr/effect-wrapper \$1 \$2 \$4 \$6;
#X text 160 410 xpos ypos wrapper effect_name \$0 track_number effect_number
;
#X obj 946 139 inlet;
#X text 945 97 newly created;
#X text 945 115 effect's ID;
#X obj 60 536 s LZR-NEW-EFFECT-LOADBANG;
#X obj 1026 192 inlet;
#X text 976 175 canvas index response;
#X obj 287 200 - 1;
#X obj 703 322 pack f f;
#X msg 703 350 effect \$2 \$1 canvas-index;
#X obj 255 243 int 0;
#X obj 90 72 t b b b s b b;
#X obj 104 745 outlet;
#X text 41 771 to global events;
#X obj 657 292 moses 0;
#X obj 583 584 int;
#X obj 366 530 t b b f;
#X msg 104 632 redraw-main-window;
#X obj 946 397 t a;
#X obj 893 434 t a;
#X obj 657 457 t a;
#X obj 625 670 t a;
#X obj 347 295 t a a;
#X text 566 205 y coordinate;
#X text 559 219 of current track;
#X obj 1026 341 t a;
#X obj 756 148 t a;
#X obj 601 344 t a;
#X obj 422 146 lzr/func;
#X obj 90 486 lzr/func;
#X obj 703 395 lzr/func;
#X connect 0 0 16 2;
#X connect 1 0 16 1;
#X connect 2 0 40 0;
#X connect 4 0 7 0;
#X connect 4 0 16 3;
#X connect 4 0 55 0;
#X connect 7 0 8 0;
#X connect 8 0 9 0;
#X connect 9 0 16 4;
#X connect 11 0 10 0;
#X connect 13 0 57 1;
#X connect 16 0 28 0;
#X connect 17 0 36 0;
#X connect 17 0 51 0;
#X connect 17 1 0 0;
#X connect 23 0 24 0;
#X connect 24 0 6 0;
#X connect 25 0 48 0;
#X connect 27 0 57 0;
#X connect 28 0 24 0;
#X connect 30 0 47 0;
#X connect 34 0 54 0;
#X connect 36 0 39 1;
#X connect 37 0 38 0;
#X connect 38 0 59 0;
#X connect 39 0 43 0;
#X connect 40 0 58 0;
#X connect 40 2 39 0;
#X connect 40 3 16 0;
#X connect 40 4 1 0;
#X connect 40 5 27 0;
#X connect 43 0 49 0;
#X connect 43 1 37 0;
#X connect 44 0 11 0;
#X connect 45 0 46 0;
#X connect 45 1 44 0;
#X connect 45 2 23 0;
#X connect 46 0 41 0;
#X connect 47 0 58 1;
#X connect 48 0 23 2;
#X connect 49 0 23 1;
#X connect 50 0 41 0;
#X connect 51 0 16 5;
#X connect 51 1 56 0;
#X connect 54 0 59 1;
#X connect 55 0 37 1;
#X connect 56 0 44 1;
#X connect 57 0 17 0;
#X connect 57 1 10 0;
#X connect 58 0 45 0;
#X connect 58 1 33 0;
#X connect 59 0 49 0;
#X connect 59 1 50 0;
#X restore 403 535 pd \$0-add-effect;
#X floatatom 237 226 5 0 0 0 - - -, f 5;
#X obj 604 415 t a;
#N canvas 840 152 799 669 \$0-set-track 0;
#X obj 82 44 inlet;
#X obj 114 251 - 1;
#X obj 114 306 + 100;
#X obj 114 278 * 300;
#X obj 114 432 pack f f;
#X obj 135 381 t b f;
#X msg 278 485 donecanvasdialog 0 0 2 0 -1 1 1 \$2 200 0 \$1;
#X obj 459 147 unpack;
#X obj 114 458 t b l;
#X obj 294 116 iemguts/canvasposition 2;
#X obj 114 551 outlet;
#X obj 278 559 outlet;
#X text 337 572 to effect panel canvas;
#X obj 294 46 inlet;
#X text 287 26 bang to refresh window size;
#X text 46 26 Track # to switch to;
#X text 82 570 bang to redraw;
#X text 100 584 main window;
#X obj 459 251 spigot 0;
#X msg 512 222 1;
#X text 241 226 don't process window sizes;
#X text 239 273 fail and "change" will block;
#X text 241 288 all further events;
#X text 242 305 until a manual resize;
#X text 240 242 until we init track number \,;
#X text 238 257 otherwise first size msg will;
#X obj 114 407 int 100;
#X text 196 423 before track # is initialized;
#X text 173 407 <= default value. needed when banged;
#X obj 459 310 change 0;
#X obj 82 114 t b a;
#X obj 459 338 - 10;
#X connect 0 0 30 0;
#X connect 1 0 3 0;
#X connect 2 0 26 0;
#X connect 3 0 2 0;
#X connect 4 0 8 0;
#X connect 5 0 26 0;
#X connect 5 1 4 1;
#X connect 6 0 11 0;
#X connect 7 0 18 0;
#X connect 8 0 10 0;
#X connect 8 1 6 0;
#X connect 9 1 7 0;
#X connect 13 0 9 0;
#X connect 18 0 29 0;
#X connect 19 0 18 1;
#X connect 26 0 4 0;
#X connect 29 0 31 0;
#X connect 30 0 19 0;
#X connect 30 1 1 0;
#X connect 31 0 5 0;
#X restore 182 376 pd \$0-set-track;
#N canvas 429 22 640 445 \$0-init-fx-panel-position 0;
#X obj 137 145 unpack;
#X msg 170 183 5 \$1;
#X obj 137 90 inlet;
#X obj 137 118 iemguts/canvasposition 2;
#X obj 170 220 iemguts/canvasposition 2;
#X connect 0 1 1 0;
#X connect 1 0 4 0;
#X connect 2 0 3 0;
#X connect 3 0 0 0;
#X restore 888 86 pd \$0-init-fx-panel-position;
#X obj 888 41 loadbang;
#N canvas 576 149 936 771 \$0-fx-meta-storage-operations 0;
#X obj 102 41 inlet;
#X obj 663 55 inlet;
#X text 646 33 current track #;
#X text 184 101 insert;
#X text 108 149 get;
#N canvas 556 27 1003 904 \$0-fx-meta-storage 0;
#X obj 226 416 zexy/demultiplex 1 2 3 4 5 6 7 8;
#X obj 312 767 t a;
#X obj 226 767 list append;
#X obj 82 86 inlet;
#X obj 478 89 inlet;
#X text 455 68 track # to get or append;
#X obj 339 718 t a;
#X obj 253 718 list append;
#X obj 366 668 t a;
#X obj 280 668 list append;
#X obj 393 622 t a;
#X obj 307 622 list append;
#X obj 420 590 t a;
#X obj 334 590 list append;
#X obj 447 545 t a;
#X obj 361 545 list append;
#X obj 474 516 t a;
#X obj 388 516 list append;
#X obj 501 487 t a;
#X obj 415 487 list append;
#X obj 478 392 - 1;
#X obj 364 89 inlet;
#X obj 298 447 zexy/demultiplex 1 2 3 4 5 6 7 8;
#X text 365 68 reset list;
#X obj 677 552 t a;
#X obj 677 92 inlet;
#X text 652 71 bang to reset all lists;
#X text 39 36 bang to output stored list \,;
#X text 39 51 or send a list to;
#X text 39 66 append at the end;
#X obj 82 115 route dump-all-tracks;
#X obj 559 839 outlet;
#X obj 81 418 t a a a a a a a a;
#X obj 559 795 t a a;
#X connect 0 0 2 0;
#X connect 0 1 7 0;
#X connect 0 2 9 0;
#X connect 0 3 11 0;
#X connect 0 4 13 0;
#X connect 0 5 15 0;
#X connect 0 6 17 0;
#X connect 0 7 19 0;
#X connect 1 0 2 1;
#X connect 1 0 33 0;
#X connect 2 0 1 0;
#X connect 3 0 30 0;
#X connect 4 0 20 0;
#X connect 6 0 7 1;
#X connect 6 0 33 0;
#X connect 7 0 6 0;
#X connect 8 0 9 1;
#X connect 8 0 33 0;
#X connect 9 0 8 0;
#X connect 10 0 11 1;
#X connect 10 0 33 0;
#X connect 11 0 10 0;
#X connect 12 0 13 1;
#X connect 12 0 33 0;
#X connect 13 0 12 0;
#X connect 14 0 15 1;
#X connect 14 0 33 0;
#X connect 15 0 14 0;
#X connect 16 0 17 1;
#X connect 16 0 33 0;
#X connect 17 0 16 0;
#X connect 18 0 19 1;
#X connect 18 0 33 0;
#X connect 19 0 18 0;
#X connect 20 0 0 1;
#X connect 20 0 22 1;
#X connect 21 0 22 0;
#X connect 22 0 2 1;
#X connect 22 1 7 1;
#X connect 22 2 9 1;
#X connect 22 3 11 1;
#X connect 22 4 13 1;
#X connect 22 5 15 1;
#X connect 22 6 17 1;
#X connect 22 7 19 1;
#X connect 24 0 1 0;
#X connect 24 0 6 0;
#X connect 24 0 8 0;
#X connect 24 0 10 0;
#X connect 24 0 12 0;
#X connect 24 0 14 0;
#X connect 24 0 16 0;
#X connect 24 0 18 0;
#X connect 25 0 24 0;
#X connect 30 0 32 0;
#X connect 30 1 0 0;
#X connect 32 0 19 0;
#X connect 32 1 17 0;
#X connect 32 2 15 0;
#X connect 32 3 13 0;
#X connect 32 4 11 0;
#X connect 32 5 9 0;
#X connect 32 6 7 0;
#X connect 32 7 2 0;
#X connect 33 0 31 0;
#X restore 359 323 pd \$0-fx-meta-storage;
#X text 278 127 append;
#X obj 102 684 outlet;
#X obj 102 380 list;
#X text 163 150 delete;
#X obj 279 578 t a;
#X obj 274 146 t a;
#X obj 102 273 t b b f;
#X obj 102 168 t f b;
#X msg 157 218 0;
#X obj 159 167 t f b;
#X msg 186 218 1;
#X text 203 596 replace stored list;
#X text 203 609 with a new version;
#X obj 373 291 t l b;
#X obj 332 361 list;
#N canvas 408 91 1197 758 \$0-extract-two-items 0;
#X obj 204 214 list split;
#X obj 289 289 list split 2;
#X obj 140 570 outlet;
#X obj 362 85 - 1;
#X obj 362 113 * 2;
#X obj 458 413 list append;
#X obj 458 328 spigot;
#X obj 204 370 list;
#X obj 204 292 t b l;
#X text 6 282 make sure we send output;
#X obj 89 378 t b;
#X obj 141 42 inlet;
#X text 73 21 a list to extract items from;
#X obj 611 41 inlet;
#X text 590 18 remove extracted items?;
#X obj 362 49 inlet;
#X text 318 16 position of the first item;
#X text 318 31 in the list \, counting from 1;
#X obj 458 452 outlet;
#X text 449 476 updated list;
#X text 447 491 if items got deleted;
#X text 136 594 extracted items;
#X obj 289 334 t a;
#X text 5 296 only after deleting =>;
#X obj 140 508 t a, f 4;
#X connect 0 0 8 0;
#X connect 0 1 1 0;
#X connect 0 2 10 0;
#X connect 1 0 22 0;
#X connect 1 1 5 1;
#X connect 1 2 22 0;
#X connect 1 2 5 1;
#X connect 3 0 4 0;
#X connect 4 0 0 1;
#X connect 5 0 18 0;
#X connect 6 0 5 0;
#X connect 7 0 24 0;
#X connect 8 0 7 0;
#X connect 8 1 6 0;
#X connect 10 0 24 0;
#X connect 11 0 0 0;
#X connect 13 0 6 1;
#X connect 15 0 3 0;
#X connect 22 0 7 1;
#X connect 24 0 2 0;
#X restore 102 484 pd \$0-extract-two-items;
#X obj 175 249 t a;
#X text 220 465 delete?;
#X obj 332 179 t b b;
#X obj 332 464 list-abs/list-len;
#X obj 332 491 / 2;
#X obj 531 466 list split 2;
#X obj 531 498 unpack f f;
#X obj 588 537 +;
#X obj 630 466 t a;
#X obj 460 430 t l b;
#X msg 458 496 0;
#X obj 622 537 t a;
#X obj 332 388 t l l;
#X obj 474 673 outlet;
#X text 456 384 split the list into pairs;
#X text 457 397 and sum second items;
#X text 457 411 in each pair;
#X text 64 704 extracted/deleted item;
#X text 43 718 (object # \, effect box width);
#X text 337 161 get-status;
#X obj 474 586 pack f f f;
#X text 417 694 (current # of effects \, total width \, last effect's
obj. #);
#X text 426 497 init;
#X text 203 623 (with two elements removed);
#X text 408 116 clear all;
#X msg 487 496 -1;
#X obj 279 220 t a;
#X obj 787 231 t a;
#X obj 681 597 outlet;
#X text 699 624 returns all items;
#X msg 530 293 dump-all-tracks;
#X obj 102 85 route get delete insert append get-status clear-all-tracks
dump-all-tracks, f 74;
#X obj 681 256 lzr/func 8;
#X obj 787 359 t a a;
#X connect 0 0 53 0;
#X connect 1 0 5 2;
#X connect 5 0 20 1;
#X connect 5 0 55 0;
#X connect 5 0 8 1;
#X connect 8 0 21 0;
#X connect 10 0 48 0;
#X connect 11 0 5 0;
#X connect 12 0 8 0;
#X connect 12 1 5 0;
#X connect 12 2 21 1;
#X connect 13 0 12 0;
#X connect 13 1 14 0;
#X connect 14 0 22 0;
#X connect 15 0 12 0;
#X connect 15 1 16 0;
#X connect 16 0 22 0;
#X connect 19 0 5 0;
#X connect 19 1 5 1;
#X connect 20 0 34 0;
#X connect 21 0 7 0;
#X connect 21 1 10 0;
#X connect 22 0 21 2;
#X connect 24 0 20 0;
#X connect 24 1 5 0;
#X connect 25 0 26 0;
#X connect 26 0 42 0;
#X connect 27 0 28 0;
#X connect 27 1 30 0;
#X connect 28 0 42 2;
#X connect 28 1 29 0;
#X connect 29 0 33 0;
#X connect 29 0 42 1;
#X connect 30 0 27 0;
#X connect 31 0 27 0;
#X connect 31 1 32 0;
#X connect 31 1 47 0;
#X connect 32 0 29 1;
#X connect 32 0 42 1;
#X connect 33 0 29 1;
#X connect 34 0 25 0;
#X connect 34 1 31 0;
#X connect 42 0 35 0;
#X connect 47 0 42 2;
#X connect 48 0 19 0;
#X connect 49 0 54 1;
#X connect 52 0 5 0;
#X connect 53 0 13 0;
#X connect 53 1 15 0;
#X connect 53 3 11 0;
#X connect 53 4 24 0;
#X connect 53 5 5 3;
#X connect 53 6 54 0;
#X connect 54 0 50 0;
#X connect 54 1 52 0;
#X connect 55 0 49 0;
#X restore 607 622 pd \$0-fx-meta-storage-operations;
#X text 323 167 add-effect;
#X text 93 176 set current;
#X text 129 190 track;
#X text 402 812 effects panel canvas;
#X text 226 189 current;
#X text 226 204 track #;
#N canvas 16 280 527 614 \$0-throwcatch-object-ids 1;
#X obj 87 38 inlet;
#X obj 87 71 select 1 2 3 4 5 6 7 8;
#X text 79 17 track #;
#X obj 87 510 outlet;
#X text 27 549 (virt-in-left \, virt-in-right \, mixer-left \, mixer-right)
;
#X text 29 534 object numbers of track's I/O throws and catches;
#X obj 152 16 loadbang;
#X msg 152 41 1;
#X text 286 81 [L in \, R in \, L out \, R out];
#X msg 87 110 46 47 48 49;
#X msg 103 143 50 51 53 52;
#X msg 131 208 58 59 61 60;
#X msg 155 240 62 63 65 64;
#X msg 171 273 66 67 69 68;
#X msg 191 308 70 71 73 72;
#X msg 207 341 74 75 76 77;
#X msg 115 175 54 55 56 57;
#X connect 0 0 1 0;
#X connect 1 0 9 0;
#X connect 1 1 10 0;
#X connect 1 2 16 0;
#X connect 1 3 11 0;
#X connect 1 4 12 0;
#X connect 1 5 13 0;
#X connect 1 6 14 0;
#X connect 1 7 15 0;
#X connect 6 0 7 0;
#X connect 7 0 1 0;
#X connect 9 0 3 0;
#X connect 10 0 3 0;
#X connect 11 0 3 0;
#X connect 12 0 3 0;
#X connect 13 0 3 0;
#X connect 14 0 3 0;
#X connect 15 0 3 0;
#X connect 16 0 3 0;
#X restore 947 308 pd \$0-throwcatch-object-ids;
#N canvas 222 38 1329 823 \$0-clear-all-effects 0;
#X obj 65 65 inlet;
#X obj 108 706 outlet;
#X obj 511 74 inlet;
#X text 485 57 from meta storage;
#X obj 616 266 unpack f f f;
#X text 68 731 send message to;
#X text 67 745 effect panel canvas;
#X text 467 12 (# of effects \,;
#X text 496 42 last obj #);
#X text 495 28 total width \,;
#X obj 1013 70 inlet;
#X text 906 25 throw/catch object IDs;
#X obj 515 709 outlet;
#X text 483 733 to meta storage;
#X msg 146 128 get-status;
#X text 27 45 bang to clear all effects;
#X text 486 752 results get sent to second inlet;
#X obj 616 367 until;
#X text 623 306 for each effect;
#X msg 616 399 delete 1;
#X obj 739 90 inlet;
#X text 672 32 extracted/deleted item;
#X text 670 70 (object # \, effect box width);
#X text 671 50 from metastorage;
#X msg 108 524 vis 1 \, connect \$1 0 \$3 0 \, connect \$2 0 \$4 0
\, vis 0;
#X text 888 43 [L in \, R in \, L out \, R out];
#X obj 108 429 list;
#X obj 65 297 t a;
#X obj 65 94 t b b b, f 12;
#X obj 1119 75 inlet;
#X text 1114 45 track #;
#X obj 686 513 pack f f;
#X obj 800 704 outlet;
#X text 811 739 global events;
#X obj 686 485 unpack f f;
#X msg 646 625 redraw-main-window;
#X obj 1119 401 t a;
#X obj 458 175 lzr/func;
#X obj 686 442 lzr/func;
#X msg 894 655 effect \$2 \$1 suicide \, redraw-main-window;
#X obj 410 454 delay 100;
#X obj 591 501 t a;
#X obj 796 300 p got.that.many.effects.to.delete;
#X obj 108 375 moses 1;
#X msg 108 403 bang;
#X connect 0 0 28 0;
#X connect 2 0 37 1;
#X connect 4 0 42 0;
#X connect 10 0 26 1;
#X connect 14 0 37 0;
#X connect 17 0 19 0;
#X connect 19 0 38 0;
#X connect 20 0 38 1;
#X connect 24 0 1 0;
#X connect 26 0 24 0;
#X connect 27 0 40 0;
#X connect 28 0 27 0;
#X connect 28 2 14 0;
#X connect 29 0 36 0;
#X connect 31 0 39 0;
#X connect 34 0 31 0;
#X connect 35 0 32 0;
#X connect 36 0 31 1;
#X connect 37 0 4 0;
#X connect 37 1 12 0;
#X connect 38 0 34 0;
#X connect 38 1 41 0;
#X connect 39 0 32 0;
#X connect 40 0 35 0;
#X connect 41 0 12 0;
#X connect 42 0 17 0;
#X connect 42 0 43 0;
#X connect 43 1 44 0;
#X connect 44 0 26 0;
#X restore 573 534 pd \$0-clear-all-effects;
#X obj 847 451 t a;
#X obj 877 311 t a;
#X obj 405 621 t a;
#X obj 464 268 t a;
#X obj 182 82 inlet;
#X text 233 81 incoming events;
#X obj 182 724 outlet;
#X text 182 754 outgoing events;
#X obj 405 785 outlet;
#X msg 1006 696 vis 1;
#X obj 847 694 t a;
#X obj 877 670 t a;
#X obj 775 401 t a;
#X msg 182 475 redraw-main-window;
#X obj 619 474 t a;
#X obj 666 408 t a;
#X obj 537 616 t a;
#X text 470 202 new effect id;
#X text 660 202 canvas index response;
#X text 1045 142 show panel guts;
#X text 253 311 window resize;
#X obj 1157 309 t a;
#X text 925 138 effect;
#X text 922 150 params;
#X text 820 141 dump;
#X text 815 154 params;
#X obj 759 565 t a;
#X obj 1200 689 t a;
#X obj 1200 153 t a;
#X obj 533 384 t a;
#N canvas 374 34 1252 864 \$0-persist-fx 0;
#X obj 55 67 inlet;
#X text 19 8 bang to initiate;
#X text 19 23 parameter dumping;
#X text 22 39 of all effects;
#X obj 60 733 outlet;
#X obj 414 53 inlet;
#X text 384 13 all effects;
#X text 385 29 from meta storage;
#X text 52 762 to meta storage;
#X msg 55 167 dump-all-tracks;
#X obj 123 208 lzr/func 8;
#X obj 351 359 int;
#X obj 390 359 + 1;
#X obj 237 244 t a b;
#X obj 55 124 t b b;
#X obj 369 184 t a;
#X text 291 239 <= one list of effects per track;
#X obj 237 332 list length;
#X obj 237 360 / 2;
#X obj 237 493 until;
#X obj 237 525 int;
#X obj 271 525 + 1;
#X msg 369 327 1;
#X msg 289 493 0;
#X obj 237 463 t f b;
#X obj 298 582 pack f f;
#X text 355 560 track number;
#X text 174 565 effect number;
#X text 241 388 how many;
#X text 245 403 effects;
#X text 316 255 (2 values per effect);
#X obj 659 730 outlet;
#X text 670 756 to global bus;
#X msg 298 610 effect \$2 \$1 save-effect;
#X obj 659 53 inlet;
#X text 635 13 dump of parameters;
#X text 634 31 from an effect;
#X obj 702 324 mmb/save.me.mmb effects \$0-persist;
#X obj 702 280 prepend add;
#X obj 606 201 lzr/func;
#X obj 566 729 t a;
#X obj 566 141 t a;
#X obj 810 436 print Loading effect;
#X msg 444 360 clear-track \$1;
#X obj 351 396 t f f;
#X obj 1041 409 t a a;
#X obj 1073 440 print Clearing track;
#X msg 702 631 set-current-track \$1 \, add-effect \$3;
#X msg 805 685 set-current-track \$1 \, delete-track-effects;
#X obj 702 361 route add-effect param clear-track;
#X text 716 610 [track_num \, effect_num \, effect_name];
#X obj 702 436 t a a a;
#X obj 780 541 prepend;
#X obj 780 574 prepend effect;
#X msg 826 499 \$1 \$2 param;
#X obj 1041 631 t a;
#X connect 0 0 14 0;
#X connect 5 0 10 1;
#X connect 9 0 10 0;
#X connect 10 0 13 0;
#X connect 10 1 4 0;
#X connect 11 0 12 0;
#X connect 11 0 44 0;
#X connect 12 0 11 1;
#X connect 13 0 17 0;
#X connect 13 1 11 0;
#X connect 14 0 9 0;
#X connect 14 1 15 0;
#X connect 15 0 22 0;
#X connect 17 0 18 0;
#X connect 18 0 24 0;
#X connect 19 0 20 0;
#X connect 20 0 21 0;
#X connect 20 0 25 0;
#X connect 21 0 20 1;
#X connect 22 0 11 1;
#X connect 23 0 20 1;
#X connect 24 0 19 0;
#X connect 24 1 23 0;
#X connect 25 0 33 0;
#X connect 33 0 40 0;
#X connect 34 0 39 1;
#X connect 37 0 49 0;
#X connect 38 0 37 0;
#X connect 39 0 38 0;
#X connect 39 1 31 0;
#X connect 40 0 41 0;
#X connect 41 0 39 0;
#X connect 43 0 38 0;
#X connect 44 0 25 1;
#X connect 44 1 43 0;
#X connect 45 0 55 0;
#X connect 45 1 46 0;
#X connect 47 0 31 0;
#X connect 48 0 31 0;
#X connect 49 0 51 0;
#X connect 49 1 52 0;
#X connect 49 2 45 0;
#X connect 51 0 47 0;
#X connect 51 1 54 0;
#X connect 51 2 42 0;
#X connect 52 0 53 0;
#X connect 53 0 31 0;
#X connect 54 0 52 1;
#X connect 55 0 48 0;
#X restore 861 239 pd \$0-persist-fx;
#X obj 182 118 route set-current-track window-size add-effect new-effect-id
delete-track-effects canvas-index-response dump-parameters effect-params
show-panel-guts, f 154;
#X text 590 152 delete effects;
#X connect 0 0 1 0;
#X connect 1 0 3 0;
#X connect 2 0 4 0;
#X connect 3 0 5 0;
#X connect 3 0 7 0;
#X connect 4 0 35 0;
#X connect 4 1 21 0;
#X connect 4 2 10 0;
#X connect 5 0 22 0;
#X connect 6 0 4 1;
#X connect 6 0 18 1;
#X connect 7 0 32 0;
#X connect 7 1 21 0;
#X connect 9 0 8 0;
#X connect 10 0 29 0;
#X connect 10 1 30 0;
#X connect 10 2 46 0;
#X connect 17 0 34 0;
#X connect 18 0 21 0;
#X connect 18 1 10 0;
#X connect 18 2 35 0;
#X connect 19 0 18 2;
#X connect 20 0 6 0;
#X connect 21 0 27 0;
#X connect 22 0 4 2;
#X connect 22 0 17 0;
#X connect 22 0 31 0;
#X connect 23 0 50 0;
#X connect 28 0 27 0;
#X connect 29 0 19 0;
#X connect 30 0 20 0;
#X connect 31 0 10 1;
#X connect 31 0 18 4;
#X connect 32 0 25 0;
#X connect 33 0 4 5;
#X connect 34 0 18 3;
#X connect 34 0 4 3;
#X connect 35 0 25 0;
#X connect 40 0 28 0;
#X connect 45 0 10 0;
#X connect 46 0 47 0;
#X connect 47 0 49 1;
#X connect 48 0 25 0;
#X connect 49 0 45 0;
#X connect 49 1 48 0;
#X connect 50 0 3 0;
#X connect 50 1 7 1;
#X connect 50 2 2 0;
#X connect 50 3 4 4;
#X connect 50 4 18 0;
#X connect 50 5 33 0;
#X connect 50 6 49 0;
#X connect 50 7 49 2;
#X connect 50 8 40 0;
#X coords 0 916 1 915 100 100 0;
#X restore 835 51 pd \$0-effects-panel-behavior;
#X obj 1 600 t a;
#X obj 1222 583 t a;
#X obj 1 300 t a;
#X obj 1233 283 t a;
#X obj 1221 700 t a;
#X obj 2 983 t a;
#X obj 1242 1000 t a;
#X obj 0 899 t a;
#X obj 1251 882 t a;
#X obj 470 55 iemguts/canvasselect 0;
#X floatatom 470 78 5 0 0 0 - - -, f 5;
#X obj 470 12 tgl 15 0 empty empty empty 17 7 0 10 -262144 -1 -1 0
1;
#X obj 470 32 metro 500;
#X obj 17 11 iemguts/canvasdelete;
#X text 14 31 need this for delete message support on canvases;
#X obj 835 5 r \$0-global-events;
#X obj 721 5 r \$0-windowsize;
#X msg 721 26 window-size;
#X obj 835 76 s \$0-global-events;
#X obj 1028 76 iemguts/sendcanvas;
#X obj 1281 2728 t a;
#X obj 43 2712 t a;
#X obj 32 57 catch~ \$0-track1-virt-in-left;
#X obj 58 79 catch~ \$0-track1-virt-in-right;
#X obj 1064 326 throw~ \$0-track1-mixer-left;
#X obj 1090 305 throw~ \$0-track1-mixer-right;
#X obj 61 357 catch~ \$0-track2-virt-in-left;
#X obj 92 376 catch~ \$0-track2-virt-in-right;
#X obj 1080 608 throw~ \$0-track2-mixer-right;
#X obj 1074 630 throw~ \$0-track2-mixer-left;
#X obj 42 648 catch~ \$0-track3-virt-in-left;
#X obj 55 670 catch~ \$0-track3-virt-in-right;
#X obj 1061 928 throw~ \$0-track3-mixer-left;
#X obj 1069 906 throw~ \$0-track3-mixer-right;
#X obj 37 952 catch~ \$0-track4-virt-in-left;
#X obj 50 974 catch~ \$0-track4-virt-in-right;
#X obj 1073 1207 throw~ \$0-track4-mixer-right;
#X obj 1031 1229 throw~ \$0-track4-mixer-left;
#X obj 43 1255 catch~ \$0-track5-virt-in-left;
#X obj 56 1277 catch~ \$0-track5-virt-in-right;
#X obj 1066 1510 throw~ \$0-track5-mixer-right;
#X obj 1056 1532 throw~ \$0-track5-mixer-left;
#X obj 71 1547 catch~ \$0-track6-virt-in-left;
#X obj 59 1572 catch~ \$0-track6-virt-in-right;
#X obj 1068 1809 throw~ \$0-track6-mixer-right;
#X obj 1046 1830 throw~ \$0-track6-mixer-left;
#X obj 68 1836 catch~ \$0-track7-virt-in-left;
#X obj 91 1862 catch~ \$0-track7-virt-in-right;
#X obj 1070 2110 throw~ \$0-track7-mixer-right;
#X obj 1058 2138 throw~ \$0-track7-mixer-left;
#X obj 35 2140 catch~ \$0-track8-virt-in-left;
#X obj 50 2168 catch~ \$0-track8-virt-in-right;
#X obj 1040 2430 throw~ \$0-track8-mixer-left;
#X obj 1062 2406 throw~ \$0-track8-mixer-right;
#X connect 0 0 1 0;
#X connect 2 0 28 0;
#X connect 3 0 4 0;
#X connect 6 0 5 0;
#X connect 7 0 8 0;
#X connect 10 0 9 0;
#X connect 11 0 12 0;
#X connect 14 0 13 0;
#X connect 15 0 16 0;
#X connect 18 0 17 0;
#X connect 19 0 20 0;
#X connect 22 0 21 0;
#X connect 23 0 42 0;
#X connect 23 1 43 0;
#X connect 25 0 24 0;
#X connect 27 0 26 0;
#X connect 29 0 30 0;
#X connect 32 0 31 0;
#X connect 33 0 34 0;
#X connect 35 0 36 0;
#X connect 36 0 33 0;
#X connect 39 0 23 0;
#X connect 40 0 41 0;
#X connect 41 0 23 0;
#X connect 46 0 48 0;
#X connect 47 0 49 0;
#X connect 50 0 53 0;
#X connect 51 0 52 0;
#X connect 54 0 56 0;
#X connect 55 0 57 0;
#X connect 58 0 61 0;
#X connect 59 0 60 0;
#X connect 62 0 65 0;
#X connect 63 0 64 0;
#X connect 66 0 69 0;
#X connect 67 0 68 0;
#X connect 70 0 73 0;
#X connect 71 0 72 0;
#X connect 74 0 76 0;
#X connect 75 0 77 0;
#X coords 0 -1 1 1 1341 200 2 0 100;
#X restore 5 596 pd \$0-effects-panel;
#X msg 805 333 show-panel-guts;
#X msg 929 442 add-effect lzr/poly-synth-effect;
#X msg 942 470 add-effect lzr/drums-effect;
#X msg 846 361 delete-track-effects;
#X connect 12 0 11 0;
#X connect 15 0 23 0;
#X connect 16 0 24 0;
#X connect 17 0 25 0;
#X connect 18 0 26 0;
#X connect 19 0 27 0;
#X connect 20 0 28 0;
#X connect 21 0 29 0;
#X connect 22 0 30 0;
#X connect 23 0 32 0;
#X connect 24 0 31 0;
#X connect 35 0 34 0;
#X connect 36 0 33 0;
#X connect 37 0 35 0;
#X connect 38 0 36 0;
#X connect 41 0 40 0;
#X connect 42 0 40 0;
#X connect 44 0 40 0;
#X connect 45 0 40 0;
#X connect 46 0 40 0;
#X connect 47 0 40 0;
#X coords 0 0 1 1 500 500 0;
