#N struct 9302-template float w float h float w2 float h2 float border-color
float background-color float behind-color float shadow-color float
levitation float text-color symbol label float boxpos float symbolpos
;
#N struct 9306-template float w float h float w2 float h2 float border-color
float background-color float behind-color float shadow-color float
levitation float text-color symbol label float boxpos float symbolpos
;
#N struct 9310-template float w float h float w2 float h2 float border-color
float background-color float behind-color float shadow-color float
levitation float text-color symbol label float boxpos float symbolpos
;
#N struct 8525-template float w float h float w2 float h2 float border-color
float background-color float behind-color float shadow-color float
levitation float text-color symbol label float boxpos float symbolpos
;
#N struct 8529-template float w float h float w2 float h2 float border-color
float background-color float behind-color float shadow-color float
levitation float text-color symbol label float boxpos float symbolpos
;
#N struct 8533-template float w float h float w2 float h2 float border-color
float background-color float behind-color float shadow-color float
levitation float text-color symbol label float boxpos float symbolpos
;
#N struct 8537-template float w float h float w2 float h2 float border-color
float background-color float behind-color float shadow-color float
levitation float text-color symbol label float boxpos float symbolpos
;
#N struct 8541-template float w float h float w2 float h2 float border-color
float background-color float behind-color float shadow-color float
levitation float text-color symbol label float boxpos float symbolpos
;
#N struct 8545-template float w float h float w2 float h2 float border-color
float background-color float behind-color float shadow-color float
levitation float text-color symbol label float boxpos float symbolpos
;
#N struct 8549-template float w float h float w2 float h2 float border-color
float background-color float behind-color float shadow-color float
levitation float text-color symbol label float boxpos float symbolpos
;
#N canvas 211 22 1440 905 10;
#X declare -path .;
#N canvas 184 22 1457 899 \$0-implementation 0;
#N canvas 378 79 1050 815 mixer 0;
#X obj 104 196 inlet~;
#X obj 127 173 inlet~;
#X obj 182 196 inlet~;
#X obj 205 173 inlet~;
#X obj 256 197 inlet~;
#X obj 279 174 inlet~;
#X obj 334 197 inlet~;
#X obj 357 174 inlet~;
#X obj 405 195 inlet~;
#X obj 428 172 inlet~;
#X obj 483 195 inlet~;
#X obj 506 172 inlet~;
#X obj 557 196 inlet~;
#X obj 580 173 inlet~;
#X obj 635 196 inlet~;
#X obj 658 173 inlet~;
#X obj 289 126 route 1 2 3 4 5 6 7 8;
#X obj 753 37 inlet;
#X text 730 16 from global event bus;
#X obj 83 545 outlet~;
#X obj 116 576 outlet~;
#X obj 169 544 outlet~;
#X obj 197 575 outlet~;
#X obj 239 544 outlet~;
#X obj 258 575 outlet~;
#X obj 319 544 outlet~;
#X obj 347 575 outlet~;
#X obj 393 545 outlet~;
#X obj 426 576 outlet~;
#X obj 479 544 outlet~;
#X obj 507 575 outlet~;
#X obj 549 544 outlet~;
#X obj 577 575 outlet~;
#X obj 629 544 outlet~;
#X obj 657 575 outlet~;
#X obj 100 270 lzr/shade 475 220 4;
#X obj 108 278 lzr/mixstrip \$0;
#X obj 780 687 outlet;
#X obj 166 278 lzr/mixstrip \$0;
#X obj 224 278 lzr/mixstrip \$0;
#X obj 282 278 lzr/mixstrip \$0;
#X obj 340 278 lzr/mixstrip \$0;
#X obj 398 278 lzr/mixstrip \$0;
#X obj 456 278 lzr/mixstrip \$0;
#X obj 514 278 lzr/mixstrip \$0;
#X msg 753 204 save-params;
#X obj 753 70 route save-parameters mixer;
#N canvas 228 85 1193 781 \$0-onsave 0;
#X obj 539 635 outlet;
#X obj 151 515 route param;
#X obj 209 461 route param;
#X obj 267 411 route param;
#X obj 347 350 route param;
#X obj 573 355 route param;
#X obj 693 406 route param;
#X obj 787 454 route param;
#X obj 854 503 route param;
#X obj 347 372 lzr/pp persister param mixer 4;
#X obj 267 433 lzr/pp persister param mixer 3;
#X obj 209 483 lzr/pp persister param mixer 2;
#X obj 151 537 lzr/pp persister param mixer 1;
#X obj 573 377 lzr/pp persister param mixer 5;
#X obj 693 428 lzr/pp persister param mixer 6;
#X obj 787 476 lzr/pp persister param mixer 7;
#X obj 854 525 lzr/pp persister param mixer 8;
#X obj 66 50 inlet;
#X obj 182 57 inlet;
#X obj 295 60 inlet;
#X obj 426 60 inlet;
#X obj 547 58 inlet;
#X obj 675 57 inlet;
#X obj 777 61 inlet;
#X obj 893 68 inlet;
#X text 550 669 to global events bus;
#X connect 1 0 12 0;
#X connect 2 0 11 0;
#X connect 3 0 10 0;
#X connect 4 0 9 0;
#X connect 5 0 13 0;
#X connect 6 0 14 0;
#X connect 7 0 15 0;
#X connect 8 0 16 0;
#X connect 9 0 0 0;
#X connect 10 0 0 0;
#X connect 11 0 0 0;
#X connect 12 0 0 0;
#X connect 13 0 0 0;
#X connect 14 0 0 0;
#X connect 15 0 0 0;
#X connect 16 0 0 0;
#X connect 17 0 1 0;
#X connect 18 0 2 0;
#X connect 19 0 3 0;
#X connect 20 0 4 0;
#X connect 21 0 5 0;
#X connect 22 0 6 0;
#X connect 23 0 7 0;
#X connect 24 0 8 0;
#X restore 151 629 pd \$0-onsave;
#X text 743 715 to global event bus;
#X connect 0 0 36 0;
#X connect 1 0 36 1;
#X connect 2 0 38 0;
#X connect 3 0 38 1;
#X connect 4 0 39 0;
#X connect 5 0 39 1;
#X connect 6 0 40 0;
#X connect 7 0 40 1;
#X connect 8 0 41 0;
#X connect 9 0 41 1;
#X connect 10 0 42 0;
#X connect 11 0 42 1;
#X connect 12 0 43 0;
#X connect 13 0 43 1;
#X connect 14 0 44 0;
#X connect 15 0 44 1;
#X connect 16 0 36 2;
#X connect 16 1 38 2;
#X connect 16 2 39 2;
#X connect 16 3 40 2;
#X connect 16 4 41 2;
#X connect 16 5 42 2;
#X connect 16 6 43 2;
#X connect 16 7 44 2;
#X connect 17 0 46 0;
#X connect 36 0 19 0;
#X connect 36 1 20 0;
#X connect 36 2 47 0;
#X connect 38 0 21 0;
#X connect 38 1 22 0;
#X connect 38 2 47 1;
#X connect 39 0 23 0;
#X connect 39 1 24 0;
#X connect 39 2 47 2;
#X connect 40 0 25 0;
#X connect 40 1 26 0;
#X connect 40 2 47 3;
#X connect 41 0 27 0;
#X connect 41 1 28 0;
#X connect 41 2 47 4;
#X connect 42 0 29 0;
#X connect 42 1 30 0;
#X connect 42 2 47 5;
#X connect 43 0 31 0;
#X connect 43 1 32 0;
#X connect 43 2 47 6;
#X connect 44 0 33 0;
#X connect 44 1 34 0;
#X connect 44 2 47 7;
#X connect 45 0 36 2;
#X connect 45 0 38 2;
#X connect 45 0 39 2;
#X connect 45 0 40 2;
#X connect 45 0 41 2;
#X connect 45 0 42 2;
#X connect 45 0 43 2;
#X connect 45 0 44 2;
#X connect 46 0 45 0;
#X connect 46 1 16 0;
#X connect 47 0 37 0;
#X coords 0 -1 1 1 475 220 2 100 270;
#X restore 5 956 pd mixer;
#N canvas 234 22 1411 918 persist-presets 0;
#X obj 40 539 bng 15 250 50 0 \$0-load-project.gui empty empty 17 7
0 10 -262144 -1 -1;
#X text 58 537 Load;
#X obj 40 562 bng 15 250 50 0 \$0-save-project.gui empty empty 17 7
0 10 -262144 -1 -1;
#X text 58 561 Save;
#X obj 40 585 bng 15 250 50 0 \$0-save-project-as.gui empty empty 17
7 0 10 -262144 -1 -1;
#X text 58 584 Save As;
#X msg 361 480 label \$1;
#X obj 13 276 s \$0-project-name.gui.set;
#X obj 253 499 moses 1;
#X obj 299 769 t a;
#X obj 517 823 t a;
#X obj 553 695 t a;
#X obj 553 218 t a;
#X obj 253 448 int;
#X msg 271 410 1;
#X text 128 450 has the project;
#X text 128 468 been saved?;
#X obj 299 675 symbol;
#X obj 299 646 t b;
#X obj 361 449 iemlib/splitfilename;
#X text 355 318 change current project;
#X text 439 156 on loadbang;
#X text 393 604 show save dialog;
#X text 284 821 save project to this location;
#X obj 315 350 t a;
#X text 103 672 path to current project;
#N canvas 572 64 862 838 \$0-project-chooser 0;
#X obj 353 330 hcs/sys_gui;
#X msg 353 303 file mkdir \$1;
#X obj 185 250 makefilename %s/audio;
#X obj 353 249 makefilename %s/midi;
#X obj 583 19 inlet;
#X obj 353 743 outlet;
#X obj 185 329 hcs/sys_gui;
#X msg 185 302 file mkdir \$1;
#X obj 511 248 t a;
#X obj 353 403 symbol;
#X obj 353 436 spigot;
#X obj 353 517 spigot;
#X msg 409 403 1;
#X msg 386 477 1;
#X obj 353 370 t b b;
#X obj 185 372 t b b;
#X obj 511 321 t a;
#X msg 479 419 0;
#X obj 334 213 t s s s;
#X text 412 536 reset spigots;
#X obj 372 577 makefilename %s/project.txt;
#X obj 353 547 t s s b;
#X obj 577 749 outlet;
#X obj 266 182 tof/folderpanel;
#X obj 583 48 route save load;
#X obj 646 749 outlet;
#X text 84 442 The goal of this whole block here -->;
#X text 53 482 is to output the folder path only when -->;
#X text 88 525 we get both bangs from sys_gui's -->;
#X text 579 765 save;
#X text 344 768 project directory;
#X text 653 769 load;
#X obj 646 634 spigot;
#X msg 679 561 1;
#X obj 646 692 t s b;
#X msg 751 560 0;
#X obj 652 76 t a b;
#X obj 577 635 spigot;
#X msg 610 561 1;
#X obj 577 693 t s b;
#X obj 583 77 t a b;
#X obj 577 605 t a;
#X obj 673 715 t a;
#X obj 690 601 t a;
#X obj 334 156 route bang;
#X obj 391 181 symbol;
#X connect 0 0 14 0;
#X connect 1 0 0 0;
#X connect 2 0 7 0;
#X connect 3 0 1 0;
#X connect 4 0 24 0;
#X connect 6 0 15 0;
#X connect 7 0 6 0;
#X connect 8 0 16 0;
#X connect 9 0 10 0;
#X connect 10 0 11 0;
#X connect 11 0 21 0;
#X connect 12 0 10 1;
#X connect 13 0 11 1;
#X connect 14 0 9 0;
#X connect 14 1 12 0;
#X connect 15 0 9 0;
#X connect 15 1 13 0;
#X connect 16 0 9 1;
#X connect 17 0 10 1;
#X connect 17 0 11 1;
#X connect 18 0 2 0;
#X connect 18 1 3 0;
#X connect 18 2 8 0;
#X connect 20 0 41 0;
#X connect 21 0 5 0;
#X connect 21 1 20 0;
#X connect 21 2 17 0;
#X connect 23 0 18 0;
#X connect 24 0 40 0;
#X connect 24 1 36 0;
#X connect 32 0 34 0;
#X connect 33 0 32 1;
#X connect 34 0 25 0;
#X connect 34 1 42 0;
#X connect 35 0 43 0;
#X connect 36 0 44 0;
#X connect 36 1 33 0;
#X connect 37 0 39 0;
#X connect 38 0 37 1;
#X connect 39 0 22 0;
#X connect 39 1 42 0;
#X connect 40 0 44 0;
#X connect 40 1 38 0;
#X connect 41 0 37 0;
#X connect 41 0 32 0;
#X connect 42 0 35 0;
#X connect 43 0 32 1;
#X connect 43 0 37 1;
#X connect 44 0 23 0;
#X connect 44 1 45 0;
#X connect 45 0 18 0;
#X restore 838 293 pd \$0-project-chooser;
#X obj 315 378 t b s s;
#X msg 253 522 save;
#X obj 253 575 t a;
#N canvas 242 50 1295 801 \$0-remember-last-project 0;
#X obj 794 685 textfile;
#X obj 144 68 loadbang;
#X obj 144 172 textfile;
#X obj 44 699 outlet;
#X text 57 664 outputs last opened project name;
#X text 57 678 on loadbang;
#X obj 122 69 bng 15 250 50 0 empty empty empty 17 7 0 10 -262144 -1
-1;
#X obj 46 508 zexy/list2symbol;
#X text 70 487 handle spaces in filename;
#X obj 41 286 t a;
#X obj 41 83 t a;
#X msg 144 98 read state/state.txt \, rewind \, bang;
#X obj 144 203 t b a a;
#X obj 854 61 route loading saving midi-autoconnect;
#X msg 862 574 clear;
#X msg 502 575 write state/state.txt;
#X obj 670 510 lzr/assoc;
#X obj 704 320 t b b a b;
#X msg 633 445 get-all;
#X obj 146 392 route last-project midi-autoconnect;
#X obj 297 451 zexy/list2symbol;
#X obj 854 26 inlet;
#X text 840 8 from global event bus;
#X obj 389 703 outlet;
#X text 388 727 to global event bus;
#X obj 470 446 lzr/pp set;
#X obj 824 123 lzr/pp last-project;
#X obj 697 445 lzr/pp set;
#X obj 1024 232 lzr/pp midi-autoconnect;
#X obj 670 574 lzr/pp add;
#X obj 297 498 lzr/pp midi-autoconnect-set;
#X connect 1 0 11 0;
#X connect 2 0 12 0;
#X connect 6 0 11 0;
#X connect 7 0 3 0;
#X connect 9 0 10 0;
#X connect 10 0 2 0;
#X connect 11 0 2 0;
#X connect 12 0 9 0;
#X connect 12 1 19 0;
#X connect 12 2 25 0;
#X connect 13 0 26 0;
#X connect 13 1 26 0;
#X connect 13 2 28 0;
#X connect 14 0 0 0;
#X connect 15 0 0 0;
#X connect 16 0 29 0;
#X connect 17 0 15 0;
#X connect 17 1 18 0;
#X connect 17 2 27 0;
#X connect 17 3 14 0;
#X connect 18 0 16 0;
#X connect 19 0 7 0;
#X connect 19 1 20 0;
#X connect 20 0 30 0;
#X connect 21 0 13 0;
#X connect 25 0 16 0;
#X connect 26 0 17 0;
#X connect 27 0 16 0;
#X connect 28 0 17 0;
#X connect 29 0 0 0;
#X connect 30 0 23 0;
#X restore 553 151 pd \$0-remember-last-project;
#X text 990 312 load;
#X text 889 350 save;
#X obj 517 646 t a;
#X obj 507 65 iemguts/sendcanvas;
#X msg 507 41 vis 1;
#X obj 1173 34 inlet;
#X text 1167 15 from global event bus;
#X obj 739 797 outlet;
#X text 723 819 to global event bus;
#X text 439 185 opened project;
#X text 439 170 outputs last;
#X obj 553 189 lzr/pp load;
#X obj 299 711 lzr/pp save;
#X obj 1173 62 route persister;
#X obj 1173 120 route param;
#N canvas 162 144 623 610 \$0-collect-and-save 0;
#X obj 80 63 inlet;
#X obj 337 447 outlet;
#X text 319 486 to global event bus;
#X obj 339 64 inlet;
#X text 19 35 symbol: save project to filename;
#X obj 77 130 t s s b b b b b;
#X msg 203 170 save-parameters;
#X obj 215 326 textfile;
#X msg 187 248 clear;
#X obj 247 275 lzr/pp add;
#X obj 288 206 lzr/func;
#X msg 93 203 write \$1;
#X obj 36 324 iemlib/splitfilename;
#X msg 37 354 saving \$1;
#X text 300 14 params from all subsystems;
#X text 298 37 (addressed to "persister param");
#X connect 0 0 5 0;
#X connect 3 0 10 1;
#X connect 5 0 12 0;
#X connect 5 1 11 0;
#X connect 5 5 6 0;
#X connect 5 6 8 0;
#X connect 6 0 10 0;
#X connect 8 0 7 0;
#X connect 9 0 7 0;
#X connect 10 0 9 0;
#X connect 10 1 1 0;
#X connect 11 0 7 0;
#X connect 12 0 13 0;
#X connect 13 0 1 0;
#X restore 1022 495 pd \$0-collect-and-save;
#N canvas 428 236 632 641 \$0-load-from-file 0;
#X obj 151 325 textfile;
#X msg 151 287 read \$1 \, rewind \, bang;
#X obj 95 373 t b a;
#X msg 325 310 loading \$1;
#X obj 325 287 iemlib/splitfilename;
#X obj 95 286 t a;
#X msg 325 399 force-track-number 1;
#X text 328 419 to track switcher;
#X text 330 435 GUI;
#X obj 151 175 t a a;
#X obj 151 69 inlet;
#X text 118 33 send a symbol to load;
#X text 119 49 project from that filename;
#X obj 127 521 outlet;
#X text 97 548 to global events bus;
#X connect 0 0 2 0;
#X connect 0 1 6 0;
#X connect 1 0 0 0;
#X connect 2 0 5 0;
#X connect 2 1 13 0;
#X connect 3 0 13 0;
#X connect 4 0 3 0;
#X connect 5 0 0 0;
#X connect 6 0 13 0;
#X connect 9 0 1 0;
#X connect 9 1 4 0;
#X connect 10 0 9 0;
#X restore 982 613 pd \$0-load-from-file;
#X obj 50 200 lzr/shade 320 70 4;
#X obj 50 257 bng 8 250 50 0 empty empty empty 17 7 0 10 -262144 -1
-1;
#X obj 57 230 cnv 15 300 25 \$0-project-name.gui \$0-project-name.gui.set
New-Saving 10 12 0 12 -204800 -66577 0;
#X obj 55 205 lzr/button load 100 20 Load;
#X obj 262 205 lzr/button save 100 20 Save As;
#X obj 158 205 lzr/button bang 100 20 Save;
#X connect 6 0 7 0;
#X connect 8 0 28 0;
#X connect 8 1 18 0;
#X connect 9 0 10 0;
#X connect 10 0 33 0;
#X connect 11 0 12 0;
#X connect 12 0 26 0;
#X connect 13 0 8 0;
#X connect 14 0 13 1;
#X connect 17 0 43 0;
#X connect 18 0 17 0;
#X connect 19 1 6 0;
#X connect 24 0 27 0;
#X connect 26 0 24 0;
#X connect 26 1 46 0;
#X connect 26 2 47 0;
#X connect 27 0 14 0;
#X connect 27 1 17 1;
#X connect 27 2 19 0;
#X connect 28 0 29 0;
#X connect 29 0 33 0;
#X connect 30 0 42 0;
#X connect 30 1 38 0;
#X connect 33 0 11 0;
#X connect 35 0 34 0;
#X connect 36 0 30 0;
#X connect 36 0 44 0;
#X connect 42 0 12 0;
#X connect 43 0 9 0;
#X connect 44 0 45 0;
#X connect 45 0 46 1;
#X connect 46 0 38 0;
#X connect 47 0 38 0;
#X connect 49 0 35 0;
#X connect 51 0 26 0;
#X connect 52 0 26 0;
#X connect 53 0 13 0;
#X coords 0 -1 1 1 320 70 2 50 200;
#X restore 1076 1105 pd persist-presets;
#N canvas 27 223 574 666 mixer-master 0;
#X obj 105 434 dac~;
#X obj 269 129 route 0;
#X obj 152 32 inlet;
#X text 142 11 from global event bus;
#X obj 37 33 inlet~;
#X obj 90 33 inlet~;
#X obj 100 200 lzr/shade 70 220 4;
#X obj 109 209 lzr/mixstripmaster \$0;
#X obj 152 475 route param;
#X obj 152 512 lzr/pp persister param mixer 0 param;
#X obj 152 572 outlet;
#X text 104 601 to global events bus;
#X obj 152 74 route save-parameters mixer, f 34;
#X obj 269 153 route param;
#X msg 152 154 save-params;
#X connect 1 0 13 0;
#X connect 2 0 12 0;
#X connect 4 0 7 0;
#X connect 5 0 7 1;
#X connect 7 0 0 0;
#X connect 7 1 0 1;
#X connect 7 2 8 0;
#X connect 8 0 9 0;
#X connect 9 0 10 0;
#X connect 12 0 14 0;
#X connect 12 1 1 0;
#X connect 13 0 7 2;
#X connect 14 0 7 2;
#X coords 0 -1 1 1 70 220 2 100 200;
#X restore 490 956 pd mixer-master;
#N canvas 389 79 1258 800 \$0-cool-stuff 0;
#X text 38 49 bassemu/examples/simple-sequencer;
#X text 27 527 sfruit/saveclear;
#X text 36 117 tof/imagebang;
#X text 26 542 sfruit/gop-edit;
#X text 23 563 iemlib/samplerate~;
#X text 23 582 iemguts/canvasargs;
#X text 23 611 pddp/print;
#X text 22 635 mmb/waveform.mmb;
#X text 32 501 mapping/keygate;
#X text 31 481 iemlib/soundfile_info;
#X text 31 459 iemguts/receivecanvas;
#X text 34 438 hcs/get-audio-dialog;
#X text 35 425 hcs/window-name;
#X text 22 659 hcs/screensize;
#X text 42 378 cyclone/active;
#X text 36 157 ggee/gcanvas;
#X text 41 401 unauthorized/grid;
#X text 35 221 tof/pmenu;
#X text 31 239 sfruit/cpugraph;
#X text 32 202 MouseState!;
#X text 40 91 list-idx: Get element at position idx.;
#X text 34 15 iemguts/canvasdelete;
#X text 36 31 iemguts/sendcanvas;
#X text 38 71 zexy/demultiplex~;
#X text 42 260 creb/ti_snare;
#X text 42 276 creb/ti_hihat;
#X text 43 295 bassemu~;
#X text 34 137 pdmtl/init.dollar.zero.top;
#X text 32 180 pdmtl/synth.wind~;
#X text 33 315 jmmmp/lbang;
#X text 37 336 jmmmp/metrum;
#X text 39 356 qlist;
#X restore 91 193 pd \$0-cool-stuff;
#N canvas 443 166 853 545 \$0-messages 0;
#X text 30 29 \$0-global-events:;
#X text 41 47 - play;
#X text 41 62 - pause;
#X text 41 76 - stop;
#X text 41 91 - record;
#X text 41 106 - tick beat <tick_number>;
#X text 40 121 - set-current-track <track_number>;
#X text 36 204 \$0-windowsize: Every second a bang is sent here;
#X text 88 222 in order to check if window size changed;
#X text 41 138 - main-window-redraw;
#X text 41 154 - save-parameters;
#X restore 91 215 pd \$0-messages;
#N canvas 483 227 519 353 \$0-debugger 0;
#X obj 67 245 print \$0-global-event;
#X obj 67 177 spigot;
#X obj 106 107 tgl 15 0 \$0-debugger-toggle \$0-debugger-toggle.set
empty 17 7 0 10 -262144 -1 -1 0 1;
#X obj 67 67 inlet;
#X text 124 107 Debug events;
#X connect 1 0 0 0;
#X connect 2 0 1 1;
#X connect 3 0 1 0;
#X coords 0 -1 1 1 120 30 2 100 100;
#X restore 1276 305 pd \$0-debugger;
#N canvas 187 22 1375 792 \$0-bpm 0;
#X obj 695 258 metro;
#X obj 727 203 /;
#X msg 691 178 60000;
#X text 758 177 compute milliseconds between ticks;
#X text 771 193 (60000 / BPM);
#X obj 713 154 t b f;
#X obj 695 314 int;
#X obj 735 315 + 1;
#X floatatom 695 355 16 0 0 0 - - -, f 16;
#X text 593 356 beat counter;
#X obj 695 429 mod;
#X floatatom 695 455 5 0 0 0 - - -, f 5;
#X text 544 451 beat within the bar;
#X text 756 515 weak beat;
#X obj 772 546 t b b b;
#X obj 611 544 t b b b;
#X text 574 515 strong beat;
#X msg 657 621 2;
#X msg 818 619 13;
#X msg 708 621 4;
#X obj 708 597 del 200;
#N canvas 188 88 749 721 \$0-metronome-sound 0;
#X obj 159 45 inlet;
#X obj 299 45 inlet;
#X obj 82 218 *~;
#X obj 97 178 line~;
#X obj 97 145 1 50;
#X obj 159 145 0 50;
#X obj 159 123 delay 50;
#X obj 119 295 hip~ 3;
#X obj 181 295 hip~ 3;
#X text 242 296 filter out DC;
#X obj 222 208 *~;
#X obj 237 168 line~;
#X obj 237 133 1 50;
#X obj 299 130 0 50;
#X obj 299 107 delay 50;
#X obj 222 88 osc~ 440;
#X obj 82 89 osc~ 500;
#X obj 159 96 t a;
#X obj 299 82 t a;
#X obj 391 526 line~;
#X obj 119 610 *~;
#X obj 181 609 *~;
#X obj 181 639 outlet~;
#X obj 119 639 outlet~;
#X obj 391 505 pack 0 50;
#X msg 391 461 0;
#X obj 391 436 moses 0.011;
#X obj 391 42 inlet;
#X text 385 19 volume;
#X text 464 504 <-- make a ramp to avoid;
#X text 492 518 clicks or zipper noise;
#X connect 0 0 17 0;
#X connect 1 0 18 0;
#X connect 2 0 7 0;
#X connect 2 0 8 0;
#X connect 3 0 2 1;
#X connect 4 0 3 0;
#X connect 5 0 3 0;
#X connect 6 0 5 0;
#X connect 7 0 20 0;
#X connect 8 0 21 0;
#X connect 10 0 7 0;
#X connect 10 0 8 0;
#X connect 11 0 10 1;
#X connect 12 0 11 0;
#X connect 13 0 11 0;
#X connect 14 0 13 0;
#X connect 15 0 10 0;
#X connect 16 0 2 0;
#X connect 17 0 4 0;
#X connect 17 0 6 0;
#X connect 18 0 14 0;
#X connect 18 0 12 0;
#X connect 19 0 21 1;
#X connect 19 0 20 1;
#X connect 20 0 23 0;
#X connect 21 0 22 0;
#X connect 24 0 19 0;
#X connect 25 0 24 0;
#X connect 26 0 25 0;
#X connect 26 1 24 0;
#X connect 27 0 26 0;
#X restore 437 664 pd \$0-metronome-sound;
#X msg 900 436 tick beat \$1;
#X msg 695 231 1;
#X msg 655 231 0;
#X obj 695 501 sel 1;
#X text 554 464 (counting from 0);
#X obj 346 61 inlet;
#X obj 900 718 outlet;
#X obj 100 300 lzr/shade 105 55 4;
#X obj 89 275 s \$0-bpm.gui.set;
#X obj 126 380 r \$0-timesig.gui;
#X obj 165 252 s \$0-timesig.gui.set;
#X obj 109 359 r \$0-bpm.gui;
#X obj 73 381 t a;
#X obj 23 276 t a;
#X obj 233 593 f;
#X obj 52 594 f;
#X obj 159 592 f;
#X obj 279 524 t b b b;
#X msg 233 624 timesig \$1;
#X msg 159 623 bpm \$1;
#X obj 159 665 lzr/pp persister param metronome;
#X msg 657 669 color \$1;
#X obj 209 322 s \$0-beat-light.gui;
#X msg 52 623 volume \$1;
#X floatatom 104 304 5 20 300 1 BPM #0-bpm.gui.set #0-bpm.gui, f 5
;
#X floatatom 168 305 2 1 9 1 /4 #0-timesig.gui.set #0-timesig.gui,
f 2;
#X obj 192 340 cnv 5 5 5 empty \$0-beat-light.gui empty 20 12 0 14
-261681 -262144 0;
#X obj 106 331 hsl 80 15 0.01 1 1 0 \$0-metro-volume.gui \$0-metro-volume.gui.set
volume 3 8 1 10 -245500 -13381 -1 400 0;
#X obj 222 467 t f f;
#X obj 478 342 t a;
#X text 342 36 from global event bus;
#X obj 109 476 t f f;
#X obj 713 129 t a;
#X obj 23 157 route volume bpm timesig;
#X obj 437 728 outlet~;
#X obj 581 726 outlet~;
#X text 860 742 to the global event bus;
#X obj 346 96 route metronome stop pause play save-parameters;
#X obj 188 188 print Unknown metronome parameter;
#X connect 0 0 6 0;
#X connect 1 0 0 1;
#X connect 2 0 1 0;
#X connect 5 0 2 0;
#X connect 5 1 1 1;
#X connect 6 0 7 0;
#X connect 6 0 8 0;
#X connect 7 0 6 1;
#X connect 8 0 10 0;
#X connect 8 0 22 0;
#X connect 10 0 11 0;
#X connect 11 0 25 0;
#X connect 14 0 21 1;
#X connect 14 1 20 0;
#X connect 14 2 18 0;
#X connect 15 0 21 0;
#X connect 15 1 20 0;
#X connect 15 2 17 0;
#X connect 17 0 43 0;
#X connect 18 0 43 0;
#X connect 19 0 43 0;
#X connect 20 0 19 0;
#X connect 21 0 56 0;
#X connect 21 1 57 0;
#X connect 22 0 28 0;
#X connect 23 0 0 0;
#X connect 24 0 0 0;
#X connect 24 0 7 0;
#X connect 25 0 15 0;
#X connect 25 1 14 0;
#X connect 27 0 59 0;
#X connect 31 0 50 0;
#X connect 33 0 53 0;
#X connect 34 0 37 1;
#X connect 35 0 49 0;
#X connect 36 0 40 0;
#X connect 37 0 45 0;
#X connect 38 0 41 0;
#X connect 39 0 37 0;
#X connect 39 1 38 0;
#X connect 39 2 36 0;
#X connect 40 0 42 0;
#X connect 41 0 42 0;
#X connect 42 0 28 0;
#X connect 43 0 44 0;
#X connect 45 0 42 0;
#X connect 49 0 34 0;
#X connect 50 0 51 0;
#X connect 50 1 36 1;
#X connect 51 0 10 1;
#X connect 53 0 54 0;
#X connect 53 1 38 1;
#X connect 54 0 5 0;
#X connect 55 0 35 0;
#X connect 55 1 30 0;
#X connect 55 2 32 0;
#X connect 55 3 60 0;
#X connect 59 0 55 0;
#X connect 59 1 24 0;
#X connect 59 2 24 0;
#X connect 59 3 23 0;
#X connect 59 4 39 0;
#X coords 0 -1 1 1 105 55 2 100 300;
#X restore 7 305 pd \$0-bpm;
#N canvas 670 41 953 599 \$0-settings 0;
#X obj 162 60 mediasettings/audiosettings;
#X msg 162 34 listparams;
#X obj 162 87 route params;
#X obj 162 112 route in out;
#X obj 46 150 route devices;
#X obj 289 150 route devices;
#X obj 46 179 unpack f f;
#X obj 289 175 unpack f f;
#X obj 143 516 s pd-\$0-playground;
#X obj 143 378 * 50;
#X obj 143 353 t f f;
#X obj 143 461 pack f f;
#X obj 289 427 s pd-\$0-playground;
#X obj 289 314 + 400;
#X obj 289 289 * 50;
#X obj 289 264 t f f;
#X obj 289 372 pack f f;
#X obj 335 296 + 1;
#X msg 289 397 obj \$1 500 dac~ \$2;
#X obj 410 24 bng 15 250 50 0 empty empty empty 17 7 0 10 -262144 -1
-1;
#X obj 428 194 s pd-\$0-playground;
#X msg 493 124 find dac~ 1 \, cut;
#X obj 127 210 int;
#X text 147 247 create;
#X text 22 249 delete;
#X obj 166 286 t b f;
#X obj 73 210 t f f;
#X obj 154 166 loadbang;
#X msg 153 186 0;
#X obj 100 237 moses;
#X obj 143 403 + 50;
#X msg 143 486 obj \$1 50 adc~ \$2;
#X floatatom 28 209 5 0 0 0 - - -, f 5;
#X obj 205 234 + 1;
#X obj 205 286 t a;
#X obj 127 264 moses;
#X msg 35 341 find dac~ 1 \, cut;
#X obj 28 271 t b f;
#X obj 589 512 s \$0-windowsize;
#X obj 589 467 tgl 15 0 empty empty empty 17 7 0 10 -262144 -1 -1 0
1;
#X obj 589 488 metro 100;
#X msg 767 142 \; pd dsp 1;
#X obj 767 109 loadbang;
#X connect 0 0 2 0;
#X connect 1 0 0 0;
#X connect 2 0 3 0;
#X connect 3 0 4 0;
#X connect 3 1 5 0;
#X connect 4 1 6 0;
#X connect 5 1 7 0;
#X connect 6 1 26 0;
#X connect 9 0 30 0;
#X connect 10 0 9 0;
#X connect 10 1 11 1;
#X connect 11 0 31 0;
#X connect 13 0 16 0;
#X connect 14 0 13 0;
#X connect 15 0 14 0;
#X connect 15 1 17 0;
#X connect 16 0 18 0;
#X connect 17 0 16 1;
#X connect 18 0 12 0;
#X connect 19 0 21 0;
#X connect 21 0 20 0;
#X connect 22 0 29 1;
#X connect 22 0 33 0;
#X connect 26 0 22 0;
#X connect 26 1 29 0;
#X connect 27 0 28 0;
#X connect 28 0 22 0;
#X connect 29 0 37 0;
#X connect 29 1 35 0;
#X connect 30 0 11 0;
#X connect 31 0 8 0;
#X connect 32 0 26 0;
#X connect 33 0 34 0;
#X connect 33 0 35 1;
#X connect 35 1 25 0;
#X connect 36 0 8 0;
#X connect 39 0 40 0;
#X connect 40 0 38 0;
#X connect 42 0 41 0;
#X restore 91 236 pd \$0-settings;
#N canvas 517 155 702 482 \$0-track-selector 0;
#X obj 209 249 + 1;
#X msg 209 308 set-current-track \$1 \, redraw-main-window;
#X obj 209 117 route force-track-number;
#X obj 209 175 - 1;
#X obj 209 63 inlet;
#X obj 209 366 outlet;
#X text 205 36 from global events bus;
#X text 207 396 to global events bus;
#X obj 200 200 lzr/shade 140 40 4;
#X obj 209 218 hradio 15 1 0 8 \$0-track-selector-radio \$0-track-selector-radio.set
empty 0 -8 0 10 -262144 -1 -1 0;
#X text 223 201 Select track;
#X text 212 218 1;
#X text 227 218 2;
#X text 242 218 3;
#X text 257 218 4;
#X text 272 218 5;
#X text 287 218 6;
#X text 302 218 7;
#X text 317 218 8;
#X connect 0 0 1 0;
#X connect 1 0 5 0;
#X connect 2 0 3 0;
#X connect 3 0 9 0;
#X connect 4 0 2 0;
#X connect 9 0 0 0;
#X coords 0 -1 1 1 140 40 2 200 200;
#X restore 5 695 pd \$0-track-selector;
#X obj 859 1203 s \$0-global-events;
#X text 14 378 Track 1;
#X text 181 376 Track 2;
#X text 358 376 Track 3;
#X text 531 376 Track 4;
#X text 697 375 Track 5;
#X text 881 375 Track 6;
#X text 1054 377 Track 7;
#X text 1229 375 Track 8;
#X obj 122 305 lzr/transport-buttons \$0;
#X obj 5 739 lzr/effects-panel \$0;
#X obj 1049 396 lzr/session-midi-track \$0 7;
#X obj 460 97 r \$0-global-events;
#X obj 701 691 lzr/button lzr/reverb-effect 100 20 Add reverb;
#X obj 701 715 lzr/button lzr/simple-fuzz-effect 100 20 Add fuzz;
#X obj 809 691 lzr/button lzr/phaser-effect 100 20 Add phaser;
#X obj 809 715 lzr/button lzr/poly-synth-effect 100 20 Add poly synth
;
#X obj 915 691 lzr/button lzr/drums-effect 100 20 Add drums;
#X obj 1291 692 lzr/button delete-track-effects 100 20 Delete effects
;
#X obj 1291 715 lzr/button show-panel-guts 100 20 Show panel guts;
#X msg 1220 244 map 0 \, map 1;
#X obj 1220 221 route redraw-main-window;
#X obj 1220 267 iemguts/sendcanvas 1;
#N canvas 212 39 1385 847 \$0-input 0;
#X obj 12 7 adc~ 1;
#X obj 90 9 adc~ 2;
#X obj 161 8 adc~ 3;
#X obj 224 7 adc~ 4;
#X obj 307 8 adc~ 5;
#X obj 390 11 adc~ 6;
#X obj 479 9 adc~ 7;
#X obj 581 9 adc~ 8;
#X obj 12 24 lzr/volume-control-mono;
#X obj 90 26 lzr/volume-control-mono;
#X obj 161 25 lzr/volume-control-mono;
#X obj 224 24 lzr/volume-control-mono;
#X obj 307 25 lzr/volume-control-mono;
#X obj 390 28 lzr/volume-control-mono;
#X obj 479 26 lzr/volume-control-mono;
#X obj 581 26 lzr/volume-control-mono;
#X obj 673 27 lzr/volume-control-mono;
#X obj 775 27 lzr/volume-control-mono;
#X obj 673 10 adc~ 9;
#X obj 775 10 adc~ 10;
#X obj 352 298 lzr/midi-input 1;
#X obj 482 298 lzr/midi-input 10;
#X obj 1135 302 lzr/input-interface-selector;
#N canvas 283 73 866 540 \$0-apc-mini-lights 0;
#X obj 128 422 noteout 1;
#X floatatom 120 361 5 0 0 0 - - -, f 5;
#X floatatom 188 364 5 0 0 0 - - -, f 5;
#X obj 124 60 tgl 15 0 empty empty empty 17 7 0 10 -262144 -1 -1 0
1;
#X obj 124 127 cyclone/counter;
#X floatatom 61 265 5 0 0 0 - - -, f 5;
#X msg 368 171 bang;
#X obj 298 332 pack f 0;
#X obj 242 374 unpack f f;
#X obj 172 191 random 3;
#X obj 184 268 + 1;
#X obj 171 218 * 2;
#X obj 124 91 metro 1000;
#X floatatom 193 58 5 0 0 0 - - -, f 5;
#X obj 202 318 mod 2;
#X obj 117 155 t f b b f;
#X obj 416 326 spigot;
#X obj 374 275 t f f;
#X obj 455 300 !=;
#X obj 62 189 mod 64;
#X obj 490 220 mod 64;
#X obj 374 224 lzr/for 64;
#X connect 1 0 0 0;
#X connect 2 0 0 1;
#X connect 3 0 12 0;
#X connect 4 0 15 0;
#X connect 5 0 1 0;
#X connect 6 0 21 0;
#X connect 7 0 8 0;
#X connect 8 0 0 0;
#X connect 8 1 0 1;
#X connect 9 0 11 0;
#X connect 10 0 14 0;
#X connect 11 0 10 0;
#X connect 12 0 4 0;
#X connect 13 0 12 1;
#X connect 14 0 2 0;
#X connect 15 0 19 0;
#X connect 15 1 9 0;
#X connect 15 2 21 0;
#X connect 15 3 20 0;
#X connect 16 0 7 0;
#X connect 17 0 16 0;
#X connect 17 1 18 0;
#X connect 18 0 16 1;
#X connect 19 0 5 0;
#X connect 20 0 18 1;
#X connect 21 0 17 0;
#X restore 354 232 pd \$0-apc-mini-lights;
#N canvas 1023 239 469 552 0-apc-mini 0;
#X obj 173 217 - 47;
#X obj 173 242 moses 9;
#X msg 219 269 0;
#X obj 106 363 pack f f;
#X msg 106 401 mixer-param \$2 volume \$1;
#X obj 106 270 - 100;
#X obj 106 217 / 127;
#X obj 106 243 * 112;
#X obj 106 31 inlet;
#X obj 106 476 outlet;
#X obj 106 58 route midi-control;
#X obj 106 99 unpack f f;
#X connect 0 0 1 0;
#X connect 1 0 3 1;
#X connect 1 1 2 0;
#X connect 2 0 3 1;
#X connect 3 0 4 0;
#X connect 4 0 9 0;
#X connect 5 0 3 0;
#X connect 6 0 7 0;
#X connect 7 0 5 0;
#X connect 8 0 10 0;
#X connect 10 0 11 0;
#X connect 11 0 6 0;
#X connect 11 1 0 0;
#X restore 655 347 pd 0-apc-mini;
#X obj 655 298 lzr/midi-input 1;
#X obj 812 298 lzr/midi-input 17;
#N canvas 220 231 450 300 \$0-apc-midimix 0;
#X obj 144 47 inlet;
#X obj 143 235 outlet;
#X restore 812 347 pd \$0-apc-midimix;
#X obj 1135 272 inlet;
#X text 1132 243 from global event bus;
#X obj 1135 758 outlet;
#X text 1125 782 to global event bus;
#X obj 592 758 outlet;
#X obj 652 758 outlet;
#X obj 712 758 outlet;
#X obj 772 758 outlet;
#X obj 832 758 outlet;
#X obj 892 758 outlet;
#X obj 952 758 outlet;
#X obj 1012 758 outlet;
#X text 752 791 midi tracks 1 - 8;
#X obj 20 678 outlet~;
#X obj 87 677 outlet~;
#X obj 158 676 outlet~;
#X obj 231 673 outlet~;
#X obj 305 673 outlet~;
#X obj 370 673 outlet~;
#X obj 453 668 outlet~;
#X obj 527 670 outlet~;
#X obj 30 710 outlet~;
#X obj 105 709 outlet~;
#X obj 177 701 outlet~;
#X obj 250 702 outlet~;
#X obj 316 703 outlet~;
#X obj 390 699 outlet~;
#X obj 464 693 outlet~;
#X obj 533 694 outlet~;
#X connect 0 0 8 0;
#X connect 1 0 9 0;
#X connect 2 0 10 0;
#X connect 3 0 11 0;
#X connect 4 0 12 0;
#X connect 5 0 13 0;
#X connect 6 0 14 0;
#X connect 7 0 15 0;
#X connect 8 0 41 0;
#X connect 9 0 49 0;
#X connect 12 0 42 0;
#X connect 12 0 50 0;
#X connect 18 0 16 0;
#X connect 19 0 17 0;
#X connect 20 0 38 0;
#X connect 21 0 39 0;
#X connect 22 0 30 0;
#X connect 24 0 30 0;
#X connect 25 0 24 0;
#X connect 26 0 27 0;
#X connect 27 0 30 0;
#X connect 28 0 22 0;
#X restore 717 127 pd \$0-input -----------------------------------------------
;
#X obj 1222 396 lzr/session-midi-track \$0 8;
#X obj 6 395 lzr/session-track \$0 1;
#X obj 180 395 lzr/session-track \$0 2;
#X obj 354 395 lzr/session-track \$0 3;
#X obj 528 395 lzr/session-track \$0 4;
#X obj 702 395 lzr/session-track \$0 5;
#X obj 876 395 lzr/session-track \$0 6;
#X obj 47 98 declare -path .;
#X obj 954 1028 t b a;
#X obj 1064 706 lzr/pp add-effect;
#X connect 0 0 2 0;
#X connect 0 1 2 1;
#X connect 0 2 2 0;
#X connect 0 3 2 1;
#X connect 0 4 2 0;
#X connect 0 5 2 1;
#X connect 0 6 2 0;
#X connect 0 7 2 1;
#X connect 0 8 2 0;
#X connect 0 9 2 1;
#X connect 0 10 2 0;
#X connect 0 11 2 1;
#X connect 0 12 2 0;
#X connect 0 13 2 1;
#X connect 0 14 2 0;
#X connect 0 15 2 1;
#X connect 0 16 9 0;
#X connect 1 0 9 0;
#X connect 2 0 9 0;
#X connect 6 2 9 0;
#X connect 8 0 9 0;
#X connect 18 0 9 0;
#X connect 19 0 0 0;
#X connect 19 1 0 1;
#X connect 19 3 0 2;
#X connect 19 4 0 3;
#X connect 19 6 0 4;
#X connect 19 7 0 5;
#X connect 19 9 0 6;
#X connect 19 10 0 7;
#X connect 19 12 0 8;
#X connect 19 13 0 9;
#X connect 19 15 0 10;
#X connect 19 16 0 11;
#X connect 19 18 0 12;
#X connect 19 19 0 13;
#X connect 19 21 0 14;
#X connect 19 22 0 15;
#X connect 19 24 9 0;
#X connect 20 0 19 20;
#X connect 20 1 9 0;
#X connect 21 0 8 0;
#X connect 21 0 18 0;
#X connect 21 0 1 0;
#X connect 21 0 6 0;
#X connect 21 0 32 0;
#X connect 21 0 5 0;
#X connect 21 0 2 2;
#X connect 21 0 0 16;
#X connect 21 0 30 0;
#X connect 21 0 20 1;
#X connect 21 0 19 24;
#X connect 21 0 33 1;
#X connect 21 0 34 3;
#X connect 21 0 35 3;
#X connect 21 0 36 3;
#X connect 21 0 37 3;
#X connect 21 0 38 3;
#X connect 21 0 39 3;
#X connect 22 0 42 0;
#X connect 23 0 42 0;
#X connect 24 0 42 0;
#X connect 25 0 42 0;
#X connect 26 0 42 0;
#X connect 27 0 9 0;
#X connect 28 0 9 0;
#X connect 29 0 31 0;
#X connect 30 0 29 0;
#X connect 32 0 34 0;
#X connect 32 1 34 1;
#X connect 32 2 35 0;
#X connect 32 3 35 1;
#X connect 32 4 36 0;
#X connect 32 5 36 1;
#X connect 32 6 37 0;
#X connect 32 7 37 1;
#X connect 32 8 38 0;
#X connect 32 9 38 1;
#X connect 32 10 39 0;
#X connect 32 11 39 1;
#X connect 32 16 34 2;
#X connect 32 17 35 2;
#X connect 32 18 36 2;
#X connect 32 19 37 2;
#X connect 32 20 38 2;
#X connect 32 21 39 2;
#X connect 32 22 20 0;
#X connect 32 23 33 0;
#X connect 32 24 9 0;
#X connect 33 0 19 23;
#X connect 33 1 9 0;
#X connect 34 0 19 0;
#X connect 34 1 19 1;
#X connect 34 2 19 2;
#X connect 34 3 9 0;
#X connect 35 0 19 3;
#X connect 35 1 19 4;
#X connect 35 2 19 5;
#X connect 35 3 9 0;
#X connect 36 0 19 6;
#X connect 36 1 19 7;
#X connect 36 2 19 8;
#X connect 36 3 9 0;
#X connect 37 0 19 9;
#X connect 37 1 19 10;
#X connect 37 2 19 11;
#X connect 37 3 9 0;
#X connect 38 1 19 13;
#X connect 38 2 19 14;
#X connect 38 3 9 0;
#X connect 39 0 19 15;
#X connect 39 1 19 16;
#X connect 39 2 19 17;
#X connect 39 3 9 0;
#X connect 41 1 9 0;
#X connect 42 0 41 0;
#X coords 0 -1 1 1 1400 880 2 0 300;
#X restore 2 2 pd \$0-implementation;
#X coords 0 0 1 1 500 500 0;
