#N struct 1229-template float w float h float w2 float h2 float border-color
float background-color float behind-color float shadow-color float
levitation;
#N struct 1235-template float w float h float w2 float h2 float border-color
float background-color float behind-color float shadow-color float
levitation;
#N struct 1239-template float w float h float w2 float h2 float border-color
float background-color float behind-color float shadow-color float
levitation;
#N struct 1254-template float w float h float w2 float h2 float border-color
float background-color float behind-color float shadow-color float
levitation;
#N struct 1257-template float w float h float w2 float h2 float border-color
float background-color float behind-color float shadow-color float
levitation;
#N struct 1260-template float w float h float w2 float h2 float border-color
float background-color float behind-color float shadow-color float
levitation;
#N struct 1263-template float w float h float w2 float h2 float border-color
float background-color float behind-color float shadow-color float
levitation;
#N struct 1266-template float w float h float w2 float h2 float border-color
float background-color float behind-color float shadow-color float
levitation;
#N struct 1269-template float w float h float w2 float h2 float border-color
float background-color float behind-color float shadow-color float
levitation;
#N struct 1272-template float w float h float w2 float h2 float border-color
float background-color float behind-color float shadow-color float
levitation;
#N struct 1275-template float w float h float w2 float h2 float border-color
float background-color float behind-color float shadow-color float
levitation;
#N struct 1319-template float w float h float w2 float h2 float border-color
float background-color float behind-color float shadow-color float
levitation float text-color symbol label float boxpos float symbolpos
;
#N struct 1323-template float w float h float w2 float h2 float border-color
float background-color float behind-color float shadow-color float
levitation float text-color symbol label float boxpos float symbolpos
;
#N struct 1327-template float w float h float w2 float h2 float border-color
float background-color float behind-color float shadow-color float
levitation float text-color symbol label float boxpos float symbolpos
;
#N struct 1331-template float w float h float w2 float h2 float border-color
float background-color float behind-color float shadow-color float
levitation float text-color symbol label float boxpos float symbolpos
;
#N struct 1335-template float w float h float w2 float h2 float border-color
float background-color float behind-color float shadow-color float
levitation float text-color symbol label float boxpos float symbolpos
;
#N struct 1339-template float w float h float w2 float h2 float border-color
float background-color float behind-color float shadow-color float
levitation float text-color symbol label float boxpos float symbolpos
;
#N struct 1343-template float w float h float w2 float h2 float border-color
float background-color float behind-color float shadow-color float
levitation float text-color symbol label float boxpos float symbolpos
;
#N canvas 211 22 1440 905 10;
#N canvas 184 22 1457 899 \$0-implementation 0;
#N canvas 0 22 1440 768 mixer 0;
#X obj 105 274 mmb/mixstrip2.mmb~ \$0;
#X obj 180 274 mmb/mixstrip2.mmb~ \$0;
#X obj 255 274 mmb/mixstrip2.mmb~ \$0;
#X obj 330 274 mmb/mixstrip2.mmb~ \$0;
#X obj 405 274 mmb/mixstrip2.mmb~ \$0;
#X obj 480 274 mmb/mixstrip2.mmb~ \$0;
#X obj 555 274 mmb/mixstrip2.mmb~ \$0;
#X obj 630 274 mmb/mixstrip2.mmb~ \$0;
#X obj 104 211 inlet~;
#X obj 127 188 inlet~;
#X obj 182 211 inlet~;
#X obj 205 188 inlet~;
#X obj 256 212 inlet~;
#X obj 279 189 inlet~;
#X obj 334 212 inlet~;
#X obj 357 189 inlet~;
#X obj 405 210 inlet~;
#X obj 428 187 inlet~;
#X obj 483 210 inlet~;
#X obj 506 187 inlet~;
#X obj 557 211 inlet~;
#X obj 580 188 inlet~;
#X obj 635 211 inlet~;
#X obj 658 188 inlet~;
#X msg 969 459 clear;
#X obj 911 183 t b b;
#X msg 889 213 dump;
#X obj 741 212 inlet;
#X obj 113 518 prepend add;
#X obj 101 494 t a;
#X obj 96 702 mmb/save.me.mmb mixer-channel1 \$0-persist;
#X obj 193 521 prepend add;
#X obj 181 497 t a;
#X obj 267 519 prepend add;
#X obj 255 495 t a;
#X obj 170 680 mmb/save.me.mmb mixer-channel2 \$0-persist;
#X obj 250 656 mmb/save.me.mmb mixer-channel3 \$0-persist;
#X obj 347 517 prepend add;
#X obj 335 493 t a;
#X obj 325 634 mmb/save.me.mmb mixer-channel4 \$0-persist;
#X obj 420 516 prepend add;
#X obj 408 492 t a;
#X obj 382 610 mmb/save.me.mmb mixer-channel5 \$0-persist;
#X obj 493 519 prepend add;
#X obj 481 495 t a;
#X obj 475 589 mmb/save.me.mmb mixer-channel6 \$0-persist;
#X obj 567 520 prepend add;
#X obj 555 496 t a;
#X obj 545 568 mmb/save.me.mmb mixer-channel7 \$0-persist;
#X obj 643 520 prepend add;
#X obj 631 496 t a;
#X obj 617 546 mmb/save.me.mmb mixer-channel8 \$0-persist;
#X obj 911 161 r \$0-persist;
#X obj 57 -17 catch~ \$0-track1-mixer-left;
#X obj 73 2 catch~ \$0-track1-mixer-right;
#X obj 91 22 catch~ \$0-track2-mixer-left;
#X obj 107 41 catch~ \$0-track2-mixer-right;
#X obj 150 62 catch~ \$0-track3-mixer-left;
#X obj 166 81 catch~ \$0-track3-mixer-right;
#X obj 187 100 catch~ \$0-track4-mixer-left;
#X obj 211 119 catch~ \$0-track4-mixer-right;
#X obj 321 -1 catch~ \$0-track5-mixer-left;
#X obj 337 18 catch~ \$0-track5-mixer-right;
#X obj 380 39 catch~ \$0-track6-mixer-left;
#X obj 396 58 catch~ \$0-track6-mixer-right;
#X obj 441 79 catch~ \$0-track7-mixer-left;
#X obj 460 98 catch~ \$0-track7-mixer-right;
#X obj 500 119 catch~ \$0-track8-mixer-left;
#X obj 526 138 catch~ \$0-track8-mixer-right;
#X obj 863 120 route save-parameters mixer-param;
#X obj 649 46 route 1 2 3 4 5 6 7 8;
#X obj 863 87 inlet;
#X text 840 66 from global event bus;
#X connect 0 2 28 0;
#X connect 1 2 31 0;
#X connect 2 2 33 0;
#X connect 3 2 37 0;
#X connect 4 2 40 0;
#X connect 5 2 43 0;
#X connect 6 2 46 0;
#X connect 7 2 49 0;
#X connect 8 0 0 0;
#X connect 9 0 0 1;
#X connect 10 0 1 0;
#X connect 11 0 1 1;
#X connect 12 0 2 0;
#X connect 13 0 2 1;
#X connect 14 0 3 0;
#X connect 15 0 3 1;
#X connect 16 0 4 0;
#X connect 17 0 4 1;
#X connect 18 0 5 0;
#X connect 19 0 5 1;
#X connect 20 0 6 0;
#X connect 21 0 6 1;
#X connect 22 0 7 0;
#X connect 23 0 7 1;
#X connect 24 0 30 1;
#X connect 24 0 35 1;
#X connect 24 0 36 1;
#X connect 24 0 39 1;
#X connect 24 0 42 1;
#X connect 24 0 45 1;
#X connect 24 0 48 1;
#X connect 24 0 51 1;
#X connect 25 0 26 0;
#X connect 25 1 24 0;
#X connect 26 0 0 2;
#X connect 26 0 1 2;
#X connect 26 0 2 2;
#X connect 26 0 3 2;
#X connect 26 0 4 2;
#X connect 26 0 5 2;
#X connect 26 0 6 2;
#X connect 26 0 7 2;
#X connect 28 0 30 0;
#X connect 29 0 0 2;
#X connect 30 0 29 0;
#X connect 31 0 35 0;
#X connect 32 0 1 2;
#X connect 33 0 36 0;
#X connect 34 0 2 2;
#X connect 35 0 32 0;
#X connect 36 0 34 0;
#X connect 37 0 39 0;
#X connect 38 0 3 2;
#X connect 39 0 38 0;
#X connect 40 0 42 0;
#X connect 41 0 4 2;
#X connect 42 0 41 0;
#X connect 43 0 45 0;
#X connect 44 0 5 2;
#X connect 45 0 44 0;
#X connect 46 0 48 0;
#X connect 47 0 6 2;
#X connect 48 0 47 0;
#X connect 49 0 51 0;
#X connect 50 0 7 2;
#X connect 51 0 50 0;
#X connect 52 0 25 0;
#X connect 53 0 0 0;
#X connect 54 0 0 1;
#X connect 55 0 1 0;
#X connect 56 0 1 1;
#X connect 57 0 2 0;
#X connect 58 0 2 1;
#X connect 59 0 3 0;
#X connect 60 0 3 1;
#X connect 61 0 4 0;
#X connect 62 0 4 1;
#X connect 63 0 5 0;
#X connect 64 0 5 1;
#X connect 65 0 6 0;
#X connect 66 0 6 1;
#X connect 67 0 7 0;
#X connect 68 0 7 1;
#X connect 69 0 25 0;
#X connect 69 1 70 0;
#X connect 70 0 0 2;
#X connect 70 1 1 2;
#X connect 70 2 2 2;
#X connect 70 3 3 2;
#X connect 70 4 4 2;
#X connect 70 5 5 2;
#X connect 70 6 6 2;
#X connect 70 7 7 2;
#X connect 71 0 69 0;
#X coords 0 -1 1 1 605 220 2 100 270;
#X restore 5 956 pd mixer;
#N canvas 234 22 1411 918 persist-presets 0;
#X obj 15 17 bng 15 250 50 0 \$0-load-project.gui empty empty 17 7
0 10 -262144 -1 -1;
#X text 33 15 Load;
#X obj 15 40 bng 15 250 50 0 \$0-save-project.gui empty empty 17 7
0 10 -262144 -1 -1;
#X text 33 39 Save;
#X obj 722 678 textfile;
#X msg 727 565 clear;
#X msg 857 488 save;
#X msg 654 583 write \$1;
#X obj 982 416 textfile;
#X msg 982 378 read \$1 \, rewind \, bang;
#X obj 926 464 t b a;
#X obj 857 525 mmb/my.hero.mmb \$0-persist;
#X obj 15 63 bng 15 250 50 0 \$0-save-project-as.gui empty empty 17
7 0 10 -262144 -1 -1;
#X text 33 62 Save As;
#X obj 949 141 r \$0-load-project.gui;
#X obj 253 93 r \$0-save-project.gui;
#X obj 10 91 cnv 15 100 60 \$0-project-name.gui \$0-project-name.gui.set
Empty 20 12 0 14 -233017 -66577 0;
#X msg 359 479 label \$1;
#X obj 359 502 s \$0-project-name.gui.set;
#X obj 766 141 r \$0-save-project-as.gui;
#X obj 253 499 moses 1;
#X obj 292 769 t a;
#X obj 517 786 t a;
#X obj 564 609 t a;
#X obj 564 206 t a;
#X obj 253 448 int;
#X msg 268 424 1;
#X text 128 450 has the project;
#X text 128 468 been saved?;
#X obj 292 675 symbol;
#X obj 292 646 t b;
#X obj 359 448 splitfilename;
#X msg 631 506 saving \$1;
#X msg 1156 402 loading \$1;
#X text 352 241 change current project;
#X text 562 121 on loadbang;
#X obj 982 266 t a;
#X text 361 593 show save dialog;
#X text 303 792 save project to this location;
#X obj 306 240 t a;
#X text 103 672 path to current project;
#N canvas 572 64 862 838 \$0-project-chooser 0;
#X obj 353 330 hcs/sys_gui;
#X msg 353 303 file mkdir \$1;
#X obj 185 250 makefilename %s/audio;
#X obj 353 249 makefilename %s/midi;
#X obj 583 19 inlet;
#X obj 353 743 outlet;
#X obj 185 329 hcs/sys_gui;
#X msg 185 302 file mkdir \$1;
#X obj 511 248 t a;
#X obj 353 403 symbol;
#X obj 353 436 spigot;
#X obj 353 517 spigot;
#X msg 409 403 1;
#X msg 386 477 1;
#X obj 353 370 t b b;
#X obj 185 372 t b b;
#X obj 511 321 t a;
#X msg 479 419 0;
#X obj 334 213 t s s s;
#X text 412 536 reset spigots;
#X obj 372 577 makefilename %s/project.txt;
#X obj 353 547 t s s b;
#X obj 577 749 outlet;
#X obj 266 182 tof/folderpanel;
#X obj 583 48 route save load;
#X obj 646 749 outlet;
#X text 84 442 The goal of this whole block here -->;
#X text 53 482 is to output the folder path only when -->;
#X text 88 525 we get both bangs from sys_gui's -->;
#X text 579 765 save;
#X text 344 768 project directory;
#X text 653 769 load;
#X obj 646 634 spigot;
#X msg 679 561 1;
#X obj 646 692 t s b;
#X msg 751 560 0;
#X obj 652 76 t a b;
#X obj 577 635 spigot;
#X msg 610 561 1;
#X obj 577 693 t s b;
#X obj 583 77 t a b;
#X obj 577 605 t a;
#X obj 673 715 t a;
#X obj 690 601 t a;
#X obj 334 156 route bang;
#X obj 391 181 symbol;
#X connect 0 0 14 0;
#X connect 1 0 0 0;
#X connect 2 0 7 0;
#X connect 3 0 1 0;
#X connect 4 0 24 0;
#X connect 6 0 15 0;
#X connect 7 0 6 0;
#X connect 8 0 16 0;
#X connect 9 0 10 0;
#X connect 10 0 11 0;
#X connect 11 0 21 0;
#X connect 12 0 10 1;
#X connect 13 0 11 1;
#X connect 14 0 9 0;
#X connect 14 1 12 0;
#X connect 15 0 9 0;
#X connect 15 1 13 0;
#X connect 16 0 9 1;
#X connect 17 0 10 1;
#X connect 17 0 11 1;
#X connect 18 0 2 0;
#X connect 18 1 3 0;
#X connect 18 2 8 0;
#X connect 20 0 41 0;
#X connect 21 0 5 0;
#X connect 21 1 20 0;
#X connect 21 2 17 0;
#X connect 23 0 18 0;
#X connect 24 0 40 0;
#X connect 24 1 36 0;
#X connect 32 0 34 0;
#X connect 33 0 32 1;
#X connect 34 0 25 0;
#X connect 34 1 42 0;
#X connect 35 0 43 0;
#X connect 36 0 44 0;
#X connect 36 1 33 0;
#X connect 37 0 39 0;
#X connect 38 0 37 1;
#X connect 39 0 22 0;
#X connect 39 1 42 0;
#X connect 40 0 44 0;
#X connect 40 1 38 0;
#X connect 41 0 37 0;
#X connect 41 0 32 0;
#X connect 42 0 35 0;
#X connect 43 0 32 1;
#X connect 43 0 37 1;
#X connect 44 0 23 0;
#X connect 44 1 45 0;
#X connect 45 0 18 0;
#X restore 859 223 pd \$0-project-chooser;
#X msg 949 175 load;
#X msg 766 177 save;
#X obj 306 378 t b s s;
#X msg 253 522 save;
#X obj 253 575 t a;
#N canvas 242 50 1295 801 \$0-remember-last-project 0;
#X obj 794 685 textfile;
#X obj 144 68 loadbang;
#X obj 144 172 textfile;
#X obj 44 699 outlet;
#X text 57 664 outputs last opened project name;
#X text 57 678 on loadbang;
#X obj 122 69 bng 15 250 50 0 empty empty empty 17 7 0 10 -262144 -1
-1;
#X obj 46 508 zexy/list2symbol;
#X text 70 487 handle spaces in filename;
#X obj 41 286 t a;
#X obj 41 83 t a;
#X msg 144 98 read state/state.txt \, rewind \, bang;
#X obj 144 203 t b a a;
#X obj 854 61 route loading saving midi-autoconnect;
#X msg 862 574 clear;
#X msg 502 575 write state/state.txt;
#X obj 470 446 lzr/prepend set;
#X obj 670 510 lzr/assoc;
#X obj 824 123 lzr/prepend last-project;
#X obj 697 445 lzr/prepend set;
#X obj 1024 232 lzr/prepend midi-autoconnect;
#X obj 670 574 lzr/prepend add;
#X obj 704 320 t b b a b;
#X msg 633 445 get-all;
#X obj 146 392 route last-project midi-autoconnect;
#X obj 297 498 lzr/prepend midi-autoconnect-set;
#X obj 297 451 zexy/list2symbol;
#X obj 854 26 inlet;
#X text 840 8 from global event bus;
#X obj 389 703 outlet;
#X text 388 727 to global event bus;
#X connect 1 0 11 0;
#X connect 2 0 12 0;
#X connect 6 0 11 0;
#X connect 7 0 3 0;
#X connect 9 0 10 0;
#X connect 10 0 2 0;
#X connect 11 0 2 0;
#X connect 12 0 9 0;
#X connect 12 1 24 0;
#X connect 12 2 16 0;
#X connect 13 0 18 0;
#X connect 13 1 18 0;
#X connect 13 2 20 0;
#X connect 14 0 0 0;
#X connect 15 0 0 0;
#X connect 16 0 17 0;
#X connect 17 0 21 0;
#X connect 18 0 22 0;
#X connect 19 0 17 0;
#X connect 20 0 22 0;
#X connect 21 0 0 0;
#X connect 22 0 15 0;
#X connect 22 1 23 0;
#X connect 22 2 19 0;
#X connect 22 3 14 0;
#X connect 23 0 17 0;
#X connect 24 0 7 0;
#X connect 24 1 26 0;
#X connect 25 0 29 0;
#X connect 26 0 25 0;
#X connect 27 0 13 0;
#X restore 553 102 pd \$0-remember-last-project;
#X text 954 241 load;
#X text 833 300 save;
#X obj 517 592 t a;
#X obj 631 482 splitfilename;
#X obj 1156 379 splitfilename;
#X obj 80 12 bng 8 250 50 0 empty empty empty 17 7 0 10 -262144 -1
-1;
#X obj 97 48 iemguts/sendcanvas;
#X msg 97 24 vis 1;
#X msg 209 364 bang;
#N canvas 687 29 682 858 \$0-project-params-storage 0;
#X obj 43 48 inlet;
#X obj 28 189 outlet;
#X msg 121 96;
#X text 122 25 just a message box \;;
#X text 124 42 mmm/my.hero.mmb knows;
#X text 122 58 how to save all project;
#X text 123 74 settings here;
#X connect 0 0 2 0;
#X connect 2 0 1 0;
#X restore 845 613 pd \$0-project-params-storage;
#X obj 1109 702 t a;
#X obj 926 377 t a;
#X msg 1190 599 force-track-number 1;
#X text 1203 619 to track switcher;
#X text 1205 635 GUI;
#X msg 657 740 save-parameters;
#X obj 1138 62 route clip-params;
#N canvas 259 236 640 437 \$0-save-clip-params 0;
#X obj 104 119 prepend add;
#X obj 104 64 inlet;
#X obj 104 223 prepend set-clip-param;
#X obj 104 275 outlet;
#X obj 104 163 mmb/save.me.mmb clip-params \$0-persist;
#X obj 367 64 inlet;
#X text 354 8 bang to initiate;
#X text 353 22 saving process;
#X text 348 41 (clears all saved data);
#X msg 367 112 clear;
#X connect 0 0 4 0;
#X connect 1 0 0 0;
#X connect 2 0 3 0;
#X connect 4 0 2 0;
#X connect 5 0 9 0;
#X connect 9 0 4 1;
#X restore 1138 102 pd \$0-save-clip-params;
#X obj 1281 377 t a;
#X obj 810 404 t s s b b b b b;
#X obj 912 284 t a;
#X obj 1327 350 t a;
#X obj 1327 70 t a;
#X obj 1138 34 inlet;
#X text 1132 15 from global event bus;
#X obj 631 797 outlet;
#X text 615 819 to global event bus;
#X obj 958 491 lzr/prepend load;
#X obj 740 653 lzr/prepend add;
#X obj 553 177 lzr/prepend load;
#X obj 292 711 lzr/prepend save;
#X text 562 150 opened project;
#X text 562 135 outputs last;
#X obj 594 483 t a;
#X connect 5 0 4 0;
#X connect 6 0 11 0;
#X connect 7 0 4 0;
#X connect 8 0 10 0;
#X connect 8 1 60 0;
#X connect 9 0 8 0;
#X connect 10 0 59 0;
#X connect 10 1 75 0;
#X connect 11 0 57 0;
#X connect 14 0 42 0;
#X connect 15 0 25 0;
#X connect 17 0 18 0;
#X connect 19 0 43 0;
#X connect 20 0 45 0;
#X connect 20 1 30 0;
#X connect 21 0 22 0;
#X connect 22 0 50 0;
#X connect 23 0 24 0;
#X connect 24 0 41 0;
#X connect 25 0 20 0;
#X connect 26 0 25 1;
#X connect 29 0 78 0;
#X connect 30 0 29 0;
#X connect 31 1 17 0;
#X connect 32 0 73 0;
#X connect 33 0 58 0;
#X connect 36 0 9 0;
#X connect 36 0 52 0;
#X connect 39 0 44 0;
#X connect 41 0 39 0;
#X connect 41 1 67 0;
#X connect 41 2 36 0;
#X connect 42 0 41 0;
#X connect 43 0 41 0;
#X connect 44 0 26 0;
#X connect 44 1 29 1;
#X connect 44 2 31 0;
#X connect 45 0 46 0;
#X connect 46 0 50 0;
#X connect 47 0 77 0;
#X connect 47 1 81 0;
#X connect 50 0 23 0;
#X connect 51 0 32 0;
#X connect 52 0 33 0;
#X connect 53 0 55 0;
#X connect 55 0 54 0;
#X connect 56 0 25 0;
#X connect 57 0 76 0;
#X connect 58 0 73 0;
#X connect 59 0 8 0;
#X connect 60 0 58 0;
#X connect 63 0 73 0;
#X connect 64 0 65 0;
#X connect 65 0 66 0;
#X connect 66 0 58 0;
#X connect 67 0 51 0;
#X connect 67 1 7 0;
#X connect 67 2 57 0;
#X connect 67 3 6 0;
#X connect 67 4 5 0;
#X connect 67 5 63 0;
#X connect 67 6 68 0;
#X connect 68 0 69 0;
#X connect 69 0 70 0;
#X connect 70 0 65 1;
#X connect 71 0 64 0;
#X connect 71 0 47 0;
#X connect 75 0 11 0;
#X connect 76 0 4 0;
#X connect 77 0 24 0;
#X connect 78 0 21 0;
#X connect 81 0 73 0;
#X coords 0 -1 1 1 80 80 2 10 10;
#X restore 1311 1093 pd persist-presets;
#N canvas 413 118 703 525 mixer-master 0;
#X obj 106 334 dac~;
#X obj 130 43 t b b;
#X msg 108 73 dump;
#X obj 130 21 r \$0-persist;
#X msg 235 132 clear;
#X obj 37 194 t a;
#X obj 154 433 prepend add;
#X obj 108 468 mmb/save.me.mmb mixer-master \$0-persist;
#X obj 89 38 bng 15 250 50 0 empty empty empty 17 7 0 10 -262144 -1
-1;
#X obj 105 104 mixstripmaster \$0;
#X obj 315 68 route mixer-param;
#X obj 315 95 route 0;
#X obj 315 42 inlet;
#X text 287 19 from global event bus;
#X connect 1 0 2 0;
#X connect 1 1 4 0;
#X connect 2 0 9 2;
#X connect 3 0 1 0;
#X connect 4 0 7 1;
#X connect 5 0 9 2;
#X connect 6 0 7 0;
#X connect 7 0 5 0;
#X connect 8 0 1 0;
#X connect 9 0 0 0;
#X connect 9 1 0 1;
#X connect 9 2 6 0;
#X connect 10 0 11 0;
#X connect 11 0 9 2;
#X connect 12 0 10 0;
#X coords 0 -1 1 1 80 220 2 100 100;
#X restore 610 956 pd mixer-master;
#N canvas 389 79 1258 800 \$0-cool-stuff 0;
#X obj 45 51 bassemu~;
#X text 46 99 bassemu/examples/simple-sequencer;
#X obj 34 164 bng 15 250 50 0 empty empty empty 17 7 0 10 -262144 -1
-1;
#X obj 100 264 bng 15 250 50 0 empty empty empty 17 7 0 10 -262144
-1 -1;
#X obj 453 369 jmmmp/lbang;
#X obj 285 297 jmmmp/metrum;
#X text 390 119 sfruit/saveclear;
#X text 151 418 tof/imagebang;
#X text 389 134 sfruit/gop-edit;
#X text 384 158 iemlib/samplerate~;
#X text 393 188 iemguts/canvasargs;
#X text 380 217 pddp/print;
#X text 379 241 mmb/waveform.mmb;
#X text 395 93 mapping/keygate;
#X text 394 73 iemlib/soundfile_info;
#X text 394 51 iemguts/receivecanvas;
#X text 353 31 hcs/get-audio-dialog;
#X text 354 18 hcs/window-name;
#X text 369 265 hcs/screensize;
#X text 372 348 cyclone/active;
#X obj 322 502 qlist;
#X obj 385 447 pdmtl/synth.wind~;
#X obj 27 470 pdmtl/init.dollar.zero.top;
#X text 34 508 ggee/gcanvas;
#X text 390 401 unauthorized/grid;
#X text 408 488 tof/pmenu;
#X text 413 506 sfruit/cpugraph;
#X text 289 542 MouseState!;
#X text 116 361 list-idx: Get element at position idx.;
#X text 34 15 iemguts/canvasdelete;
#X text 124 43 iemguts/sendcanvas;
#X text 45 124 zexy/demultiplex~;
#X obj 104 294 creb/ti_hihat;
#X obj 34 189 creb/ti_snare;
#X connect 2 0 33 0;
#X connect 3 0 32 0;
#X restore 91 193 pd \$0-cool-stuff;
#N canvas 154 88 1193 779 \$0-gui-tricks 0;
#N canvas 298 277 537 413 canvasposition 0;
#X obj 380 43 inlet;
#X obj 387 359 outlet;
#X obj 445 340 outlet;
#X obj 278 45 inlet;
#N canvas 805 348 450 300 canvaspos 0;
#X obj 279 31 inlet;
#X obj 270 192 outlet;
#X obj 340 185 outlet;
#X obj 100 100 cnv 60 60 60 empty empty Test_1 2 13 0 14 -257985 -66577
0;
#X obj 259 99 iemguts/canvasposition;
#X connect 0 0 4 0;
#X connect 4 0 1 0;
#X connect 4 1 2 0;
#X coords 0 -1 1 1 60 60 2 100 100;
#X restore 100 100 pd canvaspos;
#X msg 348 121 map 0 \, map 1;
#N canvas 805 348 450 300 canvaspos 0;
#X obj 279 31 inlet;
#X obj 270 192 outlet;
#X obj 340 185 outlet;
#X obj 100 100 cnv 60 60 60 empty empty Test_2 2 13 0 14 -4034 -66577
0;
#X obj 259 99 iemguts/canvasposition;
#X connect 0 0 4 0;
#X connect 4 0 1 0;
#X connect 4 1 2 0;
#X coords 0 -1 1 1 60 60 2 100 100;
#X restore 100 100 pd canvaspos;
#X obj 347 143 iemguts/sendcanvas 3;
#X connect 0 0 4 0;
#X connect 0 0 5 0;
#X connect 3 0 5 0;
#X connect 3 0 6 0;
#X connect 4 0 1 0;
#X connect 5 0 7 0;
#X coords 0 -1 1 1 60 60 2 100 100;
#X restore 243 344 pd canvasposition;
#X obj 96 113 hsl 128 15 0 200 0 0 empty empty empty -2 -8 0 10 -262144
-1 -1 0 1;
#X floatatom 243 427 5 0 0 0 - - -, f 5;
#X floatatom 296 428 5 0 0 0 - - -, f 5;
#X obj 96 91 hsl 128 15 0 200 0 0 empty empty empty -2 -8 0 10 -262144
-1 -1 0 1;
#X msg 43 137 \$1 100;
#X msg 92 137 \$1 100;
#X msg 282 284 100 100;
#X obj 253 195 bng 15 250 50 0 empty empty empty 17 7 0 10 -262144
-1 -1;
#X msg 367 280 100 100;
#X obj 341 193 bng 15 250 50 0 empty empty empty 17 7 0 10 -262144
-1 -1;
#X msg 280 253 99 99;
#X msg 368 251 99 99;
#X obj 313 63 tgl 15 0 empty empty empty 17 7 0 10 -262144 -1 -1 0
1;
#X obj 313 101 select 0 1;
#N canvas 222 118 860 650 browser 0;
#X msg -106 417 folder \$1;
#X obj -106 362 route folder;
#X obj -106 391 symbol;
#X obj 29 35 mmb/browser.mmb;
#X obj -188 9 jmmmp/lbang;
#X msg -146 228 folder ~/Dropbox/PureData/Effects/;
#X connect 0 0 3 0;
#X connect 1 0 2 0;
#X connect 2 0 0 0;
#X connect 3 0 1 0;
#X connect 4 0 5 0;
#X connect 5 0 3 0;
#X coords 0 -1 1 1 250 200 2 1 1;
#X restore 511 104 pd browser;
#N canvas 527 203 1025 604 \$0-dynamic-size 0;
#X obj 650 109 namecanvas \$0-dynamic-size.canvas;
#X obj 507 393 s \$0-dynamic-size.canvas;
#X obj 506 83 inlet;
#X obj 508 214 select 0 1;
#X text 592 295 donecanvasdialog <x-units> <y-units> <gop> <x-from>
<y-from> <x-to> <y-to> <x-size> <y-size> <x-margin> <y-margin>;
#X obj 473 147 route list float;
#X msg 506 255 100 100 0 0;
#X obj 0 0 cnv 15 100 100 empty empty Canvas_1 15 45 0 14 -4034 -66577
0;
#X obj 100 0 cnv 15 200 100 empty empty Canvas_2 15 45 0 14 -257985
-66577 0;
#X msg 608 255 200 100 100 0;
#X msg 508 344 donecanvasdialog 0 0 2 0 -1 1 1 \$1 \$2 \$3 \$4;
#X obj 16 12 bng 15 250 50 0 \$0-unfold-btn.gui empty Unfold 17 7 0
10 -262144 -1 -1;
#X obj 115 10 bng 15 250 50 0 \$0-fold-btn.gui empty Fold 17 7 0 10
-262144 -1 -1;
#X obj 306 211 r \$0-fold-btn.gui;
#X obj 614 190 r \$0-unfold-btn.gui;
#X obj 318 463 outlet;
#X msg 399 403 bang;
#X connect 2 0 5 0;
#X connect 3 0 6 0;
#X connect 3 1 9 0;
#X connect 5 0 10 0;
#X connect 5 1 3 0;
#X connect 6 0 10 0;
#X connect 9 0 10 0;
#X connect 10 0 1 0;
#X connect 10 0 16 0;
#X connect 13 0 6 0;
#X connect 14 0 9 0;
#X connect 16 0 15 0;
#X coords 0 -1 1 1 200 100 2 100 0;
#X restore 477 420 pd \$0-dynamic-size;
#X obj 477 388 tgl 15 0 empty empty empty 17 7 0 10 -262144 -1 -1 0
1;
#X obj 690 536 namecanvas \$0-gui-tricks.cnv;
#X obj 477 596 s \$0-gui-tricks.cnv;
#X msg 477 567 donecanvasdialog 0 0 0 0 -1 1 1 500 500 100 100;
#X obj 253 223 t b b;
#X obj 341 221 t b b;
#X connect 0 0 2 0;
#X connect 0 1 3 0;
#X connect 1 0 6 0;
#X connect 4 0 5 0;
#X connect 5 0 0 0;
#X connect 6 0 0 1;
#X connect 7 0 0 0;
#X connect 8 0 21 0;
#X connect 9 0 0 1;
#X connect 10 0 22 0;
#X connect 11 0 0 0;
#X connect 12 0 0 1;
#X connect 13 0 14 0;
#X connect 14 0 8 0;
#X connect 14 1 10 0;
#X connect 16 0 20 0;
#X connect 17 0 16 0;
#X connect 20 0 19 0;
#X connect 21 0 7 0;
#X connect 21 1 11 0;
#X connect 22 0 9 0;
#X connect 22 1 12 0;
#X coords 0 0 1 1 500 500 0;
#X restore 91 214 pd \$0-gui-tricks;
#N canvas 443 166 853 545 \$0-messages 0;
#X text 30 29 \$0-global-events:;
#X text 41 47 - play;
#X text 41 62 - pause;
#X text 41 76 - stop;
#X text 41 91 - record;
#X text 41 106 - tick beat <tick_number>;
#X text 40 121 - set-current-track <track_number>;
#X text 36 204 \$0-windowsize: Every second a bang is sent here;
#X text 88 222 in order to check if window size changed;
#X text 41 138 - main-window-redraw;
#X text 41 154 - save-parameters;
#X restore 91 235 pd \$0-messages;
#N canvas 483 227 359 206 \$0-debugger 0;
#X obj 107 155 print \$0-global-event;
#X obj 107 97 spigot;
#X obj 146 62 tgl 15 0 empty empty empty 17 7 0 10 -262144 -1 -1 0
1;
#X obj 107 17 inlet;
#X connect 1 0 0 0;
#X connect 2 0 1 1;
#X connect 3 0 1 0;
#X restore 91 172 pd \$0-debugger;
#N canvas 185 160 818 775 \$0-bpm 0;
#X obj 408 180 metro;
#X obj 408 208 bng 15 250 50 0 empty empty empty 17 7 0 10 -262144
-1 -1;
#X obj 454 137 /;
#X msg 418 112 60000;
#X text 485 111 compute milliseconds between ticks;
#X text 498 127 (60000 / BPM);
#X obj 442 88 t b f;
#X obj 442 59 r \$0-bpm.gui;
#X obj 423 396 r \$0-timesig.gui;
#X obj 408 279 int;
#X obj 448 280 + 1;
#X floatatom 408 333 16 0 0 0 - - -, f 16;
#X text 306 334 beat counter;
#X obj 408 418 mod;
#X floatatom 408 444 5 0 0 0 - - -, f 5;
#X text 257 440 beat within the bar;
#X text 470 509 weak beat;
#X obj 485 535 t b b b;
#X obj 324 533 t b b b;
#X text 287 504 strong beat;
#X obj 421 653 list prepend \$0;
#X msg 421 679 \; \$1-beat-light.gui color \$2;
#X msg 363 606 2;
#X msg 524 604 13;
#X msg 421 605 4;
#X obj 421 581 del 200;
#N canvas 188 88 692 738 \$0-metronome-sound 0;
#X obj 121 -112 inlet;
#X obj 261 -112 inlet;
#X obj 44 101 *~;
#X obj 59 61 line~;
#X obj 59 28 1 50;
#X obj 121 28 0 50;
#X obj 121 6 delay 50;
#X obj 81 178 hip~ 3;
#X obj 143 178 hip~ 3;
#X text 187 179 filter out DC;
#X obj 184 91 *~;
#X obj 199 51 line~;
#X obj 199 16 1 50;
#X obj 261 13 0 50;
#X obj 261 -10 delay 50;
#X obj 184 -69 osc~ 440;
#X obj 44 -68 osc~ 500;
#X obj 121 -21 t a;
#X obj 261 -35 t a;
#X obj 273 409 line~;
#X obj 81 493 *~;
#X obj 101 523 dac~;
#X obj 143 492 *~;
#X obj 143 522 outlet~;
#X obj 43 522 outlet~;
#X obj 273 388 pack 0 50;
#X text 340 387 <-- make a ramp to avoid clicks or zipper noise;
#X msg 273 344 0;
#X obj 273 319 moses 0.011;
#X obj 225 522 outlet;
#X obj 225 265 r \$0-metro-volume.gui;
#X connect 0 0 17 0;
#X connect 1 0 18 0;
#X connect 2 0 7 0;
#X connect 2 0 8 0;
#X connect 3 0 2 1;
#X connect 4 0 3 0;
#X connect 5 0 3 0;
#X connect 6 0 5 0;
#X connect 7 0 20 0;
#X connect 8 0 22 0;
#X connect 10 0 7 0;
#X connect 10 0 8 0;
#X connect 11 0 10 1;
#X connect 12 0 11 0;
#X connect 13 0 11 0;
#X connect 14 0 13 0;
#X connect 15 0 10 0;
#X connect 16 0 2 0;
#X connect 17 0 4 0;
#X connect 17 0 6 0;
#X connect 18 0 14 0;
#X connect 18 0 12 0;
#X connect 19 0 22 1;
#X connect 19 0 20 1;
#X connect 20 0 21 0;
#X connect 20 0 24 0;
#X connect 22 0 21 1;
#X connect 22 0 23 0;
#X connect 25 0 19 0;
#X connect 27 0 25 0;
#X connect 28 0 27 0;
#X connect 28 1 25 0;
#X connect 30 0 28 0;
#X connect 30 0 29 0;
#X restore 203 607 pd \$0-metronome-sound;
#X msg 554 371 tick beat \$1;
#X msg 345 137 1;
#X msg 305 137 0;
#X obj 264 96 route stop pause play;
#X obj 408 490 sel 1;
#X text 267 453 (counting from 0);
#X text 557 416 send a tick event;
#X text 556 430 to the global bus of events;
#N canvas 1027 359 579 463 \$0-persist-parameters 0;
#X obj 20 68 s \$0-bpm.gui.set;
#X obj 20 42 mmb/save.me.mmb bpm \$0-persist;
#X obj 21 109 r \$0-timesig.gui;
#X obj 21 133 mmb/save.me.mmb timesig \$0-persist;
#X obj 21 159 s \$0-timesig.gui.set;
#X obj 22 205 r \$0-metro-volume.gui;
#X obj 22 229 mmb/save.me.mmb metro-volume \$0-persist;
#X obj 22 255 s \$0-metro-volume.gui.set;
#X obj 20 18 r \$0-bpm.gui;
#X connect 1 0 0 0;
#X connect 2 0 3 0;
#X connect 3 0 4 0;
#X connect 5 0 6 0;
#X connect 6 0 7 0;
#X connect 8 0 1 0;
#X restore 12 99 pd \$0-persist-parameters;
#X obj 264 62 inlet;
#X text 260 37 from global bus;
#X obj 554 396 outlet;
#X obj 10 10 lzr/border 105 55;
#X floatatom 14 15 5 20 300 1 BPM #0-bpm.gui.set #0-bpm.gui, f 5;
#X floatatom 78 16 2 1 9 1 /4 #0-timesig.gui.set #0-timesig.gui, f
2;
#X obj 102 51 cnv 5 5 5 empty \$0-beat-light.gui empty 20 12 0 14 -261681
-262144 0;
#X obj 16 42 hsl 80 15 0.01 1 1 0 \$0-metro-volume.gui \$0-metro-volume.gui.set
volume 3 8 1 10 -245500 -13381 -1 4800 0;
#X connect 0 0 1 0;
#X connect 1 0 9 0;
#X connect 2 0 0 1;
#X connect 3 0 2 0;
#X connect 6 0 3 0;
#X connect 6 1 2 1;
#X connect 7 0 6 0;
#X connect 8 0 13 1;
#X connect 9 0 10 0;
#X connect 9 0 11 0;
#X connect 10 0 9 1;
#X connect 11 0 13 0;
#X connect 11 0 27 0;
#X connect 13 0 14 0;
#X connect 14 0 31 0;
#X connect 17 0 26 1;
#X connect 17 1 25 0;
#X connect 17 2 23 0;
#X connect 18 0 26 0;
#X connect 18 1 25 0;
#X connect 18 2 22 0;
#X connect 20 0 21 0;
#X connect 22 0 20 0;
#X connect 23 0 20 0;
#X connect 24 0 20 0;
#X connect 25 0 24 0;
#X connect 27 0 38 0;
#X connect 28 0 0 0;
#X connect 29 0 0 0;
#X connect 29 0 10 0;
#X connect 30 0 29 0;
#X connect 30 1 29 0;
#X connect 30 2 28 0;
#X connect 31 0 18 0;
#X connect 31 1 17 0;
#X connect 36 0 30 0;
#X coords 0 -1 1 1 105 55 2 10 10;
#X restore 7 305 pd \$0-bpm;
#N canvas 670 41 953 599 \$0-settings 0;
#X obj 162 60 mediasettings/audiosettings;
#X msg 162 34 listparams;
#X obj 162 87 route params;
#X obj 162 112 route in out;
#X obj 46 150 route devices;
#X obj 289 150 route devices;
#X obj 46 179 unpack f f;
#X obj 289 175 unpack f f;
#X obj 143 516 s pd-\$0-playground;
#X obj 288 225 loop;
#X obj 143 378 * 50;
#X obj 143 353 t f f;
#X obj 143 461 pack f f;
#X obj 289 427 s pd-\$0-playground;
#X obj 289 314 + 400;
#X obj 289 289 * 50;
#X obj 289 264 t f f;
#X obj 289 372 pack f f;
#X obj 335 296 + 1;
#X msg 289 397 obj \$1 500 dac~ \$2;
#X obj 410 24 bng 15 250 50 0 empty empty empty 17 7 0 10 -262144 -1
-1;
#X obj 428 194 s pd-\$0-playground;
#X msg 493 124 find dac~ 1 \, cut;
#X obj 127 210 int;
#X text 147 247 create;
#X text 22 249 delete;
#X obj 179 316 loop;
#X obj 166 286 t b f;
#X obj 73 210 t f f;
#X obj 154 166 loadbang;
#X msg 153 186 0;
#X obj 100 237 moses;
#X obj 143 403 + 50;
#X msg 143 486 obj \$1 50 adc~ \$2;
#X floatatom 28 209 5 0 0 0 - - -, f 5;
#X obj 205 234 + 1;
#X obj 205 286 t a;
#X obj 127 264 moses;
#X msg 35 341 find dac~ 1 \, cut;
#X obj 48 296 loop;
#X obj 28 271 t b f;
#X obj 589 512 s \$0-windowsize;
#X obj 589 467 tgl 15 0 empty empty empty 17 7 0 10 -262144 -1 -1 0
1;
#X obj 589 488 metro 100;
#X msg 767 142 \; pd dsp 1;
#X obj 767 109 loadbang;
#X connect 0 0 2 0;
#X connect 1 0 0 0;
#X connect 2 0 3 0;
#X connect 3 0 4 0;
#X connect 3 1 5 0;
#X connect 4 1 6 0;
#X connect 5 1 7 0;
#X connect 6 1 28 0;
#X connect 7 1 9 0;
#X connect 9 1 16 0;
#X connect 10 0 32 0;
#X connect 11 0 10 0;
#X connect 11 1 12 1;
#X connect 12 0 33 0;
#X connect 14 0 17 0;
#X connect 15 0 14 0;
#X connect 16 0 15 0;
#X connect 16 1 18 0;
#X connect 17 0 19 0;
#X connect 18 0 17 1;
#X connect 19 0 13 0;
#X connect 20 0 22 0;
#X connect 22 0 21 0;
#X connect 23 0 31 1;
#X connect 23 0 35 0;
#X connect 23 0 39 2;
#X connect 26 1 11 0;
#X connect 27 0 26 0;
#X connect 27 1 26 2;
#X connect 28 0 23 0;
#X connect 28 1 31 0;
#X connect 29 0 30 0;
#X connect 30 0 23 0;
#X connect 31 0 40 0;
#X connect 31 1 37 0;
#X connect 32 0 12 0;
#X connect 33 0 8 0;
#X connect 34 0 28 0;
#X connect 35 0 36 0;
#X connect 35 0 37 1;
#X connect 36 0 26 1;
#X connect 37 1 27 0;
#X connect 38 0 8 0;
#X connect 39 1 38 0;
#X connect 40 0 39 0;
#X connect 40 1 39 1;
#X connect 42 0 43 0;
#X connect 43 0 41 0;
#X connect 45 0 44 0;
#X restore 91 256 pd \$0-settings;
#N canvas 517 155 702 482 \$0-track-selector 0;
#X obj 200 200 lzr/border 140 40;
#X obj 211 249 + 1;
#X msg 211 308 set-current-track \$1 \, redraw-main-window;
#X obj 211 117 route force-track-number;
#X obj 211 175 - 1;
#X obj 210 219 hradio 15 1 0 8 \$0-track-selector-radio \$0-track-selector-radio.set
empty 0 -8 0 10 -262144 -1 -1 7;
#X text 224 202 Select track;
#X text 213 219 1;
#X text 228 219 2;
#X text 243 219 3;
#X text 258 219 4;
#X text 273 219 5;
#X text 288 219 6;
#X text 303 219 7;
#X text 318 219 8;
#X obj 211 63 inlet;
#X obj 211 366 outlet;
#X text 207 36 from global events bus;
#X text 209 396 to global events bus;
#X connect 1 0 2 0;
#X connect 2 0 16 0;
#X connect 3 0 4 0;
#X connect 4 0 5 0;
#X connect 5 0 1 0;
#X connect 15 0 3 0;
#X coords 0 -1 1 1 140 40 2 200 200;
#X restore 5 695 pd \$0-track-selector;
#X obj 859 1203 s \$0-global-events;
#X text 14 378 Track 1;
#X text 181 376 Track 2;
#X text 358 376 Track 3;
#X text 531 376 Track 4;
#X text 697 375 Track 5;
#X text 881 375 Track 6;
#X text 1054 377 Track 7;
#X text 1229 375 Track 8;
#X obj 122 305 lzr/transport-buttons \$0;
#X obj 5 739 lzr/effects-panel \$0;
#X obj 1049 396 lzr/session-midi-track \$0 7;
#X obj 1064 706 lzr/prepend add-effect;
#X obj 460 97 r \$0-global-events;
#X obj 701 691 lzr/button lzr/reverb-effect 100 20 Add reverb;
#X obj 701 715 lzr/button lzr/simple-fuzz-effect 100 20 Add fuzz;
#X obj 809 691 lzr/button lzr/phaser-effect 100 20 Add phaser;
#X obj 809 715 lzr/button lzr/poly-synth-effect 100 20 Add poly synth
;
#X obj 915 691 lzr/button lzr/drums-effect 100 20 Add drums;
#X obj 1291 692 lzr/button delete-track-effects 100 20 Delete effects
;
#X obj 1291 715 lzr/button show-panel-guts 100 20 Show panel guts;
#X msg 1214 252 map 0 \, map 1;
#X obj 1214 229 route redraw-main-window;
#X obj 1214 275 iemguts/sendcanvas 1;
#N canvas 212 39 1385 847 \$0-input 0;
#X obj 12 7 adc~ 1;
#X obj 90 9 adc~ 2;
#X obj 161 8 adc~ 3;
#X obj 224 7 adc~ 4;
#X obj 307 8 adc~ 5;
#X obj 390 11 adc~ 6;
#X obj 479 9 adc~ 7;
#X obj 581 9 adc~ 8;
#X obj 12 24 lzr/volume-control-mono;
#X obj 90 26 lzr/volume-control-mono;
#X obj 161 25 lzr/volume-control-mono;
#X obj 224 24 lzr/volume-control-mono;
#X obj 307 25 lzr/volume-control-mono;
#X obj 390 28 lzr/volume-control-mono;
#X obj 479 26 lzr/volume-control-mono;
#X obj 581 26 lzr/volume-control-mono;
#X obj 673 27 lzr/volume-control-mono;
#X obj 775 27 lzr/volume-control-mono;
#X obj 673 10 adc~ 9;
#X obj 775 10 adc~ 10;
#X obj 352 298 lzr/midi-input 1;
#X obj 482 298 lzr/midi-input 10;
#X obj 1135 302 lzr/input-interface-selector;
#N canvas 283 73 866 540 \$0-apc-mini-lights 0;
#X obj 128 422 noteout 1;
#X floatatom 120 361 5 0 0 0 - - -, f 5;
#X floatatom 188 364 5 0 0 0 - - -, f 5;
#X obj 124 60 tgl 15 0 empty empty empty 17 7 0 10 -262144 -1 -1 0
1;
#X obj 124 127 counter;
#X floatatom 61 265 5 0 0 0 - - -, f 5;
#X msg 368 171 bang;
#X obj 298 332 pack f 0;
#X obj 242 374 unpack f f;
#X obj 172 191 random 3;
#X obj 184 268 + 1;
#X obj 171 218 * 2;
#X obj 124 91 metro 1000;
#X floatatom 193 58 5 0 0 0 - - -, f 5;
#X obj 202 318 mod 2;
#X obj 117 155 t f b b f;
#X obj 416 326 spigot;
#X obj 374 275 t f f;
#X obj 455 300 !=;
#X obj 62 189 mod 64;
#X obj 490 220 mod 64;
#X obj 374 224 lzr/for 64;
#X connect 1 0 0 0;
#X connect 2 0 0 1;
#X connect 3 0 12 0;
#X connect 4 0 15 0;
#X connect 5 0 1 0;
#X connect 6 0 21 0;
#X connect 7 0 8 0;
#X connect 8 0 0 0;
#X connect 8 1 0 1;
#X connect 9 0 11 0;
#X connect 10 0 14 0;
#X connect 11 0 10 0;
#X connect 12 0 4 0;
#X connect 13 0 12 1;
#X connect 14 0 2 0;
#X connect 15 0 19 0;
#X connect 15 1 9 0;
#X connect 15 2 21 0;
#X connect 15 3 20 0;
#X connect 16 0 7 0;
#X connect 17 0 16 0;
#X connect 17 1 18 0;
#X connect 18 0 16 1;
#X connect 19 0 5 0;
#X connect 20 0 18 1;
#X connect 21 0 17 0;
#X restore 354 232 pd \$0-apc-mini-lights;
#N canvas 1023 239 469 552 0-apc-mini 0;
#X obj 173 217 - 47;
#X obj 173 242 moses 9;
#X msg 219 269 0;
#X obj 106 363 pack f f;
#X msg 106 401 mixer-param \$2 volume \$1;
#X obj 106 270 - 100;
#X obj 106 217 / 127;
#X obj 106 243 * 112;
#X obj 106 31 inlet;
#X obj 106 476 outlet;
#X obj 106 58 route midi-control;
#X obj 106 99 unpack f f;
#X connect 0 0 1 0;
#X connect 1 0 3 1;
#X connect 1 1 2 0;
#X connect 2 0 3 1;
#X connect 3 0 4 0;
#X connect 4 0 9 0;
#X connect 5 0 3 0;
#X connect 6 0 7 0;
#X connect 7 0 5 0;
#X connect 8 0 10 0;
#X connect 10 0 11 0;
#X connect 11 0 6 0;
#X connect 11 1 0 0;
#X restore 655 347 pd 0-apc-mini;
#X obj 655 298 lzr/midi-input 1;
#X obj 812 298 lzr/midi-input 17;
#N canvas 220 231 450 300 \$0-apc-midimix 0;
#X obj 144 47 inlet;
#X obj 143 235 outlet;
#X restore 812 347 pd \$0-apc-midimix;
#X obj 1135 272 inlet;
#X text 1132 243 from global event bus;
#X obj 1135 758 outlet;
#X text 1125 782 to global event bus;
#X obj 592 758 outlet;
#X obj 652 758 outlet;
#X obj 712 758 outlet;
#X obj 772 758 outlet;
#X obj 832 758 outlet;
#X obj 892 758 outlet;
#X obj 952 758 outlet;
#X obj 1012 758 outlet;
#X text 752 791 midi tracks 1 - 8;
#X obj 20 678 outlet~;
#X obj 87 677 outlet~;
#X obj 158 676 outlet~;
#X obj 231 673 outlet~;
#X obj 305 673 outlet~;
#X obj 370 673 outlet~;
#X obj 453 668 outlet~;
#X obj 527 670 outlet~;
#X obj 30 710 outlet~;
#X obj 105 709 outlet~;
#X obj 177 701 outlet~;
#X obj 250 702 outlet~;
#X obj 316 703 outlet~;
#X obj 390 699 outlet~;
#X obj 464 693 outlet~;
#X obj 533 694 outlet~;
#X connect 0 0 8 0;
#X connect 1 0 9 0;
#X connect 2 0 10 0;
#X connect 3 0 11 0;
#X connect 4 0 12 0;
#X connect 5 0 13 0;
#X connect 6 0 14 0;
#X connect 7 0 15 0;
#X connect 8 0 41 0;
#X connect 9 0 49 0;
#X connect 12 0 42 0;
#X connect 12 0 50 0;
#X connect 18 0 16 0;
#X connect 19 0 17 0;
#X connect 20 0 38 0;
#X connect 21 0 39 0;
#X connect 22 0 30 0;
#X connect 24 0 30 0;
#X connect 25 0 24 0;
#X connect 26 0 27 0;
#X connect 27 0 30 0;
#X connect 28 0 22 0;
#X restore 670 127 pd \$0-input -----------------------------------------------
;
#X obj 1222 396 lzr/session-midi-track \$0 8;
#X obj 6 395 session-track \$0 1;
#X obj 180 395 session-track \$0 2;
#X obj 354 395 session-track \$0 3;
#X obj 528 395 session-track \$0 4;
#X obj 702 395 session-track \$0 5;
#X obj 876 395 session-track \$0 6;
#X connect 1 0 10 0;
#X connect 7 0 10 0;
#X connect 9 0 10 0;
#X connect 19 0 10 0;
#X connect 20 0 0 0;
#X connect 20 1 0 1;
#X connect 20 3 0 2;
#X connect 20 4 0 3;
#X connect 20 6 0 4;
#X connect 20 7 0 5;
#X connect 20 9 0 6;
#X connect 20 10 0 7;
#X connect 20 12 0 8;
#X connect 20 13 0 9;
#X connect 20 15 0 10;
#X connect 20 16 0 11;
#X connect 20 18 0 12;
#X connect 20 19 0 13;
#X connect 20 21 0 14;
#X connect 20 22 0 15;
#X connect 20 24 10 0;
#X connect 21 0 20 20;
#X connect 21 1 10 0;
#X connect 22 0 10 0;
#X connect 23 0 9 0;
#X connect 23 0 19 0;
#X connect 23 0 1 0;
#X connect 23 0 7 0;
#X connect 23 0 34 0;
#X connect 23 0 6 0;
#X connect 23 0 2 0;
#X connect 23 0 0 17;
#X connect 23 0 32 0;
#X connect 23 0 21 1;
#X connect 23 0 20 24;
#X connect 23 0 35 1;
#X connect 23 0 36 3;
#X connect 23 0 37 3;
#X connect 23 0 38 3;
#X connect 23 0 39 3;
#X connect 23 0 40 3;
#X connect 23 0 41 3;
#X connect 24 0 22 0;
#X connect 25 0 22 0;
#X connect 26 0 22 0;
#X connect 27 0 22 0;
#X connect 28 0 22 0;
#X connect 29 0 10 0;
#X connect 30 0 10 0;
#X connect 31 0 33 0;
#X connect 32 0 31 0;
#X connect 34 0 36 0;
#X connect 34 1 36 1;
#X connect 34 2 37 0;
#X connect 34 3 37 1;
#X connect 34 4 38 0;
#X connect 34 5 38 1;
#X connect 34 6 39 0;
#X connect 34 7 39 1;
#X connect 34 8 40 0;
#X connect 34 9 40 1;
#X connect 34 10 41 0;
#X connect 34 11 41 1;
#X connect 34 16 36 2;
#X connect 34 17 37 2;
#X connect 34 18 38 2;
#X connect 34 19 39 2;
#X connect 34 20 40 2;
#X connect 34 21 41 2;
#X connect 34 22 21 0;
#X connect 34 23 35 0;
#X connect 34 24 10 0;
#X connect 35 0 20 23;
#X connect 35 1 10 0;
#X connect 36 0 20 0;
#X connect 36 1 20 1;
#X connect 36 2 20 2;
#X connect 36 3 10 0;
#X connect 37 0 20 3;
#X connect 37 1 20 4;
#X connect 37 2 20 5;
#X connect 37 3 10 0;
#X connect 38 0 20 6;
#X connect 38 1 20 7;
#X connect 38 2 20 8;
#X connect 38 3 10 0;
#X connect 39 0 20 9;
#X connect 39 1 20 10;
#X connect 39 2 20 11;
#X connect 39 3 10 0;
#X connect 40 1 20 13;
#X connect 40 2 20 14;
#X connect 40 3 10 0;
#X connect 41 0 20 15;
#X connect 41 1 20 16;
#X connect 41 2 20 17;
#X connect 41 3 10 0;
#X coords 0 -1 1 1 1400 880 2 0 300;
#X restore 2 2 pd \$0-implementation;
#X coords 0 0 1 1 500 500 0;
