#N canvas 605 103 1042 714 10;
#X obj 75 55 inlet;
#X obj 75 635 outlet;
#X obj 169 635 outlet;
#X obj 75 544 spigot;
#X obj 458 55 inlet;
#X obj 458 92 select 0 1 2 3 4 5 6 7 8 9;
#X obj 326 422 unpack f f f f f f f f f f;
#X obj 169 544 spigot;
#X msg 423 124 1 0 0 0 0 0 0 0 0 0;
#X msg 424 156 0 1 0 0 0 0 0 0 0 0;
#X msg 424 186 0 0 1 0 0 0 0 0 0 0;
#X msg 425 212 0 0 0 1 0 0 0 0 0 0;
#X msg 425 235 0 0 0 0 1 0 0 0 0 0;
#X msg 424 259 0 0 0 0 0 1 0 0 0 0;
#X msg 426 286 0 0 0 0 0 0 1 0 0 0;
#X msg 427 312 0 0 0 0 0 0 0 1 0 0;
#X msg 427 337 0 0 0 0 0 0 0 0 1 0;
#X msg 427 367 0 0 0 0 0 0 0 0 0 1;
#X obj 75 393 t a;
#X obj 269 635 outlet;
#X obj 269 544 spigot;
#X obj 369 635 outlet;
#X obj 369 544 spigot;
#X obj 469 635 outlet;
#X obj 469 544 spigot;
#X obj 569 635 outlet;
#X obj 569 544 spigot;
#X obj 649 635 outlet;
#X obj 649 544 spigot;
#X obj 729 635 outlet;
#X obj 729 544 spigot;
#X obj 809 635 outlet;
#X obj 809 544 spigot;
#X obj 889 635 outlet;
#X obj 889 544 spigot;
#X text 41 15 arbitrary messages to be directed;
#X text 41 33 to 1 of 10 outlets;
#X text 425 22 select outlet;
#X msg 427 393 0 0 0 0 0 0 0 0 0 0;
#X connect 0 0 18 0;
#X connect 3 0 1 0;
#X connect 4 0 5 0;
#X connect 5 0 8 0;
#X connect 5 1 9 0;
#X connect 5 2 10 0;
#X connect 5 3 11 0;
#X connect 5 4 12 0;
#X connect 5 5 13 0;
#X connect 5 6 14 0;
#X connect 5 7 15 0;
#X connect 5 8 16 0;
#X connect 5 9 17 0;
#X connect 5 10 38 0;
#X connect 6 0 3 1;
#X connect 6 1 7 1;
#X connect 6 2 20 1;
#X connect 6 3 22 1;
#X connect 6 4 24 1;
#X connect 6 5 26 1;
#X connect 6 6 28 1;
#X connect 6 7 30 1;
#X connect 6 8 32 1;
#X connect 6 9 34 1;
#X connect 7 0 2 0;
#X connect 8 0 6 0;
#X connect 9 0 6 0;
#X connect 10 0 6 0;
#X connect 11 0 6 0;
#X connect 12 0 6 0;
#X connect 13 0 6 0;
#X connect 14 0 6 0;
#X connect 15 0 6 0;
#X connect 16 0 6 0;
#X connect 17 0 6 0;
#X connect 18 0 3 0;
#X connect 18 0 7 0;
#X connect 18 0 20 0;
#X connect 18 0 22 0;
#X connect 18 0 24 0;
#X connect 18 0 26 0;
#X connect 18 0 28 0;
#X connect 18 0 30 0;
#X connect 18 0 32 0;
#X connect 18 0 34 0;
#X connect 20 0 19 0;
#X connect 22 0 21 0;
#X connect 24 0 23 0;
#X connect 26 0 25 0;
#X connect 28 0 27 0;
#X connect 30 0 29 0;
#X connect 32 0 31 0;
#X connect 34 0 33 0;
#X connect 38 0 6 0;
