#N canvas 250 98 1427 731 10;
#X obj 205 8 inlet~;
#X obj 323 620 outlet~;
#X obj 359 10 inlet~;
#X obj 500 643 outlet~;
#X obj 187 138 vu 15 120 empty empty -1 -8 0 10 -66577 -1 1 0;
#X obj 397 176 env~;
#X obj 397 198 - 100;
#X obj 554 209 mpx16;
#X obj 552 421 kick-drum;
#X obj 677 412 acreil-snare1-drum;
#X obj 815 413 acreil-snare2-drum;
#X obj 391 99 select 2 3 1 4 5;
#X floatatom 554 250 5 0 0 0 - - -, f 5;
#X obj 254 264 bng 15 250 50 0 empty empty empty 17 7 0 10 -262144
-1 -1;
#X obj 214 266 bng 15 250 50 0 empty empty empty 17 7 0 10 -262144
-1 -1;
#X obj 138 266 bng 15 250 50 0 empty empty empty 17 7 0 10 -262144
-1 -1;
#X obj 175 266 bng 15 250 50 0 empty empty empty 17 7 0 10 -262144
-1 -1;
#X obj 118 266 bng 15 250 50 0 empty empty empty 17 7 0 10 -262144
-1 -1;
#X obj 554 182 notein;
#X obj 533 117 midiparse;
#X obj 534 19 midiin;
#X obj 533 143 unpack f f;
#X obj 533 42 midi-recorder midi/drums.mid;
#X obj 367 430 creb/ti_hihat;
#X obj 955 393 creb/ti_snare;
#X obj 361 491 +~, f 2;
#X obj 380 523 +~;
#X obj 418 545 +~;
#X obj 462 591 +~;
#X obj 169 138 vu 15 120 empty empty -1 -8 0 4 -33289 -33289 1 0;
#X obj 359 241 env~;
#X obj 359 263 - 100;
#X obj 538 531 +~, f 2;
#X obj 557 563 +~;
#X obj 595 585 +~;
#X obj 638 609 +~;
#X obj 913 38 inlet;
#X obj 913 183 outlet;
#X text 150 106 Drums;
#X connect 5 0 6 0;
#X connect 6 0 4 0;
#X connect 7 0 11 0;
#X connect 7 0 12 0;
#X connect 8 0 25 1;
#X connect 8 1 32 1;
#X connect 9 0 26 1;
#X connect 9 1 33 1;
#X connect 10 0 27 1;
#X connect 10 1 34 1;
#X connect 11 0 17 0;
#X connect 11 1 13 0;
#X connect 11 2 15 0;
#X connect 11 3 16 0;
#X connect 11 4 14 0;
#X connect 13 0 24 0;
#X connect 14 0 10 0;
#X connect 15 0 8 0;
#X connect 16 0 9 0;
#X connect 17 0 23 0;
#X connect 18 0 7 0;
#X connect 18 0 19 0;
#X connect 18 0 19 0;
#X connect 18 0 19 0;
#X connect 18 0 19 0;
#X connect 18 1 7 1;
#X connect 19 0 21 0;
#X connect 20 0 22 0;
#X connect 21 0 7 0;
#X connect 21 1 7 1;
#X connect 22 0 19 0;
#X connect 23 0 25 0;
#X connect 23 0 32 0;
#X connect 24 0 28 1;
#X connect 24 0 35 1;
#X connect 25 0 26 0;
#X connect 26 0 27 0;
#X connect 27 0 28 0;
#X connect 28 0 1 0;
#X connect 28 0 30 0;
#X connect 30 0 31 0;
#X connect 31 0 29 0;
#X connect 32 0 33 0;
#X connect 33 0 34 0;
#X connect 34 0 35 0;
#X connect 35 0 3 0;
#X connect 35 0 5 0;
#X coords 0 -1 1 1 190 190 2 100 100;
