#N canvas 280 22 1327 831 10;
#X obj 35 287 iemguts/canvasindex;
#X obj 205 747 send;
#X text 115 375 object ID;
#X text 53 393 within the parent patch;
#X obj 328 349 iemguts/canvasdollarzero 1;
#X obj 701 21 inlet~;
#X obj 887 20 inlet~;
#X obj 699 261 outlet~;
#X obj 888 260 outlet~;
#X obj 35 15 r LZR-NEW-EFFECT-LOADBANG;
#X obj 35 127 spigot 1;
#X msg 88 100 0;
#X text 148 127 <= blocks itself after the first bang;
#X obj 463 235 t a;
#X obj 463 15 t a;
#X obj 923 455 f \$2;
#X obj 844 455 symbol \$1;
#X obj 965 456 f \$3;
#X obj 1011 456 f \$4;
#X obj 844 757 iemguts/sendcanvas;
#X obj 35 152 t b b b b;
#X obj 388 747 iemguts/canvasselect 0;
#X floatatom 388 770 5 0 0 0 - - -, f 5;
#X obj 388 704 tgl 15 0 empty empty empty 17 7 0 10 -262144 -1 -1 1
1;
#X obj 388 724 metro 500;
#X text 591 720 inlet/outlet ID's are hardcoded =>;
#X text 571 743 <= if they change \, use this tool;
#X obj 844 490 pack s f f f f;
#X obj 844 417 t b b b b b;
#X msg 844 708 obj 700 50 \$1 \$2 \$3 \$4 \, connect 5 0 \$5 0 \, connect
6 0 \$5 1 \, connect \$5 0 7 0 \, connect \$5 1 8 0;
#X text 1096 457 <= expected object ID;
#X text 1117 477 of dynamically created;
#X text 1119 498 effect box;
#X obj 33 332 t a a;
#X obj 31 434 print genuine object ID:;
#X floatatom 709 222 5 0 0 0 - - -, f 5;
#X obj 960 25 inlet;
#X obj 959 191 iemguts/canvasindex;
#X floatatom 844 219 5 0 0 0 - - -, f 5;
#X obj 342 462 mmb/r.mmb;
#X msg 328 395 symbol \$1-global-events;
#X msg 146 504 new-effect-id \$1;
#X obj 342 491 route effect;
#X text 445 438 track #;
#X text 524 441 effect #;
#X obj 341 427 t a b b;
#X obj 405 576 route canvas-index;
#X msg 642 600 canvas-index-response \$1;
#X obj 406 520 route;
#X obj 409 546 route;
#X obj 456 463 f \$3;
#X obj 510 463 f \$4;
#X msg 1060 456 53;
#X connect 0 0 33 0;
#X connect 4 0 40 0;
#X connect 9 0 10 0;
#X connect 10 0 20 0;
#X connect 11 0 10 1;
#X connect 13 0 14 0;
#X connect 14 0 11 0;
#X connect 15 0 27 1;
#X connect 16 0 27 0;
#X connect 17 0 27 2;
#X connect 18 0 27 3;
#X connect 20 0 0 0;
#X connect 20 1 4 0;
#X connect 20 2 28 0;
#X connect 20 3 13 0;
#X connect 21 0 22 0;
#X connect 23 0 24 0;
#X connect 24 0 21 0;
#X connect 27 0 29 0;
#X connect 28 0 16 0;
#X connect 28 1 15 0;
#X connect 28 2 17 0;
#X connect 28 3 18 0;
#X connect 28 4 52 0;
#X connect 29 0 19 0;
#X connect 33 0 41 0;
#X connect 33 1 34 0;
#X connect 33 1 35 0;
#X connect 36 0 37 0;
#X connect 37 0 38 0;
#X connect 38 0 47 0;
#X connect 39 0 42 0;
#X connect 40 0 1 1;
#X connect 40 0 45 0;
#X connect 41 0 1 0;
#X connect 42 0 48 0;
#X connect 45 0 39 0;
#X connect 45 1 50 0;
#X connect 45 2 51 0;
#X connect 46 0 37 0;
#X connect 47 0 1 0;
#X connect 48 0 49 0;
#X connect 49 0 46 0;
#X connect 50 0 48 1;
#X connect 51 0 49 1;
#X connect 52 0 27 4;
#X coords 0 -1 1 1 190 190 2 700 50;
