#N canvas 345 22 1328 914 10;
#X obj 1 83 t a;
#X obj 1236 100 t a;
#X obj 0 683 t a;
#X obj 0 383 t a;
#X obj 1221 400 t a;
#X obj 0 1200 t a;
#X obj 1251 1183 t a;
#X obj 2 1283 t a;
#X obj 1248 1300 t a;
#X obj 0 1500 t a;
#X obj 1251 1483 t a;
#X obj 2 1583 t a;
#X obj 1248 1600 t a;
#X obj 0 1800 t a;
#X obj 1251 1783 t a;
#X obj 2 1883 t a;
#X obj 1248 1900 t a;
#X obj 0 2100 t a;
#X obj 1251 2083 t a;
#X obj 2 2183 t a;
#X obj 1248 2200 t a;
#X obj 0 2400 t a;
#X obj 1251 2383 t a;
#X obj 1 600 t a;
#X obj 1222 583 t a;
#X obj 1 300 t a;
#X obj 1233 283 t a;
#X obj 1221 700 t a;
#X obj 2 983 t a;
#X obj 1242 1000 t a;
#X obj 0 899 t a;
#X obj 1251 882 t a;
#X obj 470 55 iemguts/canvasselect 0;
#X floatatom 470 78 5 0 0 0 - - -, f 5;
#X obj 470 12 tgl 15 0 empty empty empty 17 7 0 10 -262144 -1 -1 0
1;
#X obj 470 32 metro 500;
#X msg 721 26 window-size;
#X obj 1028 76 iemguts/sendcanvas;
#X obj 1281 2728 t a;
#X obj 43 2712 t a;
#X obj 721 5 r \$1-windowsize;
#X obj 835 5 r \$1-global-events;
#N canvas 325 23 1351 916 \$0-effects-panel-behavior 0;
#X obj 42 109 loadbang;
#X msg 42 135 1;
#X obj 403 169 symbol;
#X obj 182 178 t a;
#N canvas 420 22 1185 913 \$0-add-effect 0;
#X obj 188 255 + 5;
#X obj 90 46 inlet;
#X text 52 26 send symbol to add effect;
#X obj 650 76 inlet;
#X text 634 56 current track #;
#X obj 412 758 outlet;
#X obj 650 129 - 1;
#X obj 650 157 * 300;
#X obj 650 184 + 105;
#X obj 802 771 outlet;
#X msg 802 729 append \$1 200;
#X text 792 793 to meta storage;
#X obj 475 82 inlet;
#X text 449 65 from meta storage;
#X text 806 710 object # \, width;
#X obj 347 176 unpack f f f;
#X text 316 783 send message to;
#X text 313 797 effect panel canvas;
#X text 446 20 (# of effects \,;
#X text 460 50 last obj #);
#X text 459 36 total width \,;
#N canvas 600 233 772 531 \$0-connect-with-cables 0;
#X obj 186 159 int;
#X obj 225 159 int;
#X obj 262 159 t a;
#X obj 186 108 t b;
#X obj 46 37 inlet;
#X text 12 19 new effect's object #;
#X obj 186 32 inlet;
#X text 184 13 prev. object's #;
#X obj 325 29 inlet;
#X text 325 11 throw and catch object #'s;
#X obj 163 394 outlet;
#X text 86 423 connect/disconnect messages to send to fx panel canvas
;
#X obj 186 68 moses 0;
#X msg 153 159 0;
#X msg 344 196 1;
#X obj 325 76 unpack f f f f;
#X obj 163 240 pack f f f f f f;
#X text 446 87 L in \, R in \, L out \, R out;
#X msg 163 268 vis 1 \, disconnect \$2 0 \$5 0 \, disconnect \$3 \$4
\$6 0 \, connect \$2 0 \$1 0 \, connect \$3 \$4 \$1 1 \, connect \$1
0 \$5 0 \, connect \$1 1 \$6 0 \, vis 0;
#X obj 507 53 p throw.catch.ids;
#X obj 102 60 p prev.obj;
#X obj 39 185 p new.obj;
#X obj 222 339 p resulting.message;
#X connect 0 0 16 1;
#X connect 1 0 16 2;
#X connect 2 0 14 0;
#X connect 2 0 16 2;
#X connect 2 0 16 1;
#X connect 3 0 0 0;
#X connect 3 0 1 0;
#X connect 3 0 13 0;
#X connect 4 0 21 0;
#X connect 6 0 20 0;
#X connect 8 0 19 0;
#X connect 12 0 3 0;
#X connect 12 1 2 0;
#X connect 13 0 16 3;
#X connect 14 0 16 3;
#X connect 15 0 0 1;
#X connect 15 1 1 1;
#X connect 15 2 16 4;
#X connect 15 3 16 5;
#X connect 16 0 18 0;
#X connect 18 0 22 0;
#X connect 19 0 15 0;
#X connect 20 0 12 0;
#X connect 21 0 16 0;
#X connect 22 0 10 0;
#X restore 412 630 pd \$0-connect-with-cables;
#X obj 412 670 t a;
#X obj 893 67 inlet;
#X text 779 45 throw/catch object IDs;
#X msg 178 100 get-status;
#X msg 142 432 obj \$3 \$5 lzr/effect-wrapper \$1 \$2 \$4 \$6;
#X text 158 410 xpos ypos wrapper effect_name \$0 track_number effect_number
;
#X obj 946 139 inlet;
#X text 945 97 newly created;
#X text 945 115 effect's ID;
#X obj 60 536 s LZR-NEW-EFFECT-LOADBANG;
#X obj 1026 192 inlet;
#X text 976 175 canvas index response;
#X obj 287 200 - 1;
#X obj 703 322 pack f f;
#X msg 703 350 effect \$2 \$1 canvas-index;
#X obj 255 243 int 0;
#X obj 90 72 t b b b s b b;
#X obj 104 745 outlet;
#X text 41 771 to global events;
#X obj 657 292 moses 0;
#X obj 583 584 int;
#X obj 366 530 t b b f;
#X msg 104 632 redraw-main-window;
#X obj 946 397 t a;
#X obj 893 434 t a;
#X obj 657 457 t a;
#X obj 625 670 t a;
#X obj 347 295 t a a;
#X text 566 205 y coordinate;
#X text 559 219 of current track;
#X obj 1026 341 t a;
#X obj 756 148 t a;
#X obj 601 344 t a;
#X obj 422 146 lzr/func;
#X obj 90 486 lzr/func;
#X obj 703 395 lzr/func;
#X obj 142 321 pack s \$1 f f f f;
#X connect 0 0 58 2;
#X connect 1 0 38 0;
#X connect 3 0 6 0;
#X connect 3 0 53 0;
#X connect 3 0 58 3;
#X connect 6 0 7 0;
#X connect 7 0 8 0;
#X connect 8 0 58 4;
#X connect 10 0 9 0;
#X connect 12 0 55 1;
#X connect 15 0 34 0;
#X connect 15 0 49 0;
#X connect 15 1 0 0;
#X connect 21 0 22 0;
#X connect 22 0 5 0;
#X connect 23 0 46 0;
#X connect 25 0 55 0;
#X connect 26 0 22 0;
#X connect 28 0 45 0;
#X connect 32 0 52 0;
#X connect 34 0 37 1;
#X connect 35 0 36 0;
#X connect 36 0 57 0;
#X connect 37 0 41 0;
#X connect 38 0 56 0;
#X connect 38 2 37 0;
#X connect 38 3 58 0;
#X connect 38 5 25 0;
#X connect 41 0 47 0;
#X connect 41 1 35 0;
#X connect 42 0 10 0;
#X connect 43 0 44 0;
#X connect 43 1 42 0;
#X connect 43 2 21 0;
#X connect 44 0 39 0;
#X connect 45 0 56 1;
#X connect 46 0 21 2;
#X connect 47 0 21 1;
#X connect 48 0 39 0;
#X connect 49 0 58 5;
#X connect 49 1 54 0;
#X connect 52 0 57 1;
#X connect 53 0 35 1;
#X connect 54 0 42 1;
#X connect 55 0 15 0;
#X connect 55 1 9 0;
#X connect 56 0 43 0;
#X connect 56 1 31 0;
#X connect 57 0 47 0;
#X connect 57 1 48 0;
#X connect 58 0 26 0;
#X restore 403 535 pd \$0-add-effect;
#X floatatom 237 226 5 0 0 0 - - -, f 5;
#X obj 604 415 t a;
#N canvas 840 152 799 669 \$0-set-track 0;
#X obj 82 44 inlet;
#X obj 114 251 - 1;
#X obj 114 306 + 100;
#X obj 114 278 * 300;
#X obj 114 432 pack f f;
#X obj 135 381 t b f;
#X msg 278 485 donecanvasdialog 0 0 2 0 -1 1 1 \$2 200 0 \$1;
#X obj 459 147 unpack;
#X obj 114 458 t b l;
#X obj 294 116 iemguts/canvasposition 2;
#X obj 114 551 outlet;
#X obj 278 559 outlet;
#X text 337 572 to effect panel canvas;
#X obj 294 46 inlet;
#X text 287 26 bang to refresh window size;
#X text 46 26 Track # to switch to;
#X text 82 570 bang to redraw;
#X text 100 584 main window;
#X obj 459 251 spigot 0;
#X msg 512 222 1;
#X text 241 226 don't process window sizes;
#X text 239 273 fail and "change" will block;
#X text 241 288 all further events;
#X text 242 305 until a manual resize;
#X text 240 242 until we init track number \,;
#X text 238 257 otherwise first size msg will;
#X obj 114 407 int 100;
#X text 196 423 before track # is initialized;
#X text 173 407 <= default value. needed when banged;
#X obj 459 310 change 0;
#X obj 82 114 t b a;
#X obj 459 338 - 10;
#X connect 0 0 30 0;
#X connect 1 0 3 0;
#X connect 2 0 26 0;
#X connect 3 0 2 0;
#X connect 4 0 8 0;
#X connect 5 0 26 0;
#X connect 5 1 4 1;
#X connect 6 0 11 0;
#X connect 7 0 18 0;
#X connect 8 0 10 0;
#X connect 8 1 6 0;
#X connect 9 1 7 0;
#X connect 13 0 9 0;
#X connect 18 0 29 0;
#X connect 19 0 18 1;
#X connect 26 0 4 0;
#X connect 29 0 31 0;
#X connect 30 0 19 0;
#X connect 30 1 1 0;
#X connect 31 0 5 0;
#X restore 182 376 pd \$0-set-track;
#N canvas 429 22 640 445 \$0-init-fx-panel-position 0;
#X obj 137 145 unpack;
#X msg 170 183 5 \$1;
#X obj 137 90 inlet;
#X obj 137 118 iemguts/canvasposition 2;
#X obj 170 220 iemguts/canvasposition 2;
#X connect 0 1 1 0;
#X connect 1 0 4 0;
#X connect 2 0 3 0;
#X connect 3 0 0 0;
#X restore 888 86 pd \$0-init-fx-panel-position;
#X obj 888 41 loadbang;
#N canvas 576 149 936 771 \$0-fx-meta-storage-operations 0;
#X obj 102 41 inlet;
#X obj 663 55 inlet;
#X text 646 33 current track #;
#X text 184 101 insert;
#X text 108 149 get;
#N canvas 556 27 1003 904 \$0-fx-meta-storage 0;
#X obj 226 416 zexy/demultiplex 1 2 3 4 5 6 7 8;
#X obj 312 767 t a;
#X obj 226 767 list append;
#X obj 82 86 inlet;
#X obj 478 89 inlet;
#X text 455 68 track # to get or append;
#X obj 339 718 t a;
#X obj 253 718 list append;
#X obj 366 668 t a;
#X obj 280 668 list append;
#X obj 393 622 t a;
#X obj 307 622 list append;
#X obj 420 590 t a;
#X obj 334 590 list append;
#X obj 447 545 t a;
#X obj 361 545 list append;
#X obj 474 516 t a;
#X obj 388 516 list append;
#X obj 501 487 t a;
#X obj 415 487 list append;
#X obj 478 392 - 1;
#X obj 364 89 inlet;
#X obj 298 447 zexy/demultiplex 1 2 3 4 5 6 7 8;
#X text 365 68 reset list;
#X obj 677 552 t a;
#X obj 677 92 inlet;
#X text 652 71 bang to reset all lists;
#X text 39 36 bang to output stored list \,;
#X text 39 51 or send a list to;
#X text 39 66 append at the end;
#X obj 82 115 route dump-all-tracks;
#X obj 559 839 outlet;
#X obj 81 418 t a a a a a a a a;
#X obj 559 795 t a a;
#X connect 0 0 2 0;
#X connect 0 1 7 0;
#X connect 0 2 9 0;
#X connect 0 3 11 0;
#X connect 0 4 13 0;
#X connect 0 5 15 0;
#X connect 0 6 17 0;
#X connect 0 7 19 0;
#X connect 1 0 2 1;
#X connect 1 0 33 0;
#X connect 2 0 1 0;
#X connect 3 0 30 0;
#X connect 4 0 20 0;
#X connect 6 0 7 1;
#X connect 6 0 33 0;
#X connect 7 0 6 0;
#X connect 8 0 9 1;
#X connect 8 0 33 0;
#X connect 9 0 8 0;
#X connect 10 0 11 1;
#X connect 10 0 33 0;
#X connect 11 0 10 0;
#X connect 12 0 13 1;
#X connect 12 0 33 0;
#X connect 13 0 12 0;
#X connect 14 0 15 1;
#X connect 14 0 33 0;
#X connect 15 0 14 0;
#X connect 16 0 17 1;
#X connect 16 0 33 0;
#X connect 17 0 16 0;
#X connect 18 0 19 1;
#X connect 18 0 33 0;
#X connect 19 0 18 0;
#X connect 20 0 0 1;
#X connect 20 0 22 1;
#X connect 21 0 22 0;
#X connect 22 0 2 1;
#X connect 22 1 7 1;
#X connect 22 2 9 1;
#X connect 22 3 11 1;
#X connect 22 4 13 1;
#X connect 22 5 15 1;
#X connect 22 6 17 1;
#X connect 22 7 19 1;
#X connect 24 0 1 0;
#X connect 24 0 6 0;
#X connect 24 0 8 0;
#X connect 24 0 10 0;
#X connect 24 0 12 0;
#X connect 24 0 14 0;
#X connect 24 0 16 0;
#X connect 24 0 18 0;
#X connect 25 0 24 0;
#X connect 30 0 32 0;
#X connect 30 1 0 0;
#X connect 32 0 19 0;
#X connect 32 1 17 0;
#X connect 32 2 15 0;
#X connect 32 3 13 0;
#X connect 32 4 11 0;
#X connect 32 5 9 0;
#X connect 32 6 7 0;
#X connect 32 7 2 0;
#X connect 33 0 31 0;
#X restore 359 323 pd \$0-fx-meta-storage;
#X text 278 127 append;
#X obj 102 684 outlet;
#X obj 102 380 list;
#X text 163 150 delete;
#X obj 279 578 t a;
#X obj 274 146 t a;
#X obj 102 273 t b b f;
#X obj 102 168 t f b;
#X msg 157 218 0;
#X obj 159 167 t f b;
#X msg 186 218 1;
#X text 203 596 replace stored list;
#X text 203 609 with a new version;
#X obj 373 291 t l b;
#X obj 332 361 list;
#N canvas 408 91 1197 758 \$0-extract-two-items 0;
#X obj 204 214 list split;
#X obj 289 289 list split 2;
#X obj 140 570 outlet;
#X obj 362 85 - 1;
#X obj 362 113 * 2;
#X obj 458 413 list append;
#X obj 458 328 spigot;
#X obj 204 370 list;
#X obj 204 292 t b l;
#X text 6 282 make sure we send output;
#X obj 89 378 t b;
#X obj 141 42 inlet;
#X text 73 21 a list to extract items from;
#X obj 611 41 inlet;
#X text 590 18 remove extracted items?;
#X obj 362 49 inlet;
#X text 318 16 position of the first item;
#X text 318 31 in the list \, counting from 1;
#X obj 458 452 outlet;
#X text 449 476 updated list;
#X text 447 491 if items got deleted;
#X text 136 594 extracted items;
#X obj 289 334 t a;
#X text 5 296 only after deleting =>;
#X obj 140 508 t a, f 4;
#X connect 0 0 8 0;
#X connect 0 1 1 0;
#X connect 0 2 10 0;
#X connect 1 0 22 0;
#X connect 1 1 5 1;
#X connect 1 2 22 0;
#X connect 1 2 5 1;
#X connect 3 0 4 0;
#X connect 4 0 0 1;
#X connect 5 0 18 0;
#X connect 6 0 5 0;
#X connect 7 0 24 0;
#X connect 8 0 7 0;
#X connect 8 1 6 0;
#X connect 10 0 24 0;
#X connect 11 0 0 0;
#X connect 13 0 6 1;
#X connect 15 0 3 0;
#X connect 22 0 7 1;
#X connect 24 0 2 0;
#X restore 102 484 pd \$0-extract-two-items;
#X obj 175 249 t a;
#X text 220 465 delete?;
#X obj 332 179 t b b;
#X obj 332 464 list-abs/list-len;
#X obj 332 491 / 2;
#X obj 531 466 list split 2;
#X obj 531 498 unpack f f;
#X obj 588 537 +;
#X obj 630 466 t a;
#X obj 460 430 t l b;
#X msg 458 496 0;
#X obj 622 537 t a;
#X obj 332 388 t l l;
#X obj 474 673 outlet;
#X text 456 384 split the list into pairs;
#X text 457 397 and sum second items;
#X text 457 411 in each pair;
#X text 64 704 extracted/deleted item;
#X text 43 718 (object # \, effect box width);
#X text 337 161 get-status;
#X obj 474 586 pack f f f;
#X text 417 694 (current # of effects \, total width \, last effect's
obj. #);
#X text 426 497 init;
#X text 203 623 (with two elements removed);
#X text 408 116 clear all;
#X msg 487 496 -1;
#X obj 279 220 t a;
#X obj 787 231 t a;
#X obj 681 597 outlet;
#X text 699 624 returns all items;
#X msg 530 293 dump-all-tracks;
#X obj 102 85 route get delete insert append get-status clear-all-tracks
dump-all-tracks, f 74;
#X obj 787 359 t a a;
#X obj 681 256 lzr/func;
#X connect 0 0 53 0;
#X connect 1 0 5 2;
#X connect 5 0 20 1;
#X connect 5 0 54 0;
#X connect 5 0 8 1;
#X connect 8 0 21 0;
#X connect 10 0 48 0;
#X connect 11 0 5 0;
#X connect 12 0 8 0;
#X connect 12 1 5 0;
#X connect 12 2 21 1;
#X connect 13 0 12 0;
#X connect 13 1 14 0;
#X connect 14 0 22 0;
#X connect 15 0 12 0;
#X connect 15 1 16 0;
#X connect 16 0 22 0;
#X connect 19 0 5 0;
#X connect 19 1 5 1;
#X connect 20 0 34 0;
#X connect 21 0 7 0;
#X connect 21 1 10 0;
#X connect 22 0 21 2;
#X connect 24 0 20 0;
#X connect 24 1 5 0;
#X connect 25 0 26 0;
#X connect 26 0 42 0;
#X connect 27 0 28 0;
#X connect 27 1 30 0;
#X connect 28 0 42 2;
#X connect 28 1 29 0;
#X connect 29 0 33 0;
#X connect 29 0 42 1;
#X connect 30 0 27 0;
#X connect 31 0 27 0;
#X connect 31 1 32 0;
#X connect 31 1 47 0;
#X connect 32 0 29 1;
#X connect 32 0 42 1;
#X connect 33 0 29 1;
#X connect 34 0 25 0;
#X connect 34 1 31 0;
#X connect 42 0 35 0;
#X connect 47 0 42 2;
#X connect 48 0 19 0;
#X connect 49 0 55 1;
#X connect 52 0 5 0;
#X connect 53 0 13 0;
#X connect 53 1 15 0;
#X connect 53 3 11 0;
#X connect 53 4 24 0;
#X connect 53 5 5 3;
#X connect 53 6 55 0;
#X connect 54 0 49 0;
#X connect 55 0 50 0;
#X connect 55 1 52 0;
#X restore 607 622 pd \$0-fx-meta-storage-operations;
#X text 323 167 add-effect;
#X text 93 176 set current;
#X text 129 190 track;
#X text 402 812 effects panel canvas;
#X text 226 189 current;
#X text 226 204 track #;
#N canvas 16 280 527 614 \$0-throwcatch-object-ids 0;
#X obj 87 38 inlet;
#X obj 87 71 select 1 2 3 4 5 6 7 8;
#X text 79 17 track #;
#X obj 87 510 outlet;
#X text 27 549 (virt-in-left \, virt-in-right \, mixer-left \, mixer-right)
;
#X text 29 534 object numbers of track's I/O throws and catches;
#X obj 152 16 loadbang;
#X msg 152 41 1;
#X text 286 81 [L in \, R in \, L out \, R out];
#X msg 103 143 48 49 51 50;
#X msg 207 341 72 73 75 74;
#X msg 192 308 68 69 71 70;
#X msg 171 273 64 65 67 66;
#X msg 155 241 60 61 63 62;
#X msg 131 208 56 57 59 58;
#X msg 115 175 52 53 55 54;
#X msg 87 110 44 45 47 46;
#X connect 0 0 1 0;
#X connect 1 0 16 0;
#X connect 1 1 9 0;
#X connect 1 2 15 0;
#X connect 1 3 14 0;
#X connect 1 4 13 0;
#X connect 1 5 12 0;
#X connect 1 6 11 0;
#X connect 1 7 10 0;
#X connect 6 0 7 0;
#X connect 7 0 1 0;
#X connect 9 0 3 0;
#X connect 10 0 3 0;
#X connect 11 0 3 0;
#X connect 12 0 3 0;
#X connect 13 0 3 0;
#X connect 14 0 3 0;
#X connect 15 0 3 0;
#X connect 16 0 3 0;
#X restore 947 308 pd \$0-throwcatch-object-ids;
#N canvas 222 38 1329 823 \$0-clear-all-effects 0;
#X obj 65 65 inlet;
#X obj 108 706 outlet;
#X obj 511 74 inlet;
#X text 485 57 from meta storage;
#X obj 616 266 unpack f f f;
#X text 68 731 send message to;
#X text 67 745 effect panel canvas;
#X text 467 12 (# of effects \,;
#X text 496 42 last obj #);
#X text 495 28 total width \,;
#X obj 1013 70 inlet;
#X text 906 25 throw/catch object IDs;
#X obj 515 709 outlet;
#X text 483 733 to meta storage;
#X msg 146 128 get-status;
#X text 27 45 bang to clear all effects;
#X text 486 752 results get sent to second inlet;
#X obj 616 367 until;
#X text 623 306 for each effect;
#X msg 616 399 delete 1;
#X obj 739 90 inlet;
#X text 672 32 extracted/deleted item;
#X text 670 70 (object # \, effect box width);
#X text 671 50 from metastorage;
#X msg 108 524 vis 1 \, connect \$1 0 \$3 0 \, connect \$2 0 \$4 0
\, vis 0;
#X text 888 43 [L in \, R in \, L out \, R out];
#X obj 108 429 list;
#X obj 65 297 t a;
#X obj 65 94 t b b b, f 12;
#X obj 1119 75 inlet;
#X text 1114 45 track #;
#X obj 686 513 pack f f;
#X obj 800 704 outlet;
#X text 811 739 global events;
#X obj 686 485 unpack f f;
#X msg 646 625 redraw-main-window;
#X obj 1119 401 t a;
#X obj 458 175 lzr/func;
#X obj 686 442 lzr/func;
#X msg 894 655 effect \$2 \$1 suicide \, redraw-main-window;
#X obj 410 454 delay 100;
#X obj 591 501 t a;
#X obj 108 375 moses 1;
#X msg 108 403 bang;
#X connect 0 0 28 0;
#X connect 2 0 37 1;
#X connect 4 0 17 0;
#X connect 4 0 42 0;
#X connect 10 0 26 1;
#X connect 14 0 37 0;
#X connect 17 0 19 0;
#X connect 19 0 38 0;
#X connect 20 0 38 1;
#X connect 24 0 1 0;
#X connect 26 0 24 0;
#X connect 27 0 40 0;
#X connect 28 0 27 0;
#X connect 28 2 14 0;
#X connect 29 0 36 0;
#X connect 31 0 39 0;
#X connect 34 0 31 0;
#X connect 35 0 32 0;
#X connect 36 0 31 1;
#X connect 37 0 4 0;
#X connect 37 1 12 0;
#X connect 38 0 34 0;
#X connect 38 1 41 0;
#X connect 39 0 32 0;
#X connect 40 0 35 0;
#X connect 41 0 12 0;
#X connect 42 1 43 0;
#X connect 43 0 26 0;
#X restore 573 534 pd \$0-clear-all-effects;
#X obj 847 451 t a;
#X obj 877 311 t a;
#X obj 405 621 t a;
#X obj 464 268 t a;
#X obj 182 82 inlet;
#X text 233 81 incoming events;
#X obj 182 724 outlet;
#X text 182 754 outgoing events;
#X obj 405 785 outlet;
#X msg 1006 696 vis 1;
#X obj 847 694 t a;
#X obj 877 670 t a;
#X obj 775 401 t a;
#X msg 182 475 redraw-main-window;
#X obj 619 474 t a;
#X obj 666 408 t a;
#X obj 537 616 t a;
#X text 470 202 new effect id;
#X text 660 202 canvas index response;
#X text 1045 142 show panel guts;
#X text 253 311 window resize;
#X obj 1157 309 t a;
#X text 925 138 effect;
#X text 922 150 params;
#X text 820 141 dump;
#X text 815 154 params;
#X obj 759 565 t a;
#X obj 1200 689 t a;
#X obj 1200 153 t a;
#X obj 533 384 t a;
#N canvas 374 34 1252 864 \$0-persist-fx 0;
#X obj 55 67 inlet;
#X text 19 8 bang to initiate;
#X text 19 23 parameter dumping;
#X text 22 39 of all effects;
#X obj 60 733 outlet;
#X obj 414 53 inlet;
#X text 384 13 all effects;
#X text 385 29 from meta storage;
#X text 52 762 to meta storage;
#X msg 55 167 dump-all-tracks;
#X obj 123 208 lzr/func 8;
#X obj 351 359 int;
#X obj 390 359 + 1;
#X obj 237 244 t a b;
#X obj 55 124 t b b;
#X obj 369 184 t a;
#X text 291 239 <= one list of effects per track;
#X obj 237 332 list length;
#X obj 237 360 / 2;
#X obj 237 493 until;
#X obj 237 525 int;
#X obj 271 525 + 1;
#X msg 369 327 1;
#X msg 289 493 0;
#X obj 237 463 t f b;
#X obj 298 582 pack f f;
#X text 355 560 track number;
#X text 174 565 effect number;
#X text 241 388 how many;
#X text 245 403 effects;
#X text 316 255 (2 values per effect);
#X obj 659 730 outlet;
#X text 670 756 to global bus;
#X msg 298 610 effect \$2 \$1 save-effect;
#X obj 659 53 inlet;
#X text 635 13 dump of parameters;
#X text 634 31 from an effect;
#X obj 702 280 prepend add;
#X obj 606 201 lzr/func;
#X obj 566 729 t a;
#X obj 566 141 t a;
#X obj 810 436 print Loading effect;
#X msg 444 360 clear-track \$1;
#X obj 351 396 t f f;
#X obj 1041 409 t a a;
#X obj 1073 440 print Clearing track;
#X msg 702 631 set-current-track \$1 \, add-effect \$3;
#X msg 805 685 set-current-track \$1 \, delete-track-effects;
#X obj 702 361 route add-effect param clear-track;
#X text 716 610 [track_num \, effect_num \, effect_name];
#X obj 702 436 t a a a;
#X obj 780 541 prepend;
#X obj 780 574 prepend effect;
#X msg 826 499 \$1 \$2 param;
#X obj 1041 631 t a;
#X obj 702 324 mmb/save.me.mmb effects \$1-persist;
#X connect 0 0 14 0;
#X connect 5 0 10 1;
#X connect 9 0 10 0;
#X connect 10 0 13 0;
#X connect 10 1 4 0;
#X connect 11 0 12 0;
#X connect 11 0 43 0;
#X connect 12 0 11 1;
#X connect 13 0 17 0;
#X connect 13 1 11 0;
#X connect 14 0 9 0;
#X connect 14 1 15 0;
#X connect 15 0 22 0;
#X connect 17 0 18 0;
#X connect 18 0 24 0;
#X connect 19 0 20 0;
#X connect 20 0 21 0;
#X connect 20 0 25 0;
#X connect 21 0 20 1;
#X connect 22 0 11 1;
#X connect 23 0 20 1;
#X connect 24 0 19 0;
#X connect 24 1 23 0;
#X connect 25 0 33 0;
#X connect 33 0 39 0;
#X connect 34 0 38 1;
#X connect 37 0 55 0;
#X connect 38 0 37 0;
#X connect 38 1 31 0;
#X connect 39 0 40 0;
#X connect 40 0 38 0;
#X connect 42 0 37 0;
#X connect 43 0 25 1;
#X connect 43 1 42 0;
#X connect 44 0 54 0;
#X connect 44 1 45 0;
#X connect 46 0 31 0;
#X connect 47 0 31 0;
#X connect 48 0 50 0;
#X connect 48 1 51 0;
#X connect 48 2 44 0;
#X connect 50 0 46 0;
#X connect 50 1 53 0;
#X connect 50 2 41 0;
#X connect 51 0 52 0;
#X connect 52 0 31 0;
#X connect 53 0 51 1;
#X connect 54 0 47 0;
#X connect 55 0 48 0;
#X restore 861 239 pd \$0-persist-fx;
#X obj 182 118 route set-current-track window-size add-effect new-effect-id
delete-track-effects canvas-index-response dump-parameters effect-params
show-panel-guts, f 154;
#X text 590 152 delete effects;
#X connect 0 0 1 0;
#X connect 1 0 3 0;
#X connect 2 0 4 0;
#X connect 3 0 5 0;
#X connect 3 0 7 0;
#X connect 4 0 35 0;
#X connect 4 1 21 0;
#X connect 4 2 10 0;
#X connect 5 0 22 0;
#X connect 6 0 4 1;
#X connect 6 0 18 1;
#X connect 7 0 32 0;
#X connect 7 1 21 0;
#X connect 9 0 8 0;
#X connect 10 0 29 0;
#X connect 10 1 30 0;
#X connect 10 2 46 0;
#X connect 17 0 34 0;
#X connect 18 0 21 0;
#X connect 18 1 10 0;
#X connect 18 2 35 0;
#X connect 19 0 18 2;
#X connect 20 0 6 0;
#X connect 21 0 27 0;
#X connect 22 0 4 2;
#X connect 22 0 17 0;
#X connect 22 0 31 0;
#X connect 23 0 50 0;
#X connect 28 0 27 0;
#X connect 29 0 19 0;
#X connect 30 0 20 0;
#X connect 31 0 10 1;
#X connect 31 0 18 4;
#X connect 32 0 25 0;
#X connect 33 0 4 5;
#X connect 34 0 18 3;
#X connect 34 0 4 3;
#X connect 35 0 25 0;
#X connect 40 0 28 0;
#X connect 45 0 10 0;
#X connect 46 0 47 0;
#X connect 47 0 49 1;
#X connect 48 0 25 0;
#X connect 49 0 45 0;
#X connect 49 1 48 0;
#X connect 50 0 3 0;
#X connect 50 1 7 1;
#X connect 50 2 2 0;
#X connect 50 3 4 4;
#X connect 50 4 18 0;
#X connect 50 5 33 0;
#X connect 50 6 49 0;
#X connect 50 7 49 2;
#X connect 50 8 40 0;
#X coords 0 916 1 915 100 100 0;
#X restore 835 51 pd \$0-effects-panel-behavior;
#X obj 835 76 s \$1-global-events;
#X obj 32 57 catch~ \$1-track1-virt-in-left;
#X obj 58 79 catch~ \$1-track1-virt-in-right;
#X obj 1090 305 throw~ \$1-track1-mixer-right;
#X obj 1064 326 throw~ \$1-track1-mixer-left;
#X obj 61 357 catch~ \$1-track2-virt-in-left;
#X obj 92 376 catch~ \$1-track2-virt-in-right;
#X obj 1080 608 throw~ \$1-track2-mixer-right;
#X obj 1074 630 throw~ \$1-track2-mixer-left;
#X obj 42 648 catch~ \$1-track3-virt-in-left;
#X obj 55 670 catch~ \$1-track3-virt-in-right;
#X obj 1069 906 throw~ \$1-track3-mixer-right;
#X obj 1061 928 throw~ \$1-track3-mixer-left;
#X obj 37 951 catch~ \$1-track4-virt-in-left;
#X obj 50 974 catch~ \$1-track4-virt-in-right;
#X obj 1073 1207 throw~ \$1-track4-mixer-right;
#X obj 1031 1229 throw~ \$1-track4-mixer-left;
#X obj 43 1255 catch~ \$1-track5-virt-in-left;
#X obj 56 1277 catch~ \$1-track5-virt-in-right;
#X obj 1066 1510 throw~ \$1-track5-mixer-right;
#X obj 1056 1532 throw~ \$1-track5-mixer-left;
#X obj 71 1547 catch~ \$1-track6-virt-in-left;
#X obj 59 1572 catch~ \$1-track6-virt-in-right;
#X obj 1068 1809 throw~ \$1-track6-mixer-right;
#X obj 1046 1830 throw~ \$1-track6-mixer-left;
#X obj 68 1836 catch~ \$1-track7-virt-in-left;
#X obj 91 1862 catch~ \$1-track7-virt-in-right;
#X obj 1069 2110 throw~ \$1-track7-mixer-right;
#X obj 1058 2138 throw~ \$1-track7-mixer-left;
#X obj 35 2140 catch~ \$1-track8-virt-in-left;
#X obj 50 2168 catch~ \$1-track8-virt-in-right;
#X obj 1062 2406 throw~ \$1-track8-mixer-right;
#X obj 1040 2430 throw~ \$1-track8-mixer-left;
#X connect 0 0 1 0;
#X connect 2 0 27 0;
#X connect 3 0 4 0;
#X connect 6 0 5 0;
#X connect 7 0 8 0;
#X connect 10 0 9 0;
#X connect 11 0 12 0;
#X connect 14 0 13 0;
#X connect 15 0 16 0;
#X connect 18 0 17 0;
#X connect 19 0 20 0;
#X connect 22 0 21 0;
#X connect 24 0 23 0;
#X connect 26 0 25 0;
#X connect 28 0 29 0;
#X connect 31 0 30 0;
#X connect 32 0 33 0;
#X connect 34 0 35 0;
#X connect 35 0 32 0;
#X connect 36 0 42 0;
#X connect 40 0 36 0;
#X connect 41 0 42 0;
#X connect 42 0 43 0;
#X connect 42 1 37 0;
#X connect 44 0 47 0;
#X connect 45 0 46 0;
#X connect 48 0 51 0;
#X connect 49 0 50 0;
#X connect 52 0 55 0;
#X connect 53 0 54 0;
#X connect 56 0 59 0;
#X connect 57 0 58 0;
#X connect 60 0 63 0;
#X connect 61 0 62 0;
#X connect 64 0 67 0;
#X connect 65 0 66 0;
#X connect 68 0 71 0;
#X connect 69 0 70 0;
#X connect 72 0 75 0;
#X connect 73 0 74 0;
#X coords 0 -1 1 1 200 200 2 0 100;
