#N canvas 280 22 1327 831 10;
#X obj 35 287 iemguts/canvasindex;
#X obj 35 747 send;
#X text 115 375 object ID;
#X text 53 393 within the parent patch;
#X obj 295 328 iemguts/canvasdollarzero 1;
#X obj 701 21 inlet~;
#X obj 887 20 inlet~;
#X obj 699 261 outlet~;
#X obj 888 260 outlet~;
#X obj 35 15 r LZR-NEW-EFFECT-LOADBANG;
#X obj 35 127 spigot 1;
#X msg 88 100 0;
#X text 148 127 <= blocks itself after the first bang;
#X obj 463 235 t a;
#X obj 463 15 t a;
#X obj 923 455 f \$2;
#X obj 844 455 symbol \$1;
#X obj 965 456 f \$3;
#X obj 1011 456 f \$4;
#X obj 844 757 iemguts/sendcanvas;
#X obj 35 152 t b b b b;
#X obj 388 747 iemguts/canvasselect 0;
#X floatatom 388 770 5 0 0 0 - - -, f 5;
#X obj 388 704 tgl 15 0 empty empty empty 17 7 0 10 -262144 -1 -1 1
1;
#X obj 388 724 metro 500;
#X text 591 720 inlet/outlet ID's are hardcoded =>;
#X text 571 743 <= if they change \, use this tool;
#X obj 844 490 pack s f f f f;
#X obj 844 417 t b b b b b;
#X msg 844 708 obj 700 50 \$1 \$2 \$3 \$4 \, connect 5 0 \$5 0 \, connect
6 0 \$5 1 \, connect \$5 0 7 0 \, connect \$5 1 8 0;
#X text 1096 457 <= expected object ID;
#X text 1117 477 of dynamically created;
#X text 1119 498 effect box;
#X obj 295 583 iemguts/canvasindex;
#X obj 295 412 mmb/r.mmb;
#X msg 295 358 symbol \$1-global-events;
#X msg 35 504 new-effect-id \$1;
#X obj 295 387 t a b b;
#X msg 295 615 canvas-index-response \$1;
#X obj 35 332 t a;
#X text 25 772 to global events bus;
#X obj 295 461 route \$3;
#X obj 295 489 route \$4;
#X text 361 464 <= track #;
#X text 361 491 <= effect #;
#X obj 596 584 f \$2;
#X obj 517 584 symbol \$1;
#X obj 640 584 f \$3;
#X obj 689 584 f \$4;
#X obj 517 619 pack s f f f;
#X obj 517 549 t b b b b;
#X msg 517 646 effect-params \$3 \$4 \$1;
#X obj 295 438 route effect;
#X obj 295 514 route canvas-index save-effect suicide;
#X obj 321 553 iemguts/canvasdelete 1;
#X msg 1060 456 56;
#X connect 0 0 39 0;
#X connect 4 0 35 0;
#X connect 9 0 10 0;
#X connect 10 0 20 0;
#X connect 11 0 10 1;
#X connect 13 0 14 0;
#X connect 14 0 11 0;
#X connect 15 0 27 1;
#X connect 16 0 27 0;
#X connect 17 0 27 2;
#X connect 18 0 27 3;
#X connect 20 0 0 0;
#X connect 20 1 4 0;
#X connect 20 2 28 0;
#X connect 20 3 13 0;
#X connect 21 0 22 0;
#X connect 23 0 24 0;
#X connect 24 0 21 0;
#X connect 27 0 29 0;
#X connect 28 0 16 0;
#X connect 28 1 15 0;
#X connect 28 2 17 0;
#X connect 28 3 18 0;
#X connect 28 4 55 0;
#X connect 29 0 19 0;
#X connect 33 0 38 0;
#X connect 34 0 52 0;
#X connect 35 0 1 1;
#X connect 35 0 37 0;
#X connect 36 0 1 0;
#X connect 37 0 34 0;
#X connect 38 0 1 0;
#X connect 39 0 36 0;
#X connect 41 0 42 0;
#X connect 42 0 53 0;
#X connect 45 0 49 1;
#X connect 46 0 49 0;
#X connect 47 0 49 2;
#X connect 48 0 49 3;
#X connect 49 0 51 0;
#X connect 50 0 46 0;
#X connect 50 1 45 0;
#X connect 50 2 47 0;
#X connect 50 3 48 0;
#X connect 51 0 1 0;
#X connect 52 0 41 0;
#X connect 53 0 33 0;
#X connect 53 1 50 0;
#X connect 53 2 54 0;
#X connect 55 0 27 4;
#X coords 0 -1 1 1 190 190 2 700 50;
