#N canvas 280 22 1327 831 10;
#X obj 35 287 iemguts/canvasindex;
#X obj 35 747 send;
#X text 115 375 object ID;
#X text 53 393 within the parent patch;
#X obj 295 328 iemguts/canvasdollarzero 1;
#X obj 701 21 inlet~;
#X obj 789 20 inlet~;
#X obj 699 261 outlet~;
#X obj 799 260 outlet~;
#X obj 35 15 r LZR-NEW-EFFECT-LOADBANG;
#X obj 35 127 spigot 1;
#X msg 88 100 0;
#X text 148 127 <= blocks itself after the first bang;
#X obj 463 235 t a;
#X obj 463 15 t a;
#X obj 844 757 iemguts/sendcanvas;
#X obj 35 152 t b b b b;
#X obj 388 747 iemguts/canvasselect 0;
#X floatatom 388 770 5 0 0 0 - - -, f 5;
#X obj 388 704 tgl 15 0 empty empty empty 17 7 0 10 -262144 -1 -1 1
1;
#X obj 388 724 metro 500;
#X text 591 720 inlet/outlet ID's are hardcoded =>;
#X text 571 743 <= if they change \, use this tool;
#X text 1009 454 <= expected object ID;
#X text 1030 474 of dynamically created;
#X text 1032 495 effect box;
#X obj 295 583 iemguts/canvasindex;
#X obj 295 412 mmb/r.mmb;
#X msg 295 358 symbol \$1-global-events;
#X msg 35 504 new-effect-id \$1;
#X obj 295 387 t a b b;
#X msg 295 615 canvas-index-response \$1;
#X obj 35 332 t a;
#X text 25 772 to global events bus;
#X obj 295 461 route \$3;
#X obj 295 489 route \$4;
#X text 361 464 <= track #;
#X text 361 491 <= effect #;
#X obj 295 438 route effect;
#X obj 321 553 iemguts/canvasdelete 1;
#X obj 295 514 route canvas-index suicide save-effect;
#X obj 960 414 prepend set;
#X msg 960 454 54;
#N canvas 307 129 511 206 \$0-next-object-id 0;
#X obj 27 31 inlet;
#X obj 157 138 outlet;
#X text 267 56 on the parent canvas.;
#X text 266 36 Returns how many objects are;
#X text 266 76 Since PD numbers all objects;
#X text 265 96 sequentially starting with 0 \,;
#X text 266 117 it'll be also the object ID;
#X text 267 136 of the next created object;
#X obj 27 79 iemguts/canvasindex;
#X connect 0 0 8 0;
#X connect 8 1 1 0;
#X restore 960 370 pd \$0-next-object-id;
#X obj 960 335 iemguts/savebangs;
#X obj 844 415 t b b;
#X obj 892 24 t a;
#X obj 887 259 t a;
#X msg 509 616 effect-params \$2 \$3 \$1;
#X obj 844 455 symbol \$1;
#X obj 509 554 symbol \$1;
#X obj 509 589 pack s \$3 \$4;
#X obj 844 490 pack s \$2 \$3 \$4 f;
#X msg 844 700 obj 700 50 \$1 \$2 \$3 \$4 \, connect 5 0 \$5 0 \, connect
6 0 \$5 1 \, connect \$5 0 7 0 \, connect \$5 1 8 0 \, connect 46 0
\$5 2 \, connect \$5 2 47 0;
#X connect 0 0 32 0;
#X connect 4 0 28 0;
#X connect 9 0 10 0;
#X connect 10 0 16 0;
#X connect 11 0 10 1;
#X connect 13 0 14 0;
#X connect 14 0 11 0;
#X connect 16 0 0 0;
#X connect 16 1 4 0;
#X connect 16 2 45 0;
#X connect 16 3 13 0;
#X connect 17 0 18 0;
#X connect 19 0 20 0;
#X connect 20 0 17 0;
#X connect 26 0 31 0;
#X connect 27 0 38 0;
#X connect 28 0 1 1;
#X connect 28 0 30 0;
#X connect 29 0 1 0;
#X connect 30 0 27 0;
#X connect 31 0 1 0;
#X connect 32 0 29 0;
#X connect 34 0 35 0;
#X connect 35 0 40 0;
#X connect 38 0 34 0;
#X connect 40 0 26 0;
#X connect 40 1 39 0;
#X connect 40 2 50 0;
#X connect 41 0 42 0;
#X connect 42 0 52 4;
#X connect 43 0 41 0;
#X connect 44 1 43 0;
#X connect 45 0 49 0;
#X connect 45 1 42 0;
#X connect 48 0 1 0;
#X connect 49 0 52 0;
#X connect 50 0 51 0;
#X connect 51 0 48 0;
#X connect 52 0 53 0;
#X connect 53 0 15 0;
#X coords 0 -1 1 1 190 190 2 700 50;
