#N canvas 652 152 646 495 10;
#X obj 49 141 until;
#X obj 49 174 counter;
#X obj 49 110 t b f;
#X obj 108 140 t a;
#X obj 49 24 inlet;
#X obj 50 266 outlet;
#X text 48 290 outputs numbers from 0 to N-1;
#X text 49 308 where N is the float that was sent;
#X obj 49 76 int \$1;
#X text 49 324 to the inlet or the creation;
#X text 51 341 argument;
#X text 107 74 <= creation argument defines the default;
#X text 129 90 number of iterations;
#X connect 0 0 1 0;
#X connect 1 0 5 0;
#X connect 2 0 3 0;
#X connect 2 1 0 0;
#X connect 3 0 1 2;
#X connect 4 0 8 0;
#X connect 8 0 2 0;
