#N canvas 358 76 1159 824 10;
#X obj 225 268 inlet;
#X obj 741 267 inlet;
#X obj 214 724 outlet;
#X obj 791 661 outlet;
#X text 182 243 arguments from the caller object;
#X text 794 255 results from the callee object;
#X text 739 690 arguments to the callee object;
#X text 64 752 results to the caller object;
#X obj 773 455 spigot 0;
#X text 800 340 incoming messages;
#X text 799 357 close the spigot;
#X text 799 374 after they pass;
#X text 739 726 (see second inlet);
#X text 738 708 callee object MUST output something;
#X text 41 536 sending the results out;
#X text 60 26 == "Function call" abstraction. ==;
#X text 61 49 When designing PD patches \, it's a good practice to
separate;
#X text 48 68 relatively independent functionality into subpatches
and;
#X text 48 88 abstractions. Often one subpatch/abstraction ("caller")
;
#X text 49 125 subpatch/abstraction ("callee") and receive "results"
as a;
#X text 50 144 response. When no call is made \, any data coming from
the;
#X text 50 161 callee should be ignored (this is achieved by using
a;
#X text 50 177 spigot);
#X text 48 106 needs to send certain data ("arguments") to another
;
#X obj 741 346 t b a;
#X obj 485 265 f \$1;
#X obj 485 289 moses 1;
#X msg 485 314 1;
#X obj 485 242 loadbang;
#X text 479 405 default: 1;
#X obj 513 353 int;
#X obj 743 388 - 1;
#X obj 705 388 int;
#X text 479 375 number of;
#X text 478 390 expected results \;;
#X obj 225 310 t b a b b;
#X msg 537 619 addcomma;
#X obj 354 610 prepend add2;
#X msg 317 610 set;
#X msg 545 559 0;
#X msg 578 559 1;
#X obj 537 590 spigot;
#X obj 491 523 t a b b;
#X obj 285 501 t b b;
#X text 41 551 only after all of them;
#X text 44 581 the callee;
#X text 42 567 have been received from;
#X obj 367 457 moses 0;
#X obj 413 479 moses 1;
#X obj 361 568 route bang;
#X msg 455 609 add2 bang;
#X obj 225 595 t b;
#X msg 366 660;
#X obj 632 422 t a a;
#X connect 0 0 35 0;
#X connect 1 0 24 0;
#X connect 8 0 42 0;
#X connect 24 0 32 0;
#X connect 24 1 8 0;
#X connect 25 0 26 0;
#X connect 26 0 27 0;
#X connect 26 1 30 1;
#X connect 27 0 30 1;
#X connect 28 0 25 0;
#X connect 30 0 32 0;
#X connect 31 0 32 1;
#X connect 32 0 31 0;
#X connect 32 0 53 0;
#X connect 35 1 3 0;
#X connect 35 2 30 0;
#X connect 35 3 43 0;
#X connect 36 0 52 0;
#X connect 37 0 52 0;
#X connect 38 0 52 0;
#X connect 39 0 41 1;
#X connect 40 0 41 1;
#X connect 41 0 36 0;
#X connect 42 0 49 0;
#X connect 42 1 40 0;
#X connect 42 2 41 0;
#X connect 43 0 39 0;
#X connect 43 1 38 0;
#X connect 47 1 48 0;
#X connect 48 0 51 0;
#X connect 49 0 50 0;
#X connect 49 1 37 0;
#X connect 50 0 52 0;
#X connect 51 0 52 0;
#X connect 52 0 2 0;
#X connect 53 0 47 0;
#X connect 53 1 8 1;
