#N canvas 287 132 817 678 10;
#X obj 6 28 popup 124 25 #ffffff  (0)Built-in Microph (0)Soundflower (2ch)
(0)Soundflower (64ch) (0)SuperFlower;
#X obj 289 243 route in;
#X obj 287 218 route device;
#X msg 415 96 listdevices;
#X obj 304 275 route devices;
#X obj 314 307 unpack f s;
#X msg 317 337 append \$1;
#X msg 402 165 options;
#X text 8 7 Input Interface;
#X msg 447 189 name;
#X obj 407 133 trigger a a a;
#X msg 574 185 listparams;
#X obj 569 267 route params;
#X obj 573 294 route in;
#X obj 585 368 unpack f;
#X obj 569 327 route devices;
#X obj 540 59 t b b;
#X obj 536 34 loadbang;
#X obj 537 11 bng 15 250 50 0 empty empty empty 17 7 0 10 -262144 -1
-1;
#X obj 249 191 mediasettings/audiosettings;
#X obj 579 227 mediasettings/audiosettings;
#X connect 1 0 4 0;
#X connect 2 0 1 0;
#X connect 3 0 10 0;
#X connect 4 1 5 0;
#X connect 5 1 6 0;
#X connect 6 0 0 0;
#X connect 7 0 0 0;
#X connect 9 0 0 0;
#X connect 10 0 19 0;
#X connect 10 1 7 0;
#X connect 10 2 9 0;
#X connect 11 0 20 0;
#X connect 12 0 13 0;
#X connect 13 0 15 0;
#X connect 14 0 0 0;
#X connect 15 1 14 0;
#X connect 16 0 11 0;
#X connect 16 1 3 0;
#X connect 17 0 16 0;
#X connect 18 0 17 0;
#X connect 19 0 2 0;
#X connect 20 0 12 0;
#X coords 0 678 1 677 150 60 2 0 0;
