#N canvas 317 63 1093 797 10;
#X obj 6 28 popup 124 25 #ffffff  Built-in Microph Soundflower (2ch)
Soundflower (64ch) SuperFlower;
#X obj 289 243 route in;
#X obj 287 218 route device;
#X msg 415 96 listdevices;
#X obj 304 275 route devices;
#X obj 314 307 unpack f s;
#X msg 317 337 append \$1;
#X msg 402 165 options;
#X text 8 7 Input Interface;
#X msg 447 189 name;
#X obj 407 133 trigger a a a;
#X msg 574 185 listparams;
#X obj 569 267 route params;
#X obj 573 294 route in;
#X obj 585 368 unpack f;
#X obj 569 327 route devices;
#X obj 540 59 t b b;
#X obj 536 34 loadbang;
#X obj 249 191 mediasettings/audiosettings;
#X obj 579 227 mediasettings/audiosettings;
#X obj 511 34 bng 15 250 50 0 empty empty empty 17 7 0 10 -262144 -1
-1;
#N canvas 489 22 1073 910 \$0-midi 0;
#X obj 34 92 mediasettings/midisettings;
#X obj 34 128 route devicelist;
#X msg 34 68 listdevices;
#X obj 34 159 route in out;
#X obj 34 194 route float;
#X obj 112 588 lzr/selectbox;
#X obj 108 233 t a a;
#X obj 140 264 list length;
#X obj 140 304 - 1;
#X obj 108 334 list split;
#X obj 32 398 list;
#X obj 88 398 t l;
#X obj 11 444 list;
#X msg 11 16 bang;
#X obj 11 41 t b b b;
#X obj 108 498 lzr/prepend setlist;
#N canvas 559 196 372 342 \$0-midi-dialog 0;
#X obj 93 40 r pd;
#X obj 93 62 route midi-dialog;
#X obj 95 213 print MD;
#X obj 93 102 list split 9;
#X obj 93 131 list-abs/list-drip;
#X obj 93 162 moses 1;
#X connect 0 0 1 0;
#X connect 1 0 3 0;
#X connect 3 0 4 0;
#X connect 4 0 5 0;
#X connect 5 1 2 0;
#X restore 214 49 pd \$0-midi-dialog;
#N canvas 0 22 1001 765 \$0-persistence 0;
#X obj 207 48 list fromsymbol;
#X msg 221 154 65 80 67 32 77 73 78 73 \, 80 100 82 101 97 112 101
114 32 82 101 97 112 101 114 84 111 80 100 \, 80 100 82 101 97 112
101 114 32 80 100 84 111 82 101 97 112 101 114 \,;
#X msg 392 110 set;
#X obj 221 101 lzr/prepend add2;
#X msg 109 115 addcomma;
#X obj 180 74 t b a;
#X obj 221 213 list tosymbol;
#X obj 259 280 counter;
#X obj 226 246 t s b;
#X symbolatom 393 406 40 0 0 0 - - -, f 40;
#X symbolatom 393 426 40 0 0 0 - - -, f 40;
#X symbolatom 393 446 40 0 0 0 - - -, f 40;
#X symbolatom 393 466 40 0 0 0 - - -, f 40;
#X symbolatom 393 486 40 0 0 0 - - -, f 40;
#X symbolatom 393 506 40 0 0 0 - - -, f 40;
#X symbolatom 393 526 40 0 0 0 - - -, f 40;
#X symbolatom 393 546 40 0 0 0 - - -, f 40;
#X symbolatom 393 566 40 0 0 0 - - -, f 40;
#X symbolatom 393 586 40 0 0 0 - - -, f 40;
#X obj 370 406 bng 15 250 50 0 empty empty empty 17 7 0 10 -262144
-1 -1;
#X obj 370 426 bng 15 250 50 0 empty empty empty 17 7 0 10 -262144
-1 -1;
#X obj 370 446 bng 15 250 50 0 empty empty empty 17 7 0 10 -262144
-1 -1;
#X obj 370 466 bng 15 250 50 0 empty empty empty 17 7 0 10 -262144
-1 -1;
#X obj 370 486 bng 15 250 50 0 empty empty empty 17 7 0 10 -262144
-1 -1;
#X obj 370 506 bng 15 250 50 0 empty empty empty 17 7 0 10 -262144
-1 -1;
#X obj 370 526 bng 15 250 50 0 empty empty empty 17 7 0 10 -262144
-1 -1;
#X obj 370 546 bng 15 250 50 0 empty empty empty 17 7 0 10 -262144
-1 -1;
#X obj 370 566 bng 15 250 50 0 empty empty empty 17 7 0 10 -262144
-1 -1;
#X obj 370 586 bng 15 250 50 0 empty empty empty 17 7 0 10 -262144
-1 -1;
#X msg 186 295 set \$1;
#X obj 259 323 lzr/demultiplex;
#X connect 0 0 5 0;
#X connect 1 0 6 0;
#X connect 2 0 1 0;
#X connect 3 0 1 0;
#X connect 4 0 1 0;
#X connect 5 0 4 0;
#X connect 5 1 3 0;
#X connect 6 0 8 0;
#X connect 7 0 30 1;
#X connect 8 0 29 0;
#X connect 8 1 7 0;
#X connect 19 0 9 0;
#X connect 20 0 10 0;
#X connect 21 0 11 0;
#X connect 22 0 12 0;
#X connect 23 0 13 0;
#X connect 24 0 14 0;
#X connect 25 0 15 0;
#X connect 26 0 16 0;
#X connect 27 0 17 0;
#X connect 28 0 18 0;
#X connect 29 0 30 0;
#X connect 30 0 9 0;
#X connect 30 1 10 0;
#X connect 30 2 11 0;
#X connect 30 3 12 0;
#X connect 30 4 13 0;
#X connect 30 5 14 0;
#X connect 30 6 15 0;
#X connect 30 7 16 0;
#X connect 30 8 17 0;
#X connect 30 9 18 0;
#X restore 214 27 pd \$0-persistence;
#X obj 370 28 route selected;
#X obj 370 62 list split 1;
#X obj 431 588 lzr/selectbox;
#X obj 429 498 lzr/prepend setlist;
#X obj 490 183 lzr/symbol-set;
#X msg 410 126 add \$1 \, get;
#X obj 755 36 route selected;
#X msg 795 113 remove \$1 \, get;
#X obj 755 72 list split 1;
#X text 122 549 Available MIDI devices;
#X text 111 565 (click to add to the right list);
#X text 440 550 Automatically connected devices;
#X text 430 567 (click to remove);
#X connect 0 0 1 0;
#X connect 1 0 3 0;
#X connect 2 0 0 0;
#X connect 3 0 4 0;
#X connect 4 1 6 0;
#X connect 5 0 18 0;
#X connect 6 0 9 0;
#X connect 6 1 7 0;
#X connect 7 0 8 0;
#X connect 8 0 9 1;
#X connect 9 0 10 0;
#X connect 10 0 11 0;
#X connect 10 0 12 1;
#X connect 11 0 10 1;
#X connect 12 0 15 0;
#X connect 13 0 14 0;
#X connect 14 0 12 0;
#X connect 14 1 2 0;
#X connect 14 2 10 1;
#X connect 15 0 5 0;
#X connect 18 0 19 0;
#X connect 19 1 23 0;
#X connect 20 0 24 0;
#X connect 21 0 20 0;
#X connect 22 0 21 0;
#X connect 23 0 22 0;
#X connect 24 0 26 0;
#X connect 25 0 22 0;
#X connect 26 1 25 0;
#X coords 0 -1 1 1 650 320 2 100 540;
#X restore 64 417 pd \$0-midi;
#X connect 1 0 4 0;
#X connect 2 0 1 0;
#X connect 3 0 10 0;
#X connect 4 1 5 0;
#X connect 5 1 6 0;
#X connect 6 0 0 0;
#X connect 7 0 0 0;
#X connect 9 0 0 0;
#X connect 10 0 18 0;
#X connect 10 1 7 0;
#X connect 10 2 9 0;
#X connect 11 0 19 0;
#X connect 12 0 13 0;
#X connect 13 0 15 0;
#X connect 14 0 0 0;
#X connect 15 1 14 0;
#X connect 16 0 11 0;
#X connect 16 1 3 0;
#X connect 17 0 16 0;
#X connect 18 0 2 0;
#X connect 19 0 12 0;
#X connect 20 0 16 0;
#X coords 0 678 1 677 150 60 2 0 0;
