#N canvas 93 132 526 402 10;
#X floatatom 13 121 5 0 0 0 - - -;
#X floatatom 127 128 5 0 0 0 - - -;
#X obj 89 129 > 0;
#X obj 44 152 spigot;
#X obj 29 288 outlet;
#X obj 129 285 outlet;
#X obj 37 180 - 35;
#X floatatom 70 228 5 0 0 0 - - -;
#X obj 106 172 spigot;
#X text 3 0 MPX16;
#X text 47 11 Velocity;
#X text 3 13 Pad #;
#X obj 60 90 inlet;
#X obj 101 89 inlet;
#X connect 2 0 3 1;
#X connect 2 0 8 1;
#X connect 2 0 8 0;
#X connect 3 0 6 0;
#X connect 6 0 4 0;
#X connect 6 0 7 0;
#X connect 8 0 5 0;
#X connect 12 0 0 0;
#X connect 12 0 3 0;
#X connect 13 0 2 0;
#X connect 13 0 1 0;
#X coords 0 -1 1 1 100 30 2 0 0;
