#N canvas 564 183 698 513 10;
#X obj 282 113 > 0;
#X obj 220 183 spigot;
#X obj 220 332 outlet;
#X obj 305 332 outlet;
#X obj 220 224 - 35;
#X obj 305 222 spigot;
#X text 3 0 MPX16;
#X text 47 11 Velocity;
#X text 3 13 Pad #;
#X obj 220 75 inlet;
#X obj 282 73 inlet;
#X obj 282 140 t a a a;
#X connect 0 0 11 0;
#X connect 1 0 4 0;
#X connect 4 0 2 0;
#X connect 5 0 3 0;
#X connect 9 0 1 0;
#X connect 10 0 0 0;
#X connect 11 0 1 1;
#X connect 11 1 5 0;
#X connect 11 2 5 1;
#X coords 0 -1 1 1 120 30 2 0 0;
