#N canvas 461 162 1064 649 10;
#X obj 129 232 spigot 1;
#X msg 231 196 0;
#X msg 182 196 1;
#X obj 271 165 t a;
#X obj 191 302 delay 100;
#X obj 191 326 t b b;
#X obj 271 362 t a;
#X obj 129 260 t b b b;
#X obj 129 78 iemguts/savebangs 1;
#X msg 223 424 menusave;
#X obj 223 471 iemguts/sendcanvas 1;
#X text 305 423 <= save the parent patch again;
#X text 268 496 to parent patch canvas;
#X text 281 304 <= without this delay any changes that happened;
#X text 300 321 in the patch after sending the bang;
#X text 301 338 don't get saved;
#X obj 152 473 outlet;
#X text 50 487 send a bang;
#X text 51 502 when parent patch;
#X text 51 517 is saved;
#X text 302 79 <= get a bang when parent patch is saved;
#X text 750 67 ====== lzr/onsave ======;
#X obj 725 7 t a;
#X obj 725 613 t a;
#X text 751 99 Sends a bang when parent patch is saved.;
#X text 742 120 Shortly afterwards parent patch is saved;
#X text 742 139 one more time \, so that any changes made;
#X text 742 159 after the bang are saved with the patch.;
#X connect 0 0 7 0;
#X connect 1 0 0 1;
#X connect 2 0 0 1;
#X connect 3 0 2 0;
#X connect 4 0 5 0;
#X connect 5 0 6 0;
#X connect 5 1 9 0;
#X connect 6 0 3 0;
#X connect 7 0 4 0;
#X connect 7 1 16 0;
#X connect 7 2 1 0;
#X connect 8 0 0 0;
#X connect 9 0 10 0;
#X connect 22 0 23 0;
