#N canvas 468 22 972 730 10;
#X obj 110 379 wrap~;
#X obj 109 358 +~ 0.5;
#X obj -42 371 cos~;
#X obj 110 399 cos~;
#X obj -2 -12 inlet~;
#X obj 119 66 outlet~;
#X obj -53 194 delwrite~ \$0-phase1 100;
#X obj 56 148 delwrite~ \$0-phase2 100;
#X obj 109 472 vd~ \$0-phase2;
#X obj -7 590 vd~ \$0-phase1;
#X obj 97 665 s~ \$0-output;
#X obj 130 -3 r~ \$0-output;
#X text 80 280 LFO;
#N canvas 483 215 373 98 node 0;
#X obj 14 9 inlet~;
#X obj 14 49 outlet~;
#X connect 0 0 1 0;
#X coords 0 -1 1 1 8 5 2 0 0;
#X restore 42 57 pd node;
#X obj 368 3 inlet;
#X obj 447 3 inlet;
#X obj 536 1 inlet;
#N canvas 483 215 373 98 node 0;
#X obj 14 9 inlet~;
#X obj 14 49 outlet~;
#X connect 0 0 1 0;
#X coords 0 -1 1 1 8 5 2 0 0;
#X restore 130 505 pd node;
#N canvas 483 215 373 98 node 0;
#X obj 14 9 inlet~;
#X obj 14 49 outlet~;
#X connect 0 0 1 0;
#X coords 0 -1 1 1 8 5 2 0 0;
#X restore 213 499 pd node;
#X text -84 99;
#X obj 73 301 phasor~;
#X obj 110 423 *~ 2;
#X obj 109 446 +~ 2;
#X obj -43 437 *~ 2;
#X obj -43 457 +~ 2;
#X obj -188 96 *~ 0.8;
#X obj 225 104 *~ 0.8;
#X connect 0 0 3 0;
#X connect 1 0 0 0;
#X connect 2 0 23 0;
#X connect 3 0 21 0;
#X connect 4 0 5 0;
#X connect 4 0 6 0;
#X connect 4 0 13 0;
#X connect 8 0 10 0;
#X connect 8 0 17 0;
#X connect 9 0 10 0;
#X connect 9 0 25 0;
#X connect 11 0 5 0;
#X connect 13 0 7 0;
#X connect 14 0 20 0;
#X connect 15 0 21 1;
#X connect 15 0 22 1;
#X connect 15 0 23 1;
#X connect 15 0 24 1;
#X connect 16 0 25 1;
#X connect 16 0 26 1;
#X connect 17 0 18 0;
#X connect 18 0 26 0;
#X connect 20 0 1 0;
#X connect 20 0 2 0;
#X connect 21 0 22 0;
#X connect 22 0 8 0;
#X connect 23 0 24 0;
#X connect 24 0 9 0;
#X connect 25 0 6 0;
#X connect 26 0 7 0;
#X coords 0 730 1 729 200 120 0;
