#N canvas 123 235 998 453 10;
#X obj 22 49 knob 32 32 0 10 0 1 \$0-speed empty empty 0 -8 0 8 -262144
-1 -1 0 1;
#X text 20 29 Speed;
#X obj 83 50 knob 32 32 0 3 0 1 \$0-depth empty empty 0 -8 0 8 -262144
-1 -1 0 1;
#X text 142 31 Feedback;
#X obj 147 49 knob 32 32 -0.9 0.9 0 1 \$0-feedback empty empty 0 -8
0 8 -262144 -1 -1 1550 1;
#X text 83 13 Phaser;
#X text 82 30 Depth;
#X obj 15 87 nbx 5 14 -1e+37 1e+37 0 0 empty empty empty 0 -8 0 10
-262144 -1 -1 0 256;
#X obj 78 87 nbx 5 14 -1e+37 1e+37 0 0 empty empty empty 0 -8 0 10
-262144 -1 -1 0 256;
#X obj 143 87 nbx 5 14 -1e+37 1e+37 0 0 empty empty empty 0 -8 0 10
-262144 -1 -1 0 256;
#X obj 265 59 inlet~;
#X obj 265 251 outlet~;
#X obj 599 56 inlet~;
#X obj 599 249 outlet~;
#X obj 662 55 r \$0-speed;
#X obj 328 60 r \$0-speed;
#X obj 725 80 r \$0-depth;
#X obj 788 112 r \$0-feedback;
#X obj 391 86 r \$0-depth;
#X obj 454 108 r \$0-feedback;
#X obj 265 136 lzr/phaser-effect-single-channel;
#X obj 599 158 lzr/phaser-effect-single-channel;
#X obj 909 61 inlet;
#X obj 911 255 outlet;
#X connect 0 0 7 0;
#X connect 2 0 8 0;
#X connect 4 0 9 0;
#X connect 10 0 20 0;
#X connect 12 0 21 0;
#X connect 14 0 21 1;
#X connect 15 0 20 1;
#X connect 16 0 21 2;
#X connect 17 0 21 3;
#X connect 18 0 20 2;
#X connect 19 0 20 3;
#X connect 20 0 11 0;
#X connect 21 0 13 0;
#X coords 0 -1 1 1 190 190 2 10 10;
