#N canvas 159 79 810 406 10;
#X obj 316 41 inlet~;
#X obj 325 209 outlet~;
#X obj 470 43 inlet~;
#X obj 479 211 outlet~;
#X obj 70 41 vu 15 120 empty empty -1 -8 0 10 -66577 -1 1 0;
#X obj 365 116 poly-synth1;
#X obj 369 88 notein 1;
#X obj 235 126 env~;
#X obj 235 148 - 100;
#X text 38 11 Poly-synth;
#X connect 5 0 1 0;
#X connect 5 0 3 0;
#X connect 5 0 7 0;
#X connect 6 0 5 0;
#X connect 6 1 5 1;
#X connect 7 0 8 0;
#X connect 8 0 4 0;
#X coords 0 -1 1 1 190 190 2 0 0;
