#N canvas 235 149 691 500 10;
#X obj 100 100 session-clip \$1 1;
#X obj 100 125 session-clip \$1 2;
#X obj 100 150 session-clip \$1 3;
#X obj 100 175 session-clip \$1 4;
#X obj 100 200 session-clip \$1 5;
#X obj 100 225 session-clip \$1 6;
#X obj 100 250 session-clip \$1 7;
#X obj 100 275 session-clip \$1 8;
#X obj 31 31 catch~ \$0-track\$1-in-left;
#X obj 130 50 catch~ \$0-track\$1-in-right;
#X connect 8 0 0 0;
#X connect 8 0 1 0;
#X connect 8 0 2 0;
#X connect 8 0 3 0;
#X connect 8 0 4 0;
#X connect 8 0 5 0;
#X connect 8 0 6 0;
#X connect 8 0 7 0;
#X connect 9 0 0 1;
#X connect 9 0 1 1;
#X connect 9 0 2 1;
#X connect 9 0 3 1;
#X connect 9 0 4 1;
#X connect 9 0 5 1;
#X connect 9 0 6 1;
#X connect 9 0 7 1;
#X coords 0 -1 1 1 172 200 2 100 100;
