#N canvas 450 220 472 409 10;
#X obj 83 154 loadbang;
#X obj 61 155 bng 15 250 50 0 empty empty empty 17 7 0 10 -262144 -1
-1;
#X obj 83 308 s \$0-track-name-r;
#X msg 83 281 set track\$1_\$2...;
#X obj 83 187 t b b;
#X obj 83 220 f \$1;
#X obj 115 220 f \$2;
#X obj 83 253 pack f f;
#X obj 70 35 inlet~;
#X obj 127 35 inlet~;
#X obj 190 36 inlet;
#X obj 78 348 outlet~;
#X obj 146 348 outlet~;
#X obj 219 348 outlet;
#X obj 100 100 cnv 15 172 25 empty empty empty 20 12 0 14 -167912 -66577
0;
#X obj 105 105 tgl 15 0 empty empty P 5 8 0 10 -262144 -1 -1 0 1;
#X obj 125 105 tgl 15 0 empty empty R 5 8 0 10 -262144 -1 -1 0 1;
#X symbolatom 147 105 20 0 0 0 - #0-track-name-r #0-track-name;
#X connect 0 0 4 0;
#X connect 1 0 4 0;
#X connect 3 0 2 0;
#X connect 4 0 5 0;
#X connect 4 1 6 0;
#X connect 5 0 7 0;
#X connect 6 0 7 1;
#X connect 7 0 3 0;
#X coords 0 -1 1 1 172 25 2 100 100;
