#N canvas 536 88 1033 745 10;
#X obj 100 300 session-clip \$1 \$2 1;
#X obj 100 336 session-clip \$1 \$2 2;
#X obj 100 372 session-clip \$1 \$2 3;
#X obj 100 408 session-clip \$1 \$2 4;
#X obj 100 444 session-clip \$1 \$2 5;
#X obj 100 480 session-clip \$1 \$2 6;
#X obj 100 516 session-clip \$1 \$2 7;
#X obj 100 548 session-clip \$1 \$2 8;
#X obj 222 634 *~ 0.125;
#X obj 27 600 *~ 0.125;
#X obj 536 341 t a;
#X obj 547 370 t a;
#X obj 541 403 t a;
#X obj 546 431 t a;
#X obj 559 472 t a;
#X obj 553 501 t a;
#X obj 566 543 t a;
#X obj 483 129 inlet;
#X obj 551 687 outlet;
#X obj 483 260 t a;
#X obj 551 622 t a;
#X obj 27 652 outlet~;
#X obj 222 675 outlet~;
#X obj 334 639 outlet;
#X text 335 663 midi out;
#X text 16 681 audio left;
#X text 221 701 audio right;
#X text 541 710 to global event bus;
#X text 486 103 from global event bus;
#X obj 5 202 inlet~;
#X obj 202 207 inlet~;
#X obj 290 229 inlet;
#X text 294 204 midi in;
#X connect 0 0 9 0;
#X connect 0 1 8 0;
#X connect 0 2 10 0;
#X connect 0 3 20 0;
#X connect 1 0 9 0;
#X connect 1 1 8 0;
#X connect 1 2 11 0;
#X connect 1 3 20 0;
#X connect 2 0 9 0;
#X connect 2 1 8 0;
#X connect 2 2 12 0;
#X connect 2 3 20 0;
#X connect 3 0 9 0;
#X connect 3 1 8 0;
#X connect 3 2 13 0;
#X connect 3 3 20 0;
#X connect 4 0 9 0;
#X connect 4 1 8 0;
#X connect 4 2 14 0;
#X connect 4 3 20 0;
#X connect 5 0 9 0;
#X connect 5 1 8 0;
#X connect 5 2 15 0;
#X connect 5 3 20 0;
#X connect 6 0 9 0;
#X connect 6 1 8 0;
#X connect 6 2 16 0;
#X connect 6 3 20 0;
#X connect 7 0 9 0;
#X connect 7 1 8 0;
#X connect 7 2 23 0;
#X connect 7 3 20 0;
#X connect 8 0 22 0;
#X connect 9 0 21 0;
#X connect 10 0 1 2;
#X connect 11 0 2 2;
#X connect 12 0 3 2;
#X connect 13 0 4 2;
#X connect 14 0 5 2;
#X connect 15 0 6 2;
#X connect 16 0 7 2;
#X connect 17 0 19 0;
#X connect 19 0 0 3;
#X connect 19 0 1 3;
#X connect 19 0 2 3;
#X connect 19 0 3 3;
#X connect 19 0 4 3;
#X connect 19 0 5 3;
#X connect 19 0 6 3;
#X connect 19 0 7 3;
#X connect 20 0 18 0;
#X connect 29 0 0 0;
#X connect 29 0 1 0;
#X connect 29 0 2 0;
#X connect 29 0 3 0;
#X connect 29 0 4 0;
#X connect 29 0 5 0;
#X connect 29 0 6 0;
#X connect 29 0 7 0;
#X connect 30 0 0 1;
#X connect 30 0 1 1;
#X connect 30 0 2 1;
#X connect 30 0 3 1;
#X connect 30 0 4 1;
#X connect 30 0 5 1;
#X connect 30 0 6 1;
#X connect 30 0 7 1;
#X connect 31 0 0 2;
#X coords 0 745 1 744 172 283 2 100 300;
