#N canvas 404 73 1116 805 10;
#X obj 90 111 loadbang;
#X obj 69 113 bng 15 250 50 0 empty empty empty 17 7 0 10 -262144 -1
-1;
#X obj 916 78 inlet;
#X obj 984 556 outlet;
#X obj 100 300 cnv 15 172 35 empty empty empty 5 8 0 10 -204800 -1345
0;
#X symbolatom 139 303 18 0 0 0 - #0-track-name.gui.set #0-track-name.gui
, f 18;
#N canvas 605 180 840 629 \$0-unique-filename 0;
#X obj 439 138 time;
#X obj 386 140 date;
#X obj 108 44 inlet;
#X obj 355 64 bng 15 250 50 0 empty empty empty 17 7 0 10 -262144 -1
-1;
#X obj 316 513 outlet;
#X obj 621 38 inlet;
#X text 615 19 track name;
#X text 42 25 bang to generate a unique filename;
#X obj 316 453 symbol;
#X floatatom 400 187 0 0 0 0 - - -;
#X floatatom 381 211 0 0 0 0 - - -;
#X floatatom 363 238 0 0 0 0 - - -;
#X floatatom 456 181 0 0 0 0 - - -;
#X floatatom 437 205 0 0 0 0 - - -;
#X floatatom 418 232 0 0 0 0 - - -;
#X text 301 535 output a unique filename;
#X text 301 550 based on track name;
#X text 301 564 and current date;
#X obj 621 246 t a;
#X obj 316 114 t b b b b;
#X obj 107 71 route set_directory bang;
#X obj 355 319 pack s s f f f f f f;
#X msg 355 384 symbol \$1/\$2___\$3-\$4-\$5___\$6-\$7-\$8.mid;
#X connect 0 0 14 0;
#X connect 0 1 13 0;
#X connect 0 2 12 0;
#X connect 1 0 11 0;
#X connect 1 1 10 0;
#X connect 1 2 9 0;
#X connect 2 0 20 0;
#X connect 3 0 19 0;
#X connect 5 0 18 0;
#X connect 8 0 4 0;
#X connect 9 0 21 4;
#X connect 10 0 21 3;
#X connect 11 0 21 2;
#X connect 12 0 21 7;
#X connect 13 0 21 6;
#X connect 14 0 21 5;
#X connect 18 0 21 1;
#X connect 19 0 8 0;
#X connect 19 1 21 0;
#X connect 19 2 1 0;
#X connect 19 3 0 0;
#X connect 20 0 21 0;
#X connect 20 1 19 0;
#X connect 21 0 22 0;
#X connect 22 0 8 1;
#X restore 349 521 pd \$0-unique-filename;
#X msg 148 209 symbol track\$1_\$2;
#X obj 105 322 hsl 160 8 0 1 0 0 \$0-progress.gui \$0-progress.gui.set
empty -2 -8 0 10 -262144 -1 -1 0 1;
#X msg 90 209 0;
#X obj 104 303 tgl 15 0 \$0-play.gui \$0-play.gui.set P 5 8 0 10 -262144
-1 -13956 0 1;
#X obj 121 303 tgl 15 0 \$0-record.gui \$0-record.gui.set R 5 8 0 10
-262144 -1 -258113 0 1;
#X obj 349 41 r \$1-global-events;
#X obj 443 148 route beat;
#X obj 349 124 t a;
#X obj 148 181 pack \$2 \$3;
#X obj 783 723 s \$1-global-events;
#N canvas 552 280 934 517 \$0-save 0;
#X obj 95 101 inlet;
#X obj 95 405 outlet;
#X obj 227 102 inlet;
#X obj 95 242 pack \$2 \$3 s;
#X text 197 64 when recording a new file;
#X text 197 81 the filename is sent here;
#X msg 95 278 clip-params \$1 \$2 filename \$3;
#X text 48 63 bang to dump;
#X text 49 80 clip's params;
#X text 324 420 \$2 is the track number;
#X text 325 437 \$3 is the clip number;
#X obj 95 197 spigot 0;
#X obj 227 131 t b s;
#X msg 148 172 1;
#X obj 553 97 inlet;
#X text 545 74 custom track name;
#X obj 421 256 pack \$2 \$3 s;
#X text 557 239 \$2 is the track number;
#X text 558 256 \$3 is the clip number;
#X obj 421 211 spigot 0;
#X obj 553 145 t b s;
#X msg 474 179 1;
#X obj 95 137 t b b;
#X msg 421 292 clip-params \$1 \$2 track-name \$3;
#X connect 0 0 22 0;
#X connect 2 0 12 0;
#X connect 3 0 6 0;
#X connect 6 0 1 0;
#X connect 11 0 3 0;
#X connect 12 0 13 0;
#X connect 12 1 3 2;
#X connect 13 0 11 1;
#X connect 14 0 20 0;
#X connect 16 0 23 0;
#X connect 19 0 16 0;
#X connect 20 0 21 0;
#X connect 20 1 16 2;
#X connect 21 0 19 1;
#X connect 22 0 11 0;
#X connect 22 1 19 0;
#X connect 23 0 1 0;
#X restore 627 508 pd \$0-save;
#N canvas 172 163 368 286 \$0-setdir 0;
#X msg 114 142 set_directory \$1;
#X obj 114 92 symbol;
#X obj 114 53 inlet;
#X obj 114 181 outlet;
#X obj 114 116 makefilename %s/midi;
#X connect 0 0 3 0;
#X connect 1 0 4 0;
#X connect 2 0 1 0;
#X connect 4 0 0 0;
#X restore 349 148 pd \$0-setdir;
#X obj 64 284 t a;
#X obj 783 572 t a;
#X obj 712 634 t a;
#X obj 712 425 t a;
#N canvas 194 214 509 430 \$0-params 0;
#X obj 62 28 inlet;
#X obj 62 262 outlet;
#X obj 62 76 route filename track-name;
#X obj 198 259 outlet;
#X obj 62 194 symbol;
#X obj 198 193 symbol;
#X obj 62 134 prepend symbol;
#X obj 198 136 prepend symbol;
#X connect 0 0 2 0;
#X connect 2 0 6 0;
#X connect 2 1 7 0;
#X connect 4 0 1 0;
#X connect 5 0 3 0;
#X connect 6 0 4 0;
#X connect 7 0 5 0;
#X restore 660 169 pd \$0-params;
#X obj 660 121 route \$2;
#X obj 660 143 route \$3;
#N canvas 462 46 1059 879 \$0-playback-state 0;
#X msg 278 556 stop;
#X obj 465 466 tgl 15 0 empty empty empty 17 7 0 10 -262144 -1 -1 0
1;
#X msg 431 437 1;
#X msg 465 437 0;
#X obj 301 274 bng 15 250 50 0 empty empty empty 17 7 0 10 -262144
-1 -1;
#X obj 188 311 bng 15 250 50 0 empty empty empty 17 7 0 10 -262144
-1 -1;
#X obj 165 311 bng 15 250 50 0 empty empty empty 17 7 0 10 -262144
-1 -1;
#X text 428 486 recording;
#X obj 278 220 sel 0 1;
#X obj 278 196 change;
#X obj 165 196 change;
#X obj 165 170 int;
#X obj 278 172 int;
#X text 106 310 record;
#X text 308 256 play;
#X obj 119 122 t b b b;
#X obj 119 151 bng 15 250 50 0 empty empty empty 17 7 0 10 -262144
-1 -1;
#X obj 686 754 outlet;
#X text 671 780 to unique filename;
#X text 674 797 generator;
#X obj 456 53 inlet;
#X text 427 17 from unique filename;
#X text 427 32 generator;
#X obj 465 360 lzr/func;
#X msg 165 555 record;
#X obj 371 625 cyclone/seq;
#X obj 371 780 outlet;
#X obj 278 276 bng 15 250 50 0 empty empty empty 17 7 0 10 -262144
-1 -1;
#X text 206 312 stop rec;
#X text 226 247 stop;
#X text 221 261 playing;
#X obj 165 220 sel 1 0;
#X obj 686 442 t a;
#X obj 694 49 inlet;
#X text 683 32 midi in;
#X text 369 813 midi out;
#X obj 371 654 midiparse;
#X obj 779 462 t a;
#X obj 305 710 prepend midi-note;
#X obj 441 710 prepend midi-control;
#X obj 779 254 midiformat;
#X obj 694 168 route midi-note midi-control;
#X obj 465 384 symbol;
#X msg 301 507 bang;
#X obj 473 596 bng 15 250 50 0 empty empty empty 17 7 0 10 -262144
-1 -1;
#X obj 100 54 inlet;
#X msg 215 122 0;
#X msg 183 122 1;
#X msg 296 121 1;
#X msg 332 121 0;
#X text 74 30 incoming messages;
#X obj 100 80 route beat record stop-recording play stop load;
#X msg 371 537 read \$1;
#X msg 544 472 stop record;
#X obj 465 407 t b s s;
#X msg 543 503 write \$1;
#X obj 393 566 p read.command;
#X obj 371 252 symbol;
#X obj 389 285 p after.symbol;
#X obj 393 168 p before.symbol;
#X connect 0 0 25 0;
#X connect 2 0 1 0;
#X connect 3 0 1 0;
#X connect 4 0 43 0;
#X connect 5 0 23 0;
#X connect 6 0 24 0;
#X connect 6 0 2 0;
#X connect 8 0 27 0;
#X connect 8 1 4 0;
#X connect 9 0 8 0;
#X connect 10 0 31 0;
#X connect 11 0 10 0;
#X connect 12 0 9 0;
#X connect 15 0 16 0;
#X connect 15 1 12 0;
#X connect 15 2 11 0;
#X connect 20 0 23 1;
#X connect 23 0 42 0;
#X connect 23 1 32 0;
#X connect 24 0 25 0;
#X connect 25 0 36 0;
#X connect 25 1 44 0;
#X connect 27 0 0 0;
#X connect 31 0 6 0;
#X connect 31 1 5 0;
#X connect 32 0 17 0;
#X connect 33 0 41 0;
#X connect 36 0 38 0;
#X connect 36 1 39 0;
#X connect 37 0 25 0;
#X connect 38 0 26 0;
#X connect 39 0 26 0;
#X connect 40 0 37 0;
#X connect 41 0 40 0;
#X connect 41 1 40 1;
#X connect 42 0 54 0;
#X connect 43 0 25 0;
#X connect 44 0 25 0;
#X connect 45 0 51 0;
#X connect 46 0 11 1;
#X connect 47 0 11 1;
#X connect 48 0 12 1;
#X connect 49 0 12 1;
#X connect 51 0 15 0;
#X connect 51 1 47 0;
#X connect 51 2 46 0;
#X connect 51 3 48 0;
#X connect 51 4 49 0;
#X connect 51 5 59 0;
#X connect 52 0 25 0;
#X connect 52 0 56 0;
#X connect 53 0 25 0;
#X connect 54 0 3 0;
#X connect 54 1 55 0;
#X connect 54 2 53 0;
#X connect 55 0 25 0;
#X connect 57 0 58 0;
#X connect 58 0 52 0;
#X connect 59 0 57 0;
#X restore 370 358 pd \$0-playback-state;
#X obj 349 547 t s s;
#X obj 540 636 t a;
#X obj 540 272 t a;
#N canvas 801 229 708 512 \$0-global-play 0;
#X msg 184 222 clip-play-button-pressed \$1 \$2;
#X obj 184 191 pack \$2 \$3;
#X text 194 253 Notify the transport module;
#X text 193 273 that the play button has;
#X text 194 293 been pressed. This will initiate;
#X text 194 313 the playing mode \, unless it was;
#X text 194 332 already on.;
#X obj 184 432 outlet;
#X obj 184 84 inlet;
#X text 152 26 bang when clip's play mode;
#X text 152 44 has been enabled by pressing;
#X text 151 62 the play button;
#X obj 184 135 route play;
#X connect 0 0 7 0;
#X connect 1 0 0 0;
#X connect 8 0 12 0;
#X connect 12 0 1 0;
#X restore 783 389 pd \$0-global-play;
#N canvas 304 265 401 255 \$0-argument-docs 0;
#X text 36 111 \$2: track number;
#X text 36 132 \$3: clip number;
#X text 64 92 that contains audio throws;
#X text 36 76 \$1: \$0 of a top level parent patch;
#X text 27 51 Abstraction arguments:;
#X restore 61 47 pd \$0-argument-docs;
#X obj 146 340 r \$0-track-name.gui;
#X obj 90 247 t a;
#X obj 119 247 t a;
#X obj 148 279 s \$0-track-name.gui.set;
#X obj 90 143 t a;
#X obj 493 429 t a;
#X obj 349 96 route loading saving tick save-parameters set-clip-param
;
#X text 920 41 midi;
#X text 978 587 midi out;
#N canvas 751 293 513 460 \$0-button-msgs 0;
#X obj 75 57 inlet;
#X obj 292 61 inlet;
#X text 45 38 (1 or 0 from toggle);
#X text 247 37 (1 or 0 from toggle);
#X text 249 20 from record button;
#X text 47 21 from play button;
#X obj 75 122 sel 0 1;
#X obj 292 125 sel 0 1;
#X msg 75 261 stop;
#X obj 182 335 outlet;
#X text 123 369 translated control messages;
#X msg 98 212 play;
#X msg 315 210 record;
#X msg 292 260 stop-recording;
#X connect 0 0 6 0;
#X connect 1 0 7 0;
#X connect 6 0 8 0;
#X connect 6 1 11 0;
#X connect 7 0 13 0;
#X connect 7 1 12 0;
#X connect 8 0 9 0;
#X connect 11 0 9 0;
#X connect 12 0 9 0;
#X connect 13 0 9 0;
#X restore 44 409 pd \$0-button-msgs;
#X obj 443 176 prepend beat;
#X obj 207 458 t a;
#X obj 370 295 t a;
#X obj 660 204 t s s;
#X msg 617 228 load \$1;
#X obj 640 305 p load.command;
#X connect 0 0 36 0;
#X connect 1 0 36 0;
#X connect 2 0 26 2;
#X connect 6 0 27 0;
#X connect 7 0 35 0;
#X connect 9 0 33 0;
#X connect 9 0 34 0;
#X connect 10 0 41 0;
#X connect 11 0 41 1;
#X connect 12 0 38 0;
#X connect 13 0 42 0;
#X connect 14 0 18 0;
#X connect 15 0 7 0;
#X connect 17 0 20 0;
#X connect 18 0 6 0;
#X connect 19 0 8 0;
#X connect 20 0 16 0;
#X connect 21 0 22 0;
#X connect 22 0 17 1;
#X connect 23 0 45 0;
#X connect 23 1 35 0;
#X connect 24 0 25 0;
#X connect 25 0 23 0;
#X connect 26 0 3 0;
#X connect 26 1 6 0;
#X connect 27 0 28 0;
#X connect 27 1 21 0;
#X connect 28 0 29 0;
#X connect 29 0 26 1;
#X connect 30 0 20 0;
#X connect 32 0 37 0;
#X connect 33 0 10 0;
#X connect 34 0 11 0;
#X connect 36 0 9 0;
#X connect 36 0 15 0;
#X connect 37 0 17 2;
#X connect 37 0 6 1;
#X connect 38 0 14 0;
#X connect 38 1 14 0;
#X connect 38 2 13 0;
#X connect 38 3 17 0;
#X connect 38 4 24 0;
#X connect 41 0 43 0;
#X connect 42 0 44 0;
#X connect 43 0 44 0;
#X connect 44 0 30 0;
#X connect 44 0 26 0;
#X connect 45 0 46 0;
#X connect 45 1 17 1;
#X connect 46 0 44 0;
#X connect 46 0 47 0;
#X coords 0 -1 1 1 172 35 2 100 300;
