#N canvas 536 88 1033 745 10;
#X obj 100 300 session-clip \$1 \$2 1;
#X obj 243 231 catch~ \$1-track\$2-phys-in-right;
#X obj 33 254 catch~ \$1-track\$2-phys-in-left;
#X obj 27 652 throw~ \$1-track\$2-virt-in-left;
#X obj 343 655 throw~ \$1-track\$2-virt-in-right;
#X obj 100 336 session-clip \$1 \$2 2;
#X obj 100 372 session-clip \$1 \$2 3;
#X obj 100 408 session-clip \$1 \$2 4;
#X obj 100 444 session-clip \$1 \$2 5;
#X obj 100 480 session-clip \$1 \$2 6;
#X obj 100 516 session-clip \$1 \$2 7;
#X obj 100 548 session-clip \$1 \$2 8;
#X obj 343 614 *~ 0.125;
#X obj 27 600 *~ 0.125;
#X obj 508 234 r \$1-track\$2-input;
#X obj 337 326 t a;
#X obj 333 356 t a;
#X obj 335 390 t a;
#X obj 333 434 t a;
#X obj 331 476 t a;
#X obj 328 509 t a;
#X obj 330 545 t a;
#X obj 475 595 s \$1-track\$2-fx-in;
#X connect 0 0 13 0;
#X connect 0 1 12 0;
#X connect 0 2 15 0;
#X connect 1 0 0 1;
#X connect 1 0 5 1;
#X connect 1 0 6 1;
#X connect 1 0 7 1;
#X connect 1 0 8 1;
#X connect 1 0 9 1;
#X connect 1 0 10 1;
#X connect 1 0 11 1;
#X connect 2 0 0 0;
#X connect 2 0 5 0;
#X connect 2 0 6 0;
#X connect 2 0 7 0;
#X connect 2 0 8 0;
#X connect 2 0 9 0;
#X connect 2 0 10 0;
#X connect 2 0 11 0;
#X connect 5 0 13 0;
#X connect 5 1 12 0;
#X connect 5 2 16 0;
#X connect 6 0 13 0;
#X connect 6 1 12 0;
#X connect 6 2 17 0;
#X connect 7 0 13 0;
#X connect 7 1 12 0;
#X connect 7 2 18 0;
#X connect 8 0 13 0;
#X connect 8 1 12 0;
#X connect 8 2 19 0;
#X connect 9 0 13 0;
#X connect 9 1 12 0;
#X connect 9 2 20 0;
#X connect 10 0 13 0;
#X connect 10 1 12 0;
#X connect 10 2 21 0;
#X connect 11 0 13 0;
#X connect 11 1 12 0;
#X connect 11 2 22 0;
#X connect 12 0 4 0;
#X connect 13 0 3 0;
#X connect 14 0 0 2;
#X connect 15 0 5 2;
#X connect 16 0 6 2;
#X connect 17 0 7 2;
#X connect 18 0 8 2;
#X connect 19 0 9 2;
#X connect 20 0 10 2;
#X connect 21 0 11 2;
#X coords 0 745 1 744 172 283 2 100 300;
