#N canvas 244 36 1426 842 10;
#X obj 82 307 loadbang;
#X obj 60 308 bng 15 250 50 0 empty empty empty 17 7 0 10 -262144 -1
-1;
#X obj 82 340 t b b;
#X obj 82 406 pack f f;
#X obj 417 43 inlet~;
#X obj 474 43 inlet~;
#X obj 537 44 inlet;
#X obj 417 733 outlet~;
#X obj 474 733 outlet~;
#X obj 537 733 outlet;
#X obj 100 100 cnv 15 172 35 empty empty empty 20 12 0 14 -167912 -4034
0;
#X obj 104 103 tgl 15 0 \$0-play.gui \$0-play.gui.set P 5 8 0 10 -24198
-24198 -225271 1 1;
#X obj 124 103 tgl 15 0 \$0-record.gui \$0-record.gui.set R 5 8 0 10
-258699 -258699 -261689 1 1;
#X symbolatom 146 103 20 0 0 0 - #0-track-name.gui.set #0-track-name.gui
;
#X text 64 150 Arguments:;
#X text 67 167 \$1: \$0 of a top level parent patch that contains audio
throws;
#X text 70 202 \$2: track number;
#X text 70 223 \$3: clip number;
#X obj 82 373 f \$2;
#X obj 114 373 f \$3;
#X obj 82 460 s \$0-track-name.gui.set;
#N canvas 270 103 676 633 \$0-buttons 0;
#X obj 129 397 change;
#X msg 129 423 set \$1;
#X obj 316 371 change;
#X msg 316 397 set \$1;
#X obj 315 62 r \$0-record.gui;
#X obj 128 66 r \$0-play.gui;
#X obj 140 111 mmb/save.me.mmb play \$0;
#X obj 128 267 s \$0-play;
#X obj 129 313 r \$0-play;
#X obj 327 107 mmb/save.me.mmb record \$0;
#X obj 315 257 s \$0-record;
#X obj 316 291 r \$0-record;
#X obj 129 449 s \$0-play.gui.set;
#X obj 316 423 s \$0-record.gui.set;
#N canvas 365 370 450 300 \$0-play-button-color 0;
#X obj 113 73 inlet;
#X obj 113 114 sel 0 1;
#X msg 113 167 color 0 0 16;
#X msg 177 202 color 16 16 6;
#X obj 136 245 s \$0-play.gui.set;
#X connect 0 0 1 0;
#X connect 1 0 2 0;
#X connect 1 1 3 0;
#X connect 2 0 4 0;
#X connect 3 0 4 0;
#X restore 155 194 pd \$0-play-button-color;
#N canvas 0 22 450 300 \$0-record-button-color 0;
#X obj 113 73 inlet;
#X obj 113 114 sel 0 1;
#X msg 113 167 color 0 0 13;
#X msg 177 202 color 13 13 3;
#X obj 136 245 s \$0-record.gui.set;
#X connect 0 0 1 0;
#X connect 1 0 2 0;
#X connect 1 1 3 0;
#X connect 2 0 4 0;
#X connect 3 0 4 0;
#X restore 342 190 pd \$0-record-button-color;
#X obj 128 160 t f f;
#X obj 315 156 t f f;
#X connect 0 0 1 0;
#X connect 1 0 12 0;
#X connect 2 0 3 0;
#X connect 3 0 13 0;
#X connect 4 0 9 0;
#X connect 4 0 17 0;
#X connect 5 0 6 0;
#X connect 5 0 16 0;
#X connect 6 0 16 0;
#X connect 8 0 0 0;
#X connect 9 0 17 0;
#X connect 11 0 2 0;
#X connect 16 0 7 0;
#X connect 16 1 14 0;
#X connect 17 0 10 0;
#X connect 17 1 15 0;
#X restore 75 24 pd \$0-buttons;
#N canvas 204 118 970 487 \$0-waveforms 0;
#N canvas 192 169 450 278 (subpatch) 0;
#X array \$0-channel-left 1 float 2;
#X coords 0 1 1 -1 400 100 2 0 0;
#X restore 61 68 graph;
#N canvas 0 22 450 278 (subpatch) 0;
#X array \$0-channel-right 261632 float 2;
#X coords 0 1 261632 -1 400 100 2 0 0;
#X restore 60 184 graph;
#X restore 75 46 pd \$0-waveforms;
#X obj 607 734 writesf~ 2;
#X msg 749 329 stop \, open \$1 \, start;
#X msg 823 433 stop;
#X obj 823 494 tgl 15 0 empty empty empty 17 7 0 10 -262144 -1 -1 0
1;
#X msg 762 467 1;
#X msg 823 467 0;
#X obj 995 299 bng 15 250 50 0 empty empty empty 17 7 0 10 -262144
-1 -1;
#X obj 1036 299 bng 15 250 50 0 empty empty empty 17 7 0 10 -262144
-1 -1;
#X obj 954 286 bng 15 250 50 0 empty empty empty 17 7 0 10 -262144
-1 -1;
#X obj 913 260 bng 15 250 50 0 empty empty empty 17 7 0 10 -262144
-1 -1;
#X msg 995 508 play;
#X msg 1036 513 pause;
#X obj 995 223 spigot;
#X obj 1036 255 spigot;
#X obj 954 255 spigot;
#X obj 913 224 spigot;
#X obj 1201 121 r \$0-record;
#X obj 1135 121 r \$0-play;
#X text 1132 101 input from GUI buttons;
#X obj 1201 207 ||;
#X obj 1201 182 t b f;
#X obj 1135 151 tgl 15 0 empty empty empty 17 7 0 10 -262144 -1 -1
1 1;
#X obj 1201 150 tgl 15 0 empty empty empty 17 7 0 10 -262144 -1 -1
1 1;
#X obj 913 160 route record stop play pause;
#X obj 982 592 s \$0-progress.gui.set;
#N canvas 565 179 944 635 \$0-player 0;
#X obj 19 547 outlet~;
#X obj 181 547 outlet~;
#X obj 75 222 soundfiler;
#X obj 90 250 s \$0-sample-size;
#X obj 75 276 expr 44100 / $f1;
#X obj 75 328 phasor~;
#X obj 114 482 *~;
#X obj 129 457 r \$0-sample-size;
#X obj 19 519 tabread4~ \$0-channel-left;
#X obj 181 520 tabread4~ \$0-channel-right;
#X obj 75 452 spigot~;
#X obj 75 172 pack s \$0;
#X msg 75 196 read -resize \$1 \$2-channel-left \$2-channel-right;
#X floatatom 198 245 5 0 0 0 - - -;
#X obj 494 21 inlet;
#X floatatom 228 300 5 0 0 0 - - -;
#X obj 644 446 snapshot~;
#X floatatom 574 510 5 0 0 0 - - -;
#X obj 644 422 bng 15 250 50 0 empty empty empty 17 7 0 10 -262144
-1 -1;
#X obj 547 78 bng 15 250 50 0 empty empty empty 17 7 0 10 -262144 -1
-1;
#X text 568 77 play;
#X obj 644 77 bng 15 250 50 0 empty empty empty 17 7 0 10 -262144 -1
-1;
#X text 665 76 pause;
#X obj 746 78 bng 15 250 50 0 empty empty empty 17 7 0 10 -262144 -1
-1;
#X text 767 77 stop;
#X msg 746 307 0;
#X obj 644 266 t b b;
#X msg 746 477 set \$1;
#X obj 547 128 t b b;
#X msg 547 209 1;
#X obj 494 49 route load play pause stop;
#X msg 671 293 0;
#X obj 657 546 outlet;
#X obj 581 398 metro 100;
#X obj 547 359 tgl 15 0 empty empty empty 17 7 0 10 -262144 -1 -1 0
1;
#X obj 644 183 spigot;
#X obj 547 102 spigot;
#X obj 644 108 spigot;
#X obj 746 104 spigot;
#X text 524 529 current position;
#X text 525 542 within a file;
#X text 523 556 (from 0 to 1);
#X obj 169 220 print Loading sound file:;
#X obj 457 100 bng 15 250 50 0 empty empty empty 17 7 0 10 -262144
-1 -1;
#X text 478 99 load;
#X obj 459 74 t a b b;
#X connect 2 0 3 0;
#X connect 2 0 4 0;
#X connect 2 0 13 0;
#X connect 4 0 5 0;
#X connect 4 0 15 0;
#X connect 5 0 10 0;
#X connect 5 0 16 0;
#X connect 6 0 8 0;
#X connect 6 0 9 0;
#X connect 7 0 6 1;
#X connect 8 0 0 0;
#X connect 9 0 1 0;
#X connect 10 1 6 0;
#X connect 11 0 12 0;
#X connect 12 0 2 0;
#X connect 12 0 42 0;
#X connect 14 0 30 0;
#X connect 15 0 36 1;
#X connect 15 0 37 1;
#X connect 15 0 38 1;
#X connect 16 0 27 0;
#X connect 16 0 32 0;
#X connect 17 0 5 1;
#X connect 18 0 16 0;
#X connect 19 0 36 0;
#X connect 21 0 37 0;
#X connect 23 0 38 0;
#X connect 25 0 27 0;
#X connect 25 0 34 0;
#X connect 26 0 18 0;
#X connect 26 1 31 0;
#X connect 27 0 17 0;
#X connect 28 0 29 0;
#X connect 28 1 17 0;
#X connect 29 0 34 0;
#X connect 30 0 45 0;
#X connect 30 1 19 0;
#X connect 30 2 21 0;
#X connect 30 3 23 0;
#X connect 31 0 34 0;
#X connect 33 0 16 0;
#X connect 34 0 33 0;
#X connect 34 0 10 1;
#X connect 34 0 35 1;
#X connect 35 0 26 0;
#X connect 36 0 28 0;
#X connect 37 0 35 0;
#X connect 38 0 25 0;
#X connect 45 0 11 0;
#X connect 45 1 43 0;
#X connect 45 2 25 0;
#X restore 913 547 pd \$0-player;
#N canvas 605 180 840 629 \$0-unique-filename 0;
#X obj 433 138 time;
#X obj 380 140 date;
#X obj 108 44 inlet;
#X obj 355 38 bng 15 250 50 0 empty empty empty 17 7 0 10 -262144 -1
-1;
#X obj 316 513 outlet;
#X obj 624 38 inlet;
#X text 618 19 track name;
#X text 42 25 bang to generate a unique filename;
#X obj 316 453 symbol;
#X floatatom 403 187 0 0 0 0 - - -;
#X floatatom 384 211 0 0 0 0 - - -;
#X floatatom 366 238 0 0 0 0 - - -;
#X floatatom 459 181 0 0 0 0 - - -;
#X floatatom 440 205 0 0 0 0 - - -;
#X floatatom 421 232 0 0 0 0 - - -;
#X text 301 535 output a unique filename;
#X text 301 550 based on track name;
#X text 301 564 and current date;
#X obj 621 246 t a;
#X obj 316 88 t b b b b;
#X obj 107 71 route set_directory bang;
#X obj 349 319 pack s s f f f f f f;
#X msg 349 384 symbol \$1/\$2___\$3-\$4-\$5___\$6-\$7-\$8.wav;
#X connect 0 0 14 0;
#X connect 0 1 13 0;
#X connect 0 2 12 0;
#X connect 1 0 11 0;
#X connect 1 1 10 0;
#X connect 1 2 9 0;
#X connect 2 0 20 0;
#X connect 3 0 19 0;
#X connect 5 0 18 0;
#X connect 8 0 4 0;
#X connect 9 0 21 4;
#X connect 10 0 21 3;
#X connect 11 0 21 2;
#X connect 12 0 21 7;
#X connect 13 0 21 6;
#X connect 14 0 21 5;
#X connect 18 0 21 1;
#X connect 19 0 8 0;
#X connect 19 1 21 0;
#X connect 19 2 1 0;
#X connect 19 3 0 0;
#X connect 20 0 21 0;
#X connect 20 1 19 0;
#X connect 21 0 22 0;
#X connect 22 0 8 1;
#X restore 749 301 pd \$0-unique-filename;
#X obj 748 261 r \$0-track-name.gui;
#X obj 913 120 r \$1-global-events;
#X obj 594 234 loadbang;
#X obj 572 233 bng 15 250 50 0 empty empty empty 17 7 0 10 -262144
-1 -1;
#X msg 594 263 set_directory audio;
#X msg 82 434 symbol track\$1_\$2;
#X obj 922 460 symbol;
#X msg 902 504 stop \, load \$1;
#X obj 105 122 hsl 160 8 0 1 0 0 \$0-progress.gui \$0-progress.gui.set
empty -2 -8 0 10 -262144 -1 -1 0 1;
#X text 807 514 recording;
#X msg 171 648 0;
#X obj 114 618 loadbang;
#X msg 61 647 0;
#X obj 63 674 s \$0-play.gui.set;
#X obj 171 695 s \$0-record.gui.set;
#X connect 0 0 2 0;
#X connect 1 0 2 0;
#X connect 2 0 18 0;
#X connect 2 1 19 0;
#X connect 3 0 55 0;
#X connect 4 0 7 0;
#X connect 4 0 23 0;
#X connect 5 0 8 0;
#X connect 5 0 23 1;
#X connect 6 0 9 0;
#X connect 18 0 3 0;
#X connect 19 0 3 1;
#X connect 24 0 27 0;
#X connect 24 0 23 0;
#X connect 25 0 28 0;
#X connect 25 0 23 0;
#X connect 27 0 26 0;
#X connect 28 0 26 0;
#X connect 29 0 33 0;
#X connect 30 0 34 0;
#X connect 31 0 25 0;
#X connect 31 0 56 0;
#X connect 32 0 49 0;
#X connect 33 0 48 0;
#X connect 34 0 48 0;
#X connect 35 0 29 0;
#X connect 36 0 30 0;
#X connect 37 0 31 0;
#X connect 38 0 32 0;
#X connect 39 0 45 0;
#X connect 40 0 44 0;
#X connect 42 0 37 1;
#X connect 43 0 42 0;
#X connect 43 1 42 1;
#X connect 44 0 35 1;
#X connect 44 0 36 1;
#X connect 44 0 42 0;
#X connect 45 0 43 0;
#X connect 45 0 38 1;
#X connect 46 0 38 0;
#X connect 46 1 37 0;
#X connect 46 2 35 0;
#X connect 46 3 36 0;
#X connect 48 0 7 0;
#X connect 48 1 8 0;
#X connect 48 2 47 0;
#X connect 49 0 24 0;
#X connect 49 0 56 1;
#X connect 50 0 49 1;
#X connect 51 0 46 0;
#X connect 52 0 54 0;
#X connect 53 0 54 0;
#X connect 54 0 49 0;
#X connect 55 0 20 0;
#X connect 56 0 57 0;
#X connect 57 0 48 0;
#X connect 60 0 64 0;
#X connect 61 0 62 0;
#X connect 61 0 60 0;
#X connect 62 0 63 0;
#X coords 0 -1 1 1 172 35 1 100 100;
