#N canvas 246 70 1426 842 10;
#X obj 82 307 loadbang;
#X obj 60 308 bng 15 250 50 0 empty empty empty 17 7 0 10 -262144 -1
-1;
#X obj 417 43 inlet~;
#X obj 474 43 inlet~;
#X obj 537 44 inlet;
#X obj 417 733 outlet~;
#X obj 474 733 outlet~;
#X obj 537 733 outlet;
#X obj 100 100 cnv 15 172 35 empty empty empty 5 8 0 10 -204786 -1345
0;
#X symbolatom 139 103 18 0 0 0 - #0-track-name.gui.set #0-track-name.gui
, f 18;
#X text 64 150 Arguments:;
#X text 67 167 \$1: \$0 of a top level parent patch that contains audio
throws;
#X text 70 202 \$2: track number;
#X text 70 223 \$3: clip number;
#X obj 82 400 s \$0-track-name.gui.set;
#N canvas 204 118 970 487 \$0-waveforms 0;
#N canvas 192 169 450 278 (subpatch) 0;
#X array \$0-channel-left 302400 float 2;
#X coords 0 1 302400 -1 400 100 2 0 0;
#X restore 61 68 graph;
#N canvas 0 22 450 278 (subpatch) 0;
#X array \$0-channel-right 302400 float 2;
#X coords 0 1 302400 -1 400 100 2 0 0;
#X restore 60 184 graph;
#X restore 75 46 pd \$0-waveforms;
#X obj 607 734 writesf~ 2;
#X msg 769 329 stop \, open \$1 \, start;
#X msg 843 433 stop;
#X obj 843 494 tgl 15 0 empty empty empty 17 7 0 10 -262144 -1 -1 0
1;
#X msg 811 467 1;
#X msg 843 467 0;
#X obj 1076 299 bng 15 250 50 0 empty empty empty 17 7 0 10 -262144
-1 -1;
#X obj 930 339 bng 15 250 50 0 empty empty empty 17 7 0 10 -262144
-1 -1;
#X obj 953 269 bng 15 250 50 0 empty empty empty 17 7 0 10 -262144
-1 -1;
#X msg 1076 508 play;
#X text 933 43 input from GUI buttons;
#X obj 996 592 s \$0-progress.gui.set;
#N canvas 523 197 944 635 \$0-player 0;
#X obj 19 547 outlet~;
#X obj 181 547 outlet~;
#X obj 75 222 soundfiler;
#X obj 90 250 s \$0-sample-size;
#X obj 75 276 expr 44100 / $f1;
#X obj 75 328 phasor~;
#X obj 114 482 *~;
#X obj 129 457 r \$0-sample-size;
#X obj 19 519 tabread4~ \$0-channel-left;
#X obj 181 520 tabread4~ \$0-channel-right;
#X obj 75 172 pack s \$0;
#X msg 75 196 read -resize \$1 \$2-channel-left \$2-channel-right;
#X floatatom 198 245 5 0 0 0 - - -, f 5;
#X obj 494 21 inlet;
#X floatatom 228 300 5 0 0 0 - - -, f 5;
#X obj 644 446 snapshot~;
#X floatatom 574 510 5 0 0 0 - - -, f 5;
#X obj 644 422 bng 15 250 50 0 empty empty empty 17 7 0 10 -262144
-1 -1;
#X obj 547 78 bng 15 250 50 0 empty empty empty 17 7 0 10 -262144 -1
-1;
#X text 568 77 play;
#X obj 644 77 bng 15 250 50 0 empty empty empty 17 7 0 10 -262144 -1
-1;
#X text 665 76 pause;
#X obj 746 78 bng 15 250 50 0 empty empty empty 17 7 0 10 -262144 -1
-1;
#X text 767 77 stop;
#X msg 746 307 0;
#X obj 644 266 t b b;
#X msg 746 477 set \$1;
#X obj 547 128 t b b;
#X msg 547 209 1;
#X obj 494 49 route load play pause stop;
#X msg 671 293 0;
#X obj 657 546 outlet;
#X obj 581 398 metro 100;
#X obj 547 359 tgl 15 0 empty empty empty 17 7 0 10 -262144 -1 -1 0
1;
#X obj 644 183 spigot;
#X obj 547 102 spigot;
#X obj 644 108 spigot;
#X obj 746 104 spigot;
#X text 524 529 current position;
#X text 525 542 within a file;
#X text 523 556 (from 0 to 1);
#X obj 169 220 print Loading sound file:;
#X obj 457 100 bng 15 250 50 0 empty empty empty 17 7 0 10 -262144
-1 -1;
#X text 478 99 load;
#X obj 459 74 t a b b;
#X obj 75 452 *~;
#X connect 2 0 3 0;
#X connect 2 0 4 0;
#X connect 2 0 12 0;
#X connect 4 0 5 0;
#X connect 4 0 14 0;
#X connect 5 0 15 0;
#X connect 5 0 45 0;
#X connect 6 0 8 0;
#X connect 6 0 9 0;
#X connect 7 0 6 1;
#X connect 8 0 0 0;
#X connect 9 0 1 0;
#X connect 10 0 11 0;
#X connect 11 0 2 0;
#X connect 11 0 41 0;
#X connect 13 0 29 0;
#X connect 14 0 35 1;
#X connect 14 0 36 1;
#X connect 14 0 37 1;
#X connect 15 0 26 0;
#X connect 15 0 31 0;
#X connect 16 0 5 1;
#X connect 17 0 15 0;
#X connect 18 0 35 0;
#X connect 20 0 36 0;
#X connect 22 0 37 0;
#X connect 24 0 26 0;
#X connect 24 0 33 0;
#X connect 25 0 17 0;
#X connect 25 1 30 0;
#X connect 26 0 16 0;
#X connect 27 0 28 0;
#X connect 27 1 16 0;
#X connect 28 0 33 0;
#X connect 29 0 44 0;
#X connect 29 1 18 0;
#X connect 29 2 20 0;
#X connect 29 3 22 0;
#X connect 30 0 33 0;
#X connect 32 0 15 0;
#X connect 33 0 32 0;
#X connect 33 0 34 1;
#X connect 33 0 45 1;
#X connect 34 0 25 0;
#X connect 35 0 27 0;
#X connect 36 0 34 0;
#X connect 37 0 24 0;
#X connect 44 0 10 0;
#X connect 44 1 42 0;
#X connect 44 2 24 0;
#X connect 45 0 6 0;
#X restore 915 547 pd \$0-player;
#N canvas 605 180 840 629 \$0-unique-filename 0;
#X obj 433 138 time;
#X obj 380 140 date;
#X obj 108 44 inlet;
#X obj 355 38 bng 15 250 50 0 empty empty empty 17 7 0 10 -262144 -1
-1;
#X obj 316 513 outlet;
#X obj 624 38 inlet;
#X text 618 19 track name;
#X text 42 25 bang to generate a unique filename;
#X obj 316 453 symbol;
#X floatatom 403 187 0 0 0 0 - - -;
#X floatatom 384 211 0 0 0 0 - - -;
#X floatatom 366 238 0 0 0 0 - - -;
#X floatatom 459 181 0 0 0 0 - - -;
#X floatatom 440 205 0 0 0 0 - - -;
#X floatatom 421 232 0 0 0 0 - - -;
#X text 301 535 output a unique filename;
#X text 301 550 based on track name;
#X text 301 564 and current date;
#X obj 621 246 t a;
#X obj 316 88 t b b b b;
#X obj 107 71 route set_directory bang;
#X obj 349 319 pack s s f f f f f f;
#X msg 349 384 symbol \$1/\$2___\$3-\$4-\$5___\$6-\$7-\$8.wav;
#X connect 0 0 14 0;
#X connect 0 1 13 0;
#X connect 0 2 12 0;
#X connect 1 0 11 0;
#X connect 1 1 10 0;
#X connect 1 2 9 0;
#X connect 2 0 20 0;
#X connect 3 0 19 0;
#X connect 5 0 18 0;
#X connect 8 0 4 0;
#X connect 9 0 21 4;
#X connect 10 0 21 3;
#X connect 11 0 21 2;
#X connect 12 0 21 7;
#X connect 13 0 21 6;
#X connect 14 0 21 5;
#X connect 18 0 21 1;
#X connect 19 0 8 0;
#X connect 19 1 21 0;
#X connect 19 2 1 0;
#X connect 19 3 0 0;
#X connect 20 0 21 0;
#X connect 20 1 19 0;
#X connect 21 0 22 0;
#X connect 22 0 8 1;
#X restore 769 301 pd \$0-unique-filename;
#X obj 768 261 r \$0-track-name.gui;
#X msg 82 374 symbol track\$1_\$2;
#X obj 915 463 symbol;
#X msg 915 507 stop \, load \$1;
#X obj 105 122 hsl 160 8 0 1 0 0 \$0-progress.gui \$0-progress.gui.set
empty -2 -8 0 10 -262144 -1 -1 0 1;
#X text 827 514 recording;
#X msg 171 648 0;
#X obj 114 618 loadbang;
#X msg 61 647 0;
#X obj 63 701 s \$0-play.gui.set;
#X obj 171 676 s \$0-record.gui.set;
#X obj 104 103 tgl 15 0 \$0-play.gui \$0-play.gui.set P 5 8 0 10 -262144
-1 -13956 0 1;
#X obj 121 103 tgl 15 0 \$0-record.gui \$0-record.gui.set R 5 8 0 10
-262144 -1 -258113 0 1;
#X obj 1039 71 r \$0-play.gui;
#X obj 900 71 r \$0-record.gui;
#X obj 1053 230 sel 0 1;
#X obj 930 231 sel 0 1;
#X obj 692 50 r \$1-global-events;
#X obj 806 110 route beat;
#X obj 1053 197 change;
#X obj 930 201 change;
#X obj 806 163 bng 15 250 50 0 empty empty empty 17 7 0 10 -262144
-1 -1;
#X obj 930 172 int;
#X obj 1053 168 int;
#X obj 806 133 t b;
#X msg 948 412 symbol \$1;
#X text 959 253 record;
#X text 946 337 stop;
#X text 1083 281 play;
#X obj 692 108 t a;
#X obj 614 237 makefilename %s/audio;
#X msg 614 263 set_directory \$1;
#X obj 614 213 symbol;
#X obj 692 80 route loading saving tick;
#X obj 769 466 t a;
#X obj 82 346 pack \$2 \$3;
#X msg 1160 355 clip-play-button-pressed \$1 \$2;
#X obj 1160 324 pack \$2 \$3;
#X obj 1160 175 sel 1;
#X obj 1039 124 t f f;
#X text 1170 386 Notify the transport module;
#X text 1169 406 that the play button has;
#X text 1170 426 been pressed. This will initiate;
#X text 1170 446 the playing mode \, unless it was;
#X text 1170 465 already on.;
#X obj 1161 718 s \$1-global-events;
#X connect 0 0 65 0;
#X connect 1 0 65 0;
#X connect 2 0 5 0;
#X connect 2 0 16 0;
#X connect 3 0 6 0;
#X connect 3 0 16 1;
#X connect 4 0 7 0;
#X connect 17 0 20 0;
#X connect 17 0 64 0;
#X connect 18 0 21 0;
#X connect 18 0 64 0;
#X connect 20 0 19 0;
#X connect 21 0 19 0;
#X connect 22 0 25 0;
#X connect 23 0 18 0;
#X connect 23 0 32 0;
#X connect 24 0 29 0;
#X connect 25 0 28 0;
#X connect 28 0 5 0;
#X connect 28 1 6 0;
#X connect 28 2 27 0;
#X connect 29 0 17 0;
#X connect 29 0 55 0;
#X connect 30 0 29 1;
#X connect 31 0 14 0;
#X connect 32 0 33 0;
#X connect 33 0 28 0;
#X connect 36 0 40 0;
#X connect 37 0 38 0;
#X connect 37 0 36 0;
#X connect 38 0 39 0;
#X connect 43 0 69 0;
#X connect 44 0 52 1;
#X connect 45 0 23 0;
#X connect 45 1 22 0;
#X connect 46 0 23 0;
#X connect 46 1 24 0;
#X connect 47 0 63 0;
#X connect 48 0 54 0;
#X connect 49 0 45 0;
#X connect 50 0 46 0;
#X connect 52 0 50 0;
#X connect 53 0 49 0;
#X connect 54 0 51 0;
#X connect 54 0 52 0;
#X connect 54 0 53 0;
#X connect 55 0 32 1;
#X connect 59 0 62 0;
#X connect 60 0 61 0;
#X connect 61 0 29 0;
#X connect 62 0 60 0;
#X connect 63 0 59 0;
#X connect 63 1 59 0;
#X connect 63 2 48 0;
#X connect 64 0 16 0;
#X connect 65 0 31 0;
#X connect 66 0 75 0;
#X connect 67 0 66 0;
#X connect 68 0 67 0;
#X connect 69 0 68 0;
#X connect 69 1 53 1;
#X coords 0 -1 1 1 172 35 1 100 100;
