#N canvas 536 88 1033 745 10;
#X obj 375 95 r \$1-track\$2-input;
#X obj 344 591 s \$1-track\$2-fx-in;
#X obj 400 200 lzr/session-midi-clip \$1 \$2 1;
#X obj 400 235 lzr/session-midi-clip \$1 \$2 2;
#X obj 400 271 lzr/session-midi-clip \$1 \$2 3;
#X obj 400 307 lzr/session-midi-clip \$1 \$2 4;
#X obj 400 343 lzr/session-midi-clip \$1 \$2 5;
#X obj 400 379 lzr/session-midi-clip \$1 \$2 6;
#X obj 400 415 lzr/session-midi-clip \$1 \$2 7;
#X obj 400 448 lzr/session-midi-clip \$1 \$2 8;
#X obj 296 519 t a;
#X obj 300 132 t a;
#X connect 0 0 11 0;
#X connect 2 0 10 0;
#X connect 3 0 10 0;
#X connect 4 0 10 0;
#X connect 5 0 10 0;
#X connect 6 0 10 0;
#X connect 7 0 10 0;
#X connect 8 0 10 0;
#X connect 9 0 10 0;
#X connect 10 0 1 0;
#X connect 11 0 2 0;
#X connect 11 0 3 0;
#X connect 11 0 4 0;
#X connect 11 0 5 0;
#X connect 11 0 6 0;
#X connect 11 0 7 0;
#X connect 11 0 8 0;
#X connect 11 0 9 0;
#X connect 11 0 10 0;
#X coords 0 -1 1 1 172 283 2 400 200;
