#N canvas 283 231 733 479 10;
#X obj 405 124 *~ 40;
#X obj 406 168 clip~ -0.5 0.5;
#X obj 400 61 inlet~;
#X obj 409 229 outlet~;
#X obj 559 126 *~ 40;
#X obj 560 170 clip~ -0.5 0.5;
#X obj 554 63 inlet~;
#X obj 563 231 outlet~;
#X text 30 2 Fuzz;
#X obj 5 30 knob 32 32 0 50 0 0 empty empty empty 0 -8 0 8 -262144
-1 -1 0 1;
#X floatatom 6 70 5 0 0 0 - - -;
#X obj 45 32 vu 15 120 empty empty -1 -8 0 10 -66577 -262144 1 0;
#X obj 319 146 env~;
#X obj 319 168 - 100;
#X obj 62 32 vu 15 120 empty empty -1 -8 0 10 -66577 -1 1 0;
#X obj 519 153 env~;
#X obj 519 175 - 100;
#X connect 0 0 1 0;
#X connect 0 0 12 0;
#X connect 1 0 3 0;
#X connect 2 0 0 0;
#X connect 4 0 5 0;
#X connect 4 0 15 0;
#X connect 5 0 7 0;
#X connect 6 0 4 0;
#X connect 9 0 0 1;
#X connect 9 0 4 1;
#X connect 9 0 10 0;
#X connect 12 0 13 0;
#X connect 13 0 11 0;
#X connect 15 0 16 0;
#X connect 16 0 14 0;
#X coords 0 -1 1 1 120 170 2 0 0;
