#N canvas 102 41 1256 703 10;
#X obj 477 599 writesf~ 2;
#X obj 341 23 inlet~;
#X obj 405 23 inlet~;
#X obj 343 599 outlet~;
#X obj 408 599 outlet~;
#X obj 75 69 tgl 15 0 \$0-record.gui \$0-record.gui.r R 5 8 0 10 -258699
-258699 -261689 1 1;
#X obj 55 69 tgl 15 0 \$0-play.gui \$0-play.gui.r P 5 8 0 10 -24198
-24198 -225271 1 1;
#N canvas 270 103 676 633 buttons 0;
#X obj 129 397 change;
#X msg 129 423 set \$1;
#X obj 128 160 trigger f f;
#N canvas 365 370 450 300 gui 0;
#X obj 113 73 inlet;
#X obj 113 114 sel 0 1;
#X obj 136 245 s \$0-play.gui.r;
#X msg 113 167 color 0 0 16;
#X msg 177 202 color 16 16 6;
#X connect 0 0 1 0;
#X connect 1 0 3 0;
#X connect 1 1 4 0;
#X connect 3 0 2 0;
#X connect 4 0 2 0;
#X restore 138 194 pd gui;
#X obj 316 371 change;
#X msg 316 397 set \$1;
#X obj 315 156 trigger f f;
#N canvas 0 22 450 300 gui 0;
#X obj 113 73 inlet;
#X obj 113 114 sel 0 1;
#X msg 113 167 color 0 0 13;
#X msg 177 202 color 13 13 3;
#X obj 136 245 s \$0-record.gui.r;
#X connect 0 0 1 0;
#X connect 1 0 2 0;
#X connect 1 1 3 0;
#X connect 2 0 4 0;
#X connect 3 0 4 0;
#X restore 325 190 pd gui;
#X obj 315 62 r \$0-record.gui;
#X obj 128 66 r \$0-play.gui;
#X obj 140 111 mmb/save.me.mmb play \$0;
#X obj 128 267 s \$0-play;
#X obj 129 313 r \$0-play;
#X obj 129 449 s \$0-play.gui.r;
#X obj 327 107 mmb/save.me.mmb record \$0;
#X obj 315 257 s \$0-record;
#X obj 316 291 r \$0-record;
#X obj 316 423 s \$0-record.gui.r;
#X connect 0 0 1 0;
#X connect 1 0 13 0;
#X connect 2 0 3 0;
#X connect 2 0 11 0;
#X connect 4 0 5 0;
#X connect 5 0 17 0;
#X connect 6 0 7 0;
#X connect 6 0 15 0;
#X connect 8 0 6 0;
#X connect 8 0 14 0;
#X connect 9 0 2 0;
#X connect 9 0 10 0;
#X connect 10 0 2 0;
#X connect 12 0 0 0;
#X connect 14 0 6 0;
#X connect 16 0 4 0;
#X restore 50 123 pd buttons;
#N canvas 316 100 503 296 global-events 0;
#X obj 197 36 bng 15 250 50 0 empty empty empty 17 7 0 10 -262144 -1
-1;
#X symbolatom 197 87 10 0 0 0 - - -;
#X obj 222 35 loadbang;
#X obj 265 87 s \$0-parent;
#X obj 42 30 r \$0-parent;
#X msg 42 53 \$1-global-events;
#X obj 42 75 symbol;
#X obj 42 100 mmb/r.mmb;
#X obj 197 60 iemguts/canvasdollarzero 2;
#X obj 42 138 outlet;
#X connect 0 0 8 0;
#X connect 2 0 8 0;
#X connect 4 0 5 0;
#X connect 5 0 6 0;
#X connect 6 0 7 0;
#X connect 7 0 9 0;
#X connect 8 0 1 0;
#X connect 8 0 3 0;
#X restore 641 58 pd global-events;
#N canvas 237 110 944 635 player 0;
#X obj 19 547 outlet~;
#X obj 181 547 outlet~;
#X obj 75 222 soundfiler;
#X obj 90 250 s \$0-sample-size;
#X obj 75 276 expr 44100 / $f1;
#X obj 75 328 phasor~;
#X obj 114 482 *~;
#X obj 129 457 r \$0-sample-size;
#X obj 19 519 tabread4~ \$0-channel-left;
#X obj 181 520 tabread4~ \$0-channel-right;
#X obj 75 452 spigot~;
#X obj 75 148 symbol \$1;
#X obj 75 172 pack s \$0;
#X msg 75 196 read -resize \$1 \$2-channel-left \$2-channel-right;
#X floatatom 198 245 5 0 0 0 - - -;
#X obj 240 225 print read;
#X obj 494 21 inlet;
#X floatatom 228 300 5 0 0 0 - - -;
#X obj 644 446 snapshot~;
#X floatatom 574 510 5 0 0 0 - - -;
#X obj 644 422 bng 15 250 50 0 empty empty empty 17 7 0 10 -262144
-1 -1;
#X obj 456 78 bng 15 250 50 0 empty empty empty 17 7 0 10 -262144 -1
-1;
#X text 477 77 load;
#X obj 547 78 bng 15 250 50 0 empty empty empty 17 7 0 10 -262144 -1
-1;
#X text 568 77 play;
#X obj 644 77 bng 15 250 50 0 empty empty empty 17 7 0 10 -262144 -1
-1;
#X text 665 76 pause;
#X obj 746 78 bng 15 250 50 0 empty empty empty 17 7 0 10 -262144 -1
-1;
#X text 767 77 stop;
#X msg 746 307 0;
#X obj 644 266 t b b;
#X msg 746 477 set \$1;
#X obj 547 128 t b b;
#X msg 547 209 1;
#X obj 494 49 route load play pause stop;
#X obj 456 100 t b b;
#X msg 671 293 0;
#X obj 657 546 outlet;
#X obj 581 398 metro 100;
#X obj 547 359 tgl 15 0 empty empty empty 17 7 0 10 -262144 -1 -1 0
1;
#X obj 644 183 spigot;
#X obj 547 102 spigot;
#X obj 644 108 spigot;
#X obj 746 104 spigot;
#X text 524 529 current position;
#X text 525 542 within a file;
#X text 523 556 (from 0 to 1);
#X connect 2 0 3 0;
#X connect 2 0 4 0;
#X connect 2 0 14 0;
#X connect 4 0 5 0;
#X connect 4 0 17 0;
#X connect 5 0 10 0;
#X connect 5 0 18 0;
#X connect 6 0 8 0;
#X connect 6 0 9 0;
#X connect 7 0 6 1;
#X connect 8 0 0 0;
#X connect 9 0 1 0;
#X connect 10 1 6 0;
#X connect 11 0 12 0;
#X connect 12 0 13 0;
#X connect 13 0 2 0;
#X connect 13 0 15 0;
#X connect 16 0 34 0;
#X connect 17 0 41 1;
#X connect 17 0 42 1;
#X connect 17 0 43 1;
#X connect 18 0 31 0;
#X connect 18 0 37 0;
#X connect 19 0 5 1;
#X connect 20 0 18 0;
#X connect 21 0 35 0;
#X connect 23 0 41 0;
#X connect 25 0 42 0;
#X connect 27 0 43 0;
#X connect 29 0 31 0;
#X connect 29 0 39 0;
#X connect 30 0 20 0;
#X connect 30 1 36 0;
#X connect 31 0 19 0;
#X connect 32 0 33 0;
#X connect 32 1 19 0;
#X connect 33 0 39 0;
#X connect 34 0 21 0;
#X connect 34 1 23 0;
#X connect 34 2 25 0;
#X connect 34 3 27 0;
#X connect 35 0 11 0;
#X connect 35 1 29 0;
#X connect 36 0 39 0;
#X connect 38 0 18 0;
#X connect 39 0 38 0;
#X connect 39 0 10 1;
#X connect 39 0 40 1;
#X connect 40 0 30 0;
#X connect 41 0 32 0;
#X connect 42 0 40 0;
#X connect 43 0 29 0;
#X restore 641 523 pd player;
#X obj 58 92 hsl 128 15 0 1 0 0 \$0-progress.gui \$0-progress.gui.r
empty -2 -8 0 10 -262144 -1 -1 0 1;
#X obj 692 568 s \$0-progress.gui.r;
#X obj 852 470 loadbang;
#X obj 835 471 bng 15 250 50 0 empty empty empty 17 7 0 10 -262144
-1 -1;
#X msg 835 500 load;
#N canvas 204 118 970 487 waveforms 0;
#N canvas 192 169 450 278 (subpatch) 0;
#X array \$0-channel-left 2.55104e+06 float 2;
#X coords 0 1 2.55104e+06 -1 400 100 2 0 0;
#X restore 61 68 graph;
#N canvas 0 22 450 278 (subpatch) 0;
#X array \$0-channel-right 2.55104e+06 float 2;
#X coords 0 1 2.55104e+06 -1 400 100 2 0 0;
#X restore 60 184 graph;
#X restore 50 145 pd waveforms;
#X obj 73 216 loadbang;
#X obj 51 217 bng 15 250 50 0 empty empty empty 17 7 0 10 -262144 -1
-1;
#X msg 51 242 1;
#X obj 51 273 s \$0-play.gui.r;
#X obj 151 272 s \$0-record.gui.r;
#X obj 477 276 symbol \$1;
#X msg 477 305 stop \, open \$1 \, start;
#X msg 614 345 stop;
#X obj 614 406 tgl 15 0 empty empty empty 17 7 0 10 -262144 -1 -1 0
1;
#X msg 584 379 1;
#X msg 614 379 0;
#X obj 723 275 bng 15 250 50 0 empty empty empty 17 7 0 10 -262144
-1 -1;
#X obj 764 275 bng 15 250 50 0 empty empty empty 17 7 0 10 -262144
-1 -1;
#X obj 682 262 bng 15 250 50 0 empty empty empty 17 7 0 10 -262144
-1 -1;
#X obj 641 236 bng 15 250 50 0 empty empty empty 17 7 0 10 -262144
-1 -1;
#X msg 723 484 play;
#X msg 764 489 pause;
#X obj 723 199 spigot;
#X obj 764 231 spigot;
#X obj 682 231 spigot;
#X obj 641 200 spigot;
#X obj 1045 71 r \$0-record;
#X obj 979 71 r \$0-play;
#X text 976 51 input from GUI buttons;
#X obj 1045 157 ||;
#X obj 1045 132 t b f;
#X obj 979 101 tgl 15 0 empty empty empty 17 7 0 10 -262144 -1 -1 1
1;
#X obj 1045 100 tgl 15 0 empty empty empty 17 7 0 10 -262144 -1 -1
1 1;
#X msg 641 480 stop \, load;
#X obj 641 136 route record stop play pause;
#X connect 1 0 0 0;
#X connect 1 0 3 0;
#X connect 2 0 0 1;
#X connect 2 0 4 0;
#X connect 8 0 45 0;
#X connect 9 0 3 0;
#X connect 9 1 4 0;
#X connect 9 2 11 0;
#X connect 12 0 14 0;
#X connect 13 0 14 0;
#X connect 14 0 9 0;
#X connect 16 0 18 0;
#X connect 17 0 18 0;
#X connect 18 0 19 0;
#X connect 18 0 20 0;
#X connect 21 0 22 0;
#X connect 22 0 25 0;
#X connect 22 0 0 0;
#X connect 23 0 26 0;
#X connect 25 0 24 0;
#X connect 26 0 24 0;
#X connect 27 0 31 0;
#X connect 28 0 32 0;
#X connect 29 0 23 0;
#X connect 29 0 44 0;
#X connect 30 0 21 0;
#X connect 31 0 9 0;
#X connect 32 0 9 0;
#X connect 33 0 27 0;
#X connect 34 0 28 0;
#X connect 35 0 29 0;
#X connect 36 0 30 0;
#X connect 37 0 43 0;
#X connect 38 0 42 0;
#X connect 40 0 35 1;
#X connect 41 0 40 0;
#X connect 41 1 40 1;
#X connect 42 0 33 1;
#X connect 42 0 34 1;
#X connect 42 0 40 0;
#X connect 43 0 41 0;
#X connect 43 0 36 1;
#X connect 44 0 9 0;
#X connect 45 0 36 0;
#X connect 45 1 35 0;
#X connect 45 2 33 0;
#X connect 45 3 34 0;
#X coords 0 -1 1 1 170 65 1 50 50;
