#N canvas 451 86 997 770 10;
#X obj 750 334 list;
#X obj 207 298 list-abs/list-find;
#X obj 128 396 spigot;
#X obj 542 617 t a;
#X obj 542 84 t a;
#X msg 167 349 1;
#X msg 207 349 0;
#X obj 849 335 t l;
#X obj 84 34 inlet;
#X obj 330 225 lzr/func;
#X obj 128 144 t a a b b;
#X obj 84 63 route clear add remove get;
#X obj 330 177 lzr/func;
#X obj 330 151 t b;
#X obj 87 304 t a;
#X obj 87 667 outlet;
#X obj 434 422 t a;
#X obj 435 81 t a;
#X obj 474 266 t b;
#X obj 775 218 t b;
#X obj 610 419 lzr/func;
#X obj 570 492 list-abs/list-drip;
#X obj 570 571 sel [symbol];
#X text 479 641 append this to the list;
#X text 786 250 clear the list;
#X obj 570 454 list;
#X obj 763 491 t a;
#X obj 651 535 symbol;
#X obj 570 225 t b b b a;
#X obj 87 613 list;
#X connect 0 0 7 0;
#X connect 0 0 16 0;
#X connect 0 0 20 1;
#X connect 1 0 6 0;
#X connect 2 0 3 0;
#X connect 3 0 4 0;
#X connect 4 0 0 0;
#X connect 5 0 2 1;
#X connect 6 0 2 1;
#X connect 7 0 0 1;
#X connect 8 0 11 0;
#X connect 9 0 1 1;
#X connect 9 1 18 0;
#X connect 10 0 2 0;
#X connect 10 1 1 0;
#X connect 10 2 5 0;
#X connect 10 3 9 0;
#X connect 11 0 19 0;
#X connect 11 1 10 0;
#X connect 11 2 28 0;
#X connect 11 3 13 0;
#X connect 12 0 14 0;
#X connect 12 1 18 0;
#X connect 13 0 12 0;
#X connect 14 0 29 0;
#X connect 16 0 17 0;
#X connect 17 0 9 1;
#X connect 17 0 12 1;
#X connect 18 0 0 0;
#X connect 19 0 0 1;
#X connect 20 0 25 1;
#X connect 20 1 0 0;
#X connect 21 0 22 0;
#X connect 22 1 3 0;
#X connect 25 0 21 0;
#X connect 26 0 27 0;
#X connect 27 0 22 1;
#X connect 28 0 25 0;
#X connect 28 1 0 1;
#X connect 28 2 20 0;
#X connect 28 3 26 0;
#X connect 29 0 15 0;
