#N canvas 353 80 1034 680 10;
#X obj 39 52 tof/imagebang images/play.gif images/play-bang.gif \$0-play-button-s
\$0-play-button-r;
#X obj 69 52 tof/imagebang images/pause.gif images/pause-bang.gif \$0-pause-button-s
\$0-pause-button-r;
#X obj 99 52 tof/imagebang images/stop.gif images/stop-bang.gif \$0-stop-button-s
\$0-stop-button-r;
#X obj 129 52 tof/imagebang images/record.gif images/record-bang.gif
\$0-record-button-s \$0-record-button-r;
#X obj 878 537 sfruit/gop-edit;
#X obj 391 19 inlet;
#X msg 17 204 play;
#X symbolatom 594 508 10 0 0 0 - - -;
#X obj 540 378 loadbang;
#X obj 516 379 bng 15 250 50 0 empty empty empty 17 7 0 10 -262144
-1 -1;
#X msg 66 256 pause;
#X msg 129 362 stop;
#X msg 212 446 record;
#X obj 17 174 spigot;
#X obj 837 299 symbol playing;
#X obj 526 410 symbol stopped;
#X obj 649 337 symbol paused;
#X obj 455 470 symbol recording;
#X obj 66 226 spigot;
#X obj 129 335 spigot;
#X obj 212 419 spigot;
#X obj 170 145 unpack f f f f;
#X msg 667 9 0 1 1 0;
#X msg 585 71 1 0 0 1;
#X obj 596 532 bng 15 250 50 0 empty empty empty 17 7 0 10 -262144
-1 -1;
#X msg 636 41 1 0 1 0;
#X msg 523 101 0 0 1 0;
#X obj 254 539 iemlib/parentdollarzero;
#X obj 254 514 bng 15 250 50 0 empty empty empty 17 7 0 10 -262144
-1 -1;
#X symbolatom 254 568 10 0 0 0 - - -;
#X obj 274 513 loadbang;
#X obj 322 568 s \$0-parent;
#X obj 94 593 s;
#X obj 110 512 r \$0-parent;
#X msg 110 540 \$1-global-events;
#X obj 36 593 outlet;
#X obj 110 566 symbol;
#X obj 161 56 jmmmp/clock;
#X obj 155 19 r \$0-clock;
#X obj 226 19 r \$0-clock-reset;
#X obj 837 358 s \$0-clock;
#X msg 837 331 1;
#X obj 649 393 s \$0-clock;
#X msg 649 366 0;
#X obj 813 439 t b b;
#X msg 885 458 0;
#X obj 885 483 s \$0-clock-reset;
#X msg 813 462 0;
#X obj 813 484 s \$0-clock;
#X msg 455 503 1;
#X obj 455 528 s \$0-clock;
#N canvas 622 391 450 300 (subpatch) 0;
#X obj 204 89 inlet;
#X obj 202 167 outlet;
#X connect 0 0 1 0;
#X restore 36 472 pd;
#X text 676 525 - stopped;
#X text 676 537 - playing;
#X text 676 550 - paused;
#X text 676 562 - recording;
#X text 664 509 transport status:;
#X connect 0 0 13 0;
#X connect 1 0 18 0;
#X connect 2 0 19 0;
#X connect 3 0 20 0;
#X connect 6 0 51 0;
#X connect 7 0 24 0;
#X connect 8 0 15 0;
#X connect 9 0 15 0;
#X connect 10 0 51 0;
#X connect 11 0 51 0;
#X connect 12 0 51 0;
#X connect 13 0 6 0;
#X connect 13 0 14 0;
#X connect 14 0 7 0;
#X connect 14 0 22 0;
#X connect 14 0 41 0;
#X connect 15 0 7 0;
#X connect 15 0 23 0;
#X connect 15 0 44 0;
#X connect 16 0 7 0;
#X connect 16 0 25 0;
#X connect 16 0 43 0;
#X connect 17 0 7 0;
#X connect 17 0 26 0;
#X connect 17 0 49 0;
#X connect 18 0 10 0;
#X connect 18 0 16 0;
#X connect 19 0 11 0;
#X connect 19 0 15 0;
#X connect 20 0 12 0;
#X connect 20 0 17 0;
#X connect 21 0 13 1;
#X connect 21 1 18 1;
#X connect 21 2 19 1;
#X connect 21 3 20 1;
#X connect 22 0 21 0;
#X connect 23 0 21 0;
#X connect 25 0 21 0;
#X connect 26 0 21 0;
#X connect 27 0 29 0;
#X connect 27 0 31 0;
#X connect 28 0 27 0;
#X connect 30 0 27 0;
#X connect 33 0 34 0;
#X connect 34 0 36 0;
#X connect 36 0 32 1;
#X connect 38 0 37 0;
#X connect 39 0 37 1;
#X connect 41 0 40 0;
#X connect 43 0 42 0;
#X connect 44 0 47 0;
#X connect 44 1 45 0;
#X connect 45 0 46 0;
#X connect 47 0 48 0;
#X connect 49 0 50 0;
#X connect 51 0 32 0;
#X connect 51 0 35 0;
#X coords 0 -1 1 1 204 37 2 37 48;
