#N canvas 355 22 978 908 10;
#X msg 560 355;
#X obj 139 361 list split 1;
#X obj 58 497 sel [symbol];
#X obj 458 652 list;
#X obj 226 431 list split 1;
#X obj 778 846 t a;
#X obj 768 58 t a;
#X obj 439 768 lzr/pp add2;
#X obj 365 720 t b a;
#X msg 365 768 addcomma;
#X obj 426 693 spigot;
#X msg 381 651 0;
#X obj 381 612 t b b;
#X msg 416 651 1;
#X msg 438 313 set;
#X obj 311 190 t b b b b b;
#X obj 152 140 t b a a;
#X obj 456 504 t b a b;
#X obj 612 875 outlet;
#X obj 241 673 list;
#X obj 58 634 list;
#X obj 209 141 t b a a;
#X obj 58 711 spigot;
#X msg 136 684 0;
#X msg 97 684 1;
#N canvas 705 223 701 504 \$0-tmp-storage 0;
#X msg 173 266;
#X obj 173 135 t b a;
#X msg 173 173 addcomma;
#X obj 258 173 lzr/pp add2;
#X obj 64 59 inlet;
#X msg 453 174 set;
#X obj 453 60 inlet;
#X obj 173 58 inlet;
#X obj 173 404 outlet;
#X connect 0 0 8 0;
#X connect 1 0 2 0;
#X connect 1 1 3 0;
#X connect 2 0 0 0;
#X connect 3 0 0 0;
#X connect 4 0 0 0;
#X connect 5 0 0 0;
#X connect 6 0 5 0;
#X connect 7 0 1 0;
#X restore 548 312 pd \$0-tmp-storage;
#X msg 139 464 symbol \$1;
#X msg 58 464 symbol \$1;
#X obj 152 46 inlet;
#X obj 285 576 spigot;
#X msg 324 549 1;
#X msg 292 549 0;
#X obj 348 476 t b;
#X obj 152 108 route set get get-all;
#X obj 388 152 t b b b b b;
#N canvas 524 308 639 467 \$0-demux2 0;
#X obj 119 59 inlet;
#X obj 125 355 outlet;
#X obj 318 365 outlet;
#X obj 130 232 spigot;
#X obj 304 233 spigot;
#X obj 346 58 inlet;
#X obj 336 152 sel 0 1;
#X msg 205 198 0;
#X msg 160 198 1;
#X msg 336 196 0;
#X msg 376 196 1;
#X connect 0 0 3 0;
#X connect 0 0 4 0;
#X connect 3 0 1 0;
#X connect 4 0 2 0;
#X connect 5 0 6 0;
#X connect 6 0 8 0;
#X connect 6 0 9 0;
#X connect 6 1 10 0;
#X connect 6 1 7 0;
#X connect 7 0 3 1;
#X connect 8 0 3 1;
#X connect 9 0 4 1;
#X connect 10 0 4 1;
#X restore 430 400 pd \$0-demux2;
#X obj 179 223 t a b;
#X msg 267 352 0;
#X msg 477 353 1;
#X obj 175 606 spigot;
#X msg 214 579 1;
#X msg 182 579 0;
#X connect 0 0 35 0;
#X connect 1 0 26 0;
#X connect 2 0 20 0;
#X connect 2 0 29 0;
#X connect 2 1 39 0;
#X connect 3 0 10 0;
#X connect 4 0 27 0;
#X connect 4 1 19 1;
#X connect 4 1 20 1;
#X connect 5 0 6 0;
#X connect 6 0 25 1;
#X connect 7 0 5 0;
#X connect 8 0 9 0;
#X connect 8 1 7 0;
#X connect 9 0 5 0;
#X connect 10 0 8 0;
#X connect 11 0 10 1;
#X connect 12 0 11 0;
#X connect 12 1 3 0;
#X connect 13 0 10 1;
#X connect 14 0 0 0;
#X connect 15 0 25 0;
#X connect 15 1 14 0;
#X connect 15 2 3 0;
#X connect 15 3 0 0;
#X connect 15 4 25 2;
#X connect 16 0 15 0;
#X connect 16 1 36 0;
#X connect 16 2 17 0;
#X connect 17 0 13 0;
#X connect 17 1 3 1;
#X connect 17 2 23 0;
#X connect 17 2 30 0;
#X connect 17 2 40 0;
#X connect 19 0 8 0;
#X connect 20 0 22 0;
#X connect 21 0 0 0;
#X connect 21 1 32 0;
#X connect 21 2 36 0;
#X connect 22 0 18 0;
#X connect 23 0 22 1;
#X connect 24 0 22 1;
#X connect 25 0 0 0;
#X connect 26 0 2 1;
#X connect 27 0 2 0;
#X connect 28 0 33 0;
#X connect 29 0 12 0;
#X connect 30 0 29 1;
#X connect 31 0 29 1;
#X connect 32 0 11 0;
#X connect 32 0 24 0;
#X connect 32 0 31 0;
#X connect 32 0 41 0;
#X connect 33 0 16 0;
#X connect 33 1 21 0;
#X connect 33 2 34 0;
#X connect 34 1 0 0;
#X connect 34 3 38 0;
#X connect 35 0 4 0;
#X connect 35 1 18 0;
#X connect 36 0 1 0;
#X connect 36 1 37 0;
#X connect 37 0 35 1;
#X connect 38 0 35 1;
#X connect 39 0 19 0;
#X connect 40 0 39 1;
#X connect 41 0 39 1;
