#N canvas 181 25 1042 900 10;
#X obj 679 354 pointer;
#X msg 679 329 traverse pd-\$1-visuals \, bang;
#X obj 679 304 f \$0;
#X obj 374 18 loadbang;
#X obj 355 19 bng 15 250 50 0 empty empty empty 17 7 0 10 -262144 -1
-1;
#X obj 70 20 inlet;
#X obj 69 631 f \$0;
#X msg 69 658 \; pd-\$1-visuals clear;
#X msg 69 603 bang;
#X obj 397 79 iemlib/dollarg;
#X obj 249 164 f 100;
#X obj 334 182 f 100;
#X obj 548 152 lzr/once;
#X obj 679 92 t b;
#X obj 374 45 t b b b;
#X obj 616 144 lzr/once;
#X obj 428 182 f 999;
#X obj 478 181 f 0;
#N canvas 490 75 967 803 \$0-handle-messages 0;
#X obj 237 427 set \$0-template border-color;
#X obj 246 456 set \$0-template background-color;
#X obj 876 277 t a;
#X obj 261 487 set \$0-template behind-color;
#X obj 244 315 set \$0-template w;
#X obj 242 341 set \$0-template h;
#X obj 241 371 set \$0-template w2;
#X obj 241 399 set \$0-template h2;
#X obj 21 190 t a;
#X obj 105 190 t a;
#X obj 298 517 set \$0-template shadow-color;
#X obj 21 53 inlet;
#X obj 876 55 inlet;
#X obj 21 717 outlet;
#X obj 21 651 int;
#X obj 105 461 t b a;
#X obj 21 680 pack f f;
#X obj 527 563 unpack f f;
#X obj 612 513 t a;
#X obj 162 271 - 2;
#X obj 123 271 - 2;
#X obj 105 325 t a a;
#X obj 21 246 t a a;
#X obj 21 139 route width height border-color background-color behind-color
shadow-color init-dimensions redraw levitation, f 109;
#X obj 160 230 t a;
#X connect 2 0 0 1;
#X connect 2 0 1 1;
#X connect 2 0 3 1;
#X connect 2 0 4 1;
#X connect 2 0 5 1;
#X connect 2 0 6 1;
#X connect 2 0 7 1;
#X connect 2 0 10 1;
#X connect 8 0 19 0;
#X connect 8 0 22 0;
#X connect 9 0 20 0;
#X connect 9 0 21 0;
#X connect 11 0 23 0;
#X connect 12 0 2 0;
#X connect 14 0 16 0;
#X connect 15 0 14 0;
#X connect 15 1 16 1;
#X connect 16 0 13 0;
#X connect 17 0 14 0;
#X connect 17 1 16 1;
#X connect 18 0 14 0;
#X connect 19 0 4 0;
#X connect 20 0 5 0;
#X connect 21 0 15 0;
#X connect 21 1 7 0;
#X connect 22 0 14 0;
#X connect 22 1 6 0;
#X connect 23 0 8 0;
#X connect 23 1 9 0;
#X connect 23 2 0 0;
#X connect 23 3 1 0;
#X connect 23 4 3 0;
#X connect 23 5 10 0;
#X connect 23 6 17 0;
#X connect 23 7 18 0;
#X connect 23 8 24 0;
#X connect 24 0 20 1;
#X connect 24 0 19 1;
#X restore 70 439 pd \$0-handle-messages;
#X obj 93 371 pack f f;
#X msg 93 399 init-dimensions \$1 \$2;
#X obj 70 572 iemguts/sendcanvas;
#X obj 600 571 s \$0-child-canvas;
#X obj 249 186 t b a a;
#X msg 78 222 redraw;
#X obj 70 480 t a a;
#X msg 600 530 donecanvasdialog 0 0 2 0 0 \$1 \$2 \$1 \$2 0 0 \, dirty
0;
#X obj 569 184 f 999;
#X obj 267 325 - 2;
#X obj 307 324 - 2;
#X obj 397 101 unpack f f f f f f f;
#X obj 384 182 f 2;
#X obj 249 106 t b b b b b b b;
#X obj 276 346 pack f f f f f f f f f;
#X msg 87 258 levitation \$1;
#X obj 69 754 struct \$0-template float w float h float w2 float h2
float border-color float background-color float behind-color float
shadow-color float levitation, f 97;
#X obj 276 387 append \$0-template w w2 h h2 levitation background-color
border-color shadow-color behind-color, f 58;
#X msg 70 530 donecanvasdialog 0 0 2 0 0 1 1 \$1 \$2 600 600 \, dirty
0;
#X obj 516 183 f 555;
#X obj 69 802 filledpolygon -x behind-color behind-color 1 0 0 w2 0
w2 h2 0 h2, f 97;
#X obj 69 827 filledpolygon shadow-color shadow-color 1 levitation
levitation w2 levitation w2 h2 levitation h2, f 97;
#X obj 69 851 filledpolygon background-color border-color 1 0 0 w 0
w h 0 h, f 97;
#N canvas 788 118 768 603 \$0-visuals 0;
#X obj 5 -79 r \$0-child-canvas;
#X obj 5 -49 iemguts/sendcanvas;
#X connect 0 0 1 0;
#X coords 0 0 140 40 140 40 2 0 0;
#X restore 600 600 pd \$0-visuals;
#X connect 0 0 36 9;
#X connect 1 0 0 0;
#X connect 2 0 1 0;
#X connect 3 0 14 0;
#X connect 4 0 14 0;
#X connect 5 0 18 0;
#X connect 6 0 7 0;
#X connect 8 0 6 0;
#X connect 9 0 30 0;
#X connect 10 0 23 0;
#X connect 11 0 19 1;
#X connect 11 0 29 0;
#X connect 11 0 33 3;
#X connect 12 0 38 1;
#X connect 13 0 2 0;
#X connect 14 0 32 0;
#X connect 14 1 9 0;
#X connect 14 2 13 0;
#X connect 15 0 27 1;
#X connect 16 0 33 5;
#X connect 17 0 33 6;
#X connect 18 0 25 0;
#X connect 19 0 20 0;
#X connect 20 0 18 0;
#X connect 23 0 24 0;
#X connect 23 1 19 0;
#X connect 23 1 28 0;
#X connect 23 2 33 1;
#X connect 24 0 18 0;
#X connect 25 0 37 0;
#X connect 25 1 26 0;
#X connect 26 0 22 0;
#X connect 27 0 33 8;
#X connect 28 0 33 0;
#X connect 29 0 33 2;
#X connect 30 0 10 1;
#X connect 30 1 11 1;
#X connect 30 2 31 1;
#X connect 30 3 16 1;
#X connect 30 3 15 0;
#X connect 30 4 12 0;
#X connect 30 4 17 1;
#X connect 30 5 12 0;
#X connect 30 6 15 0;
#X connect 31 0 33 4;
#X connect 31 0 29 1;
#X connect 31 0 28 1;
#X connect 31 0 34 0;
#X connect 32 0 10 0;
#X connect 32 1 11 0;
#X connect 32 2 31 0;
#X connect 32 3 16 0;
#X connect 32 4 17 0;
#X connect 32 5 38 0;
#X connect 32 6 27 0;
#X connect 33 0 36 0;
#X connect 34 0 18 0;
#X connect 36 0 18 1;
#X connect 37 0 21 0;
#X connect 38 0 33 7;
#X coords 0 0 1 1 100 100 2 600 600;
