#N canvas 517 22 850 870 10;
#X obj 152 25 inlet;
#X obj 152 91 route start stop;
#X obj 152 197 metro 1000;
#X msg 152 159 1;
#X obj 298 772 s \$0-display.set;
#X msg 206 158 0;
#X obj 152 233 f;
#X obj 189 233 + 1;
#X obj 670 323 mod 60;
#X obj 364 322 div 60;
#X obj 702 403 div 10;
#X obj 670 367 t f f;
#X obj 388 408 div 10;
#X msg 748 508 bang;
#X obj 702 470 moses 1;
#X msg 702 509 48;
#X obj 702 546 list tosymbol;
#X text 646 510 "0" =>;
#X msg 434 511 bang;
#X obj 388 472 moses 1;
#X msg 388 511 48;
#X obj 388 548 list tosymbol;
#X text 312 512 "0" =>;
#X obj 206 123 t b b;
#X msg 238 197 0;
#X obj 152 268 t f f f;
#X obj 152 364 t f f;
#X obj 152 408 div 10;
#X msg 198 511 bang;
#X obj 152 472 moses 1;
#X msg 152 511 48;
#X obj 152 548 list tosymbol;
#X text 86 512 "0" =>;
#X obj 298 648 pack s f s f s f;
#X msg 298 674 label \$1\$2:\$3\$4:\$5\$6;
#X obj 152 322 div 3600;
#X obj 364 364 mod 60;
#X obj 235 24 lzr/onsave;
#X msg 235 59 stop;
#X obj 300 800 lzr/shade 90 25 2;
#X obj 301 801 cnv 10 86 21 empty \$0-display.set 00:00:00 6 13 1 20
-262144 -66577 0;
#X connect 0 0 1 0;
#X connect 1 0 3 0;
#X connect 1 1 23 0;
#X connect 2 0 6 0;
#X connect 3 0 2 0;
#X connect 5 0 2 0;
#X connect 6 0 7 0;
#X connect 6 0 25 0;
#X connect 7 0 6 1;
#X connect 8 0 11 0;
#X connect 9 0 36 0;
#X connect 10 0 14 0;
#X connect 11 0 33 5;
#X connect 11 1 10 0;
#X connect 12 0 19 0;
#X connect 13 0 16 0;
#X connect 14 0 15 0;
#X connect 14 1 13 0;
#X connect 15 0 16 0;
#X connect 16 0 33 4;
#X connect 18 0 21 0;
#X connect 19 0 20 0;
#X connect 19 1 18 0;
#X connect 20 0 21 0;
#X connect 21 0 33 2;
#X connect 23 0 5 0;
#X connect 23 1 24 0;
#X connect 24 0 6 0;
#X connect 25 0 35 0;
#X connect 25 1 9 0;
#X connect 25 2 8 0;
#X connect 26 0 27 0;
#X connect 26 1 33 1;
#X connect 27 0 29 0;
#X connect 28 0 31 0;
#X connect 29 0 30 0;
#X connect 29 1 28 0;
#X connect 30 0 31 0;
#X connect 31 0 33 0;
#X connect 33 0 34 0;
#X connect 34 0 4 0;
#X connect 35 0 26 0;
#X connect 36 0 12 0;
#X connect 36 0 33 3;
#X connect 37 0 38 0;
#X connect 38 0 1 0;
#X coords 0 -1 1 1 90 25 2 300 800;
