#N canvas 506 22 1107 912 10;
#X obj 75 56 inlet;
#X obj 75 845 outlet;
#X obj 139 845 outlet;
#X obj 75 814 spigot;
#X obj 203 35 inlet;
#X obj 139 814 spigot;
#X obj 75 523 t a;
#X obj 199 845 outlet;
#X obj 199 814 spigot;
#X obj 259 845 outlet;
#X obj 259 814 spigot;
#X obj 319 845 outlet;
#X obj 319 814 spigot;
#X obj 379 845 outlet;
#X obj 379 814 spigot;
#X obj 439 845 outlet;
#X obj 439 814 spigot;
#X obj 499 845 outlet;
#X obj 499 814 spigot;
#X obj 559 845 outlet;
#X obj 559 814 spigot;
#X obj 619 845 outlet;
#X obj 619 814 spigot;
#X text 189 15 select outlet;
#X obj 679 845 outlet;
#X obj 679 814 spigot;
#X obj 739 845 outlet;
#X obj 739 814 spigot;
#X obj 799 845 outlet;
#X obj 799 814 spigot;
#X obj 859 845 outlet;
#X obj 859 814 spigot;
#X obj 919 845 outlet;
#X obj 919 814 spigot;
#X obj 979 845 outlet;
#X obj 979 814 spigot;
#X obj 326 582 unpack f f f f f f f f f f f f f f f f;
#X msg 733 124 1 0 0 0 0 0 0 0 0 0 0 0 0 0 0 0;
#X msg 734 156 0 1 0 0 0 0 0 0 0 0 0 0 0 0 0 0;
#X msg 734 186 0 0 1 0 0 0 0 0 0 0 0 0 0 0 0 0;
#X msg 735 212 0 0 0 1 0 0 0 0 0 0 0 0 0 0 0 0;
#X msg 735 235 0 0 0 0 1 0 0 0 0 0 0 0 0 0 0 0;
#X msg 734 259 0 0 0 0 0 1 0 0 0 0 0 0 0 0 0 0;
#X msg 736 286 0 0 0 0 0 0 1 0 0 0 0 0 0 0 0 0;
#X msg 737 312 0 0 0 0 0 0 0 1 0 0 0 0 0 0 0 0;
#X msg 737 337 0 0 0 0 0 0 0 0 1 0 0 0 0 0 0 0;
#X msg 737 363 0 0 0 0 0 0 0 0 0 1 0 0 0 0 0 0;
#X obj 203 72 select 0 1 2 3 4 5 6 7 8 9 10 11 12 13 14 15;
#X msg 737 544 0 0 0 0 0 0 0 0 0 0 0 0 0 0 0 0;
#X msg 737 389 0 0 0 0 0 0 0 0 0 0 1 0 0 0 0 0;
#X msg 737 415 0 0 0 0 0 0 0 0 0 0 0 1 0 0 0 0;
#X msg 737 442 0 0 0 0 0 0 0 0 0 0 0 0 1 0 0 0;
#X msg 737 468 0 0 0 0 0 0 0 0 0 0 0 0 0 1 0 0;
#X msg 737 493 0 0 0 0 0 0 0 0 0 0 0 0 0 0 1 0;
#X msg 737 518 0 0 0 0 0 0 0 0 0 0 0 0 0 0 0 1;
#X text 9 26 to be directed;
#X text 9 12 arbitrary messages;
#X text 8 41 to 1 of 16 outlets;
#X connect 0 0 6 0;
#X connect 3 0 1 0;
#X connect 4 0 47 0;
#X connect 5 0 2 0;
#X connect 6 0 3 0;
#X connect 6 0 5 0;
#X connect 6 0 8 0;
#X connect 6 0 10 0;
#X connect 6 0 12 0;
#X connect 6 0 14 0;
#X connect 6 0 16 0;
#X connect 6 0 18 0;
#X connect 6 0 20 0;
#X connect 6 0 22 0;
#X connect 6 0 25 0;
#X connect 6 0 27 0;
#X connect 6 0 29 0;
#X connect 6 0 31 0;
#X connect 6 0 33 0;
#X connect 6 0 35 0;
#X connect 8 0 7 0;
#X connect 10 0 9 0;
#X connect 12 0 11 0;
#X connect 14 0 13 0;
#X connect 16 0 15 0;
#X connect 18 0 17 0;
#X connect 20 0 19 0;
#X connect 22 0 21 0;
#X connect 25 0 24 0;
#X connect 27 0 26 0;
#X connect 29 0 28 0;
#X connect 31 0 30 0;
#X connect 33 0 32 0;
#X connect 35 0 34 0;
#X connect 36 0 3 1;
#X connect 36 1 5 1;
#X connect 36 2 8 1;
#X connect 36 3 10 1;
#X connect 36 4 12 1;
#X connect 36 5 14 1;
#X connect 36 6 16 1;
#X connect 36 7 18 1;
#X connect 36 8 20 1;
#X connect 36 9 22 1;
#X connect 36 10 25 1;
#X connect 36 11 27 1;
#X connect 36 12 29 1;
#X connect 36 13 31 1;
#X connect 36 14 33 1;
#X connect 36 15 35 1;
#X connect 37 0 36 0;
#X connect 38 0 36 0;
#X connect 39 0 36 0;
#X connect 40 0 36 0;
#X connect 41 0 36 0;
#X connect 42 0 36 0;
#X connect 43 0 36 0;
#X connect 44 0 36 0;
#X connect 45 0 36 0;
#X connect 46 0 36 0;
#X connect 47 0 37 0;
#X connect 47 1 38 0;
#X connect 47 2 39 0;
#X connect 47 3 40 0;
#X connect 47 4 41 0;
#X connect 47 5 42 0;
#X connect 47 6 43 0;
#X connect 47 7 44 0;
#X connect 47 8 45 0;
#X connect 47 9 46 0;
#X connect 47 10 49 0;
#X connect 47 11 50 0;
#X connect 47 12 51 0;
#X connect 47 13 52 0;
#X connect 47 14 53 0;
#X connect 47 15 54 0;
#X connect 47 16 48 0;
#X connect 48 0 36 0;
#X connect 49 0 36 0;
#X connect 50 0 36 0;
#X connect 51 0 36 0;
#X connect 52 0 36 0;
#X connect 53 0 36 0;
#X connect 54 0 36 0;
