#N canvas 599 95 1014 759 10;
#X obj 294 47 inlet~;
#X obj 365 645 outlet~;
#X obj 351 48 inlet~;
#X obj 500 643 outlet~;
#X obj 564 392 env~;
#X obj 564 414 - 100;
#X obj 574 124 mpx16;
#X obj 149 409 kick-drum;
#X obj 232 408 acreil-snare1-drum;
#X obj 385 409 acreil-snare2-drum;
#X obj 301 184 select 2 3 1 4 5;
#X floatatom 574 165 5 0 0 0 - - -, f 5;
#X obj 574 99 unpack f f;
#X obj 33 407 creb/ti_hihat;
#X obj 644 400 creb/ti_snare;
#X obj 143 501 +~, f 2;
#X obj 217 533 +~;
#X obj 314 555 +~;
#X obj 454 593 +~;
#X obj 110 631 env~;
#X obj 110 653 - 100;
#X obj 188 488 +~, f 2;
#X obj 286 516 +~;
#X obj 443 552 +~;
#X obj 535 592 +~;
#X obj 793 40 inlet;
#X obj 820 259 outlet;
#X text 799 22 MIDI;
#X obj 793 65 route midi-note;
#X obj 100 100 lzr/shade 190 190 4;
#X obj 187 135 vu 15 120 empty empty -1 -8 0 10 -66577 -1 1 0;
#X obj 249 263 bng 15 250 50 0 empty empty empty 17 7 0 10 -262144
-1 -1;
#X obj 215 264 bng 15 250 50 0 empty empty empty 17 7 0 10 -262144
-1 -1;
#X obj 154 264 bng 15 250 50 0 empty empty empty 17 7 0 10 -262144
-1 -1;
#X obj 185 264 bng 15 250 50 0 empty empty empty 17 7 0 10 -262144
-1 -1;
#X obj 128 265 bng 15 250 50 0 empty empty empty 17 7 0 10 -262144
-1 -1;
#X obj 169 135 vu 15 120 empty empty -1 -8 0 4 -33289 -33289 1 0;
#X text 166 106 Drums;
#X text 167 106 Drums;
#X connect 4 0 5 0;
#X connect 5 0 30 0;
#X connect 6 0 10 0;
#X connect 6 0 11 0;
#X connect 7 0 15 1;
#X connect 7 1 21 1;
#X connect 8 0 16 1;
#X connect 8 1 22 1;
#X connect 9 0 17 1;
#X connect 9 1 23 1;
#X connect 10 0 35 0;
#X connect 10 1 31 0;
#X connect 10 2 33 0;
#X connect 10 3 34 0;
#X connect 10 4 32 0;
#X connect 12 0 6 0;
#X connect 12 1 6 1;
#X connect 13 0 15 0;
#X connect 13 0 21 0;
#X connect 14 0 18 1;
#X connect 14 0 24 1;
#X connect 15 0 16 0;
#X connect 16 0 17 0;
#X connect 17 0 18 0;
#X connect 18 0 1 0;
#X connect 18 0 19 0;
#X connect 19 0 20 0;
#X connect 20 0 36 0;
#X connect 21 0 22 0;
#X connect 22 0 23 0;
#X connect 23 0 24 0;
#X connect 24 0 3 0;
#X connect 24 0 4 0;
#X connect 25 0 28 0;
#X connect 28 0 12 0;
#X connect 31 0 14 0;
#X connect 32 0 9 0;
#X connect 33 0 7 0;
#X connect 34 0 8 0;
#X connect 35 0 13 0;
#X coords 0 -1 1 1 190 190 2 100 100;
