#N canvas 258 187 887 661 10;
#X text 12 446 It uses throw~/catch~ instead of audio cables.;
#X text 13 469 Arguments:;
#X text 15 498 - \$1: parent's \$0;
#X text 15 519 - \$2: name of the audio effect abstraction to automatically
connect to;
#X text 15 553 - \$3: track number (from 1 to 8);
#N canvas 1023 272 499 427 \$0-effect-container-behavior 0;
#N canvas 1145 300 450 300 \$0-create-effect-object 0;
#X obj 132 25 inlet;
#X obj 132 69 symbol \$2;
#X msg 132 106 obj 10 60 \$1;
#X obj 132 139 iemguts/sendcanvas 2;
#X connect 0 0 1 0;
#X connect 1 0 2 0;
#X connect 2 0 3 0;
#X restore 131 224 pd \$0-create-effect-object;
#N canvas 895 80 623 619 \$0-create-throwcatch 0;
#X obj 80 28 inlet;
#X obj 147 462 iemguts/sendcanvas 2;
#X obj 108 133 int \$3;
#X obj 80 165 int \$1;
#X text 14 163 parent \$0;
#X text 154 131 track #;
#X text 185 92 effect #;
#X obj 137 93 int \$4;
#X obj 80 216 pack f f f;
#X obj 80 250 t l l l l;
#X obj 80 56 t b b b;
#X msg 114 353 obj 10 280 throw~ \$1-track\$2-effect\$3-l-after;
#X msg 80 419 obj 50 260 throw~ \$1-track\$2-effect\$3-r-after;
#X msg 97 388 obj 50 30 catch~ \$1-track\$2-effect\$3-r-before;
#X msg 131 322 obj 10 40 catch~ \$1-track\$2-effect\$3-l-before;
#X connect 0 0 10 0;
#X connect 2 0 8 1;
#X connect 3 0 8 0;
#X connect 7 0 8 2;
#X connect 8 0 9 0;
#X connect 9 0 12 0;
#X connect 9 1 13 0;
#X connect 9 2 11 0;
#X connect 9 3 14 0;
#X connect 10 0 3 0;
#X connect 10 1 2 0;
#X connect 10 2 7 0;
#X connect 11 0 1 0;
#X connect 12 0 1 0;
#X connect 13 0 1 0;
#X connect 14 0 1 0;
#X restore 114 252 pd \$0-create-throwcatch;
#N canvas 213 194 745 703 \$0-connect-effect-to-throwcatch 0;
#X obj 30 29 inlet;
#X obj 333 369 pack f f;
#X obj 153 104 t f f f f f;
#X obj 153 167 - 1;
#X obj 211 168 - 2;
#X obj 274 167 - 3;
#X obj 333 166 - 4;
#X obj 378 166 - 5;
#X obj 499 592 iemguts/sendcanvas 2;
#X obj 274 305 pack f f;
#X text 390 369 l before;
#X text 282 324 l after;
#X msg 333 424 connect \$1 0 \$2 0;
#X msg 274 498 connect \$2 0 \$1 0;
#X obj 211 251 pack f f;
#X obj 153 213 pack f f;
#X text 105 209 r after;
#X text 219 271 r before;
#X text 456 31 Last created objects:;
#X text 457 53 - effect object;
#X text 457 74 - "left before" catch;
#X text 457 94 - "left after" throw;
#X text 456 114 - "right before" catch;
#X text 456 134 - "right after" throw;
#X obj 30 70 iemguts/canvasindex 1;
#X msg 211 536 connect \$1 0 \$2 1;
#X msg 153 565 connect \$2 1 \$1 0;
#X connect 0 0 24 0;
#X connect 1 0 12 0;
#X connect 2 0 3 0;
#X connect 2 1 4 0;
#X connect 2 2 5 0;
#X connect 2 3 6 0;
#X connect 2 4 7 0;
#X connect 3 0 15 0;
#X connect 4 0 14 0;
#X connect 5 0 9 0;
#X connect 6 0 1 0;
#X connect 7 0 1 1;
#X connect 7 0 9 1;
#X connect 7 0 14 1;
#X connect 7 0 15 1;
#X connect 9 0 13 0;
#X connect 12 0 8 0;
#X connect 13 0 8 0;
#X connect 14 0 25 0;
#X connect 15 0 26 0;
#X connect 24 1 2 0;
#X connect 25 0 8 0;
#X connect 26 0 8 0;
#X restore 97 282 pd \$0-connect-effect-to-throwcatch;
#X obj 80 53 r \$1-global-events;
#X obj 80 96 route effect-loadbang;
#X text 66 33 Parent patch's main event bus;
#N canvas 496 96 449 388 \$0-check-track-and-effect-numbers 0;
#X obj 34 18 inlet;
#X obj 91 308 outlet;
#X obj 67 146 == \$3;
#X obj 67 113 unpack f f;
#X obj 124 146 == \$4;
#X obj 34 176 spigot;
#X obj 91 228 spigot;
#X obj 34 77 t b l;
#X text 76 35 Bangs outlet if they match 3rd and 4th creation params.
;
#X text 76 18 Receives a pair of numbers (track # \, effect #).;
#X connect 0 0 7 0;
#X connect 2 0 5 1;
#X connect 3 0 2 0;
#X connect 3 1 4 0;
#X connect 4 0 6 1;
#X connect 5 0 6 0;
#X connect 6 0 1 0;
#X connect 7 0 5 0;
#X connect 7 1 3 0;
#X restore 80 141 pd \$0-check-track-and-effect-numbers;
#X obj 80 182 t b b b b;
#X obj 80 348 iemguts/sendcanvas 1;
#X msg 80 320 donecanvasdialog 0 0 2 0 -1 1 1 190 190 10 60;
#X obj 52 156 bng 15 250 50 0 empty empty empty 17 7 0 10 -262144 -1
-1;
#X connect 3 0 4 0;
#X connect 4 0 6 0;
#X connect 6 0 7 0;
#X connect 7 0 9 0;
#X connect 7 1 2 0;
#X connect 7 2 1 0;
#X connect 7 3 0 0;
#X connect 9 0 8 0;
#X connect 10 0 7 0;
#X restore 13 344 pd \$0-effect-container-behavior;
#X text 11 396 This abstraction is a wrapper around effect abstractions
that provides an easy to use interface without duplicating the same
code in all effect abstractions.;
#X text 15 579 - \$4: effect's sequential number in effect chain (from
1);
#X coords 0 -1 1 1 190 190 2 10 60;
