#N canvas 296 41 1327 831 10;
#X obj 700 72 inlet~;
#X obj 788 72 inlet~;
#X obj 699 303 outlet~;
#X obj 799 302 outlet~;
#X obj 888 73 t a;
#X obj 887 301 t a;
#X obj 35 328 iemguts/canvasindex;
#X text 41 376 object ID;
#X obj 35 15 r LZR-NEW-EFFECT-LOADBANG;
#X obj 388 747 iemguts/canvasselect 0;
#X floatatom 388 770 5 0 0 0 - - -, f 5;
#X obj 388 704 tgl 15 0 empty empty empty 17 7 0 10 -262144 -1 -1 0
1;
#X obj 388 724 metro 500;
#X obj 209 523 iemguts/canvasindex;
#X msg 35 459 new-effect-id \$1;
#X msg 209 555 canvas-index-response \$1;
#X text 25 772 to global events bus;
#X obj 209 401 route \$3;
#X obj 209 429 route \$4;
#X text 275 404 <= track #;
#X text 275 431 <= effect #;
#X obj 209 378 route effect;
#X obj 220 486 iemguts/canvasdelete 1;
#X obj 404 519 symbol \$1;
#X obj 404 542 pack s \$3 \$4;
#X obj 404 487 t b b;
#X obj 844 757 iemguts/sendcanvas;
#X text 1009 454 <= expected object ID;
#X text 1030 474 of dynamically created;
#X text 1032 495 effect box;
#X obj 960 414 lzr/pp set;
#X msg 960 454 66;
#N canvas 307 129 511 206 \$0-next-object-id 0;
#X obj 27 31 inlet;
#X obj 157 138 outlet;
#X text 267 56 on the parent canvas.;
#X text 266 36 Returns how many objects are;
#X text 266 76 Since PD numbers all objects;
#X text 265 96 sequentially starting with 0 \,;
#X text 266 117 it'll be also the object ID;
#X text 267 136 of the next created object;
#X obj 27 79 iemguts/canvasindex;
#X connect 0 0 8 0;
#X connect 8 1 1 0;
#X restore 960 370 pd \$0-next-object-id;
#X obj 844 415 t b b;
#X obj 844 455 symbol \$1;
#X obj 844 490 pack s \$2 \$3 \$4 f;
#X msg 491 519 save-params;
#X obj 702 412 route param;
#X obj 702 568 t a;
#X text 591 720 inlet/outlet ID's are hardcoded =>;
#X text 571 743 <= if they change \, use this tool;
#X msg 404 569 effect-params add-effect \$2 \$3 \$1;
#X obj 433 617 lzr/pp effect-params param;
#X obj 655 6 t a;
#X text 39 408 parent;
#X text 39 426 patch;
#X text 40 393 within the;
#X obj 209 454 route canvas-index suicide save-effect param;
#X obj 550 484 lzr/pp param;
#X obj 655 549 t a;
#X obj 960 331 lzr/onsave;
#X obj 209 328 r \$2-global-events;
#X obj 35 751 s \$2-global-events;
#X obj 35 82 lzr/once;
#X obj 35 152 t b b;
#X obj 888 41 inlet;
#X obj 887 332 outlet;
#X msg 967 707 connect \$5 2 5 0;
#X msg 970 683 connect 4 0 \$5 2;
#X msg 971 657 connect \$5 1 3 0;
#X msg 972 631 connect \$5 0 2 0;
#X msg 973 605 connect 1 0 \$5 1;
#X msg 975 577 connect 0 0 \$5 0;
#X msg 976 549 obj 700 100 \$1 \$2 \$3 \$4;
#X msg 962 732 loadbang;
#X obj 844 518 t b a a a a a a a;
#X connect 5 0 37 0;
#X connect 5 0 56 0;
#X connect 6 0 14 0;
#X connect 8 0 53 0;
#X connect 9 0 10 0;
#X connect 11 0 12 0;
#X connect 12 0 9 0;
#X connect 13 0 15 0;
#X connect 14 0 52 0;
#X connect 15 0 52 0;
#X connect 17 0 18 0;
#X connect 18 0 47 0;
#X connect 21 0 17 0;
#X connect 23 0 24 0;
#X connect 24 0 41 0;
#X connect 25 0 36 0;
#X connect 25 1 23 0;
#X connect 30 0 31 0;
#X connect 31 0 35 4;
#X connect 32 0 30 0;
#X connect 33 0 34 0;
#X connect 33 1 31 0;
#X connect 34 0 35 0;
#X connect 35 0 65 0;
#X connect 36 0 49 0;
#X connect 37 0 38 0;
#X connect 38 0 42 0;
#X connect 41 0 52 0;
#X connect 42 0 52 0;
#X connect 43 0 4 0;
#X connect 47 0 13 0;
#X connect 47 1 22 0;
#X connect 47 2 25 0;
#X connect 47 3 48 0;
#X connect 48 0 49 0;
#X connect 49 0 43 0;
#X connect 50 0 32 0;
#X connect 51 0 21 0;
#X connect 53 0 54 0;
#X connect 54 0 6 0;
#X connect 54 1 33 0;
#X connect 55 0 4 0;
#X connect 57 0 26 0;
#X connect 58 0 26 0;
#X connect 59 0 26 0;
#X connect 60 0 26 0;
#X connect 61 0 26 0;
#X connect 62 0 26 0;
#X connect 63 0 26 0;
#X connect 64 0 26 0;
#X connect 65 0 64 0;
#X connect 65 1 57 0;
#X connect 65 2 58 0;
#X connect 65 3 59 0;
#X connect 65 4 60 0;
#X connect 65 5 61 0;
#X connect 65 6 62 0;
#X connect 65 7 63 0;
#X coords 0 -1 1 1 190 190 2 700 100;
