#N canvas 358 76 1159 824 10;
#X obj 149 184 inlet;
#X obj 429 188 inlet;
#X obj 149 724 outlet;
#X obj 715 661 outlet;
#X text 105 162 arguments from the caller object;
#X text 383 163 results from the callee object;
#X text 663 690 arguments to the callee object;
#X text 82 748 results to the caller object;
#X obj 429 381 spigot 0;
#X text 663 726 (see second inlet);
#X text 662 708 callee object MUST output something;
#X text 26 626 sending the results out;
#X text 712 21 == "Function call" abstraction. ==;
#X text 713 44 When designing PD patches \, it's a good practice to
separate;
#X text 700 63 relatively independent functionality into subpatches
and;
#X text 700 83 abstractions. Often one subpatch/abstraction ("caller")
;
#X text 701 120 subpatch/abstraction ("callee") and receive "results"
as a;
#X text 702 139 response. When no call is made \, any data coming from
the;
#X text 702 156 callee should be ignored (this is achieved by using
a;
#X text 702 172 spigot);
#X text 700 101 needs to send certain data ("arguments") to another
;
#X msg 475 619 addcomma;
#X obj 292 610 lzr/pp add2;
#X msg 255 610 set;
#X msg 483 559 0;
#X msg 516 559 1;
#X obj 475 590 spigot;
#X obj 429 514 t a b b;
#X obj 223 501 t b b;
#X text 26 641 only after all of them;
#X text 29 671 the callee;
#X text 27 657 have been received from;
#X obj 299 568 route bang;
#X msg 393 609 add2 bang;
#X obj 149 595 t b;
#X msg 304 660;
#X msg 463 353 0;
#X msg 501 353 1;
#X obj 149 224 t b b a b b;
#X obj 715 553 t a;
#X obj 186 415 t a;
#X connect 0 0 38 0;
#X connect 1 0 8 0;
#X connect 8 0 27 0;
#X connect 21 0 35 0;
#X connect 22 0 35 0;
#X connect 23 0 35 0;
#X connect 24 0 26 1;
#X connect 25 0 26 1;
#X connect 26 0 21 0;
#X connect 27 0 32 0;
#X connect 27 1 25 0;
#X connect 27 2 26 0;
#X connect 28 0 24 0;
#X connect 28 1 23 0;
#X connect 32 0 33 0;
#X connect 32 1 22 0;
#X connect 33 0 35 0;
#X connect 34 0 35 0;
#X connect 35 0 2 0;
#X connect 36 0 8 1;
#X connect 37 0 8 1;
#X connect 38 0 34 0;
#X connect 38 1 36 0;
#X connect 38 2 40 0;
#X connect 38 3 37 0;
#X connect 38 4 28 0;
#X connect 39 0 3 0;
#X connect 40 0 39 0;
