#N canvas 473 38 886 806 10;
#X obj 49 299 lzr/hexdigit2int;
#X obj 49 91 list fromsymbol;
#X obj 49 187 unpack f f f f f f, f 89;
#X obj 49 38 inlet;
#X obj 49 271 list tosymbol;
#X obj 173 271 list tosymbol;
#X obj 297 271 list tosymbol;
#X obj 421 271 list tosymbol;
#X obj 545 271 list tosymbol;
#X obj 669 271 list tosymbol;
#X obj 545 348 * 16;
#X obj 421 350 * 256;
#X obj 49 409 +;
#X obj 545 380 +;
#X obj 297 351 * 4096;
#X obj 297 412 +;
#X obj 297 456 +;
#X obj 49 455 * 65536;
#X obj 49 503 +;
#X obj 63 645 outlet;
#X obj 49 352 * 16;
#X text 39 13 symbol like 0dF3Be;
#X text 57 673 the number that the input's 3-byte value represents
;
#X obj 63 592 -;
#X obj 49 534 t b f;
#X msg 49 561 -1;
#N canvas 518 190 684 518 \$0-pad-with-zeros 0;
#X obj 136 196 list length;
#X obj 136 223 moses 6;
#X obj 321 328 list;
#X obj 214 126 t a a;
#X obj 182 277 t b;
#X obj 196 360 list prepend 48;
#X obj 93 60 t a;
#X obj 93 404 t a;
#X obj 221 328 list;
#X obj 136 277 t b;
#X obj 214 62 inlet;
#X obj 320 434 outlet;
#X text 176 31 list of character codes;
#X text 134 464 incoming list padded to 6 characters with "0" on the
left;
#X connect 0 0 1 0;
#X connect 1 0 9 0;
#X connect 1 1 4 0;
#X connect 2 0 11 0;
#X connect 3 0 0 0;
#X connect 3 1 2 1;
#X connect 3 1 8 1;
#X connect 4 0 2 0;
#X connect 5 0 7 0;
#X connect 6 0 3 0;
#X connect 7 0 6 0;
#X connect 8 0 5 0;
#X connect 9 0 8 0;
#X connect 10 0 3 0;
#X restore 49 155 pd \$0-pad-with-zeros;
#X obj 173 299 lzr/hexdigit2int;
#X obj 297 299 lzr/hexdigit2int;
#X obj 421 299 lzr/hexdigit2int;
#X obj 545 299 lzr/hexdigit2int;
#X obj 669 299 lzr/hexdigit2int;
#N canvas 587 119 454 448 \$0-remove-x 0;
#X obj 219 52 inlet;
#X obj 160 359 outlet;
#X obj 145 130 list split 1;
#X obj 70 173 sel 120 88;
#X obj 160 314 list;
#X obj 226 315 list;
#X obj 219 87 t a a;
#X obj 137 202 t b;
#X text 158 29 list of character codes;
#X text 38 392 list with removed "x" or "X" at the beginning;
#X connect 0 0 6 0;
#X connect 2 0 3 0;
#X connect 2 1 4 1;
#X connect 2 2 5 0;
#X connect 3 0 4 0;
#X connect 3 1 4 0;
#X connect 3 2 7 0;
#X connect 4 0 1 0;
#X connect 5 0 1 0;
#X connect 6 0 2 0;
#X connect 6 1 5 1;
#X connect 7 0 5 0;
#X restore 49 122 pd \$0-remove-x;
#X connect 0 0 20 0;
#X connect 1 0 32 0;
#X connect 2 0 4 0;
#X connect 2 1 5 0;
#X connect 2 2 6 0;
#X connect 2 3 7 0;
#X connect 2 4 8 0;
#X connect 2 5 9 0;
#X connect 3 0 1 0;
#X connect 4 0 0 0;
#X connect 5 0 27 0;
#X connect 6 0 28 0;
#X connect 7 0 29 0;
#X connect 8 0 30 0;
#X connect 9 0 31 0;
#X connect 10 0 13 0;
#X connect 11 0 15 1;
#X connect 12 0 17 0;
#X connect 13 0 16 1;
#X connect 14 0 15 0;
#X connect 15 0 16 0;
#X connect 16 0 18 1;
#X connect 17 0 18 0;
#X connect 18 0 24 0;
#X connect 20 0 12 0;
#X connect 23 0 19 0;
#X connect 24 0 25 0;
#X connect 24 1 23 1;
#X connect 25 0 23 0;
#X connect 26 0 2 0;
#X connect 27 0 12 1;
#X connect 28 0 14 0;
#X connect 29 0 11 0;
#X connect 30 0 10 0;
#X connect 31 0 13 1;
#X connect 32 0 26 0;
