#N canvas 583 85 1015 611 10;
#X obj 217 55 inlet;
#X text 176 28 support both symbols and anything messages;
#X obj 45 489 print lzr/hexdigit2int: invalid hex character;
#X obj 376 488 outlet;
#X obj 217 153 list fromsymbol;
#X obj 270 225 moses 65;
#X obj 323 255 moses 97;
#X obj 376 285 moses 103;
#X obj 217 199 moses 48;
#X obj 270 326 - 48;
#X obj 323 365 - 55;
#X obj 376 398 - 87;
#X obj 376 442 t a;
#X obj 45 465 list tosymbol;
#X text 447 329 <= "0" - "9": 48 - 57;
#X text 447 363 <= "A" - "F": 65 - 70;
#X text 450 398 <= "a" - "f": 97 - 102;
#X obj 217 97 list split 1;
#X obj 474 136 print lzr/hexdigit2int: at least 1 hex digit is expected
;
#X obj 474 166 list length;
#X obj 474 195 select 0;
#X obj 527 230 + 1;
#X obj 527 263 print lzr/hexdigit2int: only 1 hex digit is expected.
Got;
#X connect 0 0 17 0;
#X connect 4 0 8 0;
#X connect 5 0 9 0;
#X connect 5 1 6 0;
#X connect 6 0 10 0;
#X connect 6 1 7 0;
#X connect 7 0 11 0;
#X connect 7 1 13 0;
#X connect 8 0 13 0;
#X connect 8 1 5 0;
#X connect 9 0 12 0;
#X connect 10 0 12 0;
#X connect 11 0 12 0;
#X connect 12 0 3 0;
#X connect 13 0 2 0;
#X connect 17 0 4 0;
#X connect 17 1 19 0;
#X connect 17 2 18 0;
#X connect 19 0 20 0;
#X connect 20 1 21 0;
#X connect 21 0 22 0;
