#N canvas 317 63 1029 712 10;
#X text 8 7 Input Interface;
#N canvas 489 22 1073 910 \$0-midi 0;
#X obj 112 588 lzr/selectbox;
#X obj 108 498 lzr/pp setlist;
#N canvas 0 22 1001 765 \$0-persistence 0;
#X obj 207 48 list fromsymbol;
#X msg 221 154 65 80 67 32 77 73 78 73 \, 80 100 82 101 97 112 101
114 32 82 101 97 112 101 114 84 111 80 100 \, 80 100 82 101 97 112
101 114 32 80 100 84 111 82 101 97 112 101 114 \,;
#X msg 392 110 set;
#X obj 221 101 lzr/pp add2;
#X msg 109 115 addcomma;
#X obj 180 74 t b a;
#X obj 221 213 list tosymbol;
#X obj 259 280 cyclone/counter;
#X obj 226 246 t s b;
#X symbolatom 393 406 40 0 0 0 - - -, f 40;
#X symbolatom 393 426 40 0 0 0 - - -, f 40;
#X symbolatom 393 446 40 0 0 0 - - -, f 40;
#X symbolatom 393 466 40 0 0 0 - - -, f 40;
#X symbolatom 393 486 40 0 0 0 - - -, f 40;
#X symbolatom 393 506 40 0 0 0 - - -, f 40;
#X symbolatom 393 526 40 0 0 0 - - -, f 40;
#X symbolatom 393 546 40 0 0 0 - - -, f 40;
#X symbolatom 393 566 40 0 0 0 - - -, f 40;
#X symbolatom 393 586 40 0 0 0 - - -, f 40;
#X obj 370 406 bng 15 250 50 0 empty empty empty 17 7 0 10 -262144
-1 -1;
#X obj 370 426 bng 15 250 50 0 empty empty empty 17 7 0 10 -262144
-1 -1;
#X obj 370 446 bng 15 250 50 0 empty empty empty 17 7 0 10 -262144
-1 -1;
#X obj 370 466 bng 15 250 50 0 empty empty empty 17 7 0 10 -262144
-1 -1;
#X obj 370 486 bng 15 250 50 0 empty empty empty 17 7 0 10 -262144
-1 -1;
#X obj 370 506 bng 15 250 50 0 empty empty empty 17 7 0 10 -262144
-1 -1;
#X obj 370 526 bng 15 250 50 0 empty empty empty 17 7 0 10 -262144
-1 -1;
#X obj 370 546 bng 15 250 50 0 empty empty empty 17 7 0 10 -262144
-1 -1;
#X obj 370 566 bng 15 250 50 0 empty empty empty 17 7 0 10 -262144
-1 -1;
#X obj 370 586 bng 15 250 50 0 empty empty empty 17 7 0 10 -262144
-1 -1;
#X msg 186 295 set \$1;
#X obj 259 323 lzr/demultiplex;
#X connect 0 0 5 0;
#X connect 1 0 6 0;
#X connect 2 0 1 0;
#X connect 3 0 1 0;
#X connect 4 0 1 0;
#X connect 5 0 4 0;
#X connect 5 1 3 0;
#X connect 6 0 8 0;
#X connect 7 0 30 1;
#X connect 8 0 29 0;
#X connect 8 1 7 0;
#X connect 19 0 9 0;
#X connect 20 0 10 0;
#X connect 21 0 11 0;
#X connect 22 0 12 0;
#X connect 23 0 13 0;
#X connect 24 0 14 0;
#X connect 25 0 15 0;
#X connect 26 0 16 0;
#X connect 27 0 17 0;
#X connect 28 0 18 0;
#X connect 29 0 30 0;
#X connect 30 0 9 0;
#X connect 30 1 10 0;
#X connect 30 2 11 0;
#X connect 30 3 12 0;
#X connect 30 4 13 0;
#X connect 30 5 14 0;
#X connect 30 6 15 0;
#X connect 30 7 16 0;
#X connect 30 8 17 0;
#X connect 30 9 18 0;
#X restore 214 27 pd \$0-persistence;
#X obj 370 28 route selected;
#X obj 370 62 list split 1;
#X obj 431 588 lzr/selectbox;
#X obj 410 498 lzr/pp setlist;
#X obj 410 195 lzr/symbol-set;
#X msg 410 126 add \$1 \, get;
#X obj 540 76 route selected;
#X msg 580 153 remove \$1 \, get;
#X obj 540 112 list split 1;
#X text 122 549 Available MIDI devices;
#X text 111 565 (click to add to the right list);
#X text 440 550 Automatically connected devices;
#X text 430 567 (click to remove);
#X obj 11 403 lzr/list-change;
#X obj 11 13 loadbang;
#X obj 11 206 lzr/midi-settings;
#X msg 11 93 names;
#X obj 11 265 route names;
#X obj 410 255 t l l;
#X obj 442 306 lzr/list-change;
#X obj 442 346 lzr/pp connect-by-names;
#X obj 170 131 t a;
#X obj 170 433 t a;
#X obj 431 864 t a;
#X obj 812 868 t a;
#X obj 674 19 t a;
#X obj 791 602 outlet;
#X obj 791 349 lzr/pp midi-autoconnect;
#X obj 831 20 inlet;
#X obj 831 140 route midi-autoconnect-set;
#X obj 831 164 list;
#X connect 0 0 3 0;
#X connect 1 0 0 0;
#X connect 3 0 4 0;
#X connect 4 1 8 0;
#X connect 5 0 26 0;
#X connect 6 0 5 0;
#X connect 7 0 21 0;
#X connect 8 0 7 0;
#X connect 9 0 11 0;
#X connect 10 0 7 0;
#X connect 11 1 10 0;
#X connect 16 0 1 0;
#X connect 17 0 19 0;
#X connect 18 0 20 0;
#X connect 19 0 18 0;
#X connect 20 0 16 0;
#X connect 21 0 6 0;
#X connect 21 1 22 0;
#X connect 22 0 23 0;
#X connect 22 0 30 0;
#X connect 23 0 25 0;
#X connect 24 0 18 0;
#X connect 25 0 24 0;
#X connect 26 0 27 0;
#X connect 27 0 28 0;
#X connect 28 0 9 0;
#X connect 30 0 29 0;
#X connect 31 0 32 0;
#X connect 32 0 33 0;
#X connect 33 0 21 0;
#X coords 0 -1 1 1 650 320 2 100 540;
#X restore 59 201 pd \$0-midi;
#N canvas 622 217 925 532 \$0-audiosettings 0;
#X obj 289 243 route in;
#X obj 287 218 route device;
#X msg 415 96 listdevices;
#X obj 304 275 route devices;
#X obj 314 307 unpack f s;
#X msg 317 337 append \$1;
#X msg 402 165 options;
#X msg 447 189 name;
#X obj 407 133 trigger a a a;
#X msg 574 185 listparams;
#X obj 569 267 route params;
#X obj 573 294 route in;
#X obj 585 368 unpack f;
#X obj 569 327 route devices;
#X obj 540 59 t b b;
#X obj 536 34 loadbang;
#X obj 249 191 mediasettings/audiosettings;
#X obj 579 227 mediasettings/audiosettings;
#X obj 511 34 bng 15 250 50 0 empty empty empty 17 7 0 10 -262144 -1
-1;
#X obj 453 457 outlet;
#X connect 0 0 3 0;
#X connect 1 0 0 0;
#X connect 2 0 8 0;
#X connect 3 1 4 0;
#X connect 4 1 5 0;
#X connect 5 0 19 0;
#X connect 6 0 19 0;
#X connect 7 0 19 0;
#X connect 8 0 16 0;
#X connect 8 1 6 0;
#X connect 8 2 7 0;
#X connect 9 0 17 0;
#X connect 10 0 11 0;
#X connect 11 0 13 0;
#X connect 12 0 19 0;
#X connect 13 1 12 0;
#X connect 14 0 9 0;
#X connect 14 1 2 0;
#X connect 15 0 14 0;
#X connect 16 0 1 0;
#X connect 17 0 10 0;
#X connect 18 0 14 0;
#X restore 171 6 pd \$0-audiosettings;
#X obj 59 577 outlet;
#X obj 59 137 inlet;
#X obj 139 3 tgl 8 0 \$0-sadfjadfsjklafsdjkfads \$0-fsadjldfsajlfadsjfasdj
empty 17 7 0 10 -262144 -1 -1 0 1;
#X msg 170 53 vis 1;
#X obj 170 79 iemguts/sendcanvas;
#X obj 6 28 flatgui/popup 124 25 #ffffff popup option;
#X connect 1 0 3 0;
#X connect 4 0 1 0;
#X connect 5 0 6 0;
#X connect 6 0 7 0;
#X coords 0 678 1 677 150 60 2 0 0;
