#N canvas 0 22 677 629 10;
#X obj 139 234 qenv~;
#X obj 195 348 osc~;
#X obj 195 310 qenv~;
#X obj 139 364 *~;
#X msg 231 331 0;
#X obj 139 387 tanh~;
#X obj 118 312 qenv~;
#X msg 195 291 70 0 \, 0 150;
#X obj 195 329 +~ 50;
#X msg 118 293 200 0 \, 0 40;
#X obj 160 170 t b;
#X msg 139 215 5.5 0 \, 0 450;
#X obj 193 109 bng 15 250 50 0 empty empty empty 17 7 0 10 -262144
-1 -1;
#X obj 156 63 inlet;
#X obj 136 444 outlet~;
#X obj 187 443 outlet~;
#X connect 0 0 3 0;
#X connect 1 0 3 1;
#X connect 2 0 8 0;
#X connect 3 0 5 0;
#X connect 4 0 1 1;
#X connect 5 0 14 0;
#X connect 5 0 15 0;
#X connect 6 0 8 0;
#X connect 7 0 2 0;
#X connect 8 0 1 0;
#X connect 9 0 6 0;
#X connect 10 0 11 0;
#X connect 10 0 7 0;
#X connect 10 0 4 0;
#X connect 10 0 9 0;
#X connect 11 0 0 0;
#X connect 12 0 10 0;
#X connect 13 0 10 0;
