#N canvas 387 271 1172 584 10;
#X obj 144 62 inlet;
#X text 112 39 incoming list;
#X obj 144 421 outlet;
#X text 102 448 output incoming list;
#X text 100 465 if it's different from;
#X text 103 481 the previous one;
#X obj 190 253 list-abs/list-compare;
#X obj 144 337 spigot;
#X obj 190 295 != 1;
#X text 247 315 from the last one;
#X text 226 296 <= open the spigot when the list is different;
#X obj 144 174 t l l l;
#X obj 670 30 t a;
#X obj 670 492 t a;
#X obj 1062 47 t a;
#X obj 1062 509 t a;
#X text 706 99 ================ lzr/list-change ==============;
#X text 706 141 This abstraction is similar to [change] \, only;
#X text 698 160 it works for lists. It outputs the incoming;
#X text 699 180 list only if it's different from the previous;
#X text 700 200 incoming list.;
#X obj 144 93 list;
#X connect 0 0 21 0;
#X connect 6 0 8 0;
#X connect 7 0 2 0;
#X connect 8 0 7 1;
#X connect 11 0 7 0;
#X connect 11 1 6 1;
#X connect 11 2 6 0;
#X connect 12 0 13 0;
#X connect 12 0 14 0;
#X connect 13 0 15 0;
#X connect 14 0 15 0;
#X connect 21 0 11 0;
