#N canvas 37 63 667 569 10;
#X obj 212 424 textfile;
#X obj 176 75 bng 15 250 50 0 empty empty empty 17 7 0 10 -262144 -1
-1;
#X msg 289 341 clear;
#X msg 217 220 save;
#X obj 176 131 t s b b b;
#X msg 155 370 write \$1;
#X text 194 74 save;
#X obj 347 73 bng 15 250 50 0 empty empty empty 17 7 0 10 -262144 -1
-1;
#X obj 347 101 openpanel;
#X text 365 72 load;
#X obj 347 175 textfile;
#X msg 347 137 read \$1 \, rewind \, bang;
#X obj 315 203 t b a;
#X obj 339 227 lzr/pp load;
#X obj 176 103 savepanel;
#X obj 212 337 lzr/pp add;
#X msg 212 300;
#X obj 218 271 mmb/my.hero.mmb \$0-files;
#X connect 1 0 14 0;
#X connect 2 0 0 0;
#X connect 3 0 17 0;
#X connect 4 0 5 0;
#X connect 4 1 16 0;
#X connect 4 2 3 0;
#X connect 4 3 2 0;
#X connect 5 0 0 0;
#X connect 7 0 8 0;
#X connect 8 0 11 0;
#X connect 10 0 12 0;
#X connect 11 0 10 0;
#X connect 12 0 10 0;
#X connect 12 1 13 0;
#X connect 13 0 17 0;
#X connect 14 0 4 0;
#X connect 15 0 0 0;
#X connect 16 0 15 0;
#X connect 17 0 16 0;
