#N canvas 525 138 951 767 10;
#X obj 62 26 inlet;
#N canvas 649 73 674 634 \$0-listdevices 0;
#X obj 302 157 mediasettings/midisettings;
#X obj 302 181 route devicelist;
#X msg 302 133 listdevices;
#X obj 302 237 route float;
#X obj 113 60 inlet;
#X obj 113 510 outlet;
#X text 99 537 [device name \, device number];
#X obj 302 58 inlet;
#X text 289 33 bang to refresh the list;
#X text 73 20 bang to list;
#X text 74 36 input MIDI devices;
#X obj 302 209 route in out;
#X obj 376 269 list-abs/list-extend;
#X obj 513 157 t a;
#X obj 113 335 list;
#X obj 302 94 t b b;
#X obj 113 385 list-abs/list-group 2;
#X connect 0 0 1 0;
#X connect 1 0 11 0;
#X connect 2 0 0 0;
#X connect 3 1 12 0;
#X connect 4 0 14 0;
#X connect 7 0 15 0;
#X connect 11 0 3 0;
#X connect 12 0 14 1;
#X connect 13 0 12 1;
#X connect 14 0 16 0;
#X connect 15 0 2 0;
#X connect 15 1 13 0;
#X connect 16 0 5 0;
#X restore 738 296 pd \$0-listdevices;
#X obj 738 256 t a;
#X obj 260 166 t a;
#X obj 424 518 t a;
#X obj 738 334 t a;
#X obj 62 566 lzr/pp names;
#X obj 215 565 lzr/pp number-by-name;
#X obj 215 614 t a;
#X obj 215 657 outlet;
#N canvas 105 154 551 580 \$0-names 0;
#X obj 88 331 list;
#X obj 144 331 t l;
#X obj 63 363 list;
#X obj 63 85 t b b b;
#X obj 88 210 lzr/func;
#X obj 88 278 unpack s f;
#X obj 211 278 t a;
#X obj 316 282 t a;
#X obj 63 37 inlet;
#X obj 63 428 outlet;
#X obj 314 45 inlet;
#X obj 316 426 outlet;
#X text 305 457 to listdevices;
#X text 310 21 from listdevices;
#X text 52 13 bang to get device names;
#X text 37 457 device names list;
#X connect 0 0 1 0;
#X connect 0 0 2 1;
#X connect 1 0 0 1;
#X connect 2 0 9 0;
#X connect 3 0 2 0;
#X connect 3 1 4 0;
#X connect 3 2 6 0;
#X connect 4 0 5 0;
#X connect 4 1 7 0;
#X connect 5 0 0 0;
#X connect 6 0 0 1;
#X connect 7 0 11 0;
#X connect 8 0 3 0;
#X connect 10 0 4 1;
#X restore 62 307 pd \$0-names;
#N canvas 226 187 623 685 \$0-number-by-name 0;
#X obj 107 214 lzr/func;
#X obj 107 332 sel [symbol];
#X obj 107 282 unpack s f;
#X obj 107 388 int;
#X obj 87 432 int;
#X obj 87 116 t b b s b;
#X msg 283 333 0;
#X obj 214 282 t a;
#X obj 403 357 t a;
#X obj 87 56 inlet;
#X text 49 19 device name (symbol);
#X text 48 33 to get its number;
#X obj 87 546 outlet;
#X text 59 579 device number or 0;
#X text 61 600 if doesn't exist;
#X obj 403 536 outlet;
#X obj 384 48 inlet;
#X text 375 22 from listdevices;
#X text 397 570 to listdevices;
#X obj 218 332 t a;
#X connect 0 0 2 0;
#X connect 0 1 8 0;
#X connect 1 0 3 0;
#X connect 2 0 1 0;
#X connect 2 1 19 0;
#X connect 3 0 4 1;
#X connect 4 0 12 0;
#X connect 5 0 4 0;
#X connect 5 1 0 0;
#X connect 5 2 7 0;
#X connect 5 3 6 0;
#X connect 6 0 4 1;
#X connect 7 0 1 1;
#X connect 8 0 15 0;
#X connect 9 0 5 0;
#X connect 16 0 0 1;
#X connect 19 0 3 1;
#X restore 287 390 pd \$0-number-by-name;
#X obj 690 28 r pd;
#X obj 690 108 route midi-dialog;
#N canvas 548 184 958 664 \$0-midi-dialog 0;
#X obj 529 82 inlet;
#X obj 529 122 list split 9;
#X obj 689 171 > 0;
#X obj 529 171 list-abs/list-filter;
#X obj 504 240 list;
#X text 517 51 pd midi-dialog messages;
#X obj 61 69 inlet;
#X obj 61 517 outlet;
#X obj 399 303 list;
#X obj 61 236 lzr/func;
#X obj 399 334 list-abs/list-unique;
#X obj 399 431 list-abs/list-pad;
#X obj 399 373 t a b;
#X msg 515 405 0 0 0 0 0 0 0 0 0;
#X obj 61 132 route get-current append-items;
#X obj 399 514 outlet;
#X text 393 548 to pd midi-dialog;
#X text 35 544 current contents (when requested);
#X connect 0 0 1 0;
#X connect 1 0 3 0;
#X connect 2 0 3 1;
#X connect 3 0 4 1;
#X connect 3 1 2 0;
#X connect 4 0 8 1;
#X connect 4 0 9 1;
#X connect 6 0 14 0;
#X connect 8 0 10 0;
#X connect 9 0 7 0;
#X connect 9 1 4 0;
#X connect 10 0 12 0;
#X connect 11 0 15 0;
#X connect 12 0 11 0;
#X connect 12 1 13 0;
#X connect 13 0 11 1;
#X connect 14 0 9 0;
#X connect 14 1 8 0;
#X restore 574 526 pd \$0-midi-dialog;
#X obj 690 569 lzr/pp midi-dialog;
#X obj 690 654 s pd;
#N canvas 555 160 721 692 \$0-connect-by-names 0;
#X obj 94 72 inlet;
#X obj 94 98 list;
#X obj 219 226 list-abs/list-drip;
#X obj 219 299 lzr/func;
#X obj 464 508 outlet;
#X obj 449 64 inlet;
#X text 464 557 to \$0-number-by-name;
#X text 400 41 from \$0-number-by-name;
#X obj 119 394 list;
#X obj 167 394 t l;
#X obj 94 431 list;
#X obj 94 163 t b l b;
#X obj 94 513 outlet;
#X text 86 542 to midi-dialog subpatch;
#X text 67 34 list of midi device names;
#X text 69 50 to connect to;
#X obj 449 185 t a;
#X obj 464 425 t a;
#X obj 94 472 lzr/pp append-items;
#X connect 0 0 1 0;
#X connect 1 0 11 0;
#X connect 2 0 3 0;
#X connect 3 0 8 0;
#X connect 3 1 17 0;
#X connect 5 0 16 0;
#X connect 8 0 9 0;
#X connect 8 0 10 1;
#X connect 9 0 8 1;
#X connect 10 0 18 0;
#X connect 11 0 10 0;
#X connect 11 1 2 0;
#X connect 11 2 8 1;
#X connect 16 0 3 1;
#X connect 17 0 4 0;
#X connect 18 0 12 0;
#X restore 368 146 pd \$0-connect-by-names;
#X obj 622 481 t a;
#X obj 622 91 t a;
#X obj 215 390 lzr/func;
#X obj 136 441 t a;
#X obj 574 237 t a;
#X obj 287 340 t a;
#X obj 62 61 route names number-by-name connect-by-names refresh,
f 88;
#X obj 854 26 loadbang;
#X connect 0 0 24 0;
#X connect 1 0 5 0;
#X connect 2 0 1 0;
#X connect 3 0 10 1;
#X connect 3 0 11 1;
#X connect 4 0 2 0;
#X connect 5 0 3 0;
#X connect 6 0 8 0;
#X connect 7 0 8 0;
#X connect 8 0 9 0;
#X connect 10 0 6 0;
#X connect 10 1 21 0;
#X connect 11 0 18 0;
#X connect 11 0 20 1;
#X connect 11 1 4 0;
#X connect 12 0 13 0;
#X connect 13 0 14 1;
#X connect 14 1 15 0;
#X connect 15 0 16 0;
#X connect 17 0 22 0;
#X connect 17 1 23 0;
#X connect 18 0 19 0;
#X connect 19 0 17 1;
#X connect 20 0 7 0;
#X connect 20 1 11 0;
#X connect 21 0 4 0;
#X connect 22 0 14 0;
#X connect 23 0 11 0;
#X connect 24 0 10 0;
#X connect 24 1 20 0;
#X connect 24 2 17 0;
#X connect 24 3 1 1;
#X connect 25 0 1 1;
