#N canvas 511 187 734 630 10;
#X obj 172 78 notein;
#X obj 138 262 spigot;
#X obj 106 188 t b f;
#X obj 138 314 pack f f;
#X msg 158 224 0;
#X obj 138 372 lzr/pp midi-note;
#X obj 278 79 inlet;
#X text 266 35 midi channel number;
#X text 270 53 to listen;
#X obj 278 189 + 1;
#X obj 138 453 outlet;
#X text 120 481 outgoing messages:;
#X text 129 497 - midi-note;
#X text 128 513 - midi-control;
#X obj 455 265 spigot;
#X obj 423 191 t b f;
#X obj 455 311 pack f f;
#X msg 475 227 0;
#X obj 492 79 ctlin;
#X obj 385 190 + 1;
#X obj 455 364 lzr/pp midi-control;
#X obj 211 189 moses \$1;
#X obj 318 190 moses \$1;
#X obj 360 76 loadbang;
#X obj 360 105 f \$1;
#X obj 210 218 moses 0;
#X obj 319 220 moses 0;
#X connect 0 0 2 0;
#X connect 0 1 3 1;
#X connect 0 2 21 0;
#X connect 1 0 3 0;
#X connect 2 0 4 0;
#X connect 2 1 1 0;
#X connect 3 0 5 0;
#X connect 4 0 1 1;
#X connect 5 0 10 0;
#X connect 6 0 9 0;
#X connect 6 0 21 1;
#X connect 6 0 22 1;
#X connect 6 0 19 0;
#X connect 9 0 25 1;
#X connect 14 0 16 0;
#X connect 15 0 17 0;
#X connect 15 1 14 0;
#X connect 16 0 20 0;
#X connect 17 0 14 1;
#X connect 18 0 15 0;
#X connect 18 1 16 1;
#X connect 18 2 22 0;
#X connect 19 0 26 1;
#X connect 20 0 10 0;
#X connect 21 1 25 0;
#X connect 22 1 26 0;
#X connect 23 0 24 0;
#X connect 24 0 19 0;
#X connect 24 0 9 0;
#X connect 25 0 1 1;
#X connect 26 0 14 1;
