#N canvas 351 22 1059 749 10;
#X obj 75 69 tgl 15 0 \$0-record.gui \$0-record.gui.r R 5 8 0 10 -258699
-258699 -261689 1 1;
#X obj 55 69 tgl 15 0 \$0-play.gui \$0-play.gui.r P 5 8 0 10 -24198
-24198 -225271 1 1;
#N canvas 270 103 676 633 buttons 0;
#X obj 129 397 change;
#X msg 129 423 set \$1;
#X obj 128 160 trigger f f;
#N canvas 365 370 450 300 gui 0;
#X obj 113 73 inlet;
#X obj 113 114 sel 0 1;
#X obj 136 245 s \$0-play.gui.r;
#X msg 113 167 color 0 0 16;
#X msg 177 202 color 16 16 6;
#X connect 0 0 1 0;
#X connect 1 0 3 0;
#X connect 1 1 4 0;
#X connect 3 0 2 0;
#X connect 4 0 2 0;
#X restore 138 194 pd gui;
#X obj 316 371 change;
#X msg 316 397 set \$1;
#X obj 315 156 trigger f f;
#N canvas 0 22 450 300 gui 0;
#X obj 113 73 inlet;
#X obj 113 114 sel 0 1;
#X msg 113 167 color 0 0 13;
#X msg 177 202 color 13 13 3;
#X obj 136 245 s \$0-record.gui.r;
#X connect 0 0 1 0;
#X connect 1 0 2 0;
#X connect 1 1 3 0;
#X connect 2 0 4 0;
#X connect 3 0 4 0;
#X restore 325 190 pd gui;
#X obj 315 62 r \$0-record.gui;
#X obj 128 66 r \$0-play.gui;
#X obj 140 111 mmb/save.me.mmb play \$0;
#X obj 128 267 s \$0-play;
#X obj 129 313 r \$0-play;
#X obj 129 449 s \$0-play.gui.r;
#X obj 327 107 mmb/save.me.mmb record \$0;
#X obj 315 257 s \$0-record;
#X obj 316 291 r \$0-record;
#X obj 316 423 s \$0-record.gui.r;
#X connect 0 0 1 0;
#X connect 1 0 13 0;
#X connect 2 0 3 0;
#X connect 2 0 11 0;
#X connect 4 0 5 0;
#X connect 5 0 17 0;
#X connect 6 0 7 0;
#X connect 6 0 15 0;
#X connect 8 0 6 0;
#X connect 8 0 14 0;
#X connect 9 0 2 0;
#X connect 9 0 10 0;
#X connect 10 0 2 0;
#X connect 12 0 0 0;
#X connect 14 0 6 0;
#X connect 16 0 4 0;
#X restore 51 148 pd buttons;
#N canvas 468 93 580 371 global-events 0;
#X obj 325 46 bng 15 250 50 0 empty empty empty 17 7 0 10 -262144 -1
-1;
#X symbolatom 325 97 10 0 0 0 - - -;
#X obj 350 45 loadbang;
#X obj 393 97 s \$0-parent;
#X obj 42 30 r \$0-parent;
#X msg 42 53 \$1-global-events;
#X obj 42 75 symbol;
#X obj 42 100 mmb/r.mmb;
#X obj 325 70 iemguts/canvasdollarzero 2;
#X obj 42 201 outlet;
#X connect 0 0 8 0;
#X connect 2 0 8 0;
#X connect 4 0 5 0;
#X connect 5 0 6 0;
#X connect 6 0 7 0;
#X connect 7 0 9 0;
#X connect 8 0 1 0;
#X connect 8 0 3 0;
#X restore 332 47 pd global-events;
#X obj 58 92 hsl 128 15 0 1 0 0 \$0-progress.gui \$0-progress.gui.r
empty -2 -8 0 10 -262144 -1 -1 0 1;
#X obj 831 40 loadbang;
#X obj 809 41 bng 15 250 50 0 empty empty empty 17 7 0 10 -262144 -1
-1;
#X msg 809 66 1;
#X obj 809 97 s \$0-play.gui.r;
#X obj 909 96 s \$0-record.gui.r;
#X obj 253 529 cyclone/seq;
#X obj 332 262 bng 15 250 50 0 empty empty empty 17 7 0 10 -262144
-1 -1;
#X obj 373 262 bng 15 250 50 0 empty empty empty 17 7 0 10 -262144
-1 -1;
#X obj 414 261 bng 15 250 50 0 empty empty empty 17 7 0 10 -262144
-1 -1;
#X obj 455 260 bng 15 250 50 0 empty empty empty 17 7 0 10 -262144
-1 -1;
#X msg 373 340 pause;
#X obj 332 85 route play pause stop record;
#X obj 332 178 spigot;
#X obj 373 231 spigot;
#X obj 414 178 spigot;
#X obj 455 230 spigot;
#X obj 630 69 r \$0-record;
#X obj 564 69 r \$0-play;
#X text 561 49 input from GUI buttons;
#X obj 630 143 ||;
#X obj 630 118 t b f;
#X obj 564 95 tgl 15 0 empty empty empty 17 7 0 10 -262144 -1 -1 1
1;
#X obj 630 95 tgl 15 0 empty empty empty 17 7 0 10 -262144 -1 -1 1
1;
#X obj 612 325 tgl 15 0 empty empty empty 17 7 0 10 -262144 -1 -1 0
1;
#X text 632 325 recording;
#X msg 612 288 1;
#X msg 560 290 0;
#X obj 612 355 change;
#X obj 612 394 select 0;
#X msg 715 328 0;
#X obj 715 299 loadbang;
#X msg 612 444 stop record \, write \$1;
#X obj 253 642 outlet;
#X msg 414 305 stop;
#X obj 489 377 loadbang;
#X obj 253 47 inlet;
#X obj 612 419 symbol \$1;
#X obj 473 405 symbol \$1;
#X obj 469 377 bng 15 250 50 0 empty empty empty 17 7 0 10 -262144
-1 -1;
#X msg 455 328 record;
#X msg 315 388 set 1;
#X msg 315 341 set 0;
#X floatatom 107 323 5 0 0 0 - - -;
#X obj 253 487 t a;
#X msg 473 427 read \$1;
#X obj 176 424 t a;
#X obj 275 286 t a;
#X text 53 322 paused?;
#X obj 107 351 select 1 0;
#X msg 107 379 continue;
#X msg 176 379 bang;
#X obj 414 389 t a;
#X connect 3 0 16 0;
#X connect 5 0 7 0;
#X connect 6 0 7 0;
#X connect 7 0 8 0;
#X connect 7 0 9 0;
#X connect 10 0 37 0;
#X connect 11 0 51 0;
#X connect 12 0 15 0;
#X connect 13 0 31 0;
#X connect 13 0 38 0;
#X connect 14 0 30 0;
#X connect 14 0 46 0;
#X connect 14 0 44 0;
#X connect 15 0 45 0;
#X connect 15 0 56 0;
#X connect 16 0 17 0;
#X connect 16 1 18 0;
#X connect 16 2 19 0;
#X connect 16 3 20 0;
#X connect 17 0 11 0;
#X connect 18 0 12 0;
#X connect 19 0 13 0;
#X connect 20 0 14 0;
#X connect 21 0 27 0;
#X connect 22 0 26 0;
#X connect 24 0 19 1;
#X connect 25 0 24 0;
#X connect 25 1 24 1;
#X connect 26 0 17 1;
#X connect 26 0 18 1;
#X connect 26 0 24 0;
#X connect 27 0 25 0;
#X connect 27 0 20 1;
#X connect 28 0 32 0;
#X connect 30 0 28 0;
#X connect 31 0 28 0;
#X connect 32 0 33 0;
#X connect 33 0 41 0;
#X connect 34 0 32 0;
#X connect 35 0 34 0;
#X connect 36 0 48 0;
#X connect 38 0 46 0;
#X connect 38 0 56 0;
#X connect 39 0 42 0;
#X connect 40 0 48 0;
#X connect 41 0 36 0;
#X connect 42 0 49 0;
#X connect 43 0 42 0;
#X connect 44 0 56 0;
#X connect 45 0 51 0;
#X connect 46 0 51 0;
#X connect 47 0 53 0;
#X connect 48 0 10 0;
#X connect 49 0 48 0;
#X connect 50 0 46 0;
#X connect 50 0 48 0;
#X connect 51 0 47 0;
#X connect 53 0 54 0;
#X connect 53 1 55 0;
#X connect 54 0 50 0;
#X connect 55 0 50 0;
#X connect 56 0 48 0;
#X coords 0 -1 1 1 170 65 1 50 50;
