#N canvas 189 26 1413 862 10;
#X obj 128 111 line~;
#X obj 43 36 inlet~;
#X obj 43 145 *~;
#X msg 128 84 \$1 20;
#X msg 61 250 \$1 20;
#X msg 128 250 \$1 20;
#X obj 110 145 *~;
#X obj 110 36 inlet~;
#X obj 43 759 outlet~;
#X obj 110 758 outlet~;
#X obj 749 760 outlet;
#X obj 43 339 *~;
#X obj 110 339 *~;
#X obj 296 274 t a;
#X obj 61 192 t a a;
#X obj 61 305 cos~;
#X obj 128 304 cos~;
#X obj 128 224 + 0.75;
#X obj 128 277 line;
#X obj 61 277 line;
#X obj 327 133 / 4;
#N canvas 0 22 753 485 \$0-mute 0;
#X obj 200 73 inlet~;
#X obj 200 224 outlet~;
#X obj 200 177 *~ 1;
#X obj 270 73 inlet~;
#X obj 270 224 outlet~;
#X obj 328 109 r \$0-mute;
#X obj 270 177 *~ 1;
#X connect 0 0 2 0;
#X connect 2 0 1 0;
#X connect 3 0 6 0;
#X connect 5 0 6 1;
#X connect 5 0 2 1;
#X connect 6 0 4 0;
#X restore 43 370 pd \$0-mute;
#X obj 540 34 inlet;
#X obj 766 143 > 0;
#X obj 586 34 loadbang;
#X obj 397 276 t a;
#X obj 653 142 clip 0 1;
#X obj 413 436 t a;
#X obj 653 180 t f f;
#X msg 296 249 set \$1;
#X obj 250 284 t a a;
#X msg 748 660 volume \$1;
#X msg 809 627 pan \$1;
#X obj 809 588 f 0.5;
#X obj 748 588 f 0.5;
#X obj 540 142 clip 0 1;
#X obj 540 180 t f f;
#X msg 397 251 set \$1;
#X obj 478 515 t a a;
#X obj 478 33 t a;
#X obj 685 586 i 0;
#X msg 685 635 mute \$1;
#X obj 766 203 t a a;
#X obj 468 588 t a;
#N canvas 752 269 380 317 \$0-setmute 0;
#X obj 115 106 sel 0 1;
#X msg 115 151 color 0 0 13;
#X msg 223 151 color 13 13 3;
#X obj 41 203 t a;
#X obj 41 59 t f f;
#X msg 41 151 set \$1;
#X obj 41 23 inlet;
#X obj 41 249 outlet;
#X connect 0 0 1 0;
#X connect 0 1 2 0;
#X connect 1 0 3 0;
#X connect 2 0 3 0;
#X connect 3 0 7 0;
#X connect 4 0 5 0;
#X connect 4 1 0 0;
#X connect 5 0 3 0;
#X connect 6 0 4 0;
#X restore 500 328 pd \$0-setmute;
#N canvas 366 120 746 443 \$0-vu-levels 0;
#X obj 66 185 env~ 1024;
#X obj 66 208 - 100;
#X obj 191 190 rmstodb;
#X obj 191 213 - 100;
#X obj 66 94 inlet~;
#X obj 66 273 pack f f;
#X obj 386 185 env~ 1024;
#X obj 386 208 - 100;
#X obj 501 190 rmstodb;
#X obj 501 213 - 100;
#X obj 386 262 pack f f;
#X obj 386 94 inlet~;
#X obj 501 164 cyclone/peakamp~ 200;
#X obj 191 164 cyclone/peakamp~ 200;
#X obj 66 311 outlet;
#X obj 386 299 outlet;
#X connect 0 0 1 0;
#X connect 1 0 5 0;
#X connect 2 0 3 0;
#X connect 3 0 5 1;
#X connect 4 0 0 0;
#X connect 4 0 13 0;
#X connect 5 0 14 0;
#X connect 6 0 7 0;
#X connect 7 0 10 0;
#X connect 8 0 9 0;
#X connect 9 0 10 1;
#X connect 10 0 15 0;
#X connect 11 0 6 0;
#X connect 11 0 12 0;
#X connect 12 0 8 0;
#X connect 13 0 2 0;
#X restore 131 445 pd \$0-vu-levels;
#X obj 300 300 lzr/shade 50 200 2;
#X obj 333 349 vu 8 120 \$0-vuR.gui.r empty -1 -8 0 8 -66577 -1 0 0
;
#X obj 306 349 vsl 12 119 0 1 0 0 \$0-volume \$0-volume.set empty 0
-9 0 10 -262144 -1 -1 101 1;
#X obj 316 478 tgl 15 0 \$0-mute.gui \$0-mute.gui.r M 5 8 0 10 -258699
-258699 -261689 1 1;
#X obj 321 349 vu 8 120 \$0-vuL.gui.r empty -1 -8 0 8 -66577 -1 0 0
;
#X obj 307 310 flatgui/knob 32 32 0 1 0 0 \$0-dik37jd88 \$0-ejsiuksgj12
empty 0 -8 0 8 -262144 -1 -1 2650 1;
#X msg 586 66 volume 0.5 \, pan 0.5 \, mute 0;
#X text 306 363 M;
#X text 306 379 a;
#X text 306 395 s;
#X text 306 411 t;
#X text 306 425 e;
#X text 306 441 r;
#X obj 879 335 t b b b;
#X obj 749 723 lzr/pp param;
#X obj 540 96 route volume pan mute save-params, f 65;
#X connect 0 0 2 1;
#X connect 0 0 6 1;
#X connect 1 0 2 0;
#X connect 2 0 11 0;
#X connect 3 0 0 0;
#X connect 4 0 19 0;
#X connect 5 0 18 0;
#X connect 6 0 12 0;
#X connect 7 0 6 0;
#X connect 11 0 21 0;
#X connect 12 0 21 1;
#X connect 13 0 51 0;
#X connect 14 0 4 0;
#X connect 14 1 17 0;
#X connect 15 0 11 1;
#X connect 16 0 12 1;
#X connect 17 0 5 0;
#X connect 18 0 16 0;
#X connect 19 0 15 0;
#X connect 20 0 14 0;
#X connect 21 0 45 0;
#X connect 21 0 8 0;
#X connect 21 1 45 1;
#X connect 21 1 9 0;
#X connect 22 0 61 0;
#X connect 23 0 42 0;
#X connect 24 0 52 0;
#X connect 25 0 48 0;
#X connect 26 0 28 0;
#X connect 27 0 49 0;
#X connect 28 0 29 0;
#X connect 28 1 33 1;
#X connect 29 0 13 0;
#X connect 30 0 20 0;
#X connect 30 1 33 1;
#X connect 31 0 60 0;
#X connect 32 0 60 0;
#X connect 33 0 32 0;
#X connect 34 0 31 0;
#X connect 35 0 36 0;
#X connect 36 0 37 0;
#X connect 36 1 34 1;
#X connect 37 0 25 0;
#X connect 38 0 39 0;
#X connect 38 1 34 1;
#X connect 39 0 3 0;
#X connect 40 0 41 0;
#X connect 41 0 60 0;
#X connect 42 0 44 0;
#X connect 42 1 40 1;
#X connect 43 0 42 0;
#X connect 44 0 27 0;
#X connect 45 0 50 1;
#X connect 45 1 47 1;
#X connect 48 0 38 0;
#X connect 49 0 43 0;
#X connect 51 0 30 0;
#X connect 52 0 61 0;
#X connect 59 0 40 0;
#X connect 59 1 34 0;
#X connect 59 2 33 0;
#X connect 60 0 10 0;
#X connect 61 0 35 0;
#X connect 61 1 26 0;
#X connect 61 2 23 0;
#X connect 61 3 59 0;
#X coords 0 -1 1 1 50 200 2 300 300;
