#N canvas 444 177 844 438 10;
#X obj 65 185 spigot 1;
#X msg 118 158 0;
#X text 178 185 <= blocks itself after the first bang;
#X obj 163 251 t a;
#X obj 163 118 t a;
#X obj 65 42 inlet;
#X obj 65 318 outlet;
#X obj 280 40 inlet;
#X msg 280 126 1;
#X text 251 18 bang to allow one more message;
#X text 53 22 incoming messages;
#X text 33 342 outputs only the first message;
#X text 32 357 ignores the rest of the incoming messages;
#X obj 532 18 t a;
#X obj 532 390 t a;
#X text 570 57 ====== lzr/once ======;
#X text 570 101 Ignores all incoming messages;
#X text 555 121 except for the first one.;
#X text 573 155 A bang to the right inlet;
#X text 558 174 does a reset and allows one;
#X text 559 193 more incoming message to;
#X text 559 211 pass through.;
#X text 573 245 TODO: allow N incoming;
#X text 560 266 messages by sending a float;
#X text 560 287 or a special message to the;
#X text 561 309 right inlet.;
#X obj 806 35 t a;
#X obj 806 407 t a;
#X obj 65 210 t a b;
#X connect 0 0 28 0;
#X connect 1 0 0 1;
#X connect 3 0 4 0;
#X connect 4 0 1 0;
#X connect 5 0 0 0;
#X connect 7 0 8 0;
#X connect 8 0 0 1;
#X connect 13 0 14 0;
#X connect 13 0 26 0;
#X connect 14 0 27 0;
#X connect 26 0 27 0;
#X connect 28 0 6 0;
#X connect 28 1 3 0;
