#N canvas 103 216 1436 566 10;
#X obj 427 118 inlet~;
#X obj 427 371 outlet~;
#X obj 780 118 inlet~;
#X obj 780 370 outlet~;
#X obj 427 256 lzr/phaser-effect-single-channel;
#X obj 780 255 lzr/phaser-effect-single-channel;
#X obj 1064 115 inlet;
#X obj 1064 396 outlet;
#X obj 1064 145 route save-params param;
#X obj 109 412 t a;
#X obj 170 411 t a;
#X obj 234 410 t a;
#X obj 109 166 t a;
#X obj 170 164 t a;
#X obj 234 164 t a;
#X obj 376 406 t a;
#X obj 344 387 t a;
#X obj 314 369 t a;
#X obj 314 168 t a;
#X obj 344 153 t a;
#X obj 376 132 t a;
#X obj 1064 286 pack f f f;
#X obj 725 442 t a;
#X obj 693 454 t a;
#X obj 663 465 t a;
#X obj 663 168 t a;
#X obj 693 153 t a;
#X obj 725 137 t a;
#X obj 1064 184 t b b b;
#X obj 1244 186 t a;
#X obj 1244 45 t a;
#X obj 130 111 unpack f f f;
#X obj 1131 231 f;
#X obj 1097 243 f;
#X obj 1064 257 f;
#X obj 1064 337 lzr/pp param;
#X obj 100 200 lzr/shade 190 190 4;
#X obj 110 262 knob 32 32 0 10 0 1 \$0-unused-speed-knob \$0-unused-speed-knob.set
empty 0 -8 0 8 -262144 -1 -1 0 1;
#X text 108 242 Speed;
#X obj 171 263 knob 32 32 0 3 0 1 \$0-unused-depth-knob \$0-unused-depth-knob.set
empty 0 -8 0 8 -262144 -1 -1 0 1;
#X text 224 244 Feedback;
#X obj 235 262 knob 32 32 -0.9 0.9 0 1 \$0-unused-feedback-knob \$0-unused-feedback-knob.set
empty 0 -8 0 8 -262144 -1 -1 1550 1;
#X text 171 220 Phaser;
#X text 170 243 Depth;
#X obj 103 300 nbx 5 14 -1e+37 1e+37 0 0 \$0-unused-speed-textbox \$0-unused-speed-textbox.set
empty 0 -8 0 10 -262144 -1 -1 0 256;
#X obj 166 300 nbx 5 14 -1e+37 1e+37 0 0 \$0-unused-depth-textbox \$0-unused-depth-textbox.set
empty 0 -8 0 10 -262144 -1 -1 0 256;
#X obj 231 300 nbx 5 14 -1e+37 1e+37 0 0 \$0-unused-feedback-textbox
\$0-unused-feedback-textbox.set empty 0 -8 0 10 -262144 -1 -1 0 256
;
#X text 172 220 Phaser;
#X connect 0 0 4 0;
#X connect 2 0 5 0;
#X connect 4 0 1 0;
#X connect 5 0 3 0;
#X connect 6 0 8 0;
#X connect 8 0 28 0;
#X connect 8 1 29 0;
#X connect 9 0 17 0;
#X connect 9 0 24 0;
#X connect 10 0 16 0;
#X connect 10 0 23 0;
#X connect 11 0 15 0;
#X connect 11 0 22 0;
#X connect 12 0 37 0;
#X connect 13 0 39 0;
#X connect 14 0 41 0;
#X connect 15 0 20 0;
#X connect 16 0 19 0;
#X connect 17 0 18 0;
#X connect 18 0 4 1;
#X connect 19 0 4 2;
#X connect 20 0 4 3;
#X connect 21 0 35 0;
#X connect 22 0 27 0;
#X connect 23 0 26 0;
#X connect 24 0 25 0;
#X connect 25 0 5 1;
#X connect 25 0 34 1;
#X connect 26 0 5 2;
#X connect 26 0 33 1;
#X connect 27 0 5 3;
#X connect 27 0 32 1;
#X connect 28 0 34 0;
#X connect 28 1 33 0;
#X connect 28 2 32 0;
#X connect 29 0 30 0;
#X connect 30 0 31 0;
#X connect 31 0 12 0;
#X connect 31 1 13 0;
#X connect 31 2 14 0;
#X connect 32 0 21 2;
#X connect 33 0 21 1;
#X connect 34 0 21 0;
#X connect 35 0 7 0;
#X connect 37 0 44 0;
#X connect 37 0 9 0;
#X connect 39 0 45 0;
#X connect 39 0 10 0;
#X connect 41 0 46 0;
#X connect 41 0 11 0;
#X coords 0 -1 1 1 190 190 2 100 200;
