#N canvas 103 216 1436 566 10;
#X obj 109 245 knob 32 32 0 10 0 1 empty empty empty 0 -8 0 8 -262144
-1 -1 0 1;
#X text 107 225 Speed;
#X obj 170 246 knob 32 32 0 3 0 1 empty empty empty 0 -8 0 8 -262144
-1 -1 0 1;
#X text 223 227 Feedback;
#X obj 234 245 knob 32 32 -0.9 0.9 0 1 empty empty empty 0 -8 0 8 -262144
-1 -1 1550 1;
#X text 170 209 Phaser;
#X text 169 226 Depth;
#X obj 102 283 nbx 5 14 -1e+37 1e+37 0 0 empty empty empty 0 -8 0 10
-262144 -1 -1 0 256;
#X obj 165 283 nbx 5 14 -1e+37 1e+37 0 0 empty empty empty 0 -8 0 10
-262144 -1 -1 0 256;
#X obj 230 283 nbx 5 14 -1e+37 1e+37 0 0 empty empty empty 0 -8 0 10
-262144 -1 -1 0 256;
#X obj 427 118 inlet~;
#X obj 427 371 outlet~;
#X obj 780 118 inlet~;
#X obj 780 370 outlet~;
#X obj 427 256 lzr/phaser-effect-single-channel;
#X obj 780 255 lzr/phaser-effect-single-channel;
#X obj 1064 115 inlet;
#X obj 1064 396 outlet;
#X obj 1064 145 route save-params param;
#X obj 109 412 t a;
#X obj 170 411 t a;
#X obj 234 410 t a;
#X obj 109 166 t a;
#X obj 170 164 t a;
#X obj 234 164 t a;
#X obj 376 406 t a;
#X obj 344 387 t a;
#X obj 314 369 t a;
#X obj 314 168 t a;
#X obj 344 153 t a;
#X obj 376 132 t a;
#X obj 1064 286 pack f f f;
#X obj 725 442 t a;
#X obj 693 454 t a;
#X obj 663 465 t a;
#X obj 663 168 t a;
#X obj 693 153 t a;
#X obj 725 137 t a;
#X obj 1064 184 t b b b;
#X obj 1244 186 t a;
#X obj 1244 45 t a;
#X obj 130 111 unpack f f f;
#X obj 1131 231 f;
#X obj 1097 243 f;
#X obj 1064 257 f;
#X obj 1064 337 lzr/pp param;
#X connect 0 0 7 0;
#X connect 0 0 19 0;
#X connect 2 0 8 0;
#X connect 2 0 20 0;
#X connect 4 0 9 0;
#X connect 4 0 21 0;
#X connect 10 0 14 0;
#X connect 12 0 15 0;
#X connect 14 0 11 0;
#X connect 15 0 13 0;
#X connect 16 0 18 0;
#X connect 18 0 38 0;
#X connect 18 1 39 0;
#X connect 19 0 27 0;
#X connect 19 0 34 0;
#X connect 20 0 26 0;
#X connect 20 0 33 0;
#X connect 21 0 25 0;
#X connect 21 0 32 0;
#X connect 22 0 0 0;
#X connect 23 0 2 0;
#X connect 24 0 4 0;
#X connect 25 0 30 0;
#X connect 26 0 29 0;
#X connect 27 0 28 0;
#X connect 28 0 14 1;
#X connect 29 0 14 2;
#X connect 30 0 14 3;
#X connect 31 0 45 0;
#X connect 32 0 37 0;
#X connect 33 0 36 0;
#X connect 34 0 35 0;
#X connect 35 0 15 1;
#X connect 35 0 44 1;
#X connect 36 0 15 2;
#X connect 36 0 43 1;
#X connect 37 0 15 3;
#X connect 37 0 42 1;
#X connect 38 0 44 0;
#X connect 38 1 43 0;
#X connect 38 2 42 0;
#X connect 39 0 40 0;
#X connect 40 0 41 0;
#X connect 41 0 22 0;
#X connect 41 1 23 0;
#X connect 41 2 24 0;
#X connect 42 0 31 2;
#X connect 43 0 31 1;
#X connect 44 0 31 0;
#X connect 45 0 17 0;
#X coords 0 -1 1 1 190 190 2 100 200;
