#N canvas 238 23 1171 763 10;
#X obj 50 214 mtof;
#X obj 439 88 pack f f f;
#X obj 26 242 DIY2/syn-cz10;
#X obj 50 183 unpack f f;
#X obj 307 200 mtof;
#X obj 349 565 *~;
#X obj 269 228 DIY2/syn-cz10;
#X obj 307 169 unpack f f;
#X obj 194 617 +~;
#X obj 524 206 mtof;
#X obj 566 571 *~;
#X obj 490 234 DIY2/syn-cz10;
#X obj 524 175 unpack f f;
#X obj 759 195 mtof;
#X obj 801 557 *~;
#X obj 733 220 DIY2/syn-cz10;
#X obj 759 164 unpack f f;
#X obj 658 609 +~;
#X obj 439 130 route 1 2 3 4;
#X obj 395 652 +~;
#X obj 395 695 outlet~;
#X obj 428 23 inlet;
#X obj 474 23 inlet;
#X obj 92 585 *~;
#X obj 974 100 vsl 15 128 0 1000 0 0 empty empty empty 0 -9 0 10 -262144
-1 -1 508 1;
#X floatatom 969 241 5 0 0 0 - - -, f 5;
#X obj 1004 100 vsl 15 128 0 5000 0 0 empty empty empty 0 -9 0 10 -262144
-1 -1 1778 1;
#X floatatom 1002 241 5 0 0 0 - - -, f 5;
#X obj 1034 100 vsl 15 128 0 1 0 0 empty empty empty 0 -9 0 10 -262144
-1 -1 0 1;
#X floatatom 1034 241 5 0 0 0 - - -, f 5;
#X obj 1064 100 vsl 15 128 0 1000 0 0 empty empty empty 0 -9 0 10 -262144
-1 -1 0 1;
#X floatatom 1066 241 5 0 0 0 - - -, f 5;
#X obj 954 266 s \$0-a;
#X obj 1005 309 s \$0-d;
#X obj 1030 288 s \$0-s;
#X obj 1060 265 s \$0-r;
#X obj 364 518 velocity-adsr;
#X obj 387 424 r \$0-a;
#X obj 401 446 r \$0-d;
#X obj 415 469 r \$0-s;
#X obj 428 491 r \$0-r;
#X obj 581 530 velocity-adsr;
#X obj 604 436 r \$0-a;
#X obj 618 458 r \$0-d;
#X obj 632 481 r \$0-s;
#X obj 645 503 r \$0-r;
#X obj 816 518 velocity-adsr;
#X obj 839 424 r \$0-a;
#X obj 853 446 r \$0-d;
#X obj 867 469 r \$0-s;
#X obj 880 491 r \$0-r;
#X obj 439 61 poly 4;
#X obj 107 512 velocity-adsr;
#X obj 130 418 r \$0-a;
#X obj 144 440 r \$0-d;
#X obj 158 463 r \$0-s;
#X obj 171 485 r \$0-r;
#X obj 977 -3 loadbang;
#X obj 953 -2 bng 15 250 50 0 empty empty empty 17 7 0 10 -262144 -1
-1;
#X msg 977 24 40 700 0 0;
#X obj 977 51 unpack f f f f;
#X obj 1082 73 bng 15 250 50 0 empty empty empty 17 7 0 10 -262144
-1 -1;
#X connect 0 0 2 0;
#X connect 1 0 18 0;
#X connect 2 0 23 0;
#X connect 3 0 0 0;
#X connect 3 1 52 0;
#X connect 4 0 6 0;
#X connect 5 0 8 1;
#X connect 6 0 5 0;
#X connect 7 0 4 0;
#X connect 7 1 36 0;
#X connect 8 0 19 0;
#X connect 9 0 11 0;
#X connect 10 0 17 0;
#X connect 11 0 10 0;
#X connect 12 0 9 0;
#X connect 12 1 41 0;
#X connect 13 0 15 0;
#X connect 14 0 17 1;
#X connect 15 0 14 0;
#X connect 16 0 13 0;
#X connect 16 1 46 0;
#X connect 17 0 19 1;
#X connect 18 0 3 0;
#X connect 18 1 7 0;
#X connect 18 2 12 0;
#X connect 18 3 16 0;
#X connect 19 0 20 0;
#X connect 21 0 51 0;
#X connect 22 0 51 1;
#X connect 23 0 8 0;
#X connect 24 0 25 0;
#X connect 25 0 32 0;
#X connect 26 0 27 0;
#X connect 27 0 33 0;
#X connect 28 0 29 0;
#X connect 29 0 34 0;
#X connect 30 0 31 0;
#X connect 31 0 35 0;
#X connect 36 0 5 1;
#X connect 37 0 36 1;
#X connect 38 0 36 2;
#X connect 39 0 36 3;
#X connect 40 0 36 4;
#X connect 41 0 10 1;
#X connect 42 0 41 1;
#X connect 43 0 41 2;
#X connect 44 0 41 3;
#X connect 45 0 41 4;
#X connect 46 0 14 1;
#X connect 47 0 46 1;
#X connect 48 0 46 2;
#X connect 49 0 46 3;
#X connect 50 0 46 4;
#X connect 51 0 1 0;
#X connect 51 1 1 1;
#X connect 51 2 1 2;
#X connect 52 0 23 1;
#X connect 53 0 52 1;
#X connect 54 0 52 2;
#X connect 55 0 52 3;
#X connect 56 0 52 4;
#X connect 57 0 59 0;
#X connect 58 0 59 0;
#X connect 59 0 60 0;
#X connect 60 0 24 0;
#X connect 60 1 26 0;
#X connect 60 2 28 0;
#X connect 60 3 30 0;
#X connect 61 0 30 0;
#X connect 61 0 28 0;
#X connect 61 0 26 0;
#X connect 61 0 24 0;
