#N canvas 159 79 844 420 10;
#X obj 316 41 inlet~;
#X obj 325 209 outlet~;
#X obj 470 43 inlet~;
#X obj 479 211 outlet~;
#X obj 365 116 poly-synth1;
#X obj 369 88 notein 1;
#X obj 235 126 env~;
#X obj 235 148 - 100;
#X obj 597 48 inlet;
#X obj 600 212 outlet;
#X obj 0 0 lzr/shade 190 190 4;
#X obj 75 46 vu 15 120 empty empty -1 -8 0 10 -66577 -1 1 0;
#X text 43 12 Poly-synth;
#X text 44 12 Poly-synth;
#X connect 4 0 1 0;
#X connect 4 0 3 0;
#X connect 4 0 6 0;
#X connect 5 0 4 0;
#X connect 5 1 4 1;
#X connect 6 0 7 0;
#X connect 7 0 11 0;
#X coords 0 -1 1 1 190 190 2 0 0;
