#N canvas 645 115 884 429 10;
#X obj 88 202 list trim;
#X obj 88 160 list prepend \$1;
#X obj 88 63 inlet;
#X obj 88 324 outlet;
#X text 32 33 Incoming messages;
#X text 82 350 Prepended messages;
#X text 540 88 Prepends a PD message with another;
#X text 529 107 one (specified as an argument);
#X obj 503 40 t a;
#X obj 503 298 t a;
#X obj 810 57 t a;
#X obj 810 315 t a;
#X obj 364 61 loadbang;
#X obj 364 87 iemlib/dollarg;
#X obj 190 129 list;
#X obj 190 63 inlet;
#X connect 0 0 3 0;
#X connect 1 0 0 0;
#X connect 2 0 1 0;
#X connect 8 0 9 0;
#X connect 8 0 10 0;
#X connect 9 0 11 0;
#X connect 10 0 11 0;
#X connect 12 0 13 0;
#X connect 13 0 14 0;
#X connect 14 0 1 1;
#X connect 15 0 14 0;
