#N canvas 566 22 1082 918 10;
#X obj 354 551 hsl 300 15 0 127 0 0 \$0-listitem1 \$0-listitem1.r empty
2 8 0 10 -1 -1 -24198 0 1;
#X obj 354 567 hsl 300 15 0 127 0 0 \$0-listitem2 \$0-listitem2.r empty
2 8 0 10 -1 -1 -24198 0 1;
#X obj 354 583 hsl 300 15 0 127 0 0 \$0-listitem3 \$0-listitem3.r empty
2 8 0 10 -1 -1 -24198 0 1;
#X obj 354 599 hsl 300 15 0 127 0 0 \$0-listitem4 \$0-listitem4.r empty
2 8 0 10 -1 -1 -24198 0 1;
#X obj 354 615 hsl 300 15 0 127 0 0 \$0-listitem5 \$0-listitem5.r empty
2 8 0 10 -1 -1 -24198 0 1;
#X obj 354 631 hsl 300 15 0 127 0 0 \$0-listitem6 \$0-listitem6.r empty
2 8 0 10 -1 -1 -24198 0 1;
#X obj 354 647 hsl 300 15 0 127 0 0 \$0-listitem7 \$0-listitem7.r empty
2 8 0 10 -1 -1 -24198 0 1;
#X obj 354 663 hsl 300 15 0 127 0 0 \$0-listitem8 \$0-listitem8.r empty
2 8 0 10 -1 -1 -24198 0 1;
#X obj 354 679 hsl 300 15 0 127 0 0 \$0-listitem9 \$0-listitem9.r empty
2 8 0 10 -1 -1 -24198 0 1;
#X obj 354 695 hsl 300 15 0 127 0 0 \$0-listitem10 \$0-listitem10.r
empty 2 8 0 10 -1 -1 -24198 0 1;
#X obj 354 711 hsl 300 15 0 127 0 0 \$0-listitem11 \$0-listitem11.r
empty 2 8 0 10 -1 -1 -24198 0 1;
#X obj 354 727 hsl 300 15 0 127 0 0 \$0-listitem12 \$0-listitem12.r
empty 2 8 0 10 -1 -1 -24198 0 1;
#X obj 354 743 hsl 300 15 0 127 0 0 \$0-listitem13 \$0-listitem13.r
empty 2 8 0 10 -1 -1 -24198 0 1;
#X obj 354 759 hsl 300 15 0 127 0 0 \$0-listitem14 \$0-listitem14.r
empty 2 8 0 10 -1 -1 -24198 0 1;
#X obj 354 775 hsl 300 15 0 127 0 0 \$0-listitem15 \$0-listitem15.r
empty 2 8 0 10 -1 -1 -24198 0 1;
#X obj 354 791 hsl 300 15 0 127 0 0 \$0-listitem16 \$0-listitem16.r
empty 2 8 0 10 -1 -1 -24198 0 1;
#X msg 25 463 label \$1;
#X obj 45 727 t a;
#X msg 263 490 label;
#X obj 660 885 t a;
#X msg 325 524 color 22 22 16;
#X msg 322 499 color 16 16 22;
#X msg 795 563 selected 1;
#X msg 795 585 selected 2;
#X obj 441 224 int;
#X obj 198 212 list-abs/list-drip;
#X obj 396 250 cyclone/counter;
#X obj 198 261 symbol;
#X obj 198 235 t s b;
#X obj 739 119 t a;
#X obj 755 172 route selected;
#X obj 932 241 moses;
#X obj 512 202 + 1;
#X obj 944 507 int;
#X obj 932 265 t b f f;
#X obj 944 541 pack f s;
#X obj 940 469 t b s;
#X obj 886 581 lzr/pp selected;
#X msg 311 59 setlist;
#X obj 902 303 - 1;
#X obj 335 175 list length;
#X obj 198 139 t a b a b a;
#X obj 563 184 list;
#X obj 762 382 list-abs/list-idx;
#X obj 800 320 lzr/func;
#X msg 795 606 selected 3;
#X msg 795 628 selected 4;
#X msg 795 651 selected 5;
#X msg 795 673 selected 6;
#X msg 795 694 selected 7;
#X msg 795 716 selected 8;
#X msg 795 737 selected 9;
#X msg 795 759 selected 10;
#X msg 795 780 selected 11;
#X msg 795 802 selected 12;
#X msg 795 825 selected 13;
#X msg 795 847 selected 14;
#X msg 795 868 selected 15;
#X msg 795 890 selected 16;
#X obj 198 99 route setlist;
#X obj 198 32 inlet;
#X obj 886 708 outlet;
#X obj 25 497 lzr/demultiplex16 ____________;
#X msg 246 31 setlist test1 test2 hahdshd jlaslaskljas sddd s;
#X msg 504 53 setlist one two three four five six seven eight nine
ten eleven twelve thirteen fourteen fifteen sixteennnnnnnnnnnnnnnnnnnnnnnnnnnnnnnnnnnnnnnnnnnn
;
#X connect 0 0 22 0;
#X connect 1 0 23 0;
#X connect 2 0 45 0;
#X connect 3 0 46 0;
#X connect 4 0 47 0;
#X connect 5 0 48 0;
#X connect 6 0 49 0;
#X connect 7 0 50 0;
#X connect 8 0 51 0;
#X connect 9 0 52 0;
#X connect 10 0 53 0;
#X connect 11 0 54 0;
#X connect 12 0 55 0;
#X connect 13 0 56 0;
#X connect 14 0 57 0;
#X connect 15 0 58 0;
#X connect 16 0 62 0;
#X connect 17 0 0 0;
#X connect 17 0 1 0;
#X connect 17 0 2 0;
#X connect 17 0 3 0;
#X connect 17 0 4 0;
#X connect 17 0 5 0;
#X connect 17 0 6 0;
#X connect 17 0 7 0;
#X connect 17 0 8 0;
#X connect 17 0 9 0;
#X connect 17 0 10 0;
#X connect 17 0 11 0;
#X connect 17 0 12 0;
#X connect 17 0 13 0;
#X connect 17 0 14 0;
#X connect 17 0 15 0;
#X connect 18 0 17 0;
#X connect 19 0 29 0;
#X connect 20 0 17 0;
#X connect 21 0 17 0;
#X connect 22 0 19 0;
#X connect 23 0 19 0;
#X connect 25 0 28 0;
#X connect 26 0 62 1;
#X connect 27 0 16 0;
#X connect 28 0 27 0;
#X connect 28 1 26 0;
#X connect 29 0 30 0;
#X connect 30 0 31 0;
#X connect 31 0 34 0;
#X connect 32 0 31 1;
#X connect 33 0 35 0;
#X connect 34 0 44 0;
#X connect 34 1 39 0;
#X connect 34 2 33 1;
#X connect 35 0 37 0;
#X connect 36 0 33 0;
#X connect 36 1 35 1;
#X connect 37 0 61 0;
#X connect 38 0 59 0;
#X connect 39 0 43 1;
#X connect 40 0 24 1;
#X connect 40 0 32 0;
#X connect 41 0 25 0;
#X connect 41 1 26 2;
#X connect 41 2 40 0;
#X connect 41 3 18 0;
#X connect 41 4 42 1;
#X connect 42 0 44 1;
#X connect 43 0 36 0;
#X connect 44 0 43 0;
#X connect 44 1 42 0;
#X connect 45 0 19 0;
#X connect 46 0 19 0;
#X connect 47 0 19 0;
#X connect 48 0 19 0;
#X connect 49 0 19 0;
#X connect 50 0 19 0;
#X connect 51 0 19 0;
#X connect 52 0 19 0;
#X connect 53 0 19 0;
#X connect 54 0 19 0;
#X connect 55 0 19 0;
#X connect 56 0 19 0;
#X connect 57 0 19 0;
#X connect 58 0 19 0;
#X connect 59 0 41 0;
#X connect 60 0 59 0;
#X connect 62 0 0 0;
#X connect 62 1 1 0;
#X connect 62 2 2 0;
#X connect 62 3 3 0;
#X connect 62 4 4 0;
#X connect 62 5 5 0;
#X connect 62 6 6 0;
#X connect 62 7 7 0;
#X connect 62 8 8 0;
#X connect 62 9 9 0;
#X connect 62 10 10 0;
#X connect 62 11 11 0;
#X connect 62 12 12 0;
#X connect 62 13 13 0;
#X connect 62 14 14 0;
#X connect 62 15 15 0;
#X connect 63 0 59 0;
#X connect 64 0 59 0;
#X coords 0 -1 1 1 307 257 1 350 550;
