#N canvas 536 88 1033 745 10;
#X obj 400 200 lzr/session-midi-clip \$1 \$2 1;
#X obj 296 519 t a;
#X obj 300 132 t a;
#X obj 400 235 lzr/session-midi-clip \$1 \$2 2;
#X obj 400 271 lzr/session-midi-clip \$1 \$2 3;
#X obj 400 307 lzr/session-midi-clip \$1 \$2 4;
#X obj 400 343 lzr/session-midi-clip \$1 \$2 5;
#X obj 400 379 lzr/session-midi-clip \$1 \$2 6;
#X obj 400 415 lzr/session-midi-clip \$1 \$2 7;
#X obj 400 448 lzr/session-midi-clip \$1 \$2 8;
#X obj 737 72 inlet;
#X obj 742 627 outlet;
#X obj 296 591 outlet;
#X text 298 627 midi out;
#X text 730 648 to global events bus;
#X text 734 45 from global events bus;
#X obj 300 95 inlet;
#X text 299 67 midi in;
#X connect 0 1 11 0;
#X connect 1 0 12 0;
#X connect 2 0 1 0;
#X connect 2 0 3 0;
#X connect 2 0 4 0;
#X connect 2 0 5 0;
#X connect 2 0 6 0;
#X connect 2 0 7 0;
#X connect 2 0 8 0;
#X connect 2 0 9 0;
#X connect 2 0 0 0;
#X connect 3 0 1 0;
#X connect 3 1 11 0;
#X connect 4 0 1 0;
#X connect 4 1 11 0;
#X connect 5 0 1 0;
#X connect 5 1 11 0;
#X connect 6 0 1 0;
#X connect 6 1 11 0;
#X connect 7 0 1 0;
#X connect 7 1 11 0;
#X connect 8 0 1 0;
#X connect 8 1 11 0;
#X connect 9 0 1 0;
#X connect 9 1 11 0;
#X connect 10 0 0 1;
#X connect 10 0 3 1;
#X connect 10 0 4 1;
#X connect 10 0 5 1;
#X connect 10 0 6 1;
#X connect 10 0 7 1;
#X connect 10 0 8 1;
#X connect 10 0 9 1;
#X connect 16 0 2 0;
#X coords 0 -1 1 1 172 283 2 400 200;
