#N canvas 239 70 1426 842 10;
#X obj 89 77 loadbang;
#X obj 68 79 bng 15 250 50 0 empty empty empty 17 7 0 10 -262144 -1
-1;
#X obj 350 40 inlet~;
#X obj 407 40 inlet~;
#X obj 626 39 inlet;
#X obj 350 730 outlet~;
#X obj 407 730 outlet~;
#X obj 626 730 outlet;
#X obj 100 300 cnv 15 172 35 empty empty empty 5 8 0 10 -204786 -1345
0;
#X symbolatom 139 303 18 0 0 0 - #0-track-name.gui.set #0-track-name.gui
, f 18;
#N canvas 204 118 970 487 \$0-waveforms 0;
#N canvas 192 169 450 278 (subpatch) 0;
#X array \$0-channel-left 1 float 2;
#X coords 0 1 1 -1 400 100 2 0 0;
#X restore 61 68 graph;
#N canvas 0 22 450 278 (subpatch) 0;
#X array \$0-channel-right 117056 float 2;
#X coords 0 1 117056 -1 400 100 2 0 0;
#X restore 60 184 graph;
#X restore 1244 43 pd \$0-waveforms;
#X obj 499 729 writesf~ 2;
#N canvas 523 197 944 635 \$0-player 0;
#X obj 19 547 outlet~;
#X obj 231 547 outlet~;
#X obj 75 222 soundfiler;
#X obj 75 276 expr 44100 / $f1;
#X obj 75 328 phasor~;
#X obj 114 482 *~;
#X obj 19 519 tabread4~ \$0-channel-left;
#X obj 231 520 tabread4~ \$0-channel-right;
#X obj 75 172 pack s \$0;
#X msg 75 196 read -resize \$1 \$2-channel-left \$2-channel-right;
#X floatatom 231 248 5 0 0 0 - - -, f 5;
#X obj 494 21 inlet;
#X floatatom 237 331 5 0 0 0 - - -, f 5;
#X obj 644 446 snapshot~;
#X floatatom 574 510 5 0 0 0 - - -, f 5;
#X obj 644 422 bng 15 250 50 0 empty empty empty 17 7 0 10 -262144
-1 -1;
#X obj 547 78 bng 15 250 50 0 empty empty empty 17 7 0 10 -262144 -1
-1;
#X text 568 77 play;
#X obj 644 77 bng 15 250 50 0 empty empty empty 17 7 0 10 -262144 -1
-1;
#X text 665 76 pause;
#X obj 746 78 bng 15 250 50 0 empty empty empty 17 7 0 10 -262144 -1
-1;
#X text 767 77 stop;
#X msg 746 307 0;
#X obj 644 266 t b b;
#X msg 746 477 set \$1;
#X obj 547 128 t b b;
#X msg 547 212 1;
#X obj 494 49 route load play pause stop;
#X msg 671 293 0;
#X obj 657 546 outlet;
#X obj 581 398 metro 100;
#X obj 547 359 tgl 15 0 empty empty empty 17 7 0 10 -262144 -1 -1 0
1;
#X obj 644 183 spigot;
#X obj 547 102 spigot;
#X obj 644 108 spigot;
#X obj 746 104 spigot;
#X text 524 529 current position;
#X text 525 542 within a file;
#X text 523 556 (from 0 to 1);
#X obj 457 100 bng 15 250 50 0 empty empty empty 17 7 0 10 -262144
-1 -1;
#X text 478 99 load;
#X obj 459 74 t a b b;
#X obj 75 452 *~;
#X obj 43 328 t a;
#X connect 2 0 3 0;
#X connect 2 0 10 0;
#X connect 2 0 43 0;
#X connect 3 0 4 0;
#X connect 3 0 12 0;
#X connect 4 0 13 0;
#X connect 4 0 42 0;
#X connect 5 0 6 0;
#X connect 5 0 7 0;
#X connect 6 0 0 0;
#X connect 7 0 1 0;
#X connect 8 0 9 0;
#X connect 9 0 2 0;
#X connect 11 0 27 0;
#X connect 12 0 33 1;
#X connect 12 0 34 1;
#X connect 12 0 35 1;
#X connect 13 0 24 0;
#X connect 13 0 29 0;
#X connect 14 0 4 1;
#X connect 15 0 13 0;
#X connect 16 0 33 0;
#X connect 18 0 34 0;
#X connect 20 0 35 0;
#X connect 22 0 24 0;
#X connect 22 0 31 0;
#X connect 23 0 15 0;
#X connect 23 1 28 0;
#X connect 24 0 14 0;
#X connect 25 0 26 0;
#X connect 25 1 14 0;
#X connect 26 0 31 0;
#X connect 27 0 41 0;
#X connect 27 1 16 0;
#X connect 27 2 18 0;
#X connect 27 3 20 0;
#X connect 28 0 31 0;
#X connect 30 0 13 0;
#X connect 31 0 30 0;
#X connect 31 0 32 1;
#X connect 31 0 42 1;
#X connect 32 0 23 0;
#X connect 33 0 25 0;
#X connect 34 0 32 0;
#X connect 35 0 22 0;
#X connect 41 0 8 0;
#X connect 41 1 39 0;
#X connect 41 2 22 0;
#X connect 42 0 5 0;
#X connect 43 0 5 1;
#X restore 235 636 pd \$0-player;
#N canvas 605 180 840 629 \$0-unique-filename 0;
#X obj 234 44 inlet;
#X obj 316 513 outlet;
#X obj 528 39 inlet;
#X text 522 20 track name;
#X text 169 25 bang to generate a unique filename;
#X obj 316 453 symbol;
#X text 301 535 output a unique filename;
#X text 301 550 based on track name;
#X text 301 564 and current date;
#X obj 528 247 t a;
#X obj 316 114 t b b b b;
#X obj 234 71 route set_directory bang;
#X obj 336 319 pack s s f f f f f f;
#X msg 336 384 symbol \$1/\$2___\$3-\$4-\$5___\$6-\$7-\$8.wav;
#X obj 356 248 zexy/date;
#X obj 433 248 zexy/time;
#X obj 134 75 loadbang;
#X msg 134 246 . testtrack;
#X obj 134 112 t b b b;
#X connect 0 0 11 0;
#X connect 2 0 9 0;
#X connect 5 0 1 0;
#X connect 9 0 12 1;
#X connect 10 0 5 0;
#X connect 10 1 12 0;
#X connect 10 2 14 0;
#X connect 10 3 15 0;
#X connect 11 0 12 0;
#X connect 11 1 10 0;
#X connect 12 0 13 0;
#X connect 13 0 5 1;
#X connect 14 0 12 2;
#X connect 14 1 12 3;
#X connect 14 2 12 4;
#X connect 15 0 12 5;
#X connect 15 1 12 6;
#X connect 15 2 12 7;
#X connect 16 0 18 0;
#X connect 17 0 12 0;
#X connect 18 0 17 0;
#X connect 18 1 14 0;
#X connect 18 2 15 0;
#X restore 739 521 pd \$0-unique-filename;
#X msg 148 193 symbol track\$1_\$2;
#X obj 105 322 hsl 160 8 0 1 0 0 \$0-progress.gui \$0-progress.gui.set
empty -2 -8 0 10 -262144 -1 -1 0 1;
#X msg 89 193 0;
#X obj 104 303 tgl 15 0 \$0-play.gui \$0-play.gui.set P 5 8 0 10 -262144
-1 -13956 0 1;
#X obj 121 303 tgl 15 0 \$0-record.gui \$0-record.gui.set R 5 8 0 10
-262144 -1 -258113 0 1;
#X obj 833 148 route beat;
#X obj 739 124 t a;
#X obj 148 165 pack \$2 \$3;
#X obj 1173 359 sel 1;
#X obj 509 263 t f f;
#N canvas 552 280 934 517 \$0-save 0;
#X obj 95 101 inlet;
#X obj 95 405 outlet;
#X obj 227 102 inlet;
#X obj 95 242 pack \$2 \$3 s;
#X text 197 64 when recording a new file;
#X text 197 81 the filename is sent here;
#X text 48 63 bang to dump;
#X text 49 80 clip's params;
#X text 324 420 \$2 is the track number;
#X text 325 437 \$3 is the clip number;
#X obj 95 197 spigot 0;
#X obj 227 131 t b s;
#X msg 148 172 1;
#X obj 593 97 inlet;
#X text 585 74 custom track name;
#X obj 461 256 pack \$2 \$3 s;
#X text 597 239 \$2 is the track number;
#X text 598 256 \$3 is the clip number;
#X obj 461 211 spigot 0;
#X obj 593 145 t b s;
#X msg 514 179 1;
#X obj 95 137 t b b;
#X msg 95 278 persister param clip \$1 \$2 param filename \$3;
#X msg 461 292 persister param clip \$1 \$2 param track-name \$3;
#X connect 0 0 21 0;
#X connect 2 0 11 0;
#X connect 3 0 22 0;
#X connect 10 0 3 0;
#X connect 11 0 12 0;
#X connect 11 1 3 2;
#X connect 12 0 10 1;
#X connect 13 0 19 0;
#X connect 15 0 23 0;
#X connect 18 0 15 0;
#X connect 19 0 20 0;
#X connect 19 1 15 2;
#X connect 20 0 18 1;
#X connect 21 0 10 0;
#X connect 21 1 18 0;
#X connect 22 0 1 0;
#X connect 23 0 1 0;
#X restore 1017 508 pd \$0-save;
#N canvas 172 163 368 286 \$0-setdir 0;
#X obj 114 116 makefilename %s/audio;
#X msg 114 142 set_directory \$1;
#X obj 114 92 symbol;
#X obj 114 53 inlet;
#X obj 114 181 outlet;
#X connect 0 0 1 0;
#X connect 1 0 4 0;
#X connect 2 0 0 0;
#X connect 3 0 2 0;
#X restore 739 148 pd \$0-setdir;
#X obj 64 284 t a;
#X obj 1173 572 t a;
#X obj 1102 634 t a;
#X obj 1102 425 t a;
#N canvas 194 214 509 358 \$0-params 0;
#X obj 62 28 inlet;
#X obj 62 262 outlet;
#X obj 62 76 route filename track-name;
#X obj 222 258 outlet;
#X obj 62 199 symbol;
#X obj 222 198 symbol;
#X obj 222 138 lzr/pp symbol;
#X obj 62 137 lzr/pp symbol;
#X connect 0 0 2 0;
#X connect 2 0 7 0;
#X connect 2 1 6 0;
#X connect 4 0 1 0;
#X connect 5 0 3 0;
#X connect 6 0 5 0;
#X connect 7 0 4 0;
#X restore 998 189 pd \$0-params;
#X obj 998 121 route \$2;
#X obj 998 143 route \$3;
#N canvas 339 175 622 446 \$0-midi 0;
#X obj 79 33 inlet;
#X obj 79 91 route midi-note midi-control;
#X obj 79 148 unpack f f;
#X obj 79 233 pack f f;
#X obj 79 367 outlet;
#X obj 79 288 lzr/pp midi-note;
#X obj 219 148 unpack f f;
#X obj 219 233 pack f f;
#X obj 219 288 lzr/pp midi-control;
#X connect 0 0 1 0;
#X connect 1 0 2 0;
#X connect 1 1 6 0;
#X connect 2 0 3 0;
#X connect 2 1 3 1;
#X connect 3 0 5 0;
#X connect 5 0 4 0;
#X connect 6 0 7 0;
#X connect 6 1 7 1;
#X connect 7 0 8 0;
#X connect 8 0 4 0;
#X restore 626 122 pd \$0-midi;
#N canvas 390 22 1184 918 \$0-playback-state 0;
#X msg 755 633 stop;
#X obj 811 700 tgl 15 0 empty empty empty 17 7 0 10 -262144 -1 -1 0
1;
#X msg 850 671 1;
#X msg 811 671 0;
#X obj 511 462 bng 15 250 50 0 empty empty empty 17 7 0 10 -262144
-1 -1;
#X obj 375 504 bng 15 250 50 0 empty empty empty 17 7 0 10 -262144
-1 -1;
#X obj 592 422 bng 15 250 50 0 empty empty empty 17 7 0 10 -262144
-1 -1;
#X msg 511 653 play;
#X obj 375 624 symbol;
#X msg 375 654 stop \, load \$1;
#X text 795 720 recording;
#X obj 488 368 sel 0 1;
#X obj 375 368 sel 0 1;
#X obj 488 344 change;
#X obj 375 344 change;
#X obj 375 318 int;
#X obj 488 320 int;
#X msg 414 598 symbol \$1;
#X text 589 401 record;
#X text 391 502 stop;
#X text 518 444 play;
#X obj 375 705 t a;
#X text 335 240 beat;
#X obj 329 270 t b b b;
#X obj 329 299 bng 15 250 50 0 empty empty empty 17 7 0 10 -262144
-1 -1;
#X obj 375 748 outlet;
#X text 372 772 to player;
#X obj 755 768 outlet;
#X text 724 802 to file recorder;
#X obj 956 728 outlet;
#X text 941 754 to unique filename;
#X text 944 771 generator;
#X text 539 171 from unique filename;
#X text 539 187 generator;
#X obj 651 453 lzr/func;
#X obj 612 621 t b s b;
#X msg 670 648 stop;
#X msg 670 677 open \$1;
#X msg 670 707 start;
#X obj 638 732 t a;
#X obj 651 530 t a b a;
#X obj 651 491 symbol;
#X obj 280 63 inlet;
#X text 362 138 record;
#X text 509 293 play;
#X obj 280 104 route stop beat record play filename;
#X obj 375 527 t b b;
#X obj 280 170 t b b;
#X msg 429 260 0;
#X connect 0 0 3 0;
#X connect 0 0 27 0;
#X connect 2 0 1 0;
#X connect 3 0 1 0;
#X connect 4 0 7 0;
#X connect 5 0 46 0;
#X connect 6 0 34 0;
#X connect 7 0 21 0;
#X connect 8 0 9 0;
#X connect 9 0 21 0;
#X connect 11 0 5 0;
#X connect 11 1 4 0;
#X connect 12 0 5 0;
#X connect 12 1 6 0;
#X connect 13 0 11 0;
#X connect 14 0 12 0;
#X connect 15 0 14 0;
#X connect 16 0 13 0;
#X connect 17 0 8 1;
#X connect 21 0 25 0;
#X connect 23 0 24 0;
#X connect 23 1 16 0;
#X connect 23 2 15 0;
#X connect 34 0 41 0;
#X connect 34 1 29 0;
#X connect 35 0 38 0;
#X connect 35 1 37 0;
#X connect 35 2 36 0;
#X connect 36 0 39 0;
#X connect 37 0 39 0;
#X connect 38 0 39 0;
#X connect 39 0 27 0;
#X connect 40 0 35 0;
#X connect 40 1 2 0;
#X connect 40 2 17 0;
#X connect 41 0 40 0;
#X connect 42 0 45 0;
#X connect 45 0 47 0;
#X connect 45 1 23 0;
#X connect 45 2 15 1;
#X connect 45 3 16 1;
#X connect 45 4 34 1;
#X connect 46 0 8 0;
#X connect 46 1 0 0;
#X connect 47 0 23 0;
#X connect 47 1 48 0;
#X connect 48 0 16 1;
#X connect 48 0 15 1;
#X restore 760 358 pd \$0-playback-state;
#X obj 739 547 t s s;
#X obj 930 636 t a;
#X obj 930 238 t a;
#N canvas 473 300 708 512 \$0-global-play 0;
#X msg 184 222 clip-play-button-pressed \$1 \$2;
#X obj 184 191 pack \$2 \$3;
#X text 194 253 Notify the transport module;
#X text 193 273 that the play button has;
#X text 194 293 been pressed. This will initiate;
#X text 194 313 the playing mode \, unless it was;
#X text 194 332 already on.;
#X obj 184 432 outlet;
#X obj 184 84 inlet;
#X text 152 26 bang when clip's play mode;
#X text 152 44 has been enabled by pressing;
#X text 151 62 the play button;
#X connect 0 0 7 0;
#X connect 1 0 0 0;
#X connect 8 0 1 0;
#X restore 1173 389 pd \$0-global-play;
#N canvas 304 265 401 255 \$0-argument-docs 0;
#X text 36 111 \$2: track number;
#X text 36 132 \$3: clip number;
#X text 64 92 that contains audio throws;
#X text 36 76 \$1: \$0 of a top level parent patch;
#X text 27 51 Abstraction arguments:;
#X restore 1244 70 pd \$0-argument-docs;
#X obj 92 364 t a;
#X obj 121 364 t a;
#X obj 146 340 r \$0-track-name.gui;
#X obj 89 247 t a;
#X obj 121 247 t a;
#X obj 148 279 s \$0-track-name.gui.set;
#X obj 64 728 t a;
#X obj 883 429 t a;
#X obj 235 484 t a;
#X obj 214 419 t a;
#X obj 215 398 t a;
#X obj 516 198 t a;
#X obj 739 41 inlet;
#X text 731 20 from global event bus;
#X obj 1173 723 outlet;
#X text 1174 756 to global event bus;
#X text 624 760 midi out;
#X text 619 14 midi in;
#X obj 998 166 route param;
#X msg 833 174 beat;
#X msg 516 223 record \$1;
#X msg 541 313 play \$1;
#X msg 814 279 filename \$1;
#X obj 739 96 route loading saving tick save-parameters clip stop,
f 56;
#X obj 25 488 t a;
#X obj 25 153 t a;
#X obj 89 218 t a a;
#X obj 89 120 t a a;
#X obj 1105 250 t b b;
#X msg 1137 291 stop;
#X connect 0 0 67 0;
#X connect 1 0 67 0;
#X connect 2 0 11 0;
#X connect 2 0 5 0;
#X connect 3 0 11 1;
#X connect 3 0 6 0;
#X connect 4 0 33 0;
#X connect 12 0 5 0;
#X connect 12 1 6 0;
#X connect 12 2 46 0;
#X connect 13 0 35 0;
#X connect 14 0 45 0;
#X connect 16 0 66 0;
#X connect 17 0 40 0;
#X connect 18 0 41 0;
#X connect 19 0 59 0;
#X connect 20 0 25 0;
#X connect 21 0 14 0;
#X connect 22 0 38 0;
#X connect 23 0 22 0;
#X connect 23 1 61 0;
#X connect 24 0 27 0;
#X connect 25 0 13 0;
#X connect 26 0 15 0;
#X connect 27 0 54 0;
#X connect 28 0 29 0;
#X connect 29 0 24 1;
#X connect 30 0 24 1;
#X connect 30 1 45 0;
#X connect 31 0 32 0;
#X connect 32 0 58 0;
#X connect 33 0 7 0;
#X connect 34 0 48 0;
#X connect 34 1 11 0;
#X connect 34 2 13 0;
#X connect 35 0 36 0;
#X connect 35 1 28 0;
#X connect 36 0 37 0;
#X connect 37 0 62 0;
#X connect 38 0 27 0;
#X connect 40 0 49 0;
#X connect 41 0 50 0;
#X connect 42 0 47 0;
#X connect 43 0 17 0;
#X connect 44 0 18 0;
#X connect 46 0 26 0;
#X connect 47 0 24 2;
#X connect 47 0 13 1;
#X connect 48 0 12 0;
#X connect 49 0 23 0;
#X connect 50 0 51 0;
#X connect 51 0 60 0;
#X connect 52 0 63 0;
#X connect 58 0 30 0;
#X connect 59 0 34 0;
#X connect 60 0 34 0;
#X connect 61 0 34 0;
#X connect 62 0 34 0;
#X connect 63 0 20 0;
#X connect 63 1 20 0;
#X connect 63 2 19 0;
#X connect 63 3 24 0;
#X connect 63 4 31 0;
#X connect 63 5 68 0;
#X connect 64 0 65 0;
#X connect 65 0 16 0;
#X connect 66 0 43 0;
#X connect 66 1 44 0;
#X connect 67 0 16 0;
#X connect 67 1 21 0;
#X connect 68 0 64 0;
#X connect 68 1 69 0;
#X connect 69 0 34 0;
#X coords 0 -1 1 1 172 35 1 100 300;
