#N canvas 431 29 1232 911 10;
#X obj 812 14 loadbang;
#X obj 18 12 inlet;
#X obj 10 573 iemguts/sendcanvas;
#X obj 438 124 t a;
#X obj 812 38 lzr/once;
#X obj 862 797 s \$0-shade-canvas;
#X obj 724 844 s \$0-border-canvas;
#X msg 1064 714 color \$1 0;
#X msg 897 764 color \$1 0;
#X msg 724 819 color \$1 0;
#X msg 364 752 color \$1 0;
#X obj 295 444 pack f f;
#X msg 1089 759 vis_size \$1 \$2;
#X obj 664 548 -;
#X obj 611 548 -;
#X obj 682 485 t a;
#X obj 611 711 pack f f;
#X msg 611 734 vis_size \$1 \$2;
#X obj 795 532 t f f;
#X obj 795 588 pack f f;
#X msg 795 613 pos \$1 \$2;
#X obj 491 678 - 2;
#X obj 544 679 - 2;
#X obj 491 707 pack f f;
#X msg 491 734 vis_size \$1 \$2;
#X obj 848 562 + 600;
#X obj 81 138 t b f;
#X obj 145 138 t b f;
#X obj 402 816 s \$0-inner-canvas;
#X obj 724 796 lzr/hexcolor;
#X obj 1064 816 s \$0-base-canvas;
#X obj 18 54 route loadbang width height levitation inner-color border-color
shade-color base-color, f 73;
#X obj 1064 688 lzr/hexcolor;
#X obj 897 741 lzr/hexcolor;
#X obj 364 726 lzr/hexcolor;
#X obj 0 600 cnv 4 1 1 empty \$0-base-canvas empty 20 12 0 14 -262144
-262144 0;
#X obj 0 600 cnv 4 1 1 empty \$0-shade-canvas empty 20 12 0 14 -87382
-262144 0;
#X obj 0 600 cnv 4 1 1 empty \$0-border-canvas empty 20 12 0 14 -1
-262144 0;
#X obj 1 601 cnv 4 1 1 empty \$0-inner-canvas empty 20 12 0 14 -262144
-262144 0;
#X obj 1064 322 lzr/default-s xFFFFFF;
#X obj 1064 296 symbol \$7;
#X obj 897 298 symbol \$6;
#X obj 724 350 lzr/default-s x000000;
#X obj 724 325 symbol \$5;
#X obj 543 378 lzr/default-s xFFFFFF;
#X obj 543 352 symbol \$4;
#X obj 720 144 f \$3;
#X obj 616 122 f \$1;
#X obj 666 129 f \$2;
#X obj 812 65 t b b b b b b b;
#X obj 145 268 t b b b;
#X obj 208 138 t b f;
#X obj 425 356 f;
#X obj 348 356 f;
#X obj 295 356 f;
#X msg 10 531 donecanvasdialog 0 0 2 0 0 1 1 \$1 \$2 0 600 \, dirty
0;
#X obj 897 324 lzr/default-s xA0A0A0;
#X connect 0 0 4 0;
#X connect 1 0 31 0;
#X connect 3 0 4 0;
#X connect 4 0 49 0;
#X connect 7 0 30 0;
#X connect 8 0 5 0;
#X connect 9 0 6 0;
#X connect 10 0 28 0;
#X connect 11 0 12 0;
#X connect 11 0 55 0;
#X connect 12 0 30 0;
#X connect 13 0 16 1;
#X connect 13 0 22 0;
#X connect 14 0 16 0;
#X connect 14 0 21 0;
#X connect 15 0 13 1;
#X connect 15 0 14 1;
#X connect 15 0 18 0;
#X connect 16 0 17 0;
#X connect 17 0 5 0;
#X connect 17 0 6 0;
#X connect 18 0 19 0;
#X connect 18 1 25 0;
#X connect 19 0 20 0;
#X connect 20 0 5 0;
#X connect 21 0 23 0;
#X connect 22 0 23 1;
#X connect 23 0 24 0;
#X connect 24 0 28 0;
#X connect 25 0 19 1;
#X connect 26 0 50 0;
#X connect 26 1 54 1;
#X connect 27 0 50 0;
#X connect 27 1 53 1;
#X connect 29 0 9 0;
#X connect 31 0 3 0;
#X connect 31 1 26 0;
#X connect 31 2 27 0;
#X connect 31 3 51 0;
#X connect 31 4 44 0;
#X connect 31 5 42 0;
#X connect 31 6 56 0;
#X connect 31 7 39 0;
#X connect 32 0 7 0;
#X connect 33 0 8 0;
#X connect 34 0 10 0;
#X connect 39 0 32 0;
#X connect 40 0 39 0;
#X connect 41 0 56 0;
#X connect 42 0 29 0;
#X connect 43 0 42 0;
#X connect 44 0 34 0;
#X connect 45 0 44 0;
#X connect 46 0 52 0;
#X connect 47 0 54 0;
#X connect 48 0 53 0;
#X connect 49 0 47 0;
#X connect 49 1 48 0;
#X connect 49 2 46 0;
#X connect 49 3 45 0;
#X connect 49 4 43 0;
#X connect 49 5 41 0;
#X connect 49 6 40 0;
#X connect 50 0 54 0;
#X connect 50 1 53 0;
#X connect 50 2 52 0;
#X connect 51 0 50 0;
#X connect 51 1 52 1;
#X connect 52 0 15 0;
#X connect 53 0 11 1;
#X connect 53 0 13 0;
#X connect 54 0 11 0;
#X connect 54 0 14 0;
#X connect 55 0 2 0;
#X connect 56 0 33 0;
#X coords 0 0 1 1 200 140 2 0 600;
