#N canvas 758 377 664 518 10;
#X msg 252 97 width \$1;
#X msg 341 91 height \$1;
#X floatatom 252 51 5 0 0 0 - - -, f 5;
#X floatatom 344 68 5 0 0 0 - - -, f 5;
#X msg 356 163 levitation \$1;
#X floatatom 354 134 5 0 0 0 - - -, f 5;
#X symbolatom 339 204 10 0 0 0 - - -, f 10;
#X symbolatom 31 203 10 0 0 0 - - -, f 10;
#X msg 32 231 shade-color \$1;
#X msg 318 226 inner-color \$1;
#X symbolatom 123 60 10 0 0 0 - - -, f 10;
#X msg 102 82 base-color \$1;
#X obj 204 286 lzr/shade 100 20 4 xFFFFFF x000000 xA0A0A0 xFFFFFF;
#X connect 0 0 12 0;
#X connect 1 0 12 0;
#X connect 2 0 0 0;
#X connect 3 0 1 0;
#X connect 4 0 12 0;
#X connect 5 0 4 0;
#X connect 6 0 9 0;
#X connect 7 0 8 0;
#X connect 8 0 12 0;
#X connect 9 0 12 0;
#X connect 10 0 11 0;
#X connect 11 0 12 0;
