#N struct 1007-template float w float h float w2 float h2 float border-color
float background-color float behind-color float shadow-color float
levitation;
#N canvas 338 54 1287 541 10;
#X obj 485 180 *~ 40;
#X obj 485 224 clip~ -0.5 0.5;
#X obj 485 77 inlet~;
#X obj 485 455 outlet~;
#X obj 696 182 *~ 40;
#X obj 696 226 clip~ -0.5 0.5;
#X obj 696 79 inlet~;
#X obj 696 455 outlet~;
#X obj 417 226 env~;
#X obj 417 248 - 100;
#X obj 635 224 env~;
#X obj 635 246 - 100;
#X obj 863 78 inlet;
#X obj 863 454 outlet;
#X obj 139 75 t a;
#X obj 228 75 t a;
#X obj 265 75 t a;
#X obj 139 305 t a;
#X obj 313 345 t a;
#X obj 313 122 t a;
#X obj 395 290 t a;
#X obj 395 28 t a;
#X obj 623 290 t a;
#X obj 623 28 t a;
#X obj 881 172 t a;
#X msg 863 300 param \$1;
#X obj 863 201 f;
#X obj 863 114 route save-params param;
#X obj 60 45 t a;
#X obj 60 419 t a;
#X obj 942 332 t a;
#X obj 100 100 lzr/border 190 190 5 999 0 555 999;
#X text 164 117 Fuzz;
#X floatatom 140 185 5 0 0 0 - - -, f 5;
#X obj 179 147 vu 15 120 empty empty -1 -8 0 10 -66577 -262144 1 0
;
#X obj 196 147 vu 15 120 empty empty -1 -8 0 10 -66577 -1 1 0;
#X obj 139 145 flatgui/knob 32 32 0 50 0 0 \$0-sdfjsdljsdflj \$0-sdjf83uinj92
empty 0 -8 0 8 -262144 -1 -1 200 1;
#X connect 0 0 1 0;
#X connect 0 0 8 0;
#X connect 1 0 3 0;
#X connect 2 0 0 0;
#X connect 4 0 5 0;
#X connect 4 0 10 0;
#X connect 5 0 7 0;
#X connect 6 0 4 0;
#X connect 8 0 9 0;
#X connect 9 0 20 0;
#X connect 10 0 11 0;
#X connect 11 0 22 0;
#X connect 12 0 27 0;
#X connect 14 0 36 0;
#X connect 15 0 34 1;
#X connect 16 0 35 1;
#X connect 17 0 18 0;
#X connect 18 0 19 0;
#X connect 19 0 0 1;
#X connect 19 0 4 1;
#X connect 19 0 24 0;
#X connect 20 0 21 0;
#X connect 21 0 15 0;
#X connect 22 0 23 0;
#X connect 23 0 16 0;
#X connect 24 0 26 1;
#X connect 25 0 13 0;
#X connect 26 0 25 0;
#X connect 27 0 26 0;
#X connect 27 1 30 0;
#X connect 28 0 14 0;
#X connect 29 0 28 0;
#X connect 30 0 29 0;
#X connect 36 0 33 0;
#X connect 36 0 17 0;
#X coords 0 -1 1 1 190 190 2 100 100;
