#N struct 1164-template float w float h float w2 float h2 float border-color
float background-color float behind-color float shadow-color float
levitation;
#N struct 1170-template float w float h float w2 float h2 float border-color
float background-color float behind-color float shadow-color float
levitation;
#N canvas 303 92 1158 771 10;
#X obj 409 86 tof/imagebang images/record.gif images/record-bang.gif
\$0-record-button-s \$0-record-button-r;
#X msg 111 385 play;
#X symbolatom 672 606 10 0 0 0 - - -, f 10;
#X obj 580 367 loadbang;
#X obj 561 367 bng 15 250 50 0 empty empty empty 17 7 0 10 -262144
-1 -1;
#X msg 184 366 pause;
#X msg 166 494 stop;
#X msg 295 446 record;
#X obj 111 225 spigot;
#X obj 184 283 spigot;
#X obj 264 333 spigot;
#X obj 295 397 spigot;
#X obj 240 196 unpack f f f f;
#X msg 737 60 0 1 1 0;
#X msg 655 122 1 0 0 1;
#X obj 672 630 bng 15 250 50 0 empty empty empty 17 7 0 10 -262144
-1 -1;
#X msg 706 92 1 0 1 0;
#X msg 593 152 0 0 1 0;
#X obj 111 644 outlet;
#X text 754 623 - stopped;
#X text 754 635 - playing;
#X text 754 648 - paused;
#X text 754 660 - recording;
#X text 749 607 transport status:;
#X obj 111 567 t a;
#X obj 62 48 route clip-play-button-pressed;
#X obj 809 514 t a;
#X obj 809 17 t a;
#X obj 304 45 t a;
#X msg 472 527 recording;
#X obj 672 577 symbol;
#X obj 472 448 t b b b;
#X msg 579 525 stopped;
#X obj 111 248 t b b;
#X obj 184 306 t b b;
#X obj 264 357 t b b;
#X obj 295 418 t b b;
#X obj 726 356 t b b b;
#X msg 726 531 paused;
#X obj 907 310 t b b b;
#X msg 907 535 playing;
#X text 439 93 <= deprecated;
#X obj 62 22 inlet;
#X text 43 5 from global event bus;
#X text 98 675 to global event bus;
#X obj 100 120 lzr/border 195 37 3 999 0 555 999;
#X obj 197 124 lzr/clock;
#X obj 107 122 tof/imagebang images/play.gif images/play-bang.gif \$0-play-button-s
\$0-play-button-r;
#X obj 137 122 tof/imagebang images/pause.gif images/pause-bang.gif
\$0-pause-button-s \$0-pause-button-r;
#X obj 167 122 tof/imagebang images/stop.gif images/stop-bang.gif \$0-stop-button-s
\$0-stop-button-r;
#X obj 579 394 t b b b;
#X msg 749 477 stop;
#X msg 645 483 start;
#X msg 930 377 start;
#X connect 0 0 11 0;
#X connect 1 0 24 0;
#X connect 2 0 15 0;
#X connect 3 0 50 0;
#X connect 4 0 50 0;
#X connect 5 0 24 0;
#X connect 6 0 24 0;
#X connect 7 0 24 0;
#X connect 8 0 33 0;
#X connect 9 0 34 0;
#X connect 10 0 35 0;
#X connect 11 0 36 0;
#X connect 12 0 8 1;
#X connect 12 1 9 1;
#X connect 12 2 10 1;
#X connect 12 3 11 1;
#X connect 13 0 12 0;
#X connect 14 0 12 0;
#X connect 16 0 12 0;
#X connect 17 0 12 0;
#X connect 24 0 18 0;
#X connect 25 0 8 0;
#X connect 26 0 27 0;
#X connect 27 0 28 0;
#X connect 28 0 46 0;
#X connect 29 0 30 0;
#X connect 30 0 2 0;
#X connect 31 0 29 0;
#X connect 31 1 52 0;
#X connect 31 2 17 0;
#X connect 32 0 30 0;
#X connect 33 0 1 0;
#X connect 33 1 39 0;
#X connect 34 0 5 0;
#X connect 34 1 37 0;
#X connect 35 0 6 0;
#X connect 35 1 50 0;
#X connect 36 0 7 0;
#X connect 36 1 31 0;
#X connect 37 0 38 0;
#X connect 37 1 51 0;
#X connect 37 2 16 0;
#X connect 38 0 30 0;
#X connect 39 0 40 0;
#X connect 39 1 53 0;
#X connect 39 2 13 0;
#X connect 40 0 30 0;
#X connect 42 0 25 0;
#X connect 47 0 8 0;
#X connect 48 0 9 0;
#X connect 49 0 10 0;
#X connect 50 0 32 0;
#X connect 50 1 51 0;
#X connect 50 2 14 0;
#X connect 51 0 26 0;
#X connect 52 0 26 0;
#X connect 53 0 26 0;
#X coords 0 -1 1 1 195 37 2 100 120;
