#N canvas 229 112 954 590 10;
#X obj 374 196 / 127;
#X obj 243 158 sel 0 b;
#X obj 243 387 vline~;
#X obj 243 270 pack f f;
#X obj 395 229 *;
#X obj 314 265 pack f f f f f;
#X msg 314 343 \$4 \$2 \, \$5 \$3 \$2;
#X msg 243 301 0 \$2;
#X obj 311 199 bng 15 250 50 0 empty empty empty 17 7 0 10 -262144
-1 -1;
#X obj 243 55 inlet;
#X obj 243 492 outlet~;
#X text 216 34 velocity;
#X obj 334 61 inlet;
#X obj 372 61 inlet;
#X obj 410 61 inlet;
#X obj 449 61 inlet;
#X text 329 39 A;
#X text 369 43 D;
#X text 406 42 S;
#X text 445 43 R;
#X text 324 301 bang a d v s*v;
#X text 324 316 1____2_3_4_5;
#X connect 0 0 4 0;
#X connect 0 0 5 3;
#X connect 1 0 3 0;
#X connect 1 2 5 0;
#X connect 1 2 0 0;
#X connect 2 0 10 0;
#X connect 3 0 7 0;
#X connect 4 0 5 4;
#X connect 5 0 6 0;
#X connect 6 0 2 0;
#X connect 7 0 2 0;
#X connect 8 0 5 0;
#X connect 9 0 1 0;
#X connect 12 0 5 1;
#X connect 13 0 5 2;
#X connect 14 0 4 1;
#X connect 15 0 3 1;
