#N canvas 72 139 588 595 10;
#X obj 106 108 vsl 30 120 0 120 0 1 empty empty empty 0 -9 0 10 -262144
-1 -1 11900 0;
#X obj 114 309 pack 0 50;
#X obj 115 350 line~;
#X obj 41 22 inlet~;
#X obj 49 415 *~;
#X obj 50 532 outlet~;
#X obj 275 41 inlet~;
#X obj 326 397 *~;
#X obj 240 541 outlet~;
#X obj 113 109 vu 8 120 empty empty 0 0 0 10 -1 -262144 1 0;
#X obj 120 109 vu 8 120 empty empty 0 0 0 10 -1 -262144 1 0;
#X obj 70 50 env~;
#X obj 96 73 - 100;
#X obj 189 41 env~;
#X obj 149 69 - 100;
#X obj 114 264 / 120;
#X connect 0 0 15 0;
#X connect 1 0 2 0;
#X connect 2 0 4 1;
#X connect 2 0 7 1;
#X connect 3 0 4 0;
#X connect 4 0 5 0;
#X connect 4 0 11 0;
#X connect 6 0 7 0;
#X connect 7 0 8 0;
#X connect 7 0 13 0;
#X connect 11 0 12 0;
#X connect 12 0 9 0;
#X connect 13 0 14 0;
#X connect 14 0 10 0;
#X connect 15 0 1 0;
#X coords 0 -1 1 1 43 135 2 100 100;
